<?xml version="1.0" encoding="UTF-8"?><svg xmlns="http://www.w3.org/2000/svg" viewBox="0 0 300.79 203.65"><g fill="none" isolation="isolate"><g id="a"><path d="m92.01,197.81s-43.17-55.43-42.26-82.87c.92-27.44,101.41-100.14,127.43-96.22s33.5,65.57,12.47,110.47c-21.03,44.9,30.29,12.47,34.92-14.61,4.63-27.08,52.74,33.16-10.69,83.22h-121.88Z" fill="#48c902"/><path d="m89.7,85.5c-3.31,0-6.58-.91-9.48-2.67-4.18-2.54-7.12-6.56-8.28-11.31-1.16-4.75-.4-9.67,2.14-13.86,2.54-4.18,6.56-7.12,11.31-8.28,4.75-1.16,9.67-.4,13.85,2.14,4.18,2.54,7.12,6.56,8.28,11.31,1.16,4.75.4,9.67-2.14,13.85-2.54,4.18-6.56,7.12-11.31,8.28-1.45.35-2.92.53-4.37.53Zm.06-35.4c-1.36,0-2.72.16-4.08.49-4.43,1.08-8.17,3.82-10.54,7.72-2.37,3.9-3.08,8.48-2,12.91,1.08,4.43,3.82,8.17,7.72,10.54,3.9,2.37,8.48,3.08,12.91,2,4.43-1.08,8.17-3.82,10.54-7.72h0c2.37-3.9,3.08-8.48,2-12.91-1.08-4.43-3.82-8.17-7.72-10.54-2.71-1.65-5.75-2.49-8.83-2.49Z" fill="#4c144d"/><path d="m89.71,81.85c-2.6,0-5.22-.69-7.6-2.13-3.35-2.04-5.71-5.26-6.64-9.07-.93-3.81-.32-7.75,1.72-11.1,4.2-6.92,13.25-9.12,20.17-4.92,6.92,4.2,9.12,13.25,4.92,20.17h0c-2.76,4.54-7.61,7.05-12.57,7.05Zm.05-28.1c-4.54,0-8.97,2.3-11.5,6.45-3.85,6.33-1.83,14.61,4.5,18.45,6.33,3.85,14.61,1.83,18.45-4.5,3.85-6.33,1.83-14.61-4.5-18.45-2.17-1.32-4.58-1.95-6.95-1.95Z" fill="#4c144d"/><path d="m100.31,73.62l-1.05-.67c.59-.92,1.03-1.91,1.33-2.95l1.2.34c-.33,1.15-.83,2.26-1.48,3.28Z" fill="#4c144d"/><path d="m102.17,67.37l-1.25-.02c.06-3.96-2-7.69-5.37-9.74l.65-1.07c3.75,2.28,6.04,6.43,5.97,10.82Z" fill="#4c144d"/><polygon points="80.44 88.45 74.69 84.95 77.58 80.19 78.65 80.84 76.4 84.53 80.02 86.73 82.23 83.11 83.29 83.76 80.44 88.45" fill="#4c144d"/><path d="m64.67,117.19l-8.24-5.01,17.66-29.05,8.24,5.01-17.66,29.05Zm-6.52-5.42l6.1,3.71,16.36-26.92-6.1-3.71-16.36,26.92Z" fill="#4c144d"/><path d="m226.61,99.3c-.12,0-.25-.01-.37-.05l-5-1.26c-.57-.14-1.01-.61-1.11-1.19l-.34-1.9,9.2,2.33-1.21,1.51c-.29.36-.73.56-1.18.56Zm-5.06-2.52l5,1.26c.09.02.19,0,.26-.08l-5.44-1.38c.02.09.09.17.19.19h0Z" fill="#9bd"/><path d="m228.42,98.26c-.28,0-.57-.03-.85-.11l-6.97-1.76c-.98-.25-1.8-.91-2.25-1.81l-1.48-2.96c-.37-.74-.46-1.59-.26-2.4l1.93-7.62,17.87,4.52-1.93,7.62c-.2.8-.69,1.51-1.37,1.99l-2.71,1.9c-.59.41-1.29.63-1.99.63Zm-8.97-15.14l-1.62,6.41c-.13.51-.07,1.06.17,1.53l1.48,2.96c.29.58.81,1,1.44,1.16l6.97,1.76c.63.16,1.29.04,1.82-.34l2.71-1.9c.43-.31.74-.76.87-1.27l1.62-6.41-15.45-3.91Z" fill="#9bd"/><path d="m235.67,87.16c-.16,0-.32-.02-.49-.06-5.5-.61-10.91-1.98-16.09-4.07-1.08-.3-1.77-1.38-1.58-2.48h0c.81-4.85-.12-6.78-1.53-9.71-.69-1.44-1.48-3.07-2.24-5.36l-.04-.13c-.04-.12-.08-.24-.12-.37l-.03-.1c-.03-.11-.07-.22-.1-.34-.01-.05-.03-.1-.04-.14-.03-.12-.07-.24-.1-.36l-.02-.08c-.04-.14-.07-.29-.1-.43l-.03-.14c-.02-.11-.05-.22-.07-.33l-.03-.13c-.03-.14-.06-.29-.08-.44l-.02-.1c-.02-.12-.04-.24-.06-.36l-.02-.14c-.02-.13-.04-.26-.06-.4v-.06c-.03-.15-.04-.3-.06-.45v-.13c-.03-.12-.04-.24-.05-.35v-.12c-.02-.15-.03-.3-.04-.46v-.1c-.01-.12-.02-.25-.02-.37v-.13c0-.14-.01-.29-.01-.43v-.04c0-.15,0-.31,0-.46v-.13c0-.12.01-.25.02-.37v-.11c.01-.16.02-.31.03-.47v-.1c.02-.13.03-.25.04-.38v-.13c.03-.15.04-.31.06-.46v-.02c.02-.16.04-.31.07-.47l.02-.13c.02-.13.04-.25.06-.38l.02-.11c.03-.16.06-.31.09-.47l.02-.1c.03-.13.05-.26.08-.39l.03-.13c.04-.16.07-.32.11-.47.04-.17.09-.35.14-.52,0-.03.02-.06.03-.1l.03-.09c.03-.11.06-.21.09-.32.01-.04.03-.08.04-.13l.04-.12c.03-.09.05-.17.08-.26.02-.05.03-.1.05-.15l.04-.11c.03-.08.06-.16.08-.24.02-.05.04-.1.05-.15l.04-.12c.03-.08.06-.15.09-.23.02-.06.04-.11.07-.17l.03-.07c.03-.08.07-.17.1-.25.02-.06.05-.11.07-.17l.03-.07c.03-.08.07-.16.1-.24.03-.06.06-.12.08-.18l.02-.03c.04-.08.08-.17.12-.25.03-.07.07-.14.11-.22.04-.08.08-.17.12-.25.04-.07.07-.14.11-.21.04-.08.09-.16.13-.24.04-.07.08-.14.12-.21.04-.08.09-.16.13-.24.04-.07.08-.14.12-.21.05-.08.09-.16.14-.23.04-.07.08-.14.13-.2.05-.08.1-.15.14-.23.04-.07.09-.13.13-.2.05-.08.1-.15.15-.23.04-.07.09-.13.13-.2.05-.07.1-.15.15-.22.05-.06.09-.13.14-.19.05-.07.11-.14.16-.22.05-.06.09-.13.14-.19.05-.07.11-.14.17-.21v-.02c.06-.06.1-.11.15-.17.05-.06.1-.13.16-.19l.04-.04c.04-.05.08-.1.13-.15.05-.06.11-.12.16-.19l.05-.06s.08-.09.12-.14c.05-.06.1-.11.15-.17l.07-.08s.08-.08.12-.13c.05-.05.1-.11.15-.16l.08-.09s.07-.08.11-.12c.05-.05.11-.11.16-.16l.09-.09s.07-.07.1-.1c.06-.05.11-.11.17-.16l.1-.1s.06-.06.09-.09c.07-.07.15-.14.23-.21l.07-.06s.05-.05.07-.07c.12-.11.25-.22.38-.33.02-.02.04-.03.06-.05l.04-.03c.1-.08.19-.16.29-.24.03-.03.07-.05.1-.08l.1-.08c.07-.05.13-.1.2-.15.04-.03.08-.06.11-.09l.11-.08c.06-.04.12-.09.17-.13.04-.03.08-.06.13-.09l.1-.07c.06-.04.12-.09.18-.13.05-.03.09-.06.14-.1l.08-.05c.06-.04.13-.09.19-.13.05-.03.1-.06.14-.09l.08-.05c.06-.04.13-.08.19-.13.05-.03.11-.07.16-.1l.06-.04c.07-.04.14-.09.21-.13.06-.04.12-.07.18-.11h.02c.07-.06.15-.1.23-.14.07-.04.14-.08.21-.12.08-.04.15-.08.23-.12.07-.04.14-.08.21-.11.08-.04.15-.08.23-.12.07-.04.14-.07.22-.11.08-.04.15-.08.23-.11.07-.03.15-.07.22-.1.08-.04.16-.07.23-.11.07-.03.15-.07.22-.1.08-.03.16-.07.24-.1.07-.03.15-.06.22-.09.08-.03.16-.06.24-.1.07-.03.15-.06.23-.09.08-.03.16-.06.24-.09.08-.03.15-.06.23-.08.08-.03.16-.06.24-.08.08-.03.15-.05.23-.08.08-.03.16-.05.24-.08h.02c.07-.03.14-.05.21-.07.08-.02.16-.05.23-.07l.06-.02c.06-.02.12-.04.19-.05.08-.02.15-.04.23-.06l.08-.02c.06-.02.12-.03.18-.05.07-.02.14-.03.21-.05l.1-.02c.06-.01.12-.03.18-.04.07-.02.14-.03.2-.04l.12-.03c.06-.01.11-.02.17-.04.07-.01.14-.03.21-.04l.13-.03c.05-.01.1-.02.16-.03.07-.01.14-.02.21-.04l.14-.02s.1-.02.15-.02c.08-.01.17-.02.25-.04l.13-.02s.08-.01.12-.02c.17-.02.33-.04.5-.06.04,0,.09,0,.13-.01h.13c.08-.02.16-.03.24-.03.05,0,.1,0,.16-.01h.14c.07-.01.14-.02.21-.02.06,0,.11,0,.17,0h.14c.07,0,.14-.01.21-.01.06,0,.12,0,.18,0h.12c.07,0,.14,0,.21,0,.06,0,.12,0,.19,0h.11c.07,0,.15,0,.22,0,.07,0,.13,0,.2,0h.09c.08,0,.15,0,.23.01.07,0,.15,0,.22.01h.05c.08,0,.16.01.24.02.08,0,.15.01.23.02h.04c.08.01.17.02.25.02.08,0,.17.02.25.03.09,0,.18.02.26.03.09.01.17.02.26.03.09.01.17.02.26.04.09.01.17.03.26.04.09.01.17.03.26.04.09.01.17.03.26.05h.05s.05.02.08.02c.02,0,.05,0,.07.01h.04c.11.03.22.05.33.08.08.02.16.03.23.05.11.02.21.05.32.07h.04c.06.03.13.04.19.06l.08.02c.06.01.11.03.17.04l.14.04s.1.03.15.04c.14.04.29.08.43.13l.1.03c10.27,3.12,16.57,13.45,14.66,24.01l-.02.1c-.03.14-.05.28-.08.42-.01.06-.03.13-.04.19-.02.11-.05.23-.08.34-.02.08-.04.16-.06.23v.05s-.03.06-.03.08c0,.04-.02.07-.03.11l-.02.06c-.02.08-.04.16-.06.24-.03.11-.06.21-.09.32v.04c-.03.06-.05.12-.07.19-.04.12-.07.24-.11.35l-.02.06s-.02.06-.03.09l-.06.17c-.04.13-.09.26-.14.39l-.02.06c-.05.14-.11.29-.16.43l-.04.11c-.05.14-.11.28-.17.41l-.04.09c-.05.12-.1.24-.16.36l-.04.09c-.06.13-.12.27-.19.4l-.05.11c-.07.13-.13.27-.2.4l-.03.05c-.06.12-.13.24-.19.36l-.06.1c-.07.13-.14.25-.21.38l-.06.1c-.06.11-.13.22-.2.33l-.05.08c-.08.12-.15.25-.23.37l-.07.11c-.08.12-.16.24-.24.36l-.05.07c-.07.1-.14.21-.22.31l-.07.1c-.08.11-.17.23-.25.34l-.08.1c-.08.1-.16.2-.24.3l-.05.07c-.08.11-.17.21-.26.32l-.08.1c-.09.11-.18.21-.27.32l-.08.09c-.08.09-.16.18-.24.26l-.08.08c-.09.1-.19.2-.28.3l-.1.1c-.1.1-.19.19-.29.29l-.1.09s-.09.09-.14.13l-.17.16c-1.77,1.67-3.26,2.74-4.57,3.68-2.65,1.9-4.41,3.16-5.98,7.78-.31.9-1.17,1.49-2.08,1.49Zm-16.92-6.39c-.08.48.23.95.7,1.07h.04s.04.03.04.03c5.1,2.06,10.42,3.41,15.83,4h.04s.04.02.04.02c.47.12.97-.15,1.13-.61,1.7-5,3.69-6.42,6.44-8.39,1.28-.92,2.74-1.96,4.44-3.57l.16-.15s.09-.08.13-.12l.09-.09c.09-.09.18-.18.27-.27l.09-.09c.09-.09.18-.19.27-.28l.07-.08c.07-.08.15-.16.22-.25l.07-.08c.09-.1.17-.2.26-.3l.08-.1c.08-.1.16-.2.24-.3l.05-.06c.08-.09.15-.19.22-.29l.07-.1c.08-.11.16-.21.24-.32l.06-.09c.07-.1.14-.19.2-.29l.05-.07c.08-.11.15-.22.22-.34l.06-.1c.07-.11.15-.23.22-.35l.04-.07c.06-.1.12-.21.18-.31l.05-.09c.07-.12.14-.24.2-.36l.05-.1c.06-.11.12-.23.18-.34l.02-.05c.06-.12.13-.25.19-.37l.05-.1c.06-.12.12-.25.18-.38l.04-.09c.05-.11.1-.23.15-.34l.04-.08c.05-.13.11-.26.16-.39l.04-.11c.05-.13.1-.27.15-.4l.02-.06c.04-.12.09-.25.13-.37l.05-.16s.01-.04.02-.07l.02-.07c.04-.11.07-.22.1-.33.02-.06.03-.12.05-.17v-.04c.04-.1.07-.2.1-.3.02-.08.04-.15.06-.23l.02-.07s.02-.06.02-.09c0-.02.01-.04.02-.06l.02-.07c.02-.07.04-.15.05-.22.03-.11.05-.21.07-.32.01-.06.03-.12.04-.18.03-.13.05-.27.08-.4l.02-.1c1.8-9.94-4.13-19.65-13.79-22.59l-.09-.03c-.13-.04-.27-.08-.41-.12-.04-.01-.09-.02-.13-.04l-.15-.04s-.1-.03-.15-.04l-.08-.02c-.06-.01-.12-.03-.18-.04h-.04c-.1-.03-.2-.06-.3-.08-.07-.02-.15-.03-.22-.05-.11-.02-.21-.04-.31-.06l-.23-.04c-.08-.01-.16-.03-.24-.04-.08-.01-.16-.03-.25-.04-.08-.01-.16-.02-.24-.04-.08-.01-.16-.02-.25-.03-.08-.01-.16-.02-.24-.03-.08,0-.16-.02-.25-.03-.08,0-.16-.02-.24-.02-.08,0-.16-.01-.24-.02h-.04c-.07,0-.14-.01-.21-.02-.08,0-.15,0-.23-.01h-.05c-.07,0-.14-.01-.2-.01-.07,0-.14,0-.21,0h-.09c-.06,0-.12,0-.19,0-.07,0-.13,0-.2,0h-.11c-.06,0-.11,0-.17,0-.07,0-.13,0-.2,0h-.12c-.05,0-.11,0-.16,0-.06,0-.13,0-.19,0h-.14s-.1.01-.15.01c-.06,0-.13,0-.19.01h-.15s-.09.02-.14.02c-.07,0-.15.01-.22.02h-.14s-.08.02-.11.02c-.16.02-.31.03-.47.05-.04,0-.07,0-.1.01l-.14.02c-.08.01-.15.02-.23.03-.04,0-.09.01-.13.02l-.15.02c-.06.01-.13.02-.19.03-.05,0-.09.02-.14.03l-.14.03c-.06.01-.13.02-.19.04-.05.01-.1.02-.15.03l-.12.03c-.06.01-.13.03-.19.04-.05.01-.11.03-.16.04l-.11.03c-.06.02-.13.03-.19.05-.05.01-.11.03-.16.04l-.08.02c-.07.02-.14.04-.21.06-.06.02-.11.03-.17.05l-.06.02c-.07.02-.15.04-.22.06-.07.02-.13.04-.2.06h-.02c-.08.03-.16.06-.23.08-.07.02-.14.05-.22.07-.08.03-.15.05-.23.08-.07.03-.14.05-.21.08-.08.03-.15.06-.23.09-.07.03-.14.05-.21.08-.08.03-.15.06-.22.09-.07.03-.14.06-.21.09-.07.03-.15.06-.22.1-.07.03-.14.06-.21.09-.07.03-.15.07-.22.1-.07.03-.14.06-.21.1-.07.03-.15.07-.22.11-.07.03-.14.07-.2.1-.07.04-.14.07-.22.11-.07.04-.13.07-.2.11-.07.04-.14.08-.21.12-.07.04-.13.07-.2.11-.07.04-.14.08-.21.12h-.02c-.06.05-.11.08-.17.11-.07.04-.13.08-.19.12l-.06.04s-.1.06-.15.09c-.06.04-.12.08-.18.12l-.08.05s-.09.06-.13.09c-.06.04-.12.08-.18.12l-.08.06s-.08.06-.13.09c-.06.04-.11.08-.17.12l-.1.07s-.08.05-.11.08c-.05.04-.11.08-.16.12l-.11.09s-.07.05-.1.08c-.06.05-.12.1-.18.14l-.1.08s-.06.04-.09.07c-.09.08-.18.15-.27.23l-.09.07c-.12.1-.24.2-.35.31-.02.02-.04.04-.06.06l-.07.07c-.07.06-.14.13-.21.19-.03.03-.06.05-.08.08l-.1.1c-.05.05-.1.1-.15.15-.03.03-.06.06-.09.09l-.09.09s-.1.1-.15.15c-.03.03-.07.07-.1.1l-.08.09s-.09.1-.14.15c-.04.04-.07.08-.11.12l-.07.08c-.05.05-.1.11-.14.16-.04.04-.07.08-.11.13l-.05.06c-.05.06-.1.12-.15.17-.04.05-.08.1-.12.14l-.04.04c-.05.06-.1.12-.15.18-.04.05-.08.1-.12.16v.02c-.07.07-.12.13-.17.2-.04.06-.09.12-.13.18-.05.07-.1.14-.15.2-.04.06-.09.12-.13.18-.05.07-.1.14-.15.21-.04.06-.08.12-.13.19-.05.07-.09.14-.14.21-.04.06-.08.13-.12.19-.05.07-.09.14-.14.22-.04.06-.08.13-.12.19-.04.07-.09.15-.13.22-.04.06-.08.13-.11.2-.04.07-.08.15-.13.22-.04.07-.07.13-.11.2-.04.08-.08.15-.12.23-.03.07-.07.13-.1.2-.04.08-.08.15-.12.23-.03.07-.07.14-.1.2-.04.08-.07.16-.11.24l-.02.03c-.03.06-.05.11-.08.17-.03.07-.07.15-.1.22l-.03.07c-.02.05-.05.1-.07.16-.03.08-.06.16-.1.23l-.03.07c-.02.05-.04.1-.06.15-.03.07-.05.14-.08.21l-.04.12s-.03.09-.05.13c-.03.07-.05.15-.08.22l-.04.11s-.03.09-.04.13c-.03.08-.05.16-.08.24l-.04.13s-.02.07-.03.11c-.03.1-.06.2-.09.3l-.03.1s-.02.05-.02.08c-.05.16-.09.32-.13.49-.04.15-.07.3-.11.45l-.03.12c-.03.12-.05.24-.08.36l-.02.1c-.03.15-.06.3-.08.44l-.02.1c-.02.12-.04.24-.06.36l-.02.12c-.02.15-.04.3-.06.45v.02c-.02.14-.03.28-.05.43v.12c-.02.12-.03.24-.04.36v.09c-.02.15-.03.29-.03.44v.11c0,.12-.01.23-.02.35v.12c0,.15,0,.29,0,.44v.03c0,.14,0,.27,0,.41v.13c0,.12.01.23.02.35v.09c.01.14.02.29.03.43v.11c.02.11.03.22.04.33v.12c.03.14.04.28.06.42v.05c.02.13.04.25.06.38l.02.13c.02.11.04.22.06.34l.02.09c.02.14.05.28.08.41l.03.12c.02.1.04.21.07.31l.03.13c.03.14.06.27.1.4l.02.08c.03.11.06.23.09.34.01.05.03.09.04.13.03.11.06.21.09.32l.03.1c.04.12.07.23.11.34l.04.12c.74,2.21,1.51,3.81,2.18,5.21,1.46,3.03,2.52,5.22,1.64,10.46h0Z" fill="#4c144d"/><path d="m230.58,85.86l-1.21-.31s1.26-4.93,2.94-10.01c.99-2.99,1.95-5.47,2.83-7.37.04-.1.09-.19.13-.28-1.39-.19-3.08-.61-5.13-1.37-.53-.2-1.03-.4-1.48-.6-.02.86-.12,1.8-.29,2.8-2.25,13.18-2.95,15.76-2.98,15.86l-1.2-.33s.73-2.69,2.95-15.74c.21-1.23.29-2.29.27-3.2-3.11-1.65-3.97-3.33-3.62-4.48.25-.81,1.09-1.24,2.01-1.03,1,.24,1.86,1.14,2.36,2.49.24.66.4,1.4.47,2.23.57.27,1.22.55,1.96.83,2.13.79,3.88,1.21,5.29,1.36.88-1.62,1.69-2.64,2.46-3.07,1.3-.74,2.32-.41,2.84.15.62.67.66,1.69.09,2.55-.35.52-1.45,1.68-4.29,1.68-.12,0-.24,0-.37,0-.84,1.69-1.87,4.19-3.11,7.92-1.67,5.04-2.91,9.88-2.92,9.93Zm9.22-21.4c-.24,0-.53.09-.84.26-.36.2-.92.73-1.68,2.05,1.59-.04,2.55-.52,2.96-1.13.28-.42.22-.8.04-1-.11-.12-.28-.18-.48-.18Zm-14.46-3.46c-.15,0-.3.05-.34.2-.13.42.38,1.43,2.27,2.6-.32-1.75-1.08-2.61-1.75-2.77-.06-.01-.12-.02-.19-.02Z" fill="#4c144d"/><rect x="225.98" y="78.67" width="1.25" height="17.32" transform="translate(62.89 266.7) rotate(-68.69)" fill="#9bd"/><rect x="225.55" y="80.39" width="1.25" height="17.32" transform="translate(61.02 267.39) rotate(-68.69)" fill="#9bd"/><rect x="225.11" y="82.1" width="1.25" height="17.32" transform="translate(59.14 268.08) rotate(-68.69)" fill="#9bd"/><rect x="224.3" y="84.08" width="1.25" height="16.5" transform="translate(57.16 268.32) rotate(-68.69)" fill="#9bd"/><rect x="259.79" y="62.18" width="1.25" height="6.62" transform="translate(133.1 301.91) rotate(-75.81)" fill="#4c144d"/><rect x="256.9" y="50.67" width="6.62" height="1.25" transform="translate(-4.13 72.84) rotate(-15.81)" fill="#4c144d"/><rect x="249.63" y="38.47" width="6.62" height="1.25" transform="translate(48.61 193.23) rotate(-45.81)" fill="#4c144d"/><rect x="237.24" y="31.55" width="6.62" height="1.25" transform="translate(150.4 257.5) rotate(-75.81)" fill="#4c144d"/><rect x="225.73" y="29.06" width="1.25" height="6.62" transform="translate(-.26 62.9) rotate(-15.81)" fill="#4c144d"/><rect x="213.53" y="36.34" width="1.25" height="6.62" transform="translate(36.46 165.58) rotate(-45.81)" fill="#4c144d"/><rect x="206.61" y="48.73" width="1.25" height="6.62" transform="translate(105.98 240.2) rotate(-75.81)" fill="#4c144d"/><path d="m203.59,31.93c-2.05,0-3.71-1.67-3.71-3.71s1.67-3.71,3.71-3.71,3.71,1.67,3.71,3.71-1.67,3.71-3.71,3.71Zm0-6.18c-1.36,0-2.46,1.11-2.46,2.46s1.11,2.46,2.46,2.46,2.46-1.11,2.46-2.46-1.11-2.46-2.46-2.46Z" fill="#4c144d"/><path d="m92.23,120.07c-2.05,0-3.71-1.67-3.71-3.71s1.67-3.71,3.71-3.71,3.71,1.67,3.71,3.71-1.67,3.71-3.71,3.71Zm0-6.18c-1.36,0-2.46,1.11-2.46,2.46s1.11,2.46,2.46,2.46,2.46-1.11,2.46-2.46-1.11-2.46-2.46-2.46Z" fill="#9bd"/><path d="m129.67,27.34c-1.62,0-2.94-1.32-2.94-2.94s1.32-2.94,2.94-2.94,2.94,1.32,2.94,2.94-1.32,2.94-2.94,2.94Zm0-4.62c-.93,0-1.69.76-1.69,1.69s.76,1.69,1.69,1.69,1.69-.76,1.69-1.69-.76-1.69-1.69-1.69Z" fill="#4c144d"/><path d="m25.42,196.6s-4.63-2.55-9.2-5.77c-6.26-4.41-9.51-7.98-9.67-10.62-.06-1.06.2-1.89.79-2.47,1.2-1.19,3.44-1.02,5.41-.88,1.26.09,2.83.21,3.16-.22.11-.14.09-.47-.05-.91-.56-1.66-1.58-2.77-3.05-3.28-1.87-.65-4.31-.23-6.37,1.11-1.01.66-1.85.45-2.37.16-1.7-.95-2.56-4.18-2.5-6.74.05-2.11.67-3.58,1.76-4.12,1.36-.68,3.19-.37,4.8-.1.99.17,2.35.4,2.62.1.08-.09.11-.42-.07-1.04-.68-2.23-3.24-3.79-5.49-4.36-1.49-.38-2.36-.21-2.56-.01-.26.26-.63.32-.94.15-.6-.32-1-1.66-1.2-4-.11-1.33-.22-3.99.32-6.82.88-4.56,2.99-7.16,6.11-7.51,2.46-.27,5.04.33,7.45,1.76,1.98,1.17,3.8,2.85,5.11,4.74,1.45,2.08,1.99,3.99,1.43,5.1-.59,1.18-1.25,2.56-1.71,3.87-.72,2.07-.48,2.73-.34,2.91.13.17.42.23.87.16,1.57-.24,2.26-1.1,2.93-1.93.7-.87,1.49-1.86,3.15-1.63,1.62.22,3.77,2.06,5.22,4.47.76,1.26,1.92,3.7,1.14,5.81-.52,1.42-1.3,2.48-1.99,3.41-1.01,1.36-1.74,2.35-1.37,3.9.02.1.05.15.06.18.09-.01.36-.08.96-.54.55-.41,1.17-.98,1.82-1.59,1.9-1.75,3.69-3.4,4.95-2.44,1.29.98,2.59,6.06,3.2,10.57.52,3.82,1.13,11.26-.66,18.19l-1.21-.31c1.73-6.73,1.14-13.98.63-17.71-.75-5.51-2.09-9.26-2.72-9.75-.07-.05-.38-.04-1.06.42-.69.47-1.5,1.22-2.29,1.94-1.84,1.69-3.01,2.71-4.01,2.41-.31-.1-.72-.36-.89-1.09-.5-2.12.51-3.48,1.58-4.93.67-.91,1.36-1.84,1.83-3.1.44-1.19.06-2.91-1.04-4.73-1.23-2.05-3.09-3.71-4.32-3.88-.92-.12-1.3.3-2.01,1.18-.74.93-1.67,2.08-3.72,2.38-1.18.18-1.77-.26-2.06-.66-1.09-1.5.37-4.93,1.95-8.08.27-.53-.04-1.96-1.34-3.83-2.33-3.34-6.76-6.48-11.4-5.97-1.88.21-3.3,1.48-4.24,3.78-1.09,2.67-1.2,5.91-1.17,7.6.04,2.19.33,3.7.56,4.35,1.01-.48,2.58-.17,3.28,0,2.39.6,5.5,2.33,6.38,5.21.31,1.01.25,1.74-.18,2.23-.72.82-2.13.59-3.76.31-1.43-.24-3.05-.51-4.04-.02-.62.31-1.03,1.47-1.07,3.03-.06,2.46.8,5.03,1.86,5.63.21.12.55.23,1.08-.11,2.37-1.54,5.23-2.02,7.46-1.24,1.82.64,3.14,2.04,3.82,4.06.29.87.24,1.57-.14,2.07-.74.95-2.36.83-4.24.7-1.71-.12-3.64-.26-4.44.52-.33.32-.46.81-.42,1.5.28,4.54,13.25,12.64,18.23,15.37l-.6,1.09Z" fill="#4c144d"/><path d="m31.72,196.29c-.13-.32-13.03-32.03-23.73-47.3l1.02-.72c10.79,15.39,23.74,47.23,23.87,47.55l-1.16.47Z" fill="#4c144d"/><path d="m275.37,198.33l-.6-1.09c4.98-2.74,17.96-10.83,18.23-15.37.04-.69-.1-1.18-.42-1.5-.8-.79-2.73-.65-4.44-.52-1.88.14-3.5.25-4.24-.7-.39-.5-.44-1.2-.14-2.07.68-2.02,2-3.42,3.82-4.06,2.23-.78,5.09-.3,7.46,1.24.53.35.87.23,1.08.11,1.06-.59,1.91-3.17,1.86-5.63-.03-1.56-.44-2.72-1.07-3.03-.99-.5-2.61-.22-4.04.02-1.63.27-3.04.51-3.76-.31-.43-.49-.49-1.22-.18-2.23.88-2.88,3.98-4.6,6.37-5.21.7-.18,2.27-.48,3.28,0,.22-.64.52-2.16.56-4.35.03-1.69-.08-4.93-1.17-7.6-.94-2.3-2.36-3.57-4.24-3.78-4.64-.52-9.07,2.63-11.4,5.97-1.3,1.87-1.61,3.29-1.34,3.83,1.57,3.15,3.04,6.57,1.95,8.08-.29.4-.88.84-2.06.66-2.05-.31-2.98-1.46-3.72-2.38-.71-.88-1.09-1.3-2.01-1.18-1.23.17-3.09,1.83-4.32,3.88-1.1,1.82-1.48,3.55-1.04,4.73.46,1.25,1.16,2.19,1.83,3.1,1.07,1.45,2.08,2.81,1.58,4.93-.17.73-.58,1-.89,1.09-1,.31-2.18-.71-4.01-2.41-.79-.73-1.6-1.48-2.29-1.94-.67-.46-.99-.47-1.06-.42-.64.48-1.97,4.23-2.72,9.75-.51,3.73-1.1,10.99.63,17.71l-1.21.31c-1.79-6.93-1.18-14.37-.66-18.19.62-4.51,1.91-9.59,3.2-10.57,1.26-.96,3.05.69,4.95,2.44.66.61,1.28,1.18,1.82,1.59.6.45.87.53.96.54.02-.03.04-.08.06-.18.37-1.55-.36-2.54-1.37-3.9-.69-.93-1.47-1.99-1.99-3.41-.78-2.11.38-4.55,1.14-5.81,1.45-2.42,3.6-4.25,5.22-4.47,1.66-.22,2.45.76,3.15,1.63.67.83,1.36,1.7,2.93,1.93.45.07.74.01.87-.16.14-.19.37-.84-.34-2.91-.46-1.32-1.12-2.7-1.71-3.87-.56-1.11-.02-3.02,1.43-5.1,1.31-1.88,3.13-3.56,5.11-4.74,2.41-1.42,4.99-2.03,7.45-1.76,3.12.35,5.23,2.94,6.11,7.51.54,2.83.44,5.49.32,6.82-.2,2.33-.6,3.68-1.2,4-.31.17-.68.11-.94-.15-.2-.2-1.07-.36-2.56.01-2.24.57-4.81,2.13-5.49,4.36-.19.62-.16.95-.07,1.04.26.3,1.62.07,2.62-.1,1.62-.27,3.45-.58,4.8.1,1.09.54,1.71,2.01,1.76,4.12.06,2.56-.8,5.8-2.5,6.74-.52.29-1.36.5-2.37-.16-2.06-1.34-4.5-1.76-6.37-1.11-1.46.51-2.49,1.61-3.05,3.28-.15.43-.17.77-.05.91.33.42,1.9.31,3.16.22,1.97-.14,4.21-.31,5.41.88.59.58.85,1.41.79,2.47-.16,2.64-3.41,6.21-9.67,10.62-4.57,3.22-9.16,5.75-9.2,5.77Z" fill="#4c144d"/><path d="m269.07,198.01l-1.16-.47c.13-.32,13.08-32.16,23.87-47.55l1.02.72c-10.71,15.27-23.6,46.98-23.73,47.3Z" fill="#4c144d"/><path d="m199.99,64.45c-2.05,0-3.71-1.67-3.71-3.71s1.67-3.71,3.71-3.71,3.71,1.67,3.71,3.71-1.67,3.71-3.71,3.71Zm0-6.18c-1.36,0-2.46,1.11-2.46,2.46s1.11,2.46,2.46,2.46,2.46-1.11,2.46-2.46-1.11-2.46-2.46-2.46Z" fill="#4c144d"/><path d="m147.98,69.64l-20.98-4.14-10.11-35.25,29.83,3.76,1.27,35.63Zm-19.99-5.22l18.69,3.69-1.17-32.99-26.89-3.39,9.38,32.7Z" fill="#4c144d"/><path d="m150.53,69.54l-1.56-35.62,29.44-6.11-7.29,35.94-20.59,5.79Zm-.26-34.61l1.44,32.98,18.34-5.15,6.76-33.33-26.54,5.51Z" fill="#4c144d"/><path d="m146.87,69.52l-1.41-35.55,4.76-.19,1.41,35.55-4.76.19Zm-.11-34.35l1.31,33.06,2.26-.09-1.31-33.06-2.26.09Z" fill="#4c144d"/><path d="m147.24,34.52l-.1-2.6.27-.2c.09-.07,2.24-1.61,6.42-3.05,3.82-1.31,10.14-2.77,18.56-2.26h.17s2.64,1.79,2.64,1.79l-.7,1.04-2.36-1.59c-8.09-.47-14.16.92-17.84,2.18-3.2,1.09-5.19,2.27-5.88,2.72l.08,1.92-1.25.05Z" fill="#4c144d"/><path d="m147.24,34.52l-.08-1.92c-.72-.39-2.8-1.41-6.07-2.24-3.77-.96-9.93-1.87-17.96-.76l-2.22,1.77-.78-.98,2.49-1.98.17-.02c8.34-1.18,14.76-.22,18.68.78,4.27,1.1,6.54,2.47,6.64,2.53l.28.17.1,2.6-1.25.05Z" fill="#4c144d"/><path d="m148.37,32.4l-1.2-.34c.07-.24,1.78-5.99,13.2-7.28,10.74-1.21,13.82-3.19,13.85-3.21l1.81-1.21-.89,1.98-2.23,4.95-1.14-.51,1.54-3.41c-1.91.74-5.75,1.86-12.8,2.65-5.52.62-8.53,2.33-10.08,3.66-1.66,1.42-2.05,2.7-2.06,2.72Z" fill="#4c144d"/><rect x="146.2" y="37.6" width="3.56" height="1.25" transform="translate(-1.4 5.88) rotate(-2.27)" fill="#4c144d"/><rect x="146.32" y="40.51" width="3.56" height="1.25" transform="translate(-1.51 5.89) rotate(-2.27)" fill="#4c144d"/><rect x="147.2" y="63.91" width="3.56" height="1.25" transform="translate(-2.02 4.88) rotate(-1.87)" fill="#4c144d"/><rect x="147.11" y="61" width="3.56" height="1.25" transform="translate(-1.93 4.88) rotate(-1.87)" fill="#4c144d"/><path d="m149.14,33.14c.37-.28.76-.51,1.16-.74.4-.23.81-.43,1.22-.63.83-.39,1.68-.73,2.55-1.02l.65-.21c.22-.07.44-.13.66-.19.44-.12.88-.24,1.33-.34.44-.11.9-.18,1.35-.27.45-.07.9-.14,1.36-.19-.43.15-.87.27-1.31.41l-.65.2c-.22.07-.44.13-.65.2-.22.07-.43.14-.65.2-.22.06-.43.14-.65.21-.43.13-.86.28-1.29.42-.86.29-1.71.59-2.56.91-.85.33-1.69.66-2.52,1.04Z" fill="#4c144d"/><path d="m156.79,31.49c1.12-.55,2.3-.96,3.49-1.33,1.19-.36,2.4-.67,3.63-.91.31-.06.61-.11.92-.17l.46-.08.46-.07.93-.13c.31-.04.62-.07.93-.1.62-.08,1.24-.11,1.86-.15.16-.01.31-.02.47-.02h.47c.31-.02.62-.03.93-.03-.61.11-1.23.18-1.84.28l-.92.14c-.15.03-.31.04-.46.07l-.46.08c-.31.05-.61.1-.92.15l-.91.16-.46.08-.46.09c-.3.06-.61.11-.91.17-1.21.25-2.42.51-3.62.81-1.2.3-2.4.61-3.59.98Z" fill="#4c144d"/><path d="m147.4,32.92c-.95-.23-1.9-.47-2.84-.72l-2.82-.75-2.82-.74-2.84-.72c.98.05,1.95.18,2.91.36.96.18,1.92.39,2.86.65.94.25,1.88.54,2.81.86.92.32,1.84.66,2.73,1.07Z" fill="#4c144d"/><path d="m142.29,32.8c-1.35-.21-2.7-.45-4.05-.68l-2.02-.35-1.01-.18-1.01-.17c-.67-.12-1.34-.23-2.02-.34-.34-.06-.67-.12-1.01-.17-.34-.05-.67-.11-1.01-.16-1.35-.21-2.7-.41-4.06-.59,1.37,0,2.74.09,4.11.23.68.07,1.36.16,2.04.26.34.05.68.1,1.02.15l1.01.16c.67.12,1.35.24,2.02.38.34.07.67.14,1.01.21.34.07.67.14,1,.22,1.34.3,2.66.64,3.98,1.04Z" fill="#4c144d"/><path d="m294.6,201.7H2.24c0-3.61,2.93-6.54,6.54-6.54h279.28c3.61,0,6.54,2.93,6.54,6.54h0Z" fill="#359545"/><polygon points="61.62 89.8 60.95 95.19 56.07 94.44 56.03 94.3 55.86 93.63 55.68 92.93 55.68 92.92 55.02 90.38 61.62 89.8" fill="#a67c52"/><path d="m62,87.83c-.11,3.07-2.04,5.91-5.11,5.8-3.07-.11-5.45-.1-6.01-6.2-.28-3.06,2.69-5.47,5.76-5.36,3.07.11,5.47,2.69,5.36,5.76Z" fill="#a67c52"/><path d="m56.43,84.48c-1.21.21-4.38,1.87-5.51,1.82s-2.27-3.85-2.06-5.12c.21-1.27,2-1.53,2-1.53-.27-.74.87-1.86,3.91-1.56,2.66.26,3.57,1.94,3.57,1.94,2.87-1.04,5.03,1.49,4.46,6.52-.34,3.02-1.76,4.65-1.76,4.65l-.66-2.78s1-.16.77-1.23c-.23-1.07-1.01-.45-1.01-.45,0,0-.08-1.43-.5-1.92-.45-.53-1.56-.63-3.22-.34Z" fill="#1a1a1a"/><path d="m56.2,95.07l-.34-1.44s3.09-.4,4.81-1.96c0,0-.02,3.02-4.47,3.4Z" fill="#a67c52"/><path d="m59.65,84.83s.63,1.82.31,3.82c-.32,2-1.69,3.38-3.32,2.82-1.64-.55-2.57-.9-3.56-.26-.99.65-1.53-.43-1.53-.43,0,0,.76,3.2,4.88,2.85,4.12-.35,5.19-3.46,5.19-3.46l-.71-1.29s-.58-.63-.58-2.58-.68-1.48-.68-1.48Z" fill="#1a1a1a"/><path d="m39.94,132.45l-3.59,16.89h9.26l4.74-15.92s-2.93-2.9-5.92-4.16c-2.98-1.27-3.74,1.31-4.49,3.19Z" fill="#359545"/><path d="m39.13,110.98c.61.23,1.27.44,1.96.6.35.08.72.15,1.09.2l.58.06c.19.02.41.02.61.03.83.02,1.74-.06,2.72-.35.25-.08.49-.16.74-.26.25-.11.5-.23.74-.36.24-.14.48-.3.72-.45.23-.16.45-.35.67-.54l.15-.14.1-.09.19-.19.38-.38.19-.19c.06-.06.11-.12.17-.19l.34-.38.34-.38.31-.38.3-.38c.1-.13.2-.25.29-.38l.56-.76c.18-.25.35-.51.52-.77.18-.26.34-.51.5-.77.16-.26.32-.52.47-.78.21-.35.63-1.21,1.1-2.19,1.1-2.3-.08-6.8-1.77-6.48-2.01.38-5.15.64-6.13,2.72-.92,1.94-3.22,6.89-5.06,7.25-1.71.33-6.79.38-6.83.38l.23,4.39s2.53.72,3.82,1.15Z" fill="#92278f"/><path d="m68.59,112.92l.39-6.92c.31-5.55.02-11.36-8.9-11.35-.01,0-.02,0-.03,0-.59-.1-1.03-.14-1.23-.15-.09,0-.13,0-.13,0-11.5,0-11.19,4.27-11.52,10.3l-.36,6.48-.54,9.67,21.83,1.22.52-9.24Z" fill="#b24b9c"/><path d="m58.81,94.49c.21.02.64.06,1.23.15-.4-.07-.81-.13-1.23-.15Z" fill="#587cf8"/><path d="m67.92,126.03h0c-.87,5.03-4.43,9.39-11.06,8.62-8.31-.96-14.9-4.75-14.9-4.75l-9.71,12.28-7.39-5.23s3.18-4.83,6.28-11.71c3.1-6.88,5.64-8.71,15.29-7.4,6.12.84,13.18,2.35,17.53,3.34h0c2.51.57,4.12.97,4.12.97.12,1.29.07,2.6-.15,3.87Z" fill="#359545"/><rect x="25.39" y="136.05" width=".16" height=".16" transform="translate(-101 79.68) rotate(-55.35)" fill="#11442f"/><path d="m32.51,141.1l-.25-.17.09-.13.25.17-.09.13Zm-.5-.35l-.25-.17.09-.13.25.17-.09.13Zm-.5-.35l-.25-.17.09-.13.25.17-.09.13Zm-.5-.35l-.25-.17.09-.13.25.17-.09.13Zm-.5-.35l-.25-.17.09-.13.25.17-.09.13Zm-.5-.35l-.25-.17.09-.13.25.17-.09.13Zm-.5-.35l-.25-.17.09-.13.25.17-.09.13Zm-.5-.35l-.25-.17.09-.13.25.17-.09.13Zm-.5-.35l-.25-.17.09-.13.25.17-.09.13Zm-.5-.35l-.25-.17.09-.13.25.17-.09.13Zm-.5-.35l-.25-.17.09-.13.25.17-.09.13Zm-.5-.35l-.25-.17.09-.13.25.17-.09.13Zm-.5-.35l-.25-.17.09-.13.25.17-.09.13Zm-.5-.35l-.25-.17.09-.13.25.17-.09.13Z" fill="#11442f"/><rect x="32.8" y="141.18" width=".16" height=".16" transform="translate(-102.02 87.98) rotate(-55.35)" fill="#11442f"/><path d="m32.84,153.14s1.29.64.85,1.98h-2.86c.07-.54.37-1.02.84-1.29.46-.27.83-.49,1.16-.69Z" fill="#b24b9c"/><path d="m45.6,151.35v2.01c-2.63-.05-2.33-2.37-2.33-2.37,1.05-.06,1.67-.15,1.78-.16.01,0,.02,0,.02,0h.01c.29,0,.52.23.51.52Z" fill="#f8a492"/><path d="m35.92,151.22c.21-.13.44-.28.7-.43,0,0,.25.04.69.08.74.08,2.01.18,3.55.19.13,0,.26,0,.38,0,.79,0,1.47-.03,2.04-.06,0,0-.3,2.32,2.32,2.37v1.81s-11.91-.06-11.91-.06c.44-1.34-.85-1.98-.85-1.98.7-.42,1.21-.74,1.92-1.18.33-.21.71-.45,1.17-.73Z" fill="#92278f"/><path d="m45.59,155.18v.07c0,.36-.3.65-.66.65l-13.6-.07c-.14,0-.27-.06-.36-.15-.09-.09-.15-.22-.15-.36,0-.07,0-.14.01-.2h2.86s11.9.07,11.9.07Z" fill="#4c144d"/><path d="m45.09,149.35v1.48s-.01,0-.03,0c-.2.02-1.96.24-3.76.25-.12,0-.32-.02-.45-.03-1.54,0-2.81-.11-3.55-.19-.43-.05-.67-.08-.67-.08v-1.48s7.81.04,7.81.04h.64Z" fill="#a67c52"/><path d="m37.08,152.5s-.04,0-.06-.02l-1.16-1.2s-.03-.08,0-.11c.03-.03.08-.03.11,0l1.16,1.2s.03.08,0,.11c-.02.01-.03.02-.05.02Z" fill="#b24b9c"/><path d="m36.5,152.9s-.04,0-.06-.02l-1.16-1.2s-.03-.08,0-.11.08-.03.11,0l1.16,1.2s.03.08,0,.11c-.02.01-.03.02-.05.02Z" fill="#b24b9c"/><path d="m35.91,153.23s-.04,0-.06-.02l-1.16-1.2s0-.01-.01-.01c-.03-.03-.02-.08.02-.11.03-.03.08-.02.11.02h0s1.15,1.2,1.15,1.2c.03.03.03.08,0,.11-.02.01-.03.02-.05.02Z" fill="#b24b9c"/><path d="m19.77,138.09s.7,1.26-.43,2.11l-2.34-1.64c.36-.4.88-.61,1.42-.57.53.04.96.07,1.35.1Z" fill="#b24b9c"/><path d="m31.27,143.92l-1.16,1.65c-2.12-1.53-.55-3.27-.55-3.27.9.55,1.46.84,1.56.88.01,0,.02,0,.02,0h0c.23.17.29.49.13.73Z" fill="#b24b9c"/><path d="m23.4,138.28c.25.01.52.03.82.04,0,0,.18.17.52.46.56.48,1.55,1.3,2.81,2.18.11.07.21.15.31.22.65.45,1.23.82,1.71,1.11,0,0-1.57,1.73.55,3.27l-1.04,1.48-9.73-6.85c1.13-.85.43-2.11.43-2.11.81.05,1.42.08,2.25.12.39.02.84.04,1.38.06Z" fill="#92278f"/><path d="m29.07,147.05l-.04.05c-.21.29-.61.37-.91.16l-11.13-7.83c-.12-.08-.19-.2-.21-.33-.02-.13,0-.27.09-.38.04-.06.08-.11.13-.16l2.34,1.64,9.73,6.85Z" fill="#4c144d"/><path d="m31.99,141.98l-.85,1.21s0,0-.02,0c-.18-.1-1.78-.98-3.26-2-.1-.07-.21-.14-.31-.22-1.26-.89-2.25-1.7-2.81-2.18-.32-.28-.5-.45-.5-.45l.85-1.21,6.38,4.49.52.37Z" fill="#a67c52"/><path d="m23.66,140.01s-.07-.03-.08-.07l-.27-1.65s.02-.08.06-.09c.04,0,.08.02.09.06l.27,1.65s-.02.08-.06.09c0,0,0,0-.01,0Z" fill="#b24b9c"/><path d="m22.96,140s-.07-.03-.08-.07l-.27-1.65s.02-.08.06-.09c.04,0,.08.02.09.06l.27,1.65s-.02.08-.06.09c0,0,0,0-.01,0Z" fill="#b24b9c"/><path d="m22.28,139.94s-.07-.03-.08-.07l-.27-1.65s0-.01,0-.02c0-.04.03-.08.07-.08h0s.08.03.08.07h0s.27,1.64.27,1.64c0,.04-.02.08-.06.09,0,0,0,0-.01,0Z" fill="#b24b9c"/><path d="m36.53,105.17h0c-.21-.36-.67-.48-1.03-.28l-1.4.81c-.36.21-.48.67-.28,1.03h0c.21.36.67.48,1.03.28l1.4-.81c.36-.21.48-.67.28-1.03Z" fill="#c69c6d"/><polygon points="40.44 101.96 41.69 115.12 40.24 115.26 39.1 102.08 39.77 102.02 40.44 101.96" fill="#4c144d"/><polygon points="34.36 99.37 35.81 112.86 40.24 115.26 39.1 102.08 34.36 99.37" fill="#92278f"/><polygon points="52.32 100.61 51.79 114.36 41.69 115.12 40.44 101.96 52.32 100.61" fill="#92278f"/><path d="m36.49,98.75s2.3.98,3.28,2.77l-3.28-1.78v-1Z" fill="#ccc"/><path d="m34.88,99.67l.79-.3s2.49.44,4.09,2.16c0,0,1.67-1.03,5.89-1.47,4.22-.44,5.41,0,5.41,0l.77.62-10.79,1.32-1.95.09-4.22-2.41Z" fill="#ccc"/><path d="m40.74,101.51c.32-.16.65-.27.99-.37.34-.1.68-.18,1.03-.24.35-.06.7-.11,1.05-.14.18-.02.35-.02.53-.03.18,0,.35,0,.53,0l-1.04.14c-.35.05-.69.1-1.04.17-.34.06-.69.13-1.03.21-.17.04-.34.08-.51.13-.17.04-.34.09-.51.14Z" fill="#999"/><path d="m43.91,101.12c.45-.15.91-.26,1.38-.34.47-.09.93-.15,1.41-.19.47-.04.94-.07,1.42-.06.24,0,.47,0,.71.01.24.01.47.03.71.05-.47.01-.94.02-1.41.04-.47.02-.94.05-1.41.09-.47.04-.93.1-1.4.16-.23.03-.47.07-.7.11-.23.04-.46.08-.69.13Z" fill="#ccc"/><path d="m39.47,101.37l-1.11-.64c-.18-.11-.37-.21-.56-.31-.09-.05-.19-.1-.28-.15-.09-.05-.19-.1-.28-.15.2.07.4.16.59.25.19.09.38.19.57.3.18.11.37.22.55.34.18.12.35.24.52.37Z" fill="#999"/><path d="m38.36,100.92l-.54-.26c-.18-.09-.36-.18-.54-.26-.18-.09-.36-.17-.54-.25-.09-.04-.18-.08-.27-.12-.09-.04-.18-.08-.27-.12.19.06.38.13.56.2.18.07.37.16.55.24.18.09.36.18.53.27.18.09.35.19.52.3Z" fill="#999"/><rect x="46.18" y="109.2" width="5.27" height="4.35" rx="2.18" ry="2.18" transform="translate(83.15 228.04) rotate(-172.73)" fill="#a67c52"/><path d="m50.17,109.99h0c.3-.29,1.04.15.75-.15l-1.87-2.07c-.29-.3-.77-.3-1.06-.01h0c-.3.29-.3.77-.01,1.06l1.13,1.16c.29.3.77.3,1.06.01Z" fill="#a67c52"/><path d="m48.94,109.96h0c.05-.41-.24-.79-.65-.84l-1.6-.2c-.41-.05-.79.24-.84.65h0c-.05.41.24.79.65.84l1.6.2c.41.05.79-.24.84-.65Z" fill="#a67c52"/><path d="m47.81,110.76h0c.05-.41-.24-.79-.65-.84l-1.6-.2c-.41-.05-.79.24-.84.65h0c-.05.41.24.79.65.84l1.6.2c.41.05.79-.24.84-.65Z" fill="#a67c52"/><path d="m48.08,111.74h0c.05-.41-.24-.79-.65-.84l-1.6-.2c-.41-.05-.79.24-.84.65h0c-.05.41.24.79.65.84l1.6.2c.41.05.79-.24.84-.65Z" fill="#a67c52"/><path d="m48.87,112.79h0c.05-.41-.24-.79-.65-.84l-1.6-.2c-.41-.05-.79.24-.84.65h0c-.05.41.24.79.65.84l1.6.2c.41.05.79-.24.84-.65Z" fill="#a67c52"/><rect x="46.97" y="108.75" width=".16" height="2.45" transform="translate(-69.52 136.77) rotate(-79.78)" fill="#c69c6d"/><rect x="46.16" y="110.11" width=".16" height="2.4" transform="translate(-71.51 137.07) rotate(-79.78)" fill="#c69c6d"/><rect x="46.81" y="111.37" width=".16" height="2.06" transform="translate(-72.05 138.61) rotate(-79.78)" fill="#c69c6d"/><path d="m67.92,126.03h0c-5.15.33-3.97-4.85-3.97-4.85h0c2.51.57,4.12.97,4.12.97.12,1.29.07,2.6-.15,3.87Z" fill="#359545"/><path d="m64.53,96.05c2.54.04,4.51,2.24,4.28,4.78-.1,1.08-.2,2.03-.27,2.43-.05.29-.12.59-.17.89-.06.3-.12.59-.2.9-.07.3-.14.6-.22.9l-.26.91c-.04.15-.09.3-.14.46l-.15.46-.16.46-.18.47-.19.47c-.03.08-.06.16-.1.24l-.11.24-.23.49-.11.24-.06.12-.1.18c-.14.25-.28.5-.44.74-.17.23-.34.46-.51.67-.18.2-.37.4-.57.59-.2.18-.4.34-.6.5-.82.61-1.65,1-2.43,1.27-.19.06-.39.14-.58.18l-.57.15c-.37.08-.74.15-1.09.19-.71.09-1.39.13-2.05.12-1.32,0-2.56-.17-3.76-.39-.6-.12-1.19-.25-1.77-.41-.29-.08-.58-.16-.87-.25l-.43-.14-.46-.16.77-4.23s.11-.01.17-.02h.19s.38-.04.38-.04c.26-.02.51-.04.77-.06.51-.05,1.02-.09,1.52-.16,1-.12,1.97-.29,2.85-.52.44-.11.85-.25,1.21-.39.09-.04.19-.07.27-.11.08-.04.16-.08.25-.12l.22-.12c.08-.04.12-.08.19-.12.23-.16.35-.71.35-.71l.08-.28.04-.14s.02-.1.03-.16l.07-.32.07-.31.06-.34c.04-.23.08-.44.12-.68.08-.47.29-2.74.48-4.88.2-2.29,2.14-4.03,4.43-3.99h0Z" fill="#92278f"/><path d="m36.76,106.25h0c-.03-.41-.39-.73-.81-.7l-1.61.12c-.41.03-.73.39-.7.81h0c.03.41.39.73.81.7l1.61-.12c.41-.03.73-.39.7-.81Z" fill="#a67c52"/><path d="m37.39,107.5h0c-.03-.41-.39-.73-.81-.7l-2.08.15c-.41.03-.73.39-.7.81h0c.03.41.39.73.81.7l2.08-.15c.41-.03.73-.39.7-.81Z" fill="#a67c52"/><path d="m37.08,108.69h0c-.03-.41-.39-.73-.81-.7l-1.61.12c-.41.03-.73.39-.7.81h0c.03.41.39.73.81.7l1.61-.12c.41-.03.73-.39.7-.81Z" fill="#a67c52"/><path d="m36.82,109.84h0c-.03-.41-.39-.73-.81-.7l-.71.05c-.41.03-.73.39-.7.81h0c.03.41.39.73.81.7l.71-.05c.41-.03.73-.39.7-.81Z" fill="#a67c52"/><rect x="34.1" y="106.88" width="2.5" height=".16" transform="translate(-12.9 5.16) rotate(-7.07)" fill="#c69c6d"/><rect x="34.22" y="108.3" width="2.69" height=".16" transform="translate(-8.78 3.29) rotate(-4.71)" fill="#c69c6d"/><rect x="34.76" y="109.44" width="1.89" height=".16" transform="translate(-10.95 4.2) rotate(-5.84)" fill="#c69c6d"/><path d="m45.63,148.37h-.31v-.16h.31v.16Zm-.62,0h-.31v-.16h.31v.16Zm-.62,0h-.31v-.16h.31v.16Zm-.62,0h-.31v-.16h.31v.16Zm-.62,0h-.31v-.16h.31v.16Zm-.62,0h-.31v-.16h.31v.16Zm-.62,0h-.31v-.16h.31v.16Zm-.62,0h-.31v-.16h.31v.16Zm-.62,0h-.31v-.16h.31v.16Zm-.62,0h-.31v-.16h.31v.16Zm-.62,0h-.31v-.16h.31v.16Zm-.62,0h-.31v-.16h.31v.16Zm-.62,0h-.31v-.16h.31v.16Zm-.62,0h-.31v-.16h.31v.16Zm-.62,0h-.31v-.16h.31v.16Z" fill="#11442f"/><path d="m26.43,136.79l-.14-.08.15-.27.14.08-.15.27Zm.31-.55l-.14-.08.15-.27.14.08-.15.27Zm.31-.55l-.14-.08.15-.27.14.08-.15.27Zm.3-.55l-.14-.08.15-.27.14.08-.15.27Zm.3-.55l-.14-.08.15-.27.14.08-.15.27Zm.3-.55l-.14-.08.15-.27.14.08-.15.27Zm.3-.55l-.14-.08.15-.27.14.08-.15.27Zm.3-.55l-.14-.07.15-.27.14.07-.15.27Zm.3-.55l-.14-.07.15-.27.14.07-.15.27Zm.3-.55l-.14-.07.15-.27.14.07-.15.27Zm.3-.55l-.14-.07.15-.27.14.07-.15.27Zm.3-.55l-.14-.07.15-.27.14.07-.15.27Zm.3-.55l-.14-.07.15-.27.14.07-.15.28Zm.3-.55l-.14-.07.15-.27.14.07-.15.27Zm.29-.55l-.14-.07.15-.28.14.07-.15.28Zm.29-.55l-.14-.07.15-.28.14.07-.15.28Zm.29-.55l-.14-.07.15-.28.14.07-.15.28Zm.29-.55l-.14-.07.14-.28.14.07-.14.28Zm.29-.55l-.14-.07.14-.28.14.07-.14.28Zm.29-.55l-.14-.07.14-.28.14.07-.14.28Zm.29-.55l-.14-.07.15-.28.14.07-.15.28Zm.29-.55l-.14-.07c.05-.09.1-.18.15-.27l.14.07c-.05.09-.1.18-.15.27Zm.3-.55l-.14-.08c.05-.09.1-.18.15-.27l.14.08c-.05.09-.1.18-.15.27Zm.31-.54l-.13-.08c.05-.09.11-.18.16-.27l.13.08c-.05.09-.11.18-.16.27Zm.32-.53l-.13-.08c.06-.09.11-.18.17-.26l.13.08c-.06.09-.11.17-.17.26Zm.34-.52l-.13-.09c.06-.09.12-.17.18-.26l.13.09c-.06.09-.12.17-.18.26Zm.36-.51l-.13-.09c.06-.09.12-.17.19-.25l.12.09c-.06.08-.12.17-.19.25Zm29.52-.36l-.12-.03.03-.15.13.03-.03.15Zm-.43-.1l-.31-.07.03-.15.31.07-.03.15Zm-28.71-.04l-.12-.1c.07-.08.13-.16.2-.24l.12.1c-.07.08-.13.16-.2.24Zm28.1-.1l-.31-.07.03-.15.31.07-.03.15Zm-.61-.13l-.31-.07.03-.15.31.07-.03.15Zm-.61-.13l-.31-.06.03-.15.31.06-.03.15Zm-26.48-.12l-.12-.1c.07-.08.14-.16.21-.23l.11.11c-.07.08-.14.15-.21.23Zm25.87-.01l-.31-.06.03-.15.31.06-.03.15Zm-.61-.13l-.31-.06.03-.15.31.06-.03.15Zm-.61-.13l-.31-.06.03-.15.31.06-.03.15Zm-.61-.13l-.31-.06.03-.15.31.06-.03.15Zm-23.61-.06l-.11-.11c.07-.08.15-.15.22-.22l.11.11c-.07.07-.15.14-.22.22Zm23-.06l-.31-.06.03-.15.31.06-.03.15Zm-.61-.12l-.31-.06.03-.15.31.06-.03.15Zm-.61-.12l-.31-.06.03-.15.31.06-.03.15Zm-21.33-.12l-.1-.12c.08-.07.16-.14.24-.21l.1.12c-.08.07-.16.13-.23.2Zm20.72,0l-.31-.06.03-.15.31.06-.03.15Zm-.61-.12l-.31-.06.03-.15.31.06-.03.15Zm-.61-.12l-.31-.06.03-.15.31.06-.03.15Zm-.61-.12l-.31-.06.03-.15.31.06-.03.15Zm-18.41-.04l-.1-.12c.08-.07.17-.13.25-.19l.09.13c-.08.06-.16.12-.25.19Zm17.8-.08l-.31-.06.03-.15.31.06-.03.15Zm-.61-.12l-.31-.06.03-.15.31.06-.03.15Zm-.61-.11l-.31-.06.03-.15.31.06-.03.15Zm-16.07-.06l-.09-.13c.09-.06.17-.12.26-.17l.08.13c-.09.06-.17.11-.26.17Zm15.46-.05l-.31-.06.03-.15.31.06-.03.15Zm-.61-.11l-.31-.05.03-.15.31.05-.03.15Zm-.62-.11l-.31-.05.03-.15.31.05-.03.15Zm-13.7-.06l-.08-.13c.09-.05.18-.1.27-.15l.07.14c-.09.05-.18.1-.27.15Zm13.09-.05l-.31-.05.03-.15.31.05-.03.15Zm-.61-.11l-.31-.05.03-.15.31.05-.03.15Zm-.61-.1l-.31-.05.03-.15.31.05-.03.15Zm-11.31-.04l-.07-.14c.09-.05.19-.09.29-.13l.06.14c-.09.04-.19.08-.28.13Zm10.7-.06l-.31-.05.02-.15.31.05-.02.15Zm-.62-.1l-.31-.05.02-.15.31.05-.02.15Zm-9.52-.09l-.06-.15c.1-.04.2-.07.3-.11l.05.15c-.1.03-.19.07-.29.11Zm8.9,0l-.31-.05.02-.15.31.05-.02.15Zm-.62-.09l-.31-.04.02-.15.31.04-.02.15Zm-.62-.09l-.31-.04.02-.15.31.04-.02.15Zm-7.08-.01l-.05-.15c.1-.03.2-.06.3-.09l.04.15c-.1.03-.2.06-.3.09Zm6.46-.07l-.31-.04.02-.15.31.04-.02.15Zm-.62-.08l-.31-.04.02-.15.31.04-.02.15Zm-5.25,0l-.04-.15c.1-.02.2-.05.31-.07l.03.15c-.1.02-.2.04-.3.06Zm4.63-.07l-.31-.04.02-.16.31.04-.02.16Zm-4.02-.05l-.02-.15c.1-.02.21-.03.31-.05l.02.15c-.1.01-.21.03-.31.04Zm3.4-.02c-.1-.01-.21-.02-.31-.03l.02-.16c.1.01.21.02.31.03l-.02.16Zm-.62-.06c-.1,0-.21-.02-.31-.02v-.16c.11,0,.22.01.32.02v.16Zm-2.17,0v-.16c.09,0,.19-.02.3-.03v.16c-.09,0-.2.02-.3.03Zm1.55-.04c-.1,0-.21,0-.31,0v-.16c.11,0,.21,0,.32,0v.16Zm-.93,0v-.16c.1,0,.2,0,.31,0v.16c-.1,0-.21,0-.31,0Z" fill="#11442f"/><path d="m99.87,137.21h-58.47s1.02,4.23,1.02,8.83-1.02,8.83-1.02,8.83h58.47c2.07,0,3.76-1.68,3.76-3.76v-10.15c0-2.08-1.68-3.76-3.76-3.76Z" fill="#ccc"/><path d="m40.61,134.81c-.66,0-1.2.54-1.2,1.2,0,.33.13.63.35.85.22.22.52.35.85.35h59.26c2.07,0,3.76,1.68,3.76,3.76v10.15c0,2.07-1.68,3.76-3.76,3.76h-59.26c-.66,0-1.2.54-1.2,1.2,0,.33.13.63.35.85.22.22.52.35.85.35h59.26c3.4,0,6.16-2.76,6.16-6.16v-10.15c0-3.4-2.75-6.16-6.16-6.16h-59.26Z" fill="#359545"/><path d="m96.01,140.63c-3.46-.15-6.92-.26-10.39-.31-3.46-.06-6.92-.08-10.39-.09-3.46,0-6.92.02-10.39.09-3.46.05-6.92.16-10.39.31,3.46.16,6.92.26,10.39.31,3.46.06,6.92.08,10.39.09,3.46,0,6.92-.03,10.39-.09,3.46-.05,6.92-.16,10.39-.31Z" fill="#999"/><path d="m98.18,146.04c-1.31-.17-2.62-.25-3.92-.31-1.31-.06-2.62-.08-3.92-.09-1.31,0-2.62.02-3.92.09-1.31.06-2.62.15-3.92.31,1.31.17,2.62.25,3.92.31,1.31.06,2.62.08,3.92.09,1.31,0,2.62-.03,3.92-.09,1.31-.06,2.62-.15,3.92-.31Z" fill="#e5bd83"/><path d="m88.16,151.59c-1.31-.17-2.62-.25-3.92-.31-1.31-.06-2.62-.08-3.92-.09-1.31,0-2.62.02-3.92.09-1.31.06-2.62.15-3.92.31,1.31.17,2.62.25,3.92.31,1.31.06,2.62.08,3.92.09,1.31,0,2.62-.03,3.92-.09,1.31-.06,2.62-.15,3.92-.31Z" fill="#999"/><path d="m79.9,148.35c-3.02-.15-6.05-.26-9.07-.31-3.02-.06-6.05-.08-9.07-.09-3.02,0-6.05.02-9.07.09-3.02.05-6.05.16-9.07.31,3.02.16,6.05.26,9.07.31,3.02.06,6.05.08,9.07.09,3.02,0,6.05-.03,9.07-.09,3.02-.05,6.05-.16,9.07-.31Z" fill="#999"/><path d="m86,156.74c1.77-3.34,1.77-7.35,0-10.69h10.01c1.77,3.34,1.77,7.35,0,10.69-1.19-.91-2.51-1.87-3.96-2.85-1.89.98-3.91,1.94-6.06,2.85Z" fill="#50bfa5"/><path d="m95.43,185.81s-1.23,4.01.05,8.93l4.28-.36,12.15-.93h0s-.37-1.95-.37-4.22c0-2.09.37-4.22.37-4.22l-11.98.57-4.5.23Z" fill="#ccc"/><path d="m94.15,183.93s-2.38,5.53,0,12.7l18.08-1.19c.39-.03.69-.49.68-1.04-.02-.54-.34-.96-.72-.96h-.03l-.26.02-12.15.93-4.28.36c-1.28-4.92-.05-8.93-.05-8.93l4.5-.23,11.98-.57.29-.02c.38-.02.69-.46.69-1s-.32-1-.71-1h-.03l-18,.93Z" fill="#92278f"/><polygon points="40.22 182.2 41.94 182.2 94.15 183.93 112.15 183 59.62 181.96 40.22 182.2" fill="#f47458"/><path d="m40.22,182.2s-2.51,7.42-.28,12.93h2.01l52.21,1.5c-2.38-7.16,0-12.7,0-12.7l-52.21-1.73h-1.73Z" fill="#4c144d"/><path d="m95.16,188.35c1.88.09,3.76.03,5.63-.07,1.87-.11,3.74-.26,5.6-.56-1.88-.09-3.76-.03-5.63.07-1.87.11-3.74.26-5.6.56Z" fill="#999"/><path d="m104.76,191.36c1.05.09,2.08.04,3.12-.05,1.03-.1,2.06-.25,3.07-.54-1.05-.09-2.08-.04-3.12.05-1.03.11-2.06.25-3.07.54Z" fill="#999"/><path d="m103.38,192.92c.78-1.2.63-3.95-.27-5.06-1.58.08-3.16.17-4.74.25.9,1.12,1.04,3.86.27,5.06.98-.38,1.92-.85,2.8-1.39.7.45,1.34.84,1.95,1.14Z" fill="#92278f"/><path d="m89.74,196.49c-2.24-5.51.27-12.7.27-12.7h-4.88s-2.51,7.19-.27,12.7h4.88Z" fill="#92278f"/><path d="m48.74,195.37c-2.24-5.51.27-12.7.27-12.7h-4.88s-2.51,7.19-.27,12.7h4.88Z" fill="#92278f"/><path d="m62.88,171l1.24.11c-3.07.22-5.39,2.89-5.17,5.96l.12,1.7c.18,2.57,2.08,4.6,4.49,5.07l-19.86-1.59c-3.31-.32-5.72-3.28-5.38-6.58l.09-.92c.34-3.26,3.23-5.65,6.49-5.35h0s17.97,1.6,17.97,1.6Z" fill="#359545"/><polygon points="110.7 170.06 64.11 171.12 62.88 171 44.91 169.4 44.9 169.4 44.69 169.39 110.7 170.06" fill="#48c902"/><path d="m109.36,171.93l-45.14,1.18c-1.02.08-1.94.59-2.57,1.42-.54.72-.76,1.63-.7,2.53l.12,1.57c.13,1.83,1.67,3.29,3.5,3.32.1,0,.21,0,.32-.01h.05s44.48-1.01,44.48-1.01l1.11-.03c.52-.01.95.42.94.94v.16c-.01.49-.41.89-.9.9l-45.53,1.03c-.51.04-1,0-1.48-.09-2.41-.47-4.3-2.51-4.49-5.07l-.12-1.7c-.22-3.07,2.09-5.74,5.17-5.96l46.58-1.06c.52-.01.95.41.94.94,0,.49-.4.89-.89.9l-1.39.04Z" fill="#48c902"/><path d="m109.42,180.94l-44.48,1.01h-.05c-.1,0-.21.02-.32.01-1.83-.03-3.37-1.49-3.5-3.32l-.12-1.57c-.07-.9.16-1.81.7-2.53.63-.83,1.55-1.33,2.57-1.42l45.14-1.18c-.02.08-.59,2.77-.62,4.49-.03,1.72.68,4.51.68,4.51Z" fill="#ccc"/><path d="m64.86,175.72c1.3-.22,2.61-.36,3.92-.47,1.31-.12,2.62-.18,3.92-.24,1.31-.04,2.62-.08,3.93-.07,1.31,0,2.62.04,3.94.16-1.3.22-2.61.36-3.92.47-1.31.12-2.62.18-3.92.24-1.31.04-2.62.08-3.93.07-1.31,0-2.62-.04-3.94-.16Z" fill="#999"/><path d="m75.63,179.39c1.3-.22,2.61-.36,3.92-.47,1.31-.12,2.62-.18,3.92-.24,1.31-.04,2.62-.08,3.93-.07,1.31,0,2.62.04,3.94.16-1.3.22-2.61.36-3.92.47-1.31.12-2.62.18-3.92.24-1.31.04-2.62.08-3.93.07-1.31,0-2.62-.04-3.94-.16Z" fill="#999"/><path d="m77.41,186.18c1.81-2.42,1.92-8.41.19-10.89-3.34-.05-6.3.3-9.64.25,1.73,2.48,1.24,8.07-.57,10.49,2.11-.65,4.16-1.52,6.08-2.51,1.42,1.05,2.7,1.97,3.93,2.67Z" fill="#92278f"/><path d="m87.17,177.04c1.79-.22,3.59-.36,5.38-.47,1.8-.12,3.59-.18,5.39-.24,1.8-.04,3.6-.08,5.4-.07,1.8,0,3.6.04,5.4.16-1.79.22-3.59.36-5.38.47-1.8.12-3.59.18-5.39.24-1.8.04-3.6.08-5.4.07-1.8,0-3.6-.04-5.4-.16Z" fill="#e5bd83"/><path d="m85.14,160.43s-1.73,4.01.06,8.93l6.79-.37,17.04-.93h0s-.52-1.95-.52-4.22c0-2.09.52-4.22.52-4.22h0s-16.8.57-16.8.57l-7.1.24Z" fill="#fae0b2"/><path d="m109.4,168.04l-.36.02-17.04.93-6.79.37c-1.79-4.92-.06-8.93-.06-8.93l7.1-.24,16.8-.57h.4c.54-.03.96-.47.96-1.01s-.45-1-.99-1h-.04l-25.23.93s-3.33,5.53,0,12.7l25.35-1.19c.54-.03.97-.49.95-1.04-.02-.54-.47-.96-1-.96h-.04Z" fill="#bf50a7"/><polygon points="109.37 157.6 40.24 156.73 40.62 156.75 84.15 158.54 109.37 157.6" fill="#b24b9c"/><path d="m83.3,158.5l-42.68-1.75c-2.13-.08-3.9,1.61-3.91,3.74l-.03,5.32c-.01,2.03,1.59,3.71,3.62,3.78l43.84,1.64c-3.33-7.16,0-12.7,0-12.7l-.84-.03Z" fill="#92278f"/><path d="m85.27,163.86c1.32.09,2.63.11,3.94.09,1.31,0,2.62-.06,3.93-.13,1.31-.08,2.62-.17,3.92-.31,1.3-.13,2.61-.29,3.91-.53-1.32-.09-2.63-.11-3.94-.09-1.31,0-2.62.06-3.93.13-1.31.08-2.62.17-3.92.31-1.3.13-2.61.29-3.91.53Z" fill="#e5bd83"/><path d="m99.19,165.96c1.46.09,2.91.04,4.35-.05,1.44-.1,2.89-.25,4.32-.54-1.46-.1-2.91-.04-4.35.05-1.44.11-2.89.25-4.32.54Z" fill="#e5bd83"/><path d="m96.86,171.71c1.33-1.96,1.2-6.61-.25-8.49-2.61.08-5.13.4-7.75.47,1.44,1.88,1.48,6.29.15,8.25,1.63-.58,3.21-1.33,4.68-2.18,1.14.77,2.18,1.45,3.17,1.95Z" fill="#f47458"/><rect x="239.75" y="116.83" width="2.9" height="20.72" fill="#fec65e"/><polygon points="251.02 116.83 251.37 116.83 251.37 137.54 248.46 137.54 248.46 116.83 251.02 116.83" fill="#359545"/><rect x="242.66" y="116.83" width="5.81" height="20.72" fill="#48c902"/><path d="m251.03,114.46c.59,0,1.06.47,1.06,1.06v.25c0,.59-.48,1.06-1.07,1.06h-5.49s-5.5-.02-5.5-.02c-.58,0-1.06-.48-1.05-1.07v-.25c0-.57.45-1.04,1.03-1.06.03,0,.05,0,.08,0h5.44s5.5.02,5.5.02Z" fill="#ddd"/><path d="m251.16,112.1c.54.02.99.49.99,1.05v.26c0,.58-.48,1.06-1.06,1.05h-5.56s-5.49-.03-5.49-.03h-.03c-.54-.03-.98-.49-.97-1.05v-.25c0-.56.42-1.01.97-1.06.03,0,.06,0,.09,0l11,.02h.06Z" fill="#efefef"/><path d="m252.16,111.06c0,.56-.46,1.02-1,1.05-.02,0-.04,0-.06,0l-11-.03s-.06,0-.09,0c-.55-.04-.97-.5-.97-1.06v-.25c0-.58.48-1.05,1.06-1.05h11s.04.02.04.02c.57.03,1.01.49,1.02,1.06v.26Z" fill="#ddd"/><path d="m251.45,105.31v4.43h-.36s-11-.02-11-.02h-.35s0-4.44,0-4.44c0-1.56,1.27-2.82,2.82-2.81h6.07c1.56,0,2.82,1.27,2.81,2.84Z" fill="#92278f"/><path d="m274.74,117.76l-2.51,13.83c-.07.41-.46.68-.87.61-.38-.07-.65-.42-.62-.82l1.24-11.82c.13-1.31-.47-2.6-1.57-3.33l-.54-.36.7-3.88,2.92,2.38c1,.82,1.47,2.12,1.24,3.38Z" fill="#359545"/><polygon points="258.16 114.13 269.8 116.24 265.24 145.5 252.89 143.26 258.16 114.13" fill="#48c902"/><polygon points="269.87 115.87 269.8 116.24 258.16 114.13 259.01 109.51 270.64 111.62 270.58 111.99 269.87 115.87" fill="#359545"/><path d="m269.26,103.38c1.53.64,2.47,2.29,2.15,4l-.77,4.24-11.63-2.12.77-4.24c.31-1.73,1.8-2.94,3.48-2.99l6,1.11Z" fill="#48c902"/><path d="m263.26,102.28l.85-4.65c.25-1.37,1.55-2.27,2.91-2.02l1.07.19c1.37.25,2.27,1.55,2.02,2.91l-.85,4.67-6-1.11Z" fill="#359545"/><rect x="221.67" y="87.75" width="11.88" height="54.18" transform="translate(-12.2 28.33) rotate(-6.94)" fill="#ffdc9f"/><rect x="218.68" y="90.48" width="6.66" height=".72" transform="translate(-9.36 27.53) rotate(-6.95)" fill="#13375b"/><rect x="219" y="93.2" width="3.69" height=".72" transform="translate(-9.7 27.41) rotate(-6.95)" fill="#13375b"/><rect x="219.29" y="95.59" width="3.69" height=".72" transform="translate(-9.98 27.46) rotate(-6.95)" fill="#13375b"/><rect x="219.58" y="97.99" width="3.69" height=".72" transform="translate(-10.19 27.25) rotate(-6.88)" fill="#13375b"/><rect x="219.88" y="100.38" width="3.69" height=".72" transform="translate(-10.56 27.57) rotate(-6.95)" fill="#13375b"/><rect x="220.16" y="102.59" width="6.66" height=".72" transform="translate(-10.81 27.8) rotate(-6.95)" fill="#13375b"/><rect x="220.46" y="105.16" width="3.69" height=".72" transform="translate(-11.13 27.67) rotate(-6.95)" fill="#13375b"/><rect x="220.75" y="107.56" width="3.69" height=".72" transform="translate(-11.42 27.73) rotate(-6.95)" fill="#13375b"/><rect x="221.04" y="109.95" width="3.69" height=".72" transform="translate(-11.71 27.78) rotate(-6.95)" fill="#13375b"/><rect x="221.33" y="112.34" width="3.69" height=".72" transform="translate(-11.9 27.56) rotate(-6.88)" fill="#13375b"/><rect x="221.61" y="114.55" width="6.66" height=".72" transform="translate(-12.25 28.06) rotate(-6.95)" fill="#13375b"/><rect x="221.91" y="117.12" width="3.69" height=".72" transform="translate(-12.57 27.94) rotate(-6.95)" fill="#13375b"/><rect x="222.2" y="119.52" width="3.69" height=".72" transform="translate(-12.86 27.99) rotate(-6.95)" fill="#13375b"/><rect x="222.49" y="121.91" width="3.69" height=".72" transform="translate(-13.14 28.04) rotate(-6.95)" fill="#13375b"/><rect x="222.79" y="124.3" width="3.69" height=".72" transform="translate(-13.43 28.1) rotate(-6.95)" fill="#13375b"/><rect x="223.07" y="126.52" width="6.66" height=".72" transform="translate(-13.69 28.32) rotate(-6.95)" fill="#13375b"/><rect x="223.37" y="129.09" width="3.69" height=".72" transform="translate(-14.01 28.2) rotate(-6.95)" fill="#13375b"/><rect x="223.66" y="131.48" width="3.69" height=".72" transform="translate(-14.3 28.25) rotate(-6.95)" fill="#13375b"/><rect x="223.95" y="133.87" width="3.69" height=".72" transform="translate(-14.58 28.31) rotate(-6.95)" fill="#13375b"/><rect x="224.24" y="136.27" width="3.69" height=".72" transform="translate(-14.87 28.36) rotate(-6.95)" fill="#13375b"/><rect x="224.52" y="138.48" width="6.66" height=".72" transform="translate(-15.12 28.59) rotate(-6.95)" fill="#13375b"/><path d="m268.55,137.1v44.61c0,7.67-6.22,13.89-13.89,13.89h-19.35c-6.6,0-12.11-4.6-13.53-10.76h0c-.23-1.01-.36-2.06-.36-3.13v-44.61h47.14Z" fill="#b24b9c"/><path d="m268.55,137.1v44.61c0,7.67-6.22,13.89-13.89,13.89h-19.35c-6.6,0-12.11-4.6-13.53-10.76,19.87,8.87,39.48,2.35,43.26-16.54,3.15-15.77,3.49-27.69,3.52-31.21Z" fill="#92278f"/><polygon points="238.56 82.21 238.67 184 231.51 176.84 231.51 75.15 234.3 77.95 238.56 82.21" fill="#e6e6e6"/><path d="m231.51,176.84l7.16,7.16c-37.05-6.21-67.09,2.21-67.09,2.21h-14.38c-21.31-9.59-66.13-2.11-66.13-2.11l7.26-7.26s44.74-7.48,66.58,2.91c21.84-10.39,66.58-2.91,66.58-2.91Z" fill="#e6e6e6"/><path d="m231.51,75.15v101.68s-44.74-7.48-66.58,2.91v-92.87s26.1-20.24,66.58-11.72Z" fill="#f2f2f2"/><path d="m164.92,86.87v92.87c-21.84-10.39-66.58-2.91-66.58-2.91v-101.68c40.48-8.52,66.58,11.72,66.58,11.72Z" fill="#f2f2f2"/><path d="m247.48,77.95v111.99s-45.78-8-75.9,0h-15.45c-31.42-9.59-73.77,0-73.77,0v-111.99h13.18l-4.92,4.92.46,101.23s44.81-7.48,66.13,2.11h14.38s30.04-8.42,67.09-2.21l-.11-101.78-4.25-4.26h13.18Z" fill="#4c144d"/><polygon points="98.34 75.15 98.34 176.84 91.08 184.1 90.62 82.88 95.54 77.95 98.34 75.15" fill="#e6e6e6"/><path d="m118.02,178.58c2.53-.41,5.09-.59,7.65-.67,2.56-.09,5.13-.03,7.69.14,1.28.07,2.56.22,3.83.34,1.27.18,2.55.31,3.81.56,2.53.41,5.03,1.01,7.48,1.74-1.27-.18-2.52-.46-3.78-.61-1.26-.2-2.52-.39-3.79-.53-2.53-.31-5.06-.56-7.6-.71-2.54-.18-5.08-.27-7.63-.32-2.55-.04-5.1-.02-7.66.07Z" fill="#999"/><path d="m164.87,182.48c-1.02-.37-2.04-.71-3.07-1.01-1.03-.33-2.06-.62-3.1-.89-2.08-.54-4.17-1.04-6.27-1.48-2.1-.44-4.22-.83-6.34-1.2-2.12-.37-4.26-.66-6.39-1.01,1.08.01,2.16.07,3.24.12,1.08.1,2.16.17,3.23.3,2.15.23,4.29.6,6.42,1.03,2.12.46,4.22.99,6.28,1.67,2.06.68,4.1,1.44,6,2.48Z" fill="#999"/><path d="m235.08,180.85l-6.66-.62-6.65-.59-13.32-1.11c1.12-.06,2.23-.08,3.35-.1,1.12,0,2.23.01,3.35.04,2.23.04,4.46.2,6.69.38,2.22.2,4.45.44,6.65.78,2.21.33,4.41.7,6.59,1.22Z" fill="#999"/><path d="m209.52,176.56c-2.56-.09-5.11-.11-7.66-.07-2.55.05-5.09.14-7.63.32-2.54.15-5.07.41-7.6.71-1.27.14-2.53.33-3.79.53-1.27.15-2.51.43-3.78.61,2.45-.72,4.95-1.33,7.48-1.74,1.26-.25,2.54-.37,3.81-.56,1.28-.12,2.55-.27,3.83-.34,2.56-.17,5.13-.23,7.69-.14,2.56.08,5.12.26,7.65.67Z" fill="#999"/><path d="m164.36,185.28c1.91-1.04,3.95-1.8,6-2.48,2.06-.68,4.17-1.21,6.28-1.67,2.12-.43,4.26-.8,6.42-1.03,1.08-.13,2.16-.2,3.23-.3,1.08-.05,2.16-.1,3.24-.12-2.14.35-4.27.64-6.39,1.01-2.12.37-4.24.75-6.34,1.2-2.1.44-4.19.94-6.27,1.48-1.04.27-2.08.56-3.1.89-1.04.3-2.06.64-3.07,1.01Z" fill="#999"/><path d="m95.95,179.74c2.17-.52,4.38-.89,6.59-1.22,2.21-.33,4.43-.58,6.65-.78,2.23-.18,4.46-.34,6.69-.38,1.12-.03,2.23-.04,3.35-.04,1.12.02,2.23.04,3.35.1l-13.32,1.11-6.65.59-6.66.62Z" fill="#999"/><path d="m127.27,190.81c1.99-3.92,2.23-8.73.64-12.83,3.37.17,6.75.34,10.12.5,1.59,4.1,1.35,8.9-.64,12.83-1.15-1.15-2.42-2.37-3.83-3.62-1.97,1.08-4.07,2.13-6.29,3.11Z" fill="#359545"/><rect x="157.2" y="186.21" width="14.38" height="3.73" fill="#4c144d"/><path d="m164.92,86.87c.49,7.74.74,15.48.92,23.22.11,3.87.13,7.74.2,11.61l.07,11.61-.06,11.61c-.07,3.87-.09,7.74-.2,11.61-.17,7.74-.43,15.48-.92,23.22-.49-7.74-.75-15.48-.92-23.22-.11-3.87-.13-7.74-.2-11.61l-.06-11.61.07-11.61c.06-3.87.09-7.74.2-11.61.17-7.74.43-15.48.92-23.22Z" fill="#e6e6e6"/><path d="m240.74,150.34h3.63c0,2.43,1.73,4.46,4.03,4.92.32.06.64.1.98.1h.15s1.23,40.72,1.23,40.72l.03.84h-9.89l-.1-.84-3.53-29.69-1.91-16.04h5.38Z" fill="#359545"/><path d="m235.35,150.34h-3.63c0,2.32-1.47,4.28-4.07,4.85-.5.11-1.03.17-1.61.17l-5.37,40.72-.11.84h10.08l.18-.84,6.43-29.69-1.91-16.04Z" fill="#359545"/><path d="m237.64,200.87s1.33.65.89,2.04h-2.94c.06-.55.38-1.04.86-1.32.47-.28.85-.51,1.19-.72Z" fill="#48c902"/><path d="m250.79,198.96v2.08c-2.7-.03-2.4-2.43-2.4-2.43,1.08-.07,1.72-.16,1.84-.18.01,0,.02,0,.02,0h.01c.29,0,.53.24.53.53Z" fill="#48c902"/><path d="m240.81,198.88c.22-.14.45-.29.71-.45,0,0,.26.04.72.08.76.08,2.07.18,3.66.18.13,0,.27,0,.39,0,.82,0,1.52-.04,2.1-.07,0,0-.3,2.39,2.4,2.43v1.87h-12.26c.45-1.39-.89-2.04-.89-2.04.72-.43,1.25-.77,1.97-1.23.34-.22.73-.46,1.2-.76Z" fill="#359545"/><path d="m250.79,202.91v.07c0,.37-.3.67-.67.67h-14.01c-.15,0-.28-.06-.37-.16-.09-.1-.15-.23-.15-.37,0-.07,0-.14.01-.21h15.2Z" fill="#359545"/><path d="m250.24,196.91v1.52s0,0-.02,0c-.21.02-2.08.23-3.94.25-.13,0-.26,0-.39,0-1.59,0-2.9-.1-3.66-.18-.44-.05-.69-.08-.69-.08v-1.52h8.69Z" fill="#fae0b2"/><path d="m242.01,200.2s.04,0,.06-.02c.03-.03.03-.08,0-.11l-1.2-1.23s-.08-.03-.11,0c-.03.03-.03.08,0,.11l1.2,1.23s.04.02.06.02Z" fill="#48c902"/><path d="m241.41,200.61s.04,0,.06-.02c.03-.03.03-.08,0-.11l-1.21-1.23s-.08-.03-.11,0c-.03.03-.03.08,0,.11l1.21,1.23s.04.02.06.02Z" fill="#48c902"/><path d="m240.81,200.95s.04,0,.06-.02c.03-.03.03-.08,0-.11l-1.2-1.23s-.08-.04-.11-.01c-.04.03-.04.08-.01.11h0s1.21,1.24,1.21,1.24c.02.02.04.02.06.02Z" fill="#48c902"/><path d="m217.3,200.87s1.33.65.89,2.04h-2.94c.06-.55.38-1.04.86-1.32.47-.28.85-.51,1.19-.72Z" fill="#48c902"/><path d="m230.45,198.96v2.08c-2.7-.03-2.4-2.43-2.4-2.43,1.08-.07,1.72-.16,1.84-.18.01,0,.02,0,.02,0h.01c.29,0,.53.24.53.53Z" fill="#48c902"/><path d="m220.47,198.88c.22-.14.45-.29.71-.45,0,0,.26.04.72.08.76.08,2.07.18,3.66.18.13,0,.27,0,.39,0,.81,0,1.52-.04,2.1-.07,0,0-.3,2.39,2.4,2.43v1.87h-12.26c.45-1.39-.89-2.04-.89-2.04.72-.43,1.25-.77,1.97-1.23.34-.22.73-.46,1.2-.76Z" fill="#359545"/><path d="m230.45,202.91v.07c0,.37-.3.67-.67.67h-14.01c-.15,0-.28-.06-.37-.16-.09-.1-.15-.23-.15-.37,0-.07,0-.14.01-.21h15.2Z" fill="#359545"/><path d="m229.9,196.91v1.52s0,0-.02,0c-.21.02-2.08.23-3.94.25-.13,0-.26,0-.39,0-1.59,0-2.9-.1-3.66-.18-.44-.05-.69-.08-.69-.08v-1.52h8.69Z" fill="#fae0b2"/><path d="m221.67,200.2s.04,0,.06-.02c.03-.03.03-.08,0-.11l-1.2-1.23s-.08-.03-.11,0c-.03.03-.03.08,0,.11l1.2,1.23s.04.02.06.02Z" fill="#48c902"/><path d="m221.07,200.61s.04,0,.06-.02c.03-.03.03-.08,0-.11l-1.21-1.23s-.08-.03-.11,0c-.03.03-.03.08,0,.11l1.21,1.23s.04.02.06.02Z" fill="#48c902"/><path d="m220.47,200.95s.04,0,.06-.02c.03-.03.03-.08,0-.11l-1.2-1.23s-.08-.04-.11-.01c-.04.03-.04.08-.01.11h0s1.21,1.24,1.21,1.24c.02.02.04.02.06.02Z" fill="#48c902"/><polygon points="235.35 150.34 235.97 172.36 237.26 166.38 235.35 150.34" fill="#3f4411"/><path d="m249.37,150.34l.15,5.01h-.15c-.34,0-.66-.03-.98-.09-2.3-.45-4.03-2.48-4.03-4.92h5.01Z" fill="#48c902"/><path d="m226.72,150.34h5.01c0,2.32-1.47,4.28-4.07,4.85-.5.11-1.03.17-1.61.17l.66-5.01Z" fill="#48c902"/><path d="m249.53,155.43c-.32,0-.81-.02-1.15-.09-2.37-.47-4.1-2.57-4.1-4.99,0-.04.04-.08.08-.08s.08.04.08.08c0,2.35,1.67,4.38,3.97,4.84.31.06.78.09,1.12.09.04,0,.08.04.08.08s-.04.08-.08.08Z" fill="#171c51"/><path d="m227.63,155.51s0,0-.01,0c-.04,0-.07-.05-.07-.09l.03-.24s.05-.08.09-.07c.04,0,.07.05.07.09l-.03.24s-.04.07-.08.07Z" fill="#171c51"/><path d="m221.73,196.28s0,0-.01,0c-.04,0-.07-.05-.07-.09l.07-.47s.05-.07.09-.07c.04,0,.07.05.07.09l-.07.47s-.04.07-.08.07Zm.14-.95s0,0-.01,0c-.04,0-.07-.05-.07-.09l.07-.47s.05-.07.09-.07c.04,0,.07.05.07.09l-.07.47s-.04.07-.08.07Zm.14-.95s0,0-.01,0c-.04,0-.07-.05-.07-.09l.07-.47s.05-.07.09-.07c.04,0,.07.05.07.09l-.07.47s-.04.07-.08.07Zm.14-.95s0,0-.01,0c-.04,0-.07-.05-.07-.09l.07-.47s.05-.07.09-.07c.04,0,.07.05.07.09l-.07.47s-.04.07-.08.07Zm.14-.95s0,0-.01,0c-.04,0-.07-.05-.07-.09l.07-.47s.05-.07.09-.07c.04,0,.07.05.07.09l-.07.47s-.04.07-.08.07Zm.14-.95s0,0-.01,0c-.04,0-.07-.05-.07-.09l.07-.47s.05-.07.09-.07c.04,0,.07.05.07.09l-.07.47s-.04.07-.08.07Zm.14-.95s0,0-.01,0c-.04,0-.07-.05-.07-.09l.07-.47s.05-.07.09-.07c.04,0,.07.05.07.09l-.07.47s-.04.07-.08.07Zm.14-.95s0,0-.01,0c-.04,0-.07-.05-.07-.09l.07-.47s.05-.07.09-.07c.04,0,.07.05.07.09l-.07.47s-.04.07-.08.07Zm.14-.95s0,0-.01,0c-.04,0-.07-.05-.07-.09l.07-.47s.05-.07.09-.07c.04,0,.07.05.07.09l-.07.47s-.04.07-.08.07Zm.14-.95s0,0-.01,0c-.04,0-.07-.05-.07-.09l.07-.47s.05-.07.09-.07c.04,0,.07.05.07.09l-.07.47s-.04.07-.08.07Zm.14-.95s0,0-.01,0c-.04,0-.07-.05-.07-.09l.07-.47s.05-.08.09-.07c.04,0,.07.05.07.09l-.07.47s-.04.07-.08.07Zm.14-.95s0,0-.01,0c-.04,0-.07-.05-.07-.09l.07-.47s.05-.08.09-.07c.04,0,.07.05.07.09l-.07.47s-.04.07-.08.07Zm.14-.95s0,0-.01,0c-.04,0-.07-.05-.07-.09l.07-.47s.05-.08.09-.07c.04,0,.07.05.07.09l-.07.47s-.04.07-.08.07Zm.14-.95s0,0-.01,0c-.04,0-.07-.05-.07-.09l.07-.47s.05-.08.09-.07c.04,0,.07.05.07.09l-.07.47s-.04.07-.08.07Zm.14-.95s0,0-.01,0c-.04,0-.07-.05-.07-.09l.07-.47s.05-.08.09-.07c.04,0,.07.05.07.09l-.07.47s-.04.07-.08.07Zm.14-.95s0,0-.01,0c-.04,0-.07-.05-.07-.09l.07-.47s.05-.07.09-.07c.04,0,.07.05.07.09l-.07.47s-.04.07-.08.07Zm.14-.95s0,0-.01,0c-.04,0-.07-.05-.07-.09l.07-.47s.05-.08.09-.07c.04,0,.07.05.07.09l-.07.47s-.04.07-.08.07Zm.14-.95s0,0-.01,0c-.04,0-.07-.05-.07-.09l.07-.47s.05-.07.09-.07c.04,0,.07.05.07.09l-.07.47s-.04.07-.08.07Zm.14-.95s0,0-.01,0c-.04,0-.07-.05-.07-.09l.07-.47s.05-.08.09-.07c.04,0,.07.05.07.09l-.07.47s-.04.07-.08.07Zm.14-.95s0,0-.01,0c-.04,0-.07-.05-.07-.09l.07-.47s.05-.08.09-.07c.04,0,.07.05.07.09l-.07.47s-.04.07-.08.07Zm.14-.95s0,0-.01,0c-.04,0-.07-.05-.07-.09l.07-.47s.05-.08.09-.07c.04,0,.07.05.07.09l-.07.47s-.04.07-.08.07Zm.14-.95s0,0-.01,0c-.04,0-.07-.05-.07-.09l.07-.47s.05-.07.09-.07c.04,0,.07.05.07.09l-.07.47s-.04.07-.08.07Zm.14-.95s0,0-.01,0c-.04,0-.07-.05-.07-.09l.07-.47s.05-.08.09-.07c.04,0,.07.05.07.09l-.07.47s-.04.07-.08.07Zm.14-.95s0,0-.01,0c-.04,0-.07-.05-.07-.09l.07-.47s.05-.08.09-.07c.04,0,.07.05.07.09l-.07.47s-.04.07-.08.07Zm.14-.95s0,0-.01,0c-.04,0-.07-.05-.07-.09l.07-.47s.05-.08.09-.07c.04,0,.07.05.07.09l-.07.47s-.04.07-.08.07Zm.14-.95s0,0-.01,0c-.04,0-.07-.05-.07-.09l.07-.47s.05-.08.09-.07c.04,0,.07.05.07.09l-.07.47s-.04.07-.08.07Zm.14-.95s0,0-.01,0c-.04,0-.07-.05-.07-.09l.07-.47s.05-.08.09-.07c.04,0,.07.05.07.09l-.07.47s-.04.07-.08.07Zm.14-.95s0,0-.01,0c-.04,0-.07-.05-.07-.09l.07-.47s.05-.08.09-.07c.04,0,.07.05.07.09l-.07.47s-.04.07-.08.07Zm.14-.95s0,0-.01,0c-.04,0-.07-.05-.07-.09l.07-.47s.05-.08.09-.07c.04,0,.07.05.07.09l-.07.47s-.04.07-.08.07Zm.14-.95s0,0-.01,0c-.04,0-.07-.05-.07-.09l.07-.47s.05-.07.09-.07c.04,0,.07.05.07.09l-.07.47s-.04.07-.08.07Zm.14-.95s0,0-.01,0c-.04,0-.07-.05-.07-.09l.07-.47s.05-.08.09-.07c.04,0,.07.05.07.09l-.07.47s-.04.07-.08.07Zm.14-.95s0,0-.01,0c-.04,0-.07-.05-.07-.09l.07-.47s.05-.07.09-.07c.04,0,.07.05.07.09l-.07.47s-.04.07-.08.07Zm.14-.95s0,0-.01,0c-.04,0-.07-.05-.07-.09l.07-.47s.05-.08.09-.07c.04,0,.07.05.07.09l-.07.47s-.04.07-.08.07Zm.14-.95s0,0-.01,0c-.04,0-.07-.05-.07-.09l.07-.47s.05-.07.09-.07c.04,0,.07.05.07.09l-.07.47s-.04.07-.08.07Zm.14-.95s0,0-.01,0c-.04,0-.07-.05-.07-.09l.07-.47s.05-.08.09-.07c.04,0,.07.05.07.09l-.07.47s-.04.07-.08.07Zm.14-.95s0,0-.01,0c-.04,0-.07-.05-.07-.09l.07-.47s.05-.08.09-.07c.04,0,.07.05.07.09l-.07.47s-.04.07-.08.07Zm.14-.95s0,0-.01,0c-.04,0-.07-.05-.07-.09l.07-.47s.05-.08.09-.07c.04,0,.07.05.07.09l-.07.47s-.04.07-.08.07Zm.14-.95s0,0-.01,0c-.04,0-.07-.05-.07-.09l.07-.47s.05-.08.09-.07c.04,0,.07.05.07.09l-.07.47s-.04.07-.08.07Zm.14-.95s0,0-.01,0c-.04,0-.07-.05-.07-.09l.07-.47s.05-.08.09-.07c.04,0,.07.05.07.09l-.07.47s-.04.07-.08.07Zm.14-.95s0,0-.01,0c-.04,0-.07-.05-.07-.09l.07-.47s.05-.07.09-.07c.04,0,.07.05.07.09l-.07.47s-.04.07-.08.07Zm.14-.95s0,0-.01,0c-.04,0-.07-.05-.07-.09l.07-.47s.05-.07.09-.07c.04,0,.07.05.07.09l-.07.47s-.04.07-.08.07Zm.14-.95s0,0-.01,0c-.04,0-.07-.05-.07-.09l.07-.47s.05-.08.09-.07c.04,0,.07.05.07.09l-.07.47s-.04.07-.08.07Zm.14-.95s0,0-.01,0c-.04,0-.07-.05-.07-.09l.07-.47s.05-.08.09-.07c.04,0,.07.05.07.09l-.07.47s-.04.07-.08.07Z"/><path d="m221.63,196.99s0,0-.01,0c-.04,0-.07-.05-.07-.09l.03-.24s.05-.07.09-.07c.04,0,.07.05.07.09l-.03.24s-.04.07-.08.07Z" fill="#171c51"/><path d="m230.84,196.15h-.48s-.08-.04-.08-.08.04-.08.08-.08h.48s.08.04.08.08-.04.08-.08.08Zm-.96,0h-.48s-.08-.04-.08-.08.04-.08.08-.08h.48s.08.04.08.08-.04.08-.08.08Zm-.96,0h-.48s-.08-.04-.08-.08.04-.08.08-.08h.48s.08.04.08.08-.04.08-.08.08Zm-.96,0h-.48s-.08-.04-.08-.08.04-.08.08-.08h.48s.08.04.08.08-.04.08-.08.08Zm-.96,0h-.48s-.08-.04-.08-.08.04-.08.08-.08h.48s.08.04.08.08-.04.08-.08.08Zm-.96,0h-.48s-.08-.04-.08-.08.04-.08.08-.08h.48s.08.04.08.08-.04.08-.08.08Zm-.96,0h-.48s-.08-.04-.08-.08.04-.08.08-.08h.48s.08.04.08.08-.04.08-.08.08Zm-.96,0h-.48s-.08-.04-.08-.08.04-.08.08-.08h.48s.08.04.08.08-.04.08-.08.08Zm-.96,0h-.48s-.08-.04-.08-.08.04-.08.08-.08h.48s.08.04.08.08-.04.08-.08.08Zm-.96,0h-.48s-.08-.04-.08-.08.04-.08.08-.08h.48s.08.04.08.08-.04.08-.08.08Zm-.96,0h-.48s-.08-.04-.08-.08.04-.08.08-.08h.48s.08.04.08.08-.04.08-.08.08Z" fill="#171c51"/><path d="m249.58,196.99s-.08-.03-.08-.08v-.2s.03-.08.07-.08c.04,0,.08.03.08.08v.2s-.03.08-.07.08h0Zm-.02-.68s-.08-.03-.08-.08v-.48s.02-.08.06-.08c.04,0,.08.03.08.08v.48s-.02.08-.06.08h0Zm-.03-.96s-.08-.03-.08-.08v-.48s.02-.08.06-.08c.04,0,.08.03.08.08v.48s-.02.08-.06.08h0Zm-.03-.96s-.08-.03-.08-.08v-.48s.02-.08.06-.08c.05,0,.08.03.08.08v.48s-.02.08-.06.08h0Zm-.03-.96s-.08-.03-.08-.08v-.48s.02-.08.06-.08c.05,0,.08.03.08.08v.48s-.02.08-.06.08h0Zm-.03-.96s-.08-.03-.08-.08v-.48s.02-.08.06-.08c.04,0,.08.03.08.08v.48s-.02.08-.06.08h0Zm-.03-.96s-.08-.03-.08-.08v-.48s.02-.08.06-.08c.04,0,.08.03.08.08v.48s-.02.08-.06.08h0Zm-.03-.96s-.08-.03-.08-.08v-.48s.02-.08.06-.08c.04,0,.08.03.08.08v.48s-.02.08-.06.08h0Zm-.03-.96s-.08-.03-.08-.08v-.48s.02-.08.06-.08c.05,0,.08.03.08.08v.48s-.02.08-.06.08h0Zm-.03-.96s-.08-.03-.08-.08v-.48s.02-.08.06-.08c.04,0,.08.03.08.08v.48s-.02.08-.06.08h0Zm-.03-.96s-.08-.03-.08-.08v-.48s.02-.08.06-.08c.04,0,.08.03.08.08v.48s-.02.08-.06.08h0Zm-.03-.96s-.08-.03-.08-.08v-.48s.02-.08.06-.08c.05,0,.08.03.08.08v.48s-.02.08-.06.08h0Zm-.03-.96s-.08-.03-.08-.08v-.48s.02-.08.06-.08c.05,0,.08.03.08.08v.48s-.02.08-.06.08h0Zm-.03-.96s-.08-.03-.08-.08v-.48s.02-.08.06-.08c.04,0,.08.03.08.08v.48s-.02.08-.06.08h0Zm-.03-.96s-.08-.03-.08-.08v-.48s.02-.08.06-.08c.04,0,.08.03.08.08v.48s-.02.08-.06.08h0Zm-.03-.96s-.08-.03-.08-.08v-.48s.02-.08.06-.08c.04,0,.08.03.08.08v.48s-.02.08-.06.08h0Zm-.03-.96s-.08-.03-.08-.08v-.48s.02-.08.06-.08c.05,0,.08.03.08.08v.48s-.02.08-.06.08h0Zm-.03-.96s-.08-.03-.08-.08v-.48s.02-.08.06-.08c.05,0,.08.03.08.08v.48s-.02.08-.06.08h0Zm-.03-.96s-.08-.03-.08-.08v-.48s.02-.08.06-.08c.04,0,.08.03.08.08v.48s-.02.08-.06.08h0Zm-.03-.96s-.08-.03-.08-.08v-.48s.02-.08.06-.08c.04,0,.08.03.08.08v.48s-.02.08-.06.08h0Zm-.03-.96s-.08-.03-.08-.08v-.48s.02-.08.06-.08c.05,0,.08.03.08.08v.48s-.02.08-.06.08h0Zm-.03-.96s-.08-.03-.08-.08v-.48s.02-.08.06-.08c.05,0,.08.03.08.08v.48s-.02.08-.06.08h0Zm-.03-.96s-.08-.03-.08-.08v-.48s.02-.08.06-.08c.04,0,.08.03.08.08v.48s-.02.08-.06.08h0Zm-.03-.96s-.08-.03-.08-.08v-.48s.02-.08.06-.08c.04,0,.08.03.08.08v.48s-.02.08-.06.08h0Zm-.03-.96s-.08-.03-.08-.08v-.48s.02-.08.06-.08c.04,0,.08.03.08.08v.48s-.02.08-.06.08h0Zm-.03-.96s-.08-.03-.08-.08v-.48s.02-.08.06-.08c.05,0,.08.03.08.08v.48s-.02.08-.06.08h0Zm-.03-.96s-.08-.03-.08-.08v-.48s.02-.08.06-.08c.04,0,.08.03.08.08v.48s-.02.08-.06.08h0Zm-.03-.96s-.08-.03-.08-.08v-.48s.02-.08.06-.08c.04,0,.08.03.08.08v.48s-.02.08-.06.08h0Zm-.03-.96s-.08-.03-.08-.08v-.48s.02-.08.06-.08c.04,0,.08.03.08.08v.48s-.02.08-.06.08h0Zm-.03-.96s-.08-.03-.08-.08v-.48s.02-.08.06-.08c.05,0,.08.03.08.08v.48s-.02.08-.06.08h0Zm-.03-.96s-.08-.03-.08-.08v-.48s.02-.08.06-.08c.04,0,.08.03.08.08v.48s-.02.08-.06.08h0Zm-.03-.96s-.08-.03-.08-.08v-.48s.02-.08.06-.08c.04,0,.08.03.08.08v.48s-.02.08-.06.08h0Zm-.03-.96s-.08-.03-.08-.08v-.48s.02-.08.06-.08c.04,0,.08.03.08.08v.48s-.02.08-.06.08h0Zm-.03-.96s-.08-.03-.08-.08v-.48s.02-.08.06-.08c.05,0,.08.03.08.08v.48s-.02.08-.06.08h0Zm-.03-.96s-.08-.03-.08-.08v-.48s.02-.08.06-.08c.05,0,.08.03.08.08v.48s-.02.08-.06.08h0Zm-.03-.96s-.08-.03-.08-.08v-.48s.02-.08.06-.08c.04,0,.08.03.08.08v.48s-.02.08-.06.08h0Zm-.03-.96s-.08-.03-.08-.08v-.48s.02-.08.06-.08c.04,0,.08.03.08.08v.48s-.02.08-.06.08h0Zm-.03-.96s-.08-.03-.08-.08v-.48s.02-.08.06-.08c.04,0,.08.03.08.08v.48s-.02.08-.06.08h0Zm-.03-.96s-.08-.03-.08-.08v-.48s.02-.08.06-.08c.05,0,.08.03.08.08v.48s-.02.08-.06.08h0Zm-.03-.96s-.08-.03-.08-.08v-.48s.02-.08.06-.08c.04,0,.08.03.08.08v.48s-.02.08-.06.08h0Zm-.03-.96s-.08-.03-.08-.08v-.48s.02-.08.06-.08c.04,0,.08.03.08.08v.48s-.02.08-.06.08h0Zm-.03-.96s-.08-.03-.08-.08v-.48s.02-.08.06-.08c.04,0,.08.03.08.08v.48s-.02.08-.06.08h0Zm-.03-.96s-.08-.03-.08-.08v-.48s.02-.08.06-.08c.05,0,.08.03.08.08v.48s-.02.08-.06.08h0Zm-.03-.96s-.08-.03-.08-.08v-.48s.02-.08.06-.08c.04,0,.08.03.08.08v.48s-.02.08-.06.08h0Z"/><path d="m250.76,196.15h-.31s-.08-.04-.08-.08.04-.08.08-.08h.31s.08.04.08.08-.04.08-.08.08Zm-.79,0h-.48s-.08-.04-.08-.08.04-.08.08-.08h.48s.08.04.08.08-.04.08-.08.08Zm-.96,0h-.48s-.08-.04-.08-.08.04-.08.08-.08h.48s.08.04.08.08-.04.08-.08.08Zm-.96,0h-.48s-.08-.04-.08-.08.04-.08.08-.08h.48s.08.04.08.08-.04.08-.08.08Zm-.96,0h-.48s-.08-.04-.08-.08.04-.08.08-.08h.48s.08.04.08.08-.04.08-.08.08Zm-.96,0h-.48s-.08-.04-.08-.08.04-.08.08-.08h.48s.08.04.08.08-.04.08-.08.08Zm-.96,0h-.48s-.08-.04-.08-.08.04-.08.08-.08h.48s.08.04.08.08-.04.08-.08.08Zm-.96,0h-.48s-.08-.04-.08-.08.04-.08.08-.08h.48s.08.04.08.08-.04.08-.08.08Zm-.96,0h-.48s-.08-.04-.08-.08.04-.08.08-.08h.48s.08.04.08.08-.04.08-.08.08Zm-.96,0h-.48s-.08-.04-.08-.08.04-.08.08-.08h.48s.08.04.08.08-.04.08-.08.08Zm-.96,0h-.48s-.08-.04-.08-.08.04-.08.08-.08h.48s.08.04.08.08-.04.08-.08.08Z" fill="#171c51"/><polygon points="249.38 150.34 226.4 152.71 226.72 150.34 249.38 150.34" mix-blend-mode="multiply" opacity=".4"/><path d="m234.49,122.86s-3.45.15-7.22,2.28c-3.77,2.13-4.87,3.63-4.87,3.63l4.04,4.04,8.05-9.94Z" fill="#92278f"/><polygon points="242.67 117.79 241.98 123.34 236.95 122.57 236.91 122.42 236.74 121.73 236.55 121.01 236.54 121 235.87 118.39 242.67 117.79" fill="#fae0b2"/><path d="m243.06,115.75c-.11,3.16-2.1,6.09-5.26,5.97s-5.61-.1-6.19-6.39c-.29-3.15,2.77-5.64,5.93-5.52s5.64,2.77,5.52,5.93Z" fill="#fae0b2"/><path d="m239.28,107.73s-.07-4.56-6.85-4.24c-6.24.29-6.54,14.51,4.68,9.22.98-.46,2.09-.55,3.12-.2.16.05.3.11.41.16.6.29.52,1.98.52,1.98,0,0,.8-.63,1.04.47s-.8,1.27-.8,1.27l.68,2.87s1.08-1.75,1.81-4.79c.71-2.96-1.71-7.62-4.6-6.72Z" fill="#1a1a1a"/><path d="m237.08,123.21l-.35-1.48s3.65.3,4.96-1.92c0,0-.02,3.01-4.61,3.4Z" fill="#fae0b2"/><path d="m249.85,141.47l.4-7.13c.32-5.72.02-11.7-9.17-11.69-.01,0-.02,0-.04,0-.61-.1-1.06-.14-1.27-.16-.09,0-.14,0-.14,0-11.84,0-11.52,4.4-11.87,10.61l-.37,6.68-1.19,9.83c-.08.7.46,1.31,1.16,1.32l21.72.1c.67,0,1.21-.56,1.18-1.23l-.41-8.31Z" fill="#b24b9c"/><path d="m239.77,122.49c.21.02.66.06,1.27.16-.41-.08-.84-.13-1.27-.16Z" fill="#587cf8"/><path d="m209.93,122.95l.08.03,5.18,2.88-.57,1.02-2.71,4.82-5.15-2.86c.54-.77,1.05-1.57,1.52-2.41.64-1.13,1.19-2.3,1.65-3.48Z" fill="#4c144d"/><polygon points="215.19 125.86 216.06 124.32 250.99 143.73 245.97 152.66 211.04 133.24 211.91 131.7 211.91 131.7 214.62 126.88 215.19 125.86" fill="#92278f"/><path d="m195,94.11c6,3.34,9.8,9.09,10.86,15.36.51,3.05.38,6.23-.47,9.31h0c-.21.76-.46,1.5-.75,2.24-.36.91-.78,1.8-1.27,2.67-2.08,3.71-5.1,6.58-8.59,8.47-6.38,3.47-14.35,3.71-21.14-.07-6.65-3.69-10.6-10.35-11.1-17.39-.3-4.1.57-8.33,2.74-12.19.41-.73.86-1.43,1.34-2.09.46-.65.96-1.26,1.49-1.84h0c2.15-2.39,4.76-4.22,7.61-5.44,6.02-2.58,13.14-2.45,19.29.97Z" mix-blend-mode="overlay"/><path d="m206.76,128.84c-8.02,11.35-23.5,15.07-35.9,8.18-13.24-7.36-17.95-24.03-10.53-37.24,7.43-13.21,24.18-17.95,37.43-10.59,12.1,6.73,17.08,21.23,12.17,33.76-.46,1.18-1.01,2.34-1.65,3.48-.47.84-.98,1.64-1.52,2.41Zm-11.77-34.73c-10.52-5.84-23.83-2.08-29.73,8.41-5.9,10.49-2.16,23.73,8.36,29.58,10.52,5.85,23.83,2.08,29.73-8.41,5.9-10.49,2.16-23.74-8.36-29.58Z" fill="#92278f"/><path d="m177.92,94.35c-3.39-1.49-7.35,2.08-7.97,6.3-.62,4.22,14.83-3.28,7.97-6.3Z" fill="#fff" mix-blend-mode="soft-light"/><rect x="226.76" y="137.65" width="5.43" height="4.48" rx="2.24" ry="2.24" transform="translate(439.42 307.67) rotate(-172.73)" fill="#fae0b2"/><path d="m230.87,138.46h0c.31-.3,1.07.15.78-.15l-1.92-2.14c-.3-.31-.79-.31-1.1-.01h0c-.31.3-.31.79-.01,1.1l1.16,1.19c.3.31.79.31,1.1.01Z" fill="#fae0b2"/><rect x="227.24" y="136.62" width="1.55" height="3.21" rx=".78" ry=".78" transform="translate(393.97 -70.48) rotate(97.27)" fill="#fae0b2"/><rect x="226.07" y="137.44" width="1.55" height="3.21" rx=".77" ry=".77" transform="translate(393.47 -68.4) rotate(97.26)" fill="#fae0b2"/><rect x="226.35" y="138.45" width="1.55" height="3.21" rx=".78" ry=".78" transform="translate(394.78 -67.53) rotate(97.27)" fill="#fae0b2"/><rect x="227.17" y="139.53" width="1.55" height="3.21" rx=".78" ry=".78" transform="translate(396.77 -67.13) rotate(97.26)" fill="#fae0b2"/><rect x="227.58" y="137.17" width=".16" height="2.52" transform="translate(51.04 337.93) rotate(-79.78)" fill="#fe875e"/><rect x="226.74" y="138.58" width=".16" height="2.47" transform="translate(48.99 338.24) rotate(-79.78)" fill="#fe875e"/><rect x="227.41" y="139.88" width=".16" height="2.12" transform="translate(48.43 339.83) rotate(-79.78)" fill="#fe875e"/><path d="m245.66,124.1c2.62.05,4.65,2.31,4.41,4.92-.1,1.11-.2,2.09-.28,2.51-.05.3-.12.61-.18.92-.06.31-.13.61-.2.92-.07.31-.14.62-.23.93l-.26.94c-.04.15-.09.31-.15.47l-.16.48-.16.47-.19.49-.19.48c-.03.08-.06.16-.1.24l-.12.25-.23.5-.12.25-.06.12-.1.19c-.14.26-.29.52-.45.76-.17.24-.35.47-.53.69-.19.21-.39.41-.59.61-.2.19-.41.35-.62.52-.84.63-1.7,1.03-2.5,1.31-.2.06-.41.14-.6.19l-.58.15c-.38.08-.76.15-1.12.19-.73.1-1.43.13-2.11.13-1.36,0-2.63-.17-3.87-.4-.62-.12-1.23-.26-1.83-.42-.3-.08-.6-.17-.9-.26l-.45-.15-.48-.16.79-4.36s.11-.01.17-.02h.19s.4-.04.4-.04c.26-.02.53-.04.79-.06.53-.05,1.05-.09,1.57-.16,1.03-.12,2.03-.3,2.93-.54.45-.11.87-.26,1.25-.4.09-.04.19-.07.27-.12.08-.04.17-.08.25-.12l.22-.12c.08-.04.13-.09.19-.13.24-.17.36-.73.36-.73l.08-.29.04-.14c.01-.05.02-.11.03-.16l.07-.33.07-.32.06-.35c.04-.24.09-.45.12-.7.08-.48.3-2.82.49-5.03.21-2.36,2.2-4.15,4.57-4.11h0Z" fill="#92278f"/><rect x="218.66" y="136.86" width="1.55" height="3.21" rx=".78" ry=".78" transform="translate(287.95 388.74) rotate(-137.56)" fill="#fae0b2"/><rect x="217.89" y="135.49" width="1.55" height="3.69" rx=".78" ry=".78" transform="translate(287.37 386.25) rotate(-137.56)" fill="#fae0b2"/><rect x="216.89" y="135.06" width="1.55" height="3.21" rx=".78" ry=".78" transform="translate(286.09 384.4) rotate(-137.56)" fill="#fae0b2"/><rect x="216.11" y="134.65" width="1.55" height="2.29" rx=".78" ry=".78" transform="translate(285.32 382.37) rotate(-137.56)" fill="#fae0b2"/><rect x="217.76" y="137.9" width="2.57" height=".16" transform="translate(-33.71 193.96) rotate(-44.7)" fill="#fe875e"/><rect x="216.65" y="136.82" width="2.77" height=".16" transform="translate(-30.72 203.26) rotate(-47.06)" fill="#fe875e"/><rect x="216.24" y="135.97" width="1.95" height=".16" transform="translate(-31.62 197.49) rotate(-45.93)" fill="#fe875e"/></g></g></svg>