<?xml version="1.0" encoding="UTF-8"?><svg id="a" xmlns="http://www.w3.org/2000/svg" viewBox="0 0 300 300"><path d="m150,0C67.16,0,0,67.16,0,150s67.16,150,150,150,150-67.16,150-150S232.84,0,150,0Zm-25.89,97.22c26.36.01,52.71.08,79.1.01,5.04-.63,9.07,4.91,7.18,9.57-6.81,25.57-13.23,51.14-20.16,76.71-.75,3.9-4.78,5.41-8.31,5.16h-105.81c-3.65.25-7.56-1.89-8.18-5.79-3.03-11.6-5.98-23.26-8.91-34.92,4.08,1.03,8.35,1.58,12.74,1.58.67,0,1.34-.03,2-.05.03.09.06.18.09.27,9.19.88,18.39.38,27.58.25.1-3.17-.06-6.26-.45-9.4,6.31-4.26,11.65-9.86,15.6-16.39,10.22.11,20.35.2,30.58-.15.37-4.28.76-8.69.76-12.97-8.55-.19-17.1-.17-25.65-.14,1.19-4.38,1.84-8.98,1.85-13.73Zm-96.94,2.43c0-24.89,20.18-45.07,45.07-45.07s45.07,20.18,45.07,45.07-20.18,45.07-45.07,45.07-45.07-20.18-45.07-45.07Zm69.98,145.46c-8.19,1.76-17.01-4.03-18.89-12.22-2.27-7.94,3.02-16.88,10.84-19.4,8.69-3.4,19.27,2.77,21.03,11.84,2.27,8.69-4.16,18.26-12.97,19.78Zm78.34.25c-9.45.13-17.89-9.32-16.12-18.77.75-6.68,6.3-12.22,12.72-13.61,9.45-2.52,19.52,5.54,19.78,15.12.63,9.07-7.3,17.51-16.37,17.26Zm92.96-143.72c-11.46,1.26-23.18-.26-34.64.75-9.33,33.13-18.27,66.25-27.34,99.51-.75,3.91-4.4,6.81-8.43,6.3-44.34-.13-88.55.12-132.89-.13-8.56.25-8.94-13.6-.25-13.73,43.08-.38,86.16.25,129.23-.25,9.83-33.38,18.26-67.26,27.84-100.77.75-2.77,3.4-5.04,6.42-4.78,12.97-.12,25.95-.25,38.92,0,6.68.63,7.56,11.21,1.13,13.1Z" fill="#4c144d"/><path d="m77.5,164.11c.5,3.53,1.39,7.06,2.64,10.46,7.69.25,15.37.13,23.05,0,.13-3.4-.12-6.93-.88-10.33-8.31-.25-16.5-.13-24.81-.13Z" fill="#4c144d"/><path d="m116.67,164.11c-.13,3.53,0,7.06.88,10.46,8.7.13,17.38.13,26.08.13.25-3.4,1.64-7.43.13-10.46-8.94-.25-18.14-.13-27.08-.13Z" fill="#4c144d"/><path d="m114.91,138.16c-.13,3.9.13,7.81.63,11.59,9.95.5,20.15,1.13,29.98-.38.5-3.53.63-7.18.63-10.83-10.33-1.26-20.91-.5-31.24-.38Z" fill="#4c144d"/><path d="m184.06,149.88c2.77-2.89,2.65-7.94,3.66-11.84-9.19,0-18.39-.38-27.46.12-.63,4.03-.88,7.94-.51,11.97,8.06,0,16.25.25,24.31-.26Z" fill="#4c144d"/><path d="m191.37,124.18c1.63-4.29,2.64-8.69,3.4-13.1-10.96-.25-21.92-.25-32.75,0-.26,4.28-1.64,9.07-.26,13.1,9.83.13,19.78.25,29.6,0Z" fill="#4c144d"/><polygon points="79.96 119.67 79.96 107.37 92.27 107.37 92.27 91.93 79.96 91.93 79.96 79.62 64.52 79.62 64.52 91.93 52.21 91.93 52.21 107.37 64.52 107.37 64.52 119.67 79.96 119.67" fill="#4c144d"/><path d="m178.39,174.44c1.26-3.4,2.02-6.8,2.77-10.2-7.56-.13-15.12-.25-22.79,0-.38,3.4-.51,6.93-.26,10.46,6.8,0,13.61.25,20.28-.25Z" fill="#4c144d"/></svg>