<?xml version="1.0" encoding="UTF-8"?><svg id="a" xmlns="http://www.w3.org/2000/svg" xmlns:xlink="http://www.w3.org/1999/xlink" viewBox="0 0 300.79 220.38"><defs><clipPath id="b"><path d="m247.94,99.92v71.99c0,3.4-2,6.33-4.88,7.69-1.1.52-2.32.81-3.61.81H107.47c-4.69,0-8.5-3.81-8.5-8.5v-71.99c0-4.69,3.81-8.5,8.5-8.5h131.98c4.69,0,8.5,3.81,8.5,8.5Z" fill="none"/></clipPath><clipPath id="c"><path d="m116.4,103.68v90.79c0,2.35-1.91,4.26-4.26,4.26h-48.01c-2.35,0-4.26-1.91-4.26-4.26v-90.79h56.53Z" fill="none"/></clipPath></defs><path d="m64.24,194.99s-.87-33.81,5.95-53.9c6.82-20.09-27.02-50.38-2.96-70.52,10.5-8.78,57.42-60.42,108.51-42.61,38.79,13.52,20.99,32.17,28.67,52.23,7.68,20.06,18.87,42.21,22.92,46.63s-3.77-17.03-3.79-26.57c-.02-9.54,28.89-.66,38.53,13.89,9.64,14.54-2.96,60.49-8.02,69.55-5.05,9.07-17.35,11.31-17.35,11.31H64.24Z" fill="#48c902"/><path d="m21.43,128.54c-2.57,0-4.66-2.09-4.66-4.66s2.09-4.66,4.66-4.66,4.66,2.09,4.66,4.66-2.09,4.66-4.66,4.66Zm0-8.19c-1.95,0-3.53,1.58-3.53,3.53s1.58,3.53,3.53,3.53,3.53-1.58,3.53-3.53-1.58-3.53-3.53-3.53Z" fill="#4c144d"/><path d="m281.31,142.76c-2.57,0-4.66-2.09-4.66-4.66s2.09-4.66,4.66-4.66,4.66,2.09,4.66,4.66-2.09,4.66-4.66,4.66Zm0-8.19c-1.95,0-3.53,1.58-3.53,3.53s1.58,3.53,3.53,3.53,3.53-1.58,3.53-3.53-1.58-3.53-3.53-3.53Z" fill="#4c144d"/><path d="m104.36,43.95c-2.57,0-4.66-2.09-4.66-4.66s2.09-4.66,4.66-4.66,4.66,2.09,4.66,4.66-2.09,4.66-4.66,4.66Zm0-8.19c-1.95,0-3.53,1.58-3.53,3.53s1.58,3.53,3.53,3.53,3.53-1.58,3.53-3.53-1.58-3.53-3.53-3.53Z" fill="#4c144d"/><path d="m158.33,69.4c-4.48,0-8.12-3.64-8.12-8.12s3.64-8.12,8.12-8.12,8.12,3.64,8.12,8.12-3.64,8.12-8.12,8.12Zm0-14.28c-3.39,0-6.15,2.76-6.15,6.15s2.76,6.15,6.15,6.15,6.15-2.76,6.15-6.15-2.76-6.15-6.15-6.15Z" fill="#4c144d"/><path d="m50.26,196.26c-.04-.11-4.01-11.52-10.75-23.36-6.18-10.87-16.01-24.35-27.76-26.84l.23-1.1c5.39,1.15,10.82,4.56,16.14,10.14,4.22,4.43,8.38,10.24,12.38,17.27,6.78,11.94,10.78,23.42,10.82,23.54l-1.07.37Z" fill="#4c144d"/><path d="m57.21,196.24c-.04-.14-4.11-14.12-7.09-33.18-1.75-11.19-2.8-21.92-3.1-31.89-.38-12.47.4-23.78,2.32-33.62l1.11.22c-4.31,22.1-1.95,47.6.79,65.1,2.97,18.98,7.02,32.91,7.06,33.05l-1.08.32Z" fill="#4c144d"/><path d="m64.68,196.23l-1.09-.31c.02-.08,2.23-7.73,6.05-15.86,2.25-4.79,4.61-8.82,7.02-11.96,3.05-3.98,6.2-6.57,9.36-7.7,3.64-1.3,7.31-.69,10.92,1.82l-.64.93c-3.29-2.29-6.62-2.85-9.9-1.68-5.33,1.9-10.77,8.49-15.74,19.06-3.78,8.06-5.97,15.63-5.99,15.71Z" fill="#9bd"/><path d="m70.13,196.37l-.96-.59c.04-.06,3.82-6.25,6.99-10.57,1.48-2.02,3.55-2.42,5.37-2.77,2.38-.46,3.95-.76,3.8-4.23l-.02-.58c-.19-4.46-.32-7.41,1.22-8.9.82-.79,2.01-1.1,3.76-.96,1.9.15,3.63-.16,5.3-.46,2.56-.46,4.97-.89,7.41.5.21.12.34.15.4.16.08-.24.03-1.1-.67-2.56-1.36-2.87-5.22-7.89-11.09-8.48-9.82-.99-11.02-.5-14.02,3.01-1.44,1.69-2.18,2.71-2.71,3.45-1.16,1.6-1.34,1.85-4.96,4.06-5.36,3.28-5.63,5.57-5.26,7.2.86,3.78-2.74,20.81-2.9,21.54l-1.1-.24c1.29-6.04,3.55-18.22,2.9-21.05-.68-2.97,1.1-5.56,5.77-8.41,3.43-2.1,3.57-2.29,4.64-3.76.55-.76,1.3-1.8,2.77-3.52,1.69-1.98,2.94-3.08,5.05-3.57,2.14-.49,5.14-.32,9.94.16,3.9.39,6.81,2.56,8.55,4.31,2.27,2.27,3.57,4.76,4.03,6.32.35,1.21.27,2.04-.24,2.44-.29.23-.8.39-1.65-.09-2.08-1.19-4.2-.81-6.65-.37-1.66.3-3.54.63-5.59.47-1.4-.11-2.32.1-2.89.65-1.17,1.13-1.05,4.03-.88,8.04l.02.58c.19,4.44-2.31,4.92-4.72,5.38-1.7.33-3.45.67-4.68,2.33-3.14,4.28-6.9,10.43-6.93,10.49Z" fill="#9bd"/><path d="m62.64,186.01c-.02-.06-2.18-6.5-3.05-15.16-.42-4.24.81-6.75,1.9-8.97,1.25-2.55,2.34-4.76,1.14-9.18-1.12-4.14-2.48-4.79-3.67-5.35-.66-.31-1.34-.64-1.89-1.43-.57-.83-.9-2.06-1.06-3.89-.32-3.72.92-5.21,2.01-6.52,1.22-1.46,2.18-2.61.79-6.92-1.08-3.34-2.23-4.73-3.16-5.84-1.46-1.76-2.43-2.92-1.76-8.97.54-4.87,2.19-6.9,3.39-8.38,1.28-1.58,2.05-2.53,1-5.97-1.22-3.98-2.3-6.23-3.64-7.52-1.48-1.44-3.32-1.72-5.99-.94-2.62.78-4.39,2.55-5.27,5.27-.82,2.56-.8,5.81.08,9.41.81,3.33-.6,7.25-2.09,11.4-1.87,5.2-3.8,10.57-1.81,15.49,1.14,2.83,1.97,4.35,2.58,5.47,1.4,2.57,1.41,2.74.5,8.95-.33,2.29-.63,3.93-.85,5.13-.63,3.5-.68,3.79.42,8.08l-1.09.28c-1.17-4.53-1.1-4.92-.44-8.56.21-1.19.51-2.82.84-5.09q.87-5.96-.37-8.25c-.58-1.07-1.47-2.7-2.64-5.58-2.15-5.31-.06-11.15,1.79-16.29,1.43-3.99,2.79-7.76,2.06-10.75-.92-3.81-.94-7.27-.05-10.03.99-3.06,3.07-5.13,6.02-6.01,3.06-.91,5.31-.52,7.09,1.21,1.48,1.44,2.66,3.83,3.93,8,1.23,4.02.16,5.34-1.2,7.01-1.18,1.45-2.64,3.25-3.15,7.79-.62,5.57.18,6.53,1.5,8.12.99,1.19,2.22,2.67,3.36,6.22,1.58,4.9.27,6.47-1,7.99-1.05,1.26-2.04,2.44-1.76,5.7.3,3.45,1.14,3.85,2.3,4.4,1.35.64,3.02,1.44,4.28,6.08,1.31,4.83.03,7.45-1.21,9.98-1.07,2.19-2.18,4.45-1.79,8.36.85,8.53,2.97,14.85,2.99,14.91l-1.07.36Z" fill="#4c144d"/><path d="m45.9,196.2c-2.17-10.01-5.32-12.97-8.09-15.58-1.64-1.54-3.19-3-4.28-5.67-.48-1.18-.88-2.2-1.24-3.09-1.75-4.4-2.28-5.73-4.67-8.73-1.23-1.55-2.13-1.64-3.48-1.77-1.61-.16-3.81-.38-7.4-3.13-3.89-2.99-3.78-5.25-3.71-6.75.02-.47.04-.85-.09-1.07-.14-.24-.52-.42-1.19-.56-1.14-.24-2.69-.27-4.19-.31-2.97-.06-5.78-.12-6.8-1.63-.46-.67-.49-1.55-.1-2.59.6-1.6,1.88-2.78,3.7-3.4,3.17-1.08,7.71-.39,11.05,1.68,1.84,1.14,3.13.71,4.61.21,1.91-.64,4.07-1.37,7.41,1.28,2.57,2.04,3.52,4.45,4.29,6.38,1.01,2.54,1.61,4.08,4.91,3.92,4.23-.21,5.14,3.07,6.11,6.54.68,2.47,1.46,5.26,3.48,7.45,5.05,5.49,9.31,25.75,9.49,26.61l-1.11.23c-.04-.21-4.38-20.82-9.22-26.08-2.2-2.39-3.01-5.32-3.73-7.91-1.04-3.76-1.79-5.87-4.96-5.72-4.11.2-4.99-2.04-6.01-4.63-.75-1.9-1.61-4.06-3.94-5.91-2.86-2.27-4.55-1.7-6.34-1.09-1.53.52-3.27,1.1-5.57-.32-3.02-1.87-7.27-2.53-10.09-1.57-1.51.52-2.52,1.43-3.01,2.73-.26.69-.27,1.21-.03,1.56.69,1.02,3.46,1.08,5.89,1.13,1.55.03,3.15.07,4.4.33,2.28.48,2.22,1.66,2.17,2.79-.07,1.34-.16,3.17,3.27,5.8,3.34,2.56,5.27,2.75,6.83,2.91,1.46.15,2.72.27,4.25,2.19,2.5,3.14,3.09,4.62,4.84,9.02.36.89.76,1.91,1.24,3.09.99,2.44,2.39,3.75,4.01,5.27,2.9,2.72,6.18,5.81,8.42,16.16l-1.1.24Z" fill="#4c144d"/><path d="m254.07,196.59c-.02-.09-2.34-9.57-6.84-19.6-4.12-9.2-10.98-20.77-20.2-23.67l.34-1.08c4.27,1.34,8.39,4.52,12.25,9.43,3.06,3.9,5.97,8.9,8.64,14.86,4.54,10.13,6.88,19.69,6.9,19.79l-1.1.27Z" fill="#9bd"/><path d="m259.67,197.1c-.02-.12-2.22-11.68-3.15-27.25-.55-9.14-.56-17.86-.04-25.9.65-10.07,2.15-19.12,4.46-26.89l1.08.32c-5.17,17.43-5.23,38.11-4.37,52.39.93,15.49,3.11,27,3.13,27.12l-1.11.21Z" fill="#4c144d"/><path d="m265.88,197.69l-1.05-.41c.02-.06,2.39-6.05,6.09-12.31,2.18-3.69,4.4-6.75,6.58-9.1,2.77-2.98,5.53-4.83,8.17-5.5,3.06-.77,6,0,8.74,2.33l-.73.86c-2.44-2.07-5.05-2.77-7.73-2.09-10.74,2.71-19.98,26-20.08,26.23Z" fill="#4c144d"/><path d="m270.24,198.25l-.9-.68s3.56-4.74,6.44-7.97c1.38-1.54,3.17-1.71,4.6-1.85,1.96-.19,3.14-.3,3.28-3.01l.02-.47c.19-3.63.32-6.03,1.71-7.14.74-.59,1.76-.75,3.19-.5,1.51.26,2.91.15,4.27.04,2.11-.17,4.11-.34,5.99.99.07.05.13.08.17.1.05-.33-.02-1.23-.66-2.66-1.25-2.81-3.98-6.09-7.89-6.87-7.77-1.55-8.76-1.25-11.41,1.32-1.28,1.24-1.95,2-2.44,2.56-1.09,1.24-1.35,1.46-4.34,2.91-4.5,2.19-4.89,3.97-4.72,5.27.4,3.13-3.81,16.58-3.99,17.15l-1.08-.34c1.2-3.82,4.26-14.27,3.95-16.66-.32-2.49,1.33-4.47,5.35-6.43,2.9-1.41,3-1.53,3.98-2.64.5-.57,1.19-1.35,2.5-2.62,3.07-2.97,4.58-3.17,12.42-1.61,3.14.62,5.33,2.61,6.61,4.16,1.67,2.02,2.53,4.14,2.78,5.45.2,1.05.05,1.74-.43,2.06-.28.18-.75.29-1.44-.2-1.55-1.09-3.26-.95-5.25-.79-1.36.11-2.91.24-4.56-.05-1.09-.19-1.82-.1-2.29.28-.99.79-1.11,3.11-1.28,6.32l-.02.47c-.2,3.68-2.38,3.89-4.31,4.07-1.37.13-2.79.27-3.87,1.48-2.85,3.2-6.34,7.85-6.38,7.9Z" fill="#4c144d"/><path d="m264.81,189.3c-.01-.05-1.26-5.41-1.29-12.46-.01-3.47,1.18-5.41,2.24-7.13,1.19-1.94,2.22-3.61,1.61-7.22-.58-3.37-1.59-3.98-2.49-4.51-1.24-.74-2.04-1.46-2.01-4.61.03-3.06,1.16-4.18,2.15-5.16,1.07-1.06,1.91-1.89,1.14-5.4-.6-2.75-1.42-3.95-2.07-4.9-1.15-1.69-1.71-2.79-.74-7.43.82-3.91,2.31-5.42,3.4-6.53,1.13-1.14,1.8-1.83,1.23-4.63-1.33-6.5-2.96-8.24-6.96-7.46-2.13.42-3.66,1.68-4.56,3.77-.85,1.97-1.08,4.57-.66,7.52.4,2.77-1.04,5.83-2.57,9.07-1.89,4.02-3.85,8.18-2.64,12.24.7,2.36,1.25,3.64,1.65,4.58.93,2.18.92,2.39-.28,7.31-.45,1.82-.81,3.12-1.08,4.06-.79,2.8-.83,2.97-.28,6.49l-1.12.18c-.58-3.66-.52-4.03.31-6.97.26-.94.62-2.23,1.07-4.03q1.15-4.69.34-6.59c-.39-.91-.98-2.29-1.7-4.7-1.33-4.48.81-9.03,2.7-13.05,1.45-3.08,2.82-5.99,2.47-8.43-.45-3.15-.2-5.96.74-8.13,1.04-2.42,2.9-3.95,5.38-4.43,2.57-.5,4.39,0,5.72,1.55,1.09,1.29,1.86,3.32,2.57,6.79.69,3.38-.34,4.43-1.54,5.64-1.05,1.07-2.36,2.39-3.1,5.97-.92,4.39-.36,5.21.57,6.56.71,1.04,1.59,2.33,2.24,5.3.9,4.12-.29,5.3-1.45,6.45-.92.91-1.79,1.78-1.82,4.37-.03,2.74.6,3.11,1.46,3.63,1.05.63,2.36,1.41,3.03,5.29.69,4.03-.55,6.05-1.76,8.01-1.02,1.66-2.08,3.38-2.07,6.53.03,6.91,1.25,12.15,1.26,12.2l-1.1.26Z" fill="#4c144d"/><path d="m257.56,196.86c-.02-.17-1.92-17.05-5.39-21.63-1.6-2.11-2.03-4.55-2.41-6.7-.56-3.13-.96-4.78-3.45-4.89-3.39-.16-3.97-2.15-4.58-4.26-.46-1.58-.97-3.36-2.68-5.01-2.08-2-3.4-1.69-4.92-1.34-1.3.3-2.77.65-4.54-.7-2.26-1.72-5.59-2.57-7.9-2.02-1.22.29-2.08.93-2.56,1.9-.37.75-.2,1.06-.14,1.16.45.83,2.64,1.08,4.57,1.31,1.25.15,2.54.3,3.53.61,1.89.59,1.73,1.62,1.6,2.53-.15,1.05-.36,2.48,2.15,4.82,2.46,2.29,3.99,2.59,5.21,2.84,1.19.23,2.21.44,3.32,2.14,1.78,2.73,2.14,3.97,3.21,7.66.22.75.46,1.59.76,2.58.6,2.02,1.62,3.17,2.79,4.51,2.13,2.43,4.55,5.18,5.56,13.71l-1.12.13c-.97-8.18-3.26-10.79-5.29-13.09-1.21-1.38-2.35-2.68-3.03-4.93-.3-.99-.54-1.84-.76-2.59-1.06-3.66-1.39-4.77-3.07-7.35-.85-1.3-1.5-1.43-2.59-1.65-1.29-.26-3.07-.61-5.76-3.12-2.94-2.74-2.67-4.59-2.5-5.81.05-.35.09-.65.02-.81-.1-.21-.51-.38-.84-.48-.89-.28-2.13-.42-3.33-.56-2.42-.28-4.7-.55-5.43-1.89-.33-.61-.29-1.35.12-2.19.62-1.27,1.77-2.14,3.31-2.51,2.66-.63,6.3.28,8.85,2.22,1.35,1.03,2.35.8,3.6.5,1.61-.38,3.44-.8,5.96,1.62,1.93,1.86,2.51,3.88,2.99,5.51.6,2.08.96,3.33,3.55,3.45,3.51.16,3.99,2.91,4.51,5.82.36,2.02.77,4.32,2.2,6.21,3.66,4.83,5.53,21.48,5.61,22.19l-1.12.12Z" fill="#9bd"/><path d="m289.46,199.11H19.62c0-2.52,2.04-4.56,4.56-4.56h260.71c2.52,0,4.56,2.04,4.56,4.56h0Z" fill="#4c144d"/><path d="m244.13,87.74h-4.68c6.73,0,12.18,5.45,12.18,12.19v82.23c0,6.73-5.45,12.19-12.18,12.19h4.68c6.73,0,12.18-5.46,12.18-12.19v-82.23c0-6.73-5.45-12.19-12.18-12.19Z" fill="#4c144d"/><path d="m107.46,87.74h131.99c6.73,0,12.18,5.45,12.18,12.19v82.23c0,6.73-5.45,12.19-12.18,12.19H107.46c-6.73,0-12.18-5.46-12.18-12.19v-82.23c0-6.73,5.45-12.19,12.18-12.19Zm0,92.67h131.98c4.69,0,8.5-3.81,8.5-8.5v-71.99c0-4.69-3.81-8.5-8.5-8.5H107.47c-4.69,0-8.5,3.81-8.5,8.5v71.99c0,4.69,3.81,8.5,8.5,8.5Z" fill="#92278f"/><path d="m247.94,99.92v71.98c0,3.4-2,6.33-4.88,7.69-1.1.52-2.32.81-3.61.81H107.47c-4.69,0-8.5-3.81-8.5-8.5v-71.98c0-4.22,3.09-7.73,7.13-8.39.45-.07.9-.11,1.37-.11h131.98c.47,0,.93.04,1.37.11,4.04.66,7.12,4.17,7.12,8.39Z" fill="#e6e6e6"/><g clip-path="url(#b)" fill="none"><path d="m231.3,110.58v62.11c0,.95-.78,1.73-1.73,1.73h-112.23c-.95,0-1.73-.78-1.73-1.73v-62.11h115.7Z" fill="#48c902"/><path d="m231.3,102.73v7.85h-115.7v-7.85c0-2.92,2.39-5.31,5.31-5.31h105.07c2.92,0,5.31,2.39,5.31,5.31Z" fill="#359545"/><circle cx="125.61" cy="103.72" r="1.54" fill="#fe875e"/><path d="m179.64,160.01h-49.5c-.24,0-.43-.19-.43-.43s.19-.43.43-.43h49.5c.24,0,.43.19.43.43s-.19.43-.43.43Z" fill="#4c144d"/><path d="m179.64,164.16h-55.57c-.24,0-.43-.19-.43-.43s.19-.43.43-.43h55.57c.24,0,.43.19.43.43s-.19.43-.43.43Z" fill="#4c144d"/><path d="m179.64,168.05h-55.57c-.24,0-.43-.19-.43-.43s.19-.43.43-.43h55.57c.24,0,.43.19.43.43s-.19.43-.43.43Z" fill="#4c144d"/><path d="m222.45,121.68h-18.8c-.24,0-.43-.19-.43-.43s.19-.43.43-.43h18.8c.24,0,.43.19.43.43s-.19.43-.43.43Z" fill="#4c144d"/><path d="m222.45,125.83h-21.11c-.24,0-.43-.19-.43-.43s.19-.43.43-.43h21.11c.24,0,.43.19.43.43s-.19.43-.43.43Z" fill="#4c144d"/><path d="m222.45,129.72h-21.11c-.24,0-.43-.19-.43-.43s.19-.43.43-.43h21.11c.24,0,.43.19.43.43s-.19.43-.43.43Z" fill="#4c144d"/><path d="m222.45,140.91h-18.8c-.24,0-.43-.19-.43-.43s.19-.43.43-.43h18.8c.24,0,.43.19.43.43s-.19.43-.43.43Z" fill="#4c144d"/><path d="m222.45,145.06h-21.11c-.24,0-.43-.19-.43-.43s.19-.43.43-.43h21.11c.24,0,.43.19.43.43s-.19.43-.43.43Z" fill="#4c144d"/><path d="m222.45,148.95h-21.11c-.24,0-.43-.19-.43-.43s.19-.43.43-.43h21.11c.24,0,.43.19.43.43s-.19.43-.43.43Z" fill="#4c144d"/><path d="m222.45,160.14h-18.8c-.24,0-.43-.19-.43-.43s.19-.43.43-.43h18.8c.24,0,.43.19.43.43s-.19.43-.43.43Z" fill="#4c144d"/><path d="m222.45,164.28h-21.11c-.24,0-.43-.19-.43-.43s.19-.43.43-.43h21.11c.24,0,.43.19.43.43s-.19.43-.43.43Z" fill="#4c144d"/><path d="m222.45,168.18h-21.11c-.24,0-.43-.19-.43-.43s.19-.43.43-.43h21.11c.24,0,.43.19.43.43s-.19.43-.43.43Z" fill="#4c144d"/><circle cx="133.56" cy="103.72" r="1.54" fill="#92278f"/><circle cx="141.11" cy="103.72" r="1.54" fill="#4c144d"/><rect x="124.07" y="119.52" width="55.57" height="36.13" rx="13.87" ry="13.87" fill="#e6e6e6"/><path d="m159.61,137.02l-15.51-8.96c-.44-.25-.99.06-.99.57v17.91c0,.51.55.82.99.57l15.51-8.96c.44-.25.44-.88,0-1.14Z" fill="#4c144d"/><rect x="186.5" y="119.52" width="11.5" height="11.5" fill="#e6e6e6"/><rect x="186.5" y="138.75" width="11.5" height="11.5" fill="#e6e6e6"/><rect x="186.5" y="157.98" width="11.5" height="11.5" fill="#e6e6e6"/><g fill="none" opacity=".3"><polygon points="264.23 173.47 250.75 185.59 142.07 76.91 155.56 64.8 264.23 173.47" fill="#fff"/><rect x="212.74" y="36.35" width="6.17" height="153.69" transform="translate(-16.83 185.77) rotate(-45)" fill="#fff"/><polygon points="196.32 185.24 180.74 200.4 84.32 103.98 99.9 88.82 196.32 185.24" fill="#fff"/><rect x="153.63" y="67.73" width="6.17" height="136.36" transform="translate(-50.21 150.62) rotate(-45)" fill="#fff"/></g></g><path d="m264.72,99.15l-8.66,16.32s-14.29-11.94-24.34-17.28c-11.34-6.02-27.95-10.47-27.95-10.47l8.66-16.32,8.66-16.32s16.76-.8,30.16,6.31c12.43,6.6,22.13,21.44,22.13,21.44l-8.66,16.32Z" fill="#b24b9c"/><path d="m298.13,101.44l-32.98-2.06-.43-.23,8.66-16.32s-9.71-14.84-22.13-21.44c-13.4-7.11-30.16-6.31-30.16-6.31l-8.66,16.32-.43-.23-20.19-26.16,65.37,5.19,40.95,51.23Z" fill="#4c144d"/><path d="m257.08,45.43l-63.01-4.68-2.26,4.26,62.88,5c1.59.13,3.06.91,4.06,2.15l39.39,49.27,2.26-4.26-39.2-49.56c-1-1.27-2.49-2.06-4.11-2.18Z" fill="#b24b9c"/><path d="m192.13,75.72s-3.68,3.03-4.64,6.4c-.96,3.37-.86,6.89-.86,6.89l.73.39,1.04-3.74-.86,5.22,1.4.19,2.02-7.17-1,6.32s1.53-.02,1.76-.45,1.17-6.16,1.17-6.16l-.85,6.89s.62.88,3.78-5.06c3.15-5.94-1.29-10.1-1.29-10.1l-2.42.38Z" fill="#b3b3b3"/><path d="m232.65,43.61l-4.53-.33c-.62-.43-1.4-.9-2.29-1.38-4.05-2.15-10.6-4.19-17.01-.06-.45.29-.9.61-1.35.96-1.28,1-2.37,2.07-3.33,3.18-4.7,5.5-5.8,12.2-6.95,19.24-.63,3.83-1.28,7.78-2.55,11.56-.25.76-1.08,1.17-1.83.9-.08-.02-.15-.06-.22-.09-.61-.33-.92-1.06-.69-1.74,1.2-3.55,1.83-7.39,2.44-11.1,1.07-6.55,2.18-13.27,6.35-19.05,1.06-1.46,2.31-2.87,3.81-4.19.38-.34.77-.66,1.18-.99,12.42-9.79,25.93,1.73,26.07,1.85.36.31.64.76.9,1.23Z" fill="#b3b3b3"/><circle cx="193.7" cy="75.68" r="3.02" transform="translate(98.88 260.76) rotate(-84.21)" fill="#e6e6e6"/><rect x="59.88" y="96.19" width="61.05" height="104.79" rx="30.4" ry="30.4" fill="#359545"/><path d="m118.66,102.71v91.76c0,3.6-2.92,6.52-6.52,6.52h-48.01c-3.6,0-6.52-2.92-6.52-6.52v-91.76c0-1.97.88-3.74,2.26-4.93h0s0,0,0,0c1.14-.99,2.63-1.59,4.26-1.59h48.01c1.63,0,3.12.6,4.26,1.59h0c1.38,1.2,2.26,2.96,2.26,4.93Z" fill="#48c902"/><path d="m116.4,103.68v90.79c0,2.35-1.91,4.26-4.26,4.26h-48.01c-2.35,0-4.26-1.91-4.26-4.26v-90.79h56.53Z" fill="#e6e6e6"/><rect x="79.96" y="99.06" width="13.31" height="1.67" rx=".83" ry=".83" fill="#184655"/><circle cx="74.66" cy="99.89" r="1.21" fill="#184655"/><path d="m115.03,114.9v70.78c0,1.09-.36,1.98-.81,1.98h-52.18c-.44,0-.81-.89-.81-1.98v-70.78h53.79Z" fill="#92278f"/><path d="m115.03,111.26v3.65h-53.79v-3.65c0-1.36,1.11-2.47,2.47-2.47h48.85c1.36,0,2.47,1.11,2.47,2.47Z" fill="#4c144d"/><circle cx="65.9" cy="111.71" r=".72" fill="#fe875e"/><path d="m108.54,148.5h-37.27c-.18,0-.33-.15-.33-.33s.15-.33.33-.33h37.27c.18,0,.33.15.33.33s-.15.33-.33.33Z" fill="#13375b"/><path d="m108.54,151.63h-41.84c-.18,0-.33-.15-.33-.33s.15-.33.33-.33h41.84c.18,0,.33.15.33.33s-.15.33-.33.33Z" fill="#13375b"/><path d="m108.54,154.56h-41.84c-.18,0-.33-.15-.33-.33s.15-.33.33-.33h41.84c.18,0,.33.15.33.33s-.15.33-.33.33Z" fill="#13375b"/><path d="m82.08,159.21h-8.74c-.11,0-.2-.09-.2-.2s.09-.2.2-.2h8.74c.11,0,.2.09.2.2s-.09.2-.2.2Z" fill="#13375b"/><path d="m82.08,161.14h-9.81c-.11,0-.2-.09-.2-.2s.09-.2.2-.2h9.81c.11,0,.2.09.2.2s-.09.2-.2.2Z" fill="#13375b"/><path d="m82.08,162.95h-9.81c-.11,0-.2-.09-.2-.2s.09-.2.2-.2h9.81c.11,0,.2.09.2.2s-.09.2-.2.2Z" fill="#13375b"/><path d="m82.08,168.15h-8.74c-.11,0-.2-.09-.2-.2s.09-.2.2-.2h8.74c.11,0,.2.09.2.2s-.09.2-.2.2Z" fill="#13375b"/><path d="m82.08,170.08h-9.81c-.11,0-.2-.09-.2-.2s.09-.2.2-.2h9.81c.11,0,.2.09.2.2s-.09.2-.2.2Z" fill="#13375b"/><path d="m82.08,171.89h-9.81c-.11,0-.2-.09-.2-.2s.09-.2.2-.2h9.81c.11,0,.2.09.2.2s-.09.2-.2.2Z" fill="#13375b"/><path d="m82.08,177.09h-8.74c-.11,0-.2-.09-.2-.2s.09-.2.2-.2h8.74c.11,0,.2.09.2.2s-.09.2-.2.2Z" fill="#13375b"/><path d="m82.08,179.02h-9.81c-.11,0-.2-.09-.2-.2s.09-.2.2-.2h9.81c.11,0,.2.09.2.2s-.09.2-.2.2Z" fill="#13375b"/><path d="m82.08,180.83h-9.81c-.11,0-.2-.09-.2-.2s.09-.2.2-.2h9.81c.11,0,.2.09.2.2s-.09.2-.2.2Z" fill="#13375b"/><circle cx="69.59" cy="111.71" r=".72" fill="#fec65e"/><circle cx="73.1" cy="111.71" r=".72" fill="#96d9c9"/><rect x="66.69" y="118.02" width="41.84" height="27.21" rx="13.55" ry="13.55" fill="#e6e6e6"/><path d="m93.21,131.05l-11.19-6.46c-.44-.25-.99.06-.99.57v12.93c0,.51.55.82.99.57l11.19-6.46c.44-.25.44-.88,0-1.14Z" fill="#b24b9c"/><rect x="65.36" y="158.21" width="5.34" height="5.34" fill="#b6d7ff"/><rect x="65.36" y="167.15" width="5.34" height="5.34" fill="#b6d7ff"/><rect x="65.36" y="176.08" width="5.34" height="5.34" fill="#b6d7ff"/><path d="m107.73,159.21h-8.74c-.11,0-.2-.09-.2-.2s.09-.2.2-.2h8.74c.11,0,.2.09.2.2s-.09.2-.2.2Z" fill="#13375b"/><path d="m107.73,161.14h-9.81c-.11,0-.2-.09-.2-.2s.09-.2.2-.2h9.81c.11,0,.2.09.2.2s-.09.2-.2.2Z" fill="#13375b"/><path d="m107.73,162.95h-9.81c-.11,0-.2-.09-.2-.2s.09-.2.2-.2h9.81c.11,0,.2.09.2.2s-.09.2-.2.2Z" fill="#13375b"/><path d="m107.73,168.15h-8.74c-.11,0-.2-.09-.2-.2s.09-.2.2-.2h8.74c.11,0,.2.09.2.2s-.09.2-.2.2Z" fill="#13375b"/><path d="m107.73,170.08h-9.81c-.11,0-.2-.09-.2-.2s.09-.2.2-.2h9.81c.11,0,.2.09.2.2s-.09.2-.2.2Z" fill="#13375b"/><path d="m107.73,171.89h-9.81c-.11,0-.2-.09-.2-.2s.09-.2.2-.2h9.81c.11,0,.2.09.2.2s-.09.2-.2.2Z" fill="#13375b"/><path d="m107.73,177.09h-8.74c-.11,0-.2-.09-.2-.2s.09-.2.2-.2h8.74c.11,0,.2.09.2.2s-.09.2-.2.2Z" fill="#13375b"/><path d="m107.73,179.02h-9.81c-.11,0-.2-.09-.2-.2s.09-.2.2-.2h9.81c.11,0,.2.09.2.2s-.09.2-.2.2Z" fill="#13375b"/><path d="m107.73,180.83h-9.81c-.11,0-.2-.09-.2-.2s.09-.2.2-.2h9.81c.11,0,.2.09.2.2s-.09.2-.2.2Z" fill="#13375b"/><rect x="91.01" y="158.21" width="5.34" height="5.34" fill="#b6d7ff"/><rect x="91.01" y="167.15" width="5.34" height="5.34" fill="#b6d7ff"/><rect x="91.01" y="176.08" width="5.34" height="5.34" fill="#b6d7ff"/><g clip-path="url(#c)" fill="none"><g fill="none" opacity=".3"><rect x="88.64" y="76.56" width="12.35" height="108.35" transform="translate(-64.68 105.33) rotate(-45)" fill="#fff"/><rect x="100.12" y="68.16" width="6.17" height="108.35" transform="translate(-56.28 108.81) rotate(-45)" fill="#fff"/><rect x="75.68" y="123.53" width="12.35" height="108.35" transform="translate(-101.68 109.93) rotate(-45)" fill="#fff"/><rect x="87.16" y="115.13" width="6.17" height="108.35" transform="translate(-93.28 113.41) rotate(-45)" fill="#fff"/></g></g><path d="m94.61,84.48l2.95,12.47s-12.92.31-20.6,2.13c-8.67,2.05-19.37,7.33-19.37,7.33l-2.95-12.47-2.95-12.47s8.38-8.09,18.62-10.51c9.5-2.25,21.35,1.06,21.35,1.06l2.95,12.47Z" fill="#b24b9c"/><path d="m113.08,70.39l-18.14,14.02-.33.08-2.95-12.47s-11.85-3.3-21.35-1.06c-10.24,2.42-18.62,10.51-18.62,10.51l2.95,12.47-.33.08-22.5-4.41,36.47-27.2,44.8,7.98Z" fill="#4c144d"/><path d="m66.05,59.96l-35.01,26.39.77,3.26,35.08-26.16c.89-.66,2.01-.93,3.1-.73l43.09,7.68-.77-3.26-43.12-7.91c-1.1-.2-2.24.07-3.14.74Z" fill="#b24b9c"/><path d="m46.03,105.48s-.54,3.27.51,5.46c1.04,2.2,2.7,3.98,2.7,3.98l.56-.13-1.17-2.43,1.94,3.12.82-.54-2.23-4.66,2.37,3.76s.79-.71.71-1.04c-.08-.33-2.21-3.75-2.21-3.75l2.71,3.98s.73.18-.35-4.37c-1.07-4.54-5.29-4.68-5.29-4.68l-1.09,1.3Z" fill="#b3b3b3"/><path d="m52.47,70.19l-2.52,1.9c-.52.06-1.14.17-1.83.33-3.1.73-7.45,2.66-8.9,7.75-.1.36-.19.73-.26,1.12-.21,1.11-.29,2.16-.28,3.18.07,5.02,2.56,9.02,5.18,13.21,1.42,2.28,2.89,4.65,3.96,7.2.21.51-.03,1.1-.54,1.31-.05.02-.1.04-.16.05-.47.11-.96-.13-1.16-.59-1-2.4-2.42-4.69-3.81-6.91-2.44-3.91-4.94-7.92-5.4-12.84-.12-1.25-.11-2.55.07-3.93.04-.35.1-.7.16-1.06,2-10.79,14.32-10.97,14.45-10.96.33,0,.68.1,1.03.23Z" fill="#b3b3b3"/><circle cx="46.83" cy="104.74" r="2.09" fill="#e6e6e6"/><path d="m125.27,167.16c.83.4,2.04.65,3.39.65s2.67-.28,3.5-.71l-.11-1.68v-.14s-.01,0-.02,0h0s-.08-.03-.19-.1c-.17-.12-.39-.34-.37-.71,0-.18.18-.69.18-.69l.19-.72h0s.67-2.61.67-2.61l-6.77-.59s.58,3.11.49,4.27c-.06.76-.82,1.13-.84,1.14h0l-.13,1.89Z" fill="#8c6239"/><path d="m126.73,161.88s.51,2.73,4.3,3.4c.24.04.71.11,1.02.14v-.14s-.01,0-.02,0h0s-.08-.03-.19-.1c-.17-.12-.39-.34-.37-.71,0-.18.19-.74.19-.74,0,0-3.64.35-4.95-1.85Z" fill="#8c6239"/><path d="m124.46,157.74c.11,3.15,2.09,6.06,5.24,5.94,3.15-.11,5.92,0,6.16-6.35.17-4.41-2.76-5.61-5.9-5.49-3.15.11-5.61,2.76-5.49,5.9Z" fill="#8c6239"/><path d="m134.81,154.39c-.25.18-.63.33-1.22.4-2.05.22-5.53-.55-5.53-.55,0,0,.36,1.11.24,3.11,0,0-.66-1.27-1.6-.05-.84,1.09.36,2.38,1.08,2.1,0,0-.09,2.81,2.09,2.89,1.26.05,2.08-1.33,2.81-1.59,2.4-.83,2.77-.33,2.77-.33-1.28,4.63-7.25,3.22-7.25,3.22,0,0-.67.67-2.1.52-1.43-.15-1.71-3.23-1.71-3.23-.97.34-2.06-1.56-2.23-4.45-.17-2.9,2.52-2.98,2.52-2.98,0,0-.32-2.03,2.82-3.16,3.06-1.1,4.15.09,4.2.15-.03-.09-.62-2.07.98-2.1,1.64-.03,1.23.95,1.23.95,1.83-1.66,4.46.6,3.98,2.5-.47,1.9-2.65,1.7-2.65,1.7,0,0,.19.46-.43.92h0Z" fill="#333"/><path d="m128.28,155.53s.08,1.98-.02,3.22c-.1,1.25-.19,2.52.62,3.13,0,0-1.53-.45-1.12-2.66.42-2.21.29-2.36.03-3.08-.26-.71.49-.61.49-.61Z" fill="#333"/><path d="m129.61,164.39h0c-6.39-.26-10.52,2.52-10.52,16.55,0,2.14.84,7.19,1.35,9.79.18.88,1.55,1.45,2.45,1.45h7.22c1.18,0,2.3-.26,3.3-.73,3.39-1.59,4.24-5.31,2.98-8.83-.51-1.41-.71-3.45-.7-4.33,0-.8,1.75-14.75-6.08-13.89Z" fill="#92278f"/><path d="m175.15,185.72s.71,1.29,2.07.78l-.15-2.92c-.54.09-1.01.43-1.27.92-.25.48-.46.87-.65,1.22Z" fill="#e8fde6"/><path d="m173.93,198.88l2.06-.11c-.17-2.68-2.53-2.26-2.53-2.26-.01,1.08-.07,1.72-.08,1.83,0,.01,0,.02,0,.02h0c.02.3.26.53.56.51Z" fill="#e8fde6"/><path d="m173.34,188.97c-.13.22-.26.47-.41.73,0,0,.05.25.12.71.11.75.28,2.05.36,3.63,0,.13.01.26.02.39.04.81.04,1.51.04,2.09,0,0,2.36-.42,2.53,2.26l1.86-.1-.63-12.18c-1.35.51-2.07-.78-2.07-.78-.39.73-.7,1.28-1.12,2.02-.2.35-.42.75-.7,1.23Z" fill="#48c902"/><path d="m177.85,198.68h.07c.37-.02.65-.34.64-.71l-.71-13.92c0-.15-.07-.27-.17-.36-.1-.09-.23-.14-.38-.13-.07,0-.14.01-.21.02l.15,2.92.63,12.18Z" fill="#17511a"/><path d="m171.86,198.45l1.51-.08s0,0,0-.02c.01-.21.12-2.08.05-3.92,0-.13-.01-.26-.02-.39-.08-1.58-.25-2.88-.36-3.63-.07-.44-.12-.68-.12-.68l-1.51.08.41,7.98.03.66Z" fill="#8c6239"/><rect x="173.9" y="188.68" width=".16" height="1.72" transform="translate(-83.24 194.96) rotate(-48.66)" fill="#e8fde6"/><rect x="174.28" y="188.06" width=".16" height="1.72" transform="translate(-82.66 194.87) rotate(-48.62)" fill="#e8fde6"/><polygon points="175.26 188.93 173.98 187.8 174.07 187.67 174.08 187.68 175.37 188.81 175.26 188.93" fill="#e8fde6"/><path d="m171.89,198.99l-.5-9.83-30.52-2.05-11.06-.74c-2.65-.18-4.86,2-4.72,4.64l.18,3.47c.16,3.05,2.71,5.43,5.76,5.36l40.86-.86Z" fill="#359545"/><path d="m167.2,189.36l-5.23,7.66-13.72-8.34s-4.98,5.99-12.62,9.88c-5.93,3.02-10.81.34-13.49-3.97-.77-1.24-1.37-2.62-1.75-4.03,0,0,1.12-.77,2.93-1.96,3.73-2.46,10.41-6.74,16.33-9.91,8.8-4.71,11.89-3.86,17.33,1.65,5.44,5.51,10.21,9.01,10.21,9.01Z" fill="#48c902"/><path d="m122.14,194.6c-.77-1.24-1.37-2.62-1.75-4.03,0,0,1.12-.77,2.93-1.96,0,0,2.68,2.64-1.19,6Z" fill="#359545"/><path d="m161.2,196.47l-.12-.08.16-.23.12.08-.16.23Zm.31-.47l-.12-.08.16-.23.12.08-.16.23Zm.31-.47l-.12-.08.16-.23.12.08-.16.23Zm.31-.47l-.12-.08.16-.23.12.08-.16.23Zm.31-.47l-.12-.08.16-.23.12.08-.16.23Zm.31-.47l-.12-.08.16-.23.12.08-.16.23Zm.31-.47l-.12-.08.16-.23.12.08-.16.23Zm.31-.47l-.12-.08.16-.23.12.08-.16.23Zm.31-.47l-.12-.08.16-.23.12.08-.16.23Zm.31-.47l-.12-.08.16-.23.12.08-.16.23Zm.31-.47l-.12-.08.16-.23.12.08-.16.23Zm.31-.47l-.12-.08.16-.23.12.08-.16.23Zm.31-.47l-.12-.08.16-.23.12.08-.16.23Zm.31-.47l-.12-.08.16-.23.12.08-.16.23Zm.31-.47l-.12-.08.16-.23.12.08-.16.23Zm.31-.47l-.12-.08.16-.23.12.08-.16.23Zm.31-.47l-.12-.08.16-.23.12.08-.16.23Z" fill="#b75742"/><path d="m166.29,190.5l-.21-.19.09-.11.21.19-.09.11Zm-.43-.38l-.21-.19.09-.11.21.19-.09.11Zm-.43-.37l-.21-.19.09-.11.21.19-.09.11Zm-41.5-.14s-.03,0-.04-.02l.05-.05-.04-.06.09-.06.08.12-.06.04s-.05.03-.08.03Zm.37-.23l-.08-.12.24-.16.08.12-.24.16Zm40.7,0l-.21-.19.09-.11.21.19-.09.11Zm-40.22-.3l-.08-.12.24-.15.08.12-.24.15Zm39.8-.07l-.21-.19.09-.11.21.19-.09.11Zm-39.32-.24l-.08-.12.24-.15.08.12-.24.15Zm38.9-.13l-.21-.19.09-.11.21.19-.09.11Zm-38.42-.17l-.08-.12.24-.15.08.12-.24.15Zm38-.2l-.21-.19.09-.11.21.19-.09.11Zm-37.52-.11l-.08-.12.24-.15.08.12-.24.15Zm37.1-.27l-.21-.19.09-.11.21.19-.09.11Zm-36.62-.04l-.08-.12.24-.15.08.12-.24.15Zm.48-.3l-.08-.12.24-.15.08.12-.24.15Zm35.72-.03l-.21-.19.09-.11.21.19-.09.11Zm-35.24-.27l-.08-.12.24-.15.08.12h0s-.24.15-.24.15Zm34.81-.1l-.21-.19.09-.11.21.19-.09.11Zm-34.34-.2l-.08-.12.24-.15.08.12-.24.15Zm33.91-.17l-.21-.19.09-.11.21.19-.09.11Zm-33.43-.13l-.07-.12.24-.15.07.12-.24.15Zm33.01-.24l-.21-.19.09-.11.21.19-.09.11Zm-32.53-.06l-.07-.12.24-.15.07.12-.24.15Zm.48-.3l-.07-.12.24-.15.07.12-.24.15Zm31.62-.02l-.21-.19.09-.11.21.19-.09.11Zm-31.14-.28l-.07-.12.24-.15.07.12-.24.15Zm30.72-.09l-.21-.19.09-.11.21.19-.09.11Zm-30.23-.21l-.07-.12.24-.15.07.12-.24.15Zm29.81-.16l-.21-.19.09-.11.21.19-.09.11Zm-29.33-.13l-.07-.12.24-.15.07.12-.24.15Zm28.9-.24l-.21-.19.09-.11.21.19-.09.11Zm-28.42-.05l-.07-.12.24-.15.07.12-.24.15Zm.48-.29l-.07-.12.24-.15.07.12-.24.15Zm27.51-.02l-.21-.19.09-.11.21.19-.09.11Zm-27.03-.27l-.07-.12.24-.15.07.12-.24.15Zm26.6-.1l-.21-.19.09-.11.21.19-.09.11Zm-26.11-.19l-.07-.12.24-.14.07.12-.24.14Zm25.69-.18l-.21-.19.09-.11.21.19-.09.11Zm-25.2-.11l-.07-.12.24-.14.07.12-.24.14Zm24.77-.26l-.21-.18.09-.11.21.19-.09.11Zm-24.29-.02l-.07-.12.24-.14.07.12-.24.14Zm.49-.29l-.07-.12.24-.14.07.12-.24.14Zm23.37-.06l-.21-.18.09-.11.21.18-.09.11Zm-22.89-.22l-.07-.12.25-.14.07.12-.25.14Zm22.46-.15l-.21-.18.09-.11.21.18-.09.11Zm-21.97-.14l-.07-.12.25-.14.07.12-.25.14Zm21.54-.23l-.21-.18.09-.11.21.18-.09.11Zm-21.05-.05l-.07-.12.25-.14.07.12-.24.14Zm.49-.28l-.07-.12.25-.14.07.12-.24.14Zm20.13-.04l-.21-.18.09-.11.21.18-.09.11Zm-19.64-.24l-.07-.12c.08-.05.16-.09.25-.14l.07.12c-.08.05-.16.09-.25.14Zm19.21-.13l-.21-.18.09-.11.22.18-.09.11Zm-18.72-.14l-.07-.12.25-.14.07.12-.25.14Zm18.29-.22l-.22-.18.09-.11.22.18-.09.11Zm-17.79-.05l-.07-.12c.08-.05.17-.09.25-.14l.07.12c-.08.04-.16.09-.25.14Zm.5-.27l-.07-.12.25-.13.07.12-.25.13Zm16.87-.05l-.22-.18.09-.11.22.18-.09.11Zm-16.37-.22l-.07-.12c.08-.04.17-.09.25-.13l.07.12c-.08.04-.17.09-.25.13Zm15.94-.14l-.22-.18.09-.11.22.18-.09.11Zm-15.44-.12l-.07-.12.25-.13.07.13-.25.13Zm15-.24c-.08-.06-.15-.12-.22-.18l.09-.11c.07.06.14.12.22.18l-.09.11Zm-14.5-.02l-.06-.13c.08-.04.17-.09.25-.13l.06.13c-.08.04-.17.09-.25.13Zm.5-.26l-.06-.13c.08-.04.17-.09.25-.13l.06.13c-.08.04-.17.08-.25.13Zm13.56-.08c-.05-.04-.1-.08-.15-.12-.02-.02-.05-.04-.07-.06l.09-.11.07.06s.1.08.15.12l-.09.11Zm-13.06-.17l-.06-.13c.09-.04.17-.08.25-.13l.06.13c-.08.04-.17.08-.25.12Zm12.62-.19c-.07-.06-.15-.12-.22-.18l.09-.11c.07.06.14.12.22.18l-.09.11Zm-12.11-.06l-.06-.13c.09-.04.17-.08.26-.12l.06.13c-.08.04-.17.08-.25.12Zm.51-.24l-.06-.13c.09-.04.17-.08.26-.12l.06.13c-.08.04-.17.08-.26.12Zm11.17-.06l-.22-.18.09-.11.22.18-.09.11Zm-10.66-.18l-.06-.13c.09-.04.17-.08.26-.12l.06.13c-.09.04-.17.08-.26.12Zm10.23-.19c-.07-.06-.14-.12-.22-.18l.09-.11c.07.06.15.12.22.18l-.09.11Zm-9.71-.04l-.06-.13c.09-.04.17-.08.26-.11l.05.13c-.09.04-.17.07-.26.11Zm.52-.22l-.05-.13c.06-.03.12-.05.18-.07l.08-.03.05.13-.08.03c-.06.02-.12.05-.18.07Zm8.75-.09c-.07-.06-.15-.11-.22-.17l.08-.11c.08.06.15.11.23.17l-.09.11Zm-8.23-.12l-.05-.13c.09-.03.18-.07.26-.1l.05.13c-.09.03-.17.07-.26.1Zm.53-.2l-.05-.13c.09-.03.18-.06.27-.1l.05.13c-.09.03-.18.06-.27.09Zm7.25-.01c-.08-.05-.16-.1-.24-.15l.07-.12c.08.05.16.1.24.15l-.08.12Zm-6.72-.18l-.05-.13c.09-.03.18-.06.27-.09l.04.13c-.09.03-.18.06-.27.09Zm6.24-.11c-.08-.04-.17-.09-.25-.13l.06-.13c.08.04.17.08.25.13l-.07.12Zm-5.71-.06l-.04-.13c.09-.03.18-.06.27-.08l.04.14c-.09.03-.18.05-.27.08Zm.54-.16l-.04-.14c.09-.03.18-.05.27-.07l.03.14c-.09.02-.18.05-.27.07Zm4.66-.03c-.09-.04-.17-.07-.26-.1l.05-.13c.09.03.18.07.27.1l-.05.13Zm-4.12-.11l-.03-.14c.09-.02.19-.04.28-.06l.03.14c-.09.02-.18.04-.27.06Zm3.59-.07c-.09-.03-.18-.05-.27-.07l.03-.14c.09.02.19.04.28.07l-.04.14Zm-3.04-.04l-.03-.14c.09-.02.19-.03.28-.05l.02.14c-.09.01-.18.03-.28.05Zm2.5-.08c-.09-.01-.18-.03-.28-.04l.02-.14c.1.01.19.02.28.04l-.02.14Zm-1.95,0l-.02-.14c.1-.01.19-.02.28-.03v.14c-.08,0-.17.02-.27.03Zm.56-.05v-.14c.09,0,.18,0,.28-.01v.14c-.09,0-.18,0-.28.01Zm.84,0c-.09,0-.18,0-.28-.01v-.14c.1,0,.19,0,.29.01v.14Z" fill="#b75742"/><path d="m172.43,188.7s-.22,1.46,1.17,1.87l1.66-2.41c-.48-.25-1.06-.27-1.57-.04-.49.23-.9.42-1.26.58Z" fill="#e8fde6"/><path d="m163.46,198.41l1.7,1.17c1.49-2.23-.64-3.33-.64-3.33-.66.85-1.1,1.32-1.18,1.41,0,0-.01.01-.01.01h0c-.17.25-.1.58.14.75Z" fill="#e8fde6"/><path d="m169.01,190.17c-.24.1-.49.21-.77.33,0,0-.12.23-.34.63-.37.67-1.02,1.8-1.92,3.1-.08.11-.15.22-.22.32-.46.67-.88,1.23-1.24,1.68,0,0,2.13,1.1.64,3.33l1.53,1.05,6.9-10.06c-1.39-.41-1.17-1.87-1.17-1.87-.76.34-1.33.59-2.11.92-.37.16-.79.34-1.3.56Z" fill="#48c902"/><path d="m166.7,200.63l.06.04c.3.21.72.13.93-.17l7.88-11.5c.08-.12.11-.26.08-.4-.03-.13-.1-.26-.22-.34-.06-.04-.12-.08-.18-.11l-1.66,2.41-6.9,10.06Z" fill="#17511a"/><path d="m162.08,196.81l1.25.86s0,0,.01-.01c.14-.16,1.36-1.58,2.42-3.09.07-.1.15-.21.22-.32.89-1.3,1.55-2.44,1.92-3.1.21-.39.32-.61.32-.61l-1.25-.86-4.52,6.59-.37.54Z" fill="#8c6239"/><rect x="169.1" y="190.16" width=".16" height="1.72" transform="translate(-34.1 36.79) rotate(-11.28)" fill="#e8fde6"/><rect x="169.78" y="189.89" width=".16" height="1.72" transform="translate(-33.93 36.78) rotate(-11.24)" fill="#e8fde6"/><polygon points="170.57 191.31 170.23 189.63 170.39 189.59 170.39 189.59 170.72 191.28 170.57 191.31" fill="#e8fde6"/><rect x="150.59" y="158.5" width="1.29" height="11.13" rx=".64" ry=".64" transform="translate(91.88 -51.03) rotate(27.24)" fill="#e6e6e6"/><path d="m148.36,171.67c2.36-.59,3.6-3.36,3.55-4.87-.05-1.51-.64-1.54-.64-1.54,0,0-.88,1.71-1.27,2.47-.39.76-.36,1.09-1,.91s-.34-.96-.34-.96l.48-1.09c-.5-.56-1.02.38-1.79.79-.77.41-1.26,2.04-1.26,2.04,0,0,.44,1.86,2.28,2.25Z" fill="#8c6239"/><path d="m126.36,165.21c-2.15,1.48-2.59,4.47-.95,6.5.7.87,1.32,1.62,1.61,1.93.21.22.44.44.65.66.22.22.44.44.68.65.23.22.46.43.7.64l.73.63c.12.11.25.21.38.31l.39.31.39.31.42.3.43.3c.07.05.14.1.22.15l.23.14.47.29.23.14.12.07.19.1c.26.13.52.27.79.38.27.1.55.2.82.28.27.07.55.13.82.18.27.04.53.07.8.09,1.05.06,1.98-.07,2.8-.29.2-.06.41-.11.6-.17l.57-.2c.36-.14.71-.29,1.04-.46.66-.32,1.26-.68,1.82-1.06,1.12-.75,2.09-1.59,2.99-2.46.44-.44.87-.89,1.28-1.35.2-.23.4-.47.6-.71l.29-.37.3-.4-3.05-3.18s-.1.05-.15.08l-.17.1-.34.19c-.23.13-.46.26-.69.39-.47.25-.93.5-1.39.73-.92.47-1.85.87-2.73,1.17-.44.16-.86.27-1.26.35-.1.02-.2.05-.29.05-.09.01-.18.03-.28.04l-.25.02c-.09.01-.15,0-.23,0-.29,0-.7-.41-.7-.41l-.23-.2-.11-.1s-.08-.08-.12-.11l-.24-.23-.24-.23-.24-.25c-.16-.17-.32-.33-.49-.51-.33-.35-1.8-2.18-3.17-3.9-1.47-1.84-4.11-2.23-6.05-.9h0Z" fill="#4c144d"/><path d="m240.67,195.3l.87.08c-2.17.15-3.8,2.03-3.64,4.2l.09,1.2c.13,1.81,1.46,3.25,3.16,3.58l-14-1.12c-2.33-.23-4.03-2.31-3.79-4.64l.07-.65c.24-2.3,2.27-3.98,4.58-3.78h0s12.67,1.13,12.67,1.13Z" fill="#92278f"/><polygon points="274.39 194.63 241.54 195.38 240.67 195.3 227.99 194.17 227.99 194.17 227.84 194.16 274.39 194.63" fill="#92278f"/><path d="m273.44,195.95l-31.83.83c-.72.06-1.37.42-1.81,1-.38.51-.54,1.15-.49,1.79l.08,1.11c.09,1.29,1.18,2.32,2.47,2.34.07,0,.15,0,.22,0h.03s31.37-.71,31.37-.71l.78-.02c.37,0,.67.29.66.66v.12c0,.35-.29.63-.63.64l-32.11.73c-.36.03-.71,0-1.04-.06-1.7-.33-3.04-1.77-3.16-3.58l-.09-1.2c-.15-2.17,1.48-4.05,3.64-4.2l32.85-.75c.37,0,.67.29.66.66,0,.35-.28.63-.63.64l-.98.03Z" fill="#b24b9c"/><path d="m273.49,202.3l-31.37.71h-.03c-.07,0-.15.01-.22.01-1.29-.02-2.38-1.05-2.47-2.34l-.08-1.11c-.05-.64.11-1.28.49-1.79.44-.58,1.09-.94,1.81-1l31.83-.83c-.01.06-.42,1.95-.43,3.17-.02,1.21.48,3.18.48,3.18Z" fill="#e6e6e6"/><path d="m242.07,198.63c.92-.15,1.84-.25,2.76-.33.92-.08,1.84-.13,2.77-.17.92-.03,1.85-.06,2.77-.05.92,0,1.85.03,2.78.11-.92.15-1.84.25-2.76.33-.92.08-1.84.13-2.77.17-.92.03-1.85.06-2.77.05-.92,0-1.85-.03-2.78-.11Z" fill="#ccc"/><path d="m249.66,201.21c.92-.15,1.84-.25,2.76-.33.92-.08,1.84-.13,2.77-.17.92-.03,1.85-.06,2.77-.05.92,0,1.85.03,2.78.11-.92.15-1.84.25-2.76.33-.92.08-1.84.13-2.77.17-.92.03-1.85.06-2.77.05-.92,0-1.85-.03-2.78-.11Z" fill="#ccc"/><path d="m250.91,206c1.28-1.71,1.36-5.93.14-7.68-2.35-.04-4.45.21-6.8.17,1.22,1.75.88,5.69-.4,7.4,1.49-.46,2.94-1.07,4.29-1.77,1,.74,1.9,1.39,2.77,1.88Z" fill="#48c902"/><path d="m257.8,199.56c1.26-.15,2.53-.25,3.8-.33,1.27-.08,2.53-.13,3.8-.17,1.27-.03,2.54-.06,3.81-.05,1.27,0,2.54.03,3.81.11-1.26.15-2.53.25-3.8.33-1.27.08-2.53.13-3.8.17-1.27.03-2.54.06-3.81.05-1.27,0-2.54-.03-3.81-.11Z" fill="#ccc"/><path d="m228.99,167.67h41.23s-.72,2.98-.72,6.23.72,6.23.72,6.23h-41.23c-1.46,0-2.65-1.19-2.65-2.65v-7.16c0-1.47,1.19-2.65,2.65-2.65Z" fill="#e6e6e6"/><path d="m270.78,165.98c.47,0,.85.38.85.85,0,.23-.09.45-.25.6-.15.16-.36.25-.6.25h-41.79c-1.46,0-2.65,1.19-2.65,2.65v7.16c0,1.46,1.19,2.65,2.65,2.65h41.79c.47,0,.85.38.85.85,0,.23-.09.44-.25.6s-.36.25-.6.25h-41.79c-2.4,0-4.34-1.95-4.34-4.34v-7.16c0-2.4,1.94-4.34,4.34-4.34h41.79Z" fill="#4c144d"/><path d="m231.71,170.08c2.44-.11,4.88-.18,7.32-.22,2.44-.05,4.88-.06,7.32-.06,2.44,0,4.88.02,7.32.06,2.44.04,4.88.11,7.32.22-2.44.11-4.88.18-7.32.22-2.44.04-4.88.06-7.32.06-2.44,0-4.88-.02-7.32-.06-2.44-.04-4.88-.11-7.32-.22Z" fill="#ccc"/><path d="m230.18,173.9c.92-.12,1.85-.18,2.77-.22.92-.05,1.85-.06,2.77-.06.92,0,1.85.02,2.77.06.92.04,1.85.1,2.77.22-.92.12-1.85.18-2.77.22-.92.04-1.85.06-2.77.06-.92,0-1.85-.02-2.77-.06-.92-.04-1.85-.1-2.77-.22Z" fill="#ccc"/><path d="m237.24,177.81c.92-.12,1.85-.18,2.77-.22.92-.05,1.85-.06,2.77-.06.92,0,1.85.02,2.77.06.92.04,1.85.1,2.77.22-.92.12-1.85.18-2.77.22-.92.04-1.85.06-2.77.06-.92,0-1.85-.02-2.77-.06-.92-.04-1.85-.1-2.77-.22Z" fill="#ccc"/><path d="m243.07,175.52c2.13-.11,4.26-.18,6.4-.22,2.13-.05,4.26-.06,6.4-.06,2.13,0,4.26.02,6.4.06,2.13.04,4.26.11,6.4.22-2.13.11-4.26.18-6.4.22-2.13.04-4.26.06-6.4.06-2.13,0-4.26-.02-6.4-.06-2.13-.04-4.26-.11-6.4-.22Z" fill="#ccc"/><path d="m238.77,181.44c-1.25-2.36-1.25-5.18,0-7.54h-7.06c-1.25,2.36-1.25,5.18,0,7.54.84-.64,1.77-1.32,2.79-2.01,1.33.69,2.76,1.37,4.27,2.01Z" fill="#48c902"/><rect x="260.98" y="181.83" width="2.62" height="12.46" fill="#48c902"/><rect x="263.6" y="181.83" width="4.37" height="12.46" fill="#359545"/><rect x="230.65" y="181.83" width="30.33" height="12.46" fill="#359545"/><rect x="228.02" y="181.83" width="2.62" height="12.46" fill="#48c902"/><rect x="223.65" y="181.83" width="4.37" height="12.46" fill="#359545"/><path d="m223.63,185.4s-3.35,1.62-3.89,5.99l1.44-1.2.51,1.2s.33-3.71,1.95-5.15v-.84Z" fill="#48c902"/><ellipse cx="245.89" cy="188.06" rx="11.9" ry="2.81" fill="#48c902"/><path d="m226.35,133.33s6.99-1.51,6.79.78c-.09.98-3.09,5.38-3.16,5.74-.04.27-.1.54-.16.81-.06.27-.11.54-.18.81-.07.27-.13.54-.2.81l-.23.82c-.04.14-.08.28-.13.42l-.14.42-.14.42-.16.43-.17.43c-.03.07-.06.14-.09.21l-.1.22-.21.44-.1.22-.05.11-.09.16c-.13.23-.25.45-.4.67-.15.21-.3.41-.46.61-.17.18-.34.36-.51.53-.18.16-.36.31-.54.46-.74.55-1.49.91-2.2,1.15-.17.06-.36.12-.53.16l-.51.13c-.33.07-.67.13-.99.17-.64.08-1.26.12-1.85.11-1.19,0-2.31-.15-3.4-.35-.54-.11-1.08-.23-1.6-.37-.26-.07-.53-.15-.79-.23l-.39-.13-.42-.14.69-3.83s.1,0,.15-.01h.17s.35-.04.35-.04c.23-.02.47-.03.7-.05.46-.04.93-.08,1.38-.14.9-.11,1.78-.26,2.58-.47.4-.1.77-.22,1.1-.35.08-.03.17-.06.24-.1.07-.04.15-.07.22-.1l.2-.11c.07-.03.11-.08.17-.11.21-.15.31-.64.31-.64l.07-.26.04-.13s.02-.09.03-.14l.06-.29.07-.28.05-.31c.03-.21.08-.4.11-.61.07-.42.21-1.88.38-3.82.18-2.07,1.68-3.67,4.06-4.21h0Z" fill="#48c902"/><polygon points="236.37 128.38 235.76 133.25 231.34 132.58 231.31 132.45 231.15 131.84 230.99 131.21 230.99 131.2 230.39 128.91 236.37 128.38" fill="#fae0b2"/><path d="m236.7,126.6c-.1,2.78-1.84,5.35-4.62,5.25-2.78-.1-4.93-.09-5.44-5.61-.26-2.77,2.43-4.95,5.21-4.85,2.78.1,4.95,2.43,4.85,5.21Z" fill="#fae0b2"/><path d="m231.67,123.57c-1.09.19-3.96,1.69-4.99,1.65s-2.05-3.49-1.86-4.63c.19-1.15,1.81-1.38,1.81-1.38-.25-.67.79-1.68,3.54-1.41,2.41.24,3.23,1.76,3.23,1.76,2.59-.94,4.55,1.35,4.04,5.9-.31,2.73-1.59,4.21-1.59,4.21l-.59-2.52s.9-.15.7-1.11-.91-.41-.91-.41c0,0-.07-1.29-.45-1.74-.41-.48-1.41-.57-2.92-.31Z" fill="#13375b"/><path d="m234.58,123.88s.57,1.65.28,3.46-1.53,3.05-3.01,2.55c-1.48-.5-2.32-.82-3.22-.23s-1.38-.39-1.38-.39c0,0,.69,2.9,4.41,2.58,3.72-.31,4.7-3.13,4.7-3.13l-.64-1.17s-.52-.57-.52-2.34-.62-1.34-.62-1.34Z" fill="#13375b"/><path d="m231.46,133.14l-.31-1.3s3.2.26,4.35-1.68c0,0-.02,2.65-4.05,2.98Z" fill="#fe875e"/><path d="m242.67,149.18l.35-6.26c.28-5.02.02-10.28-8.05-10.27,0,0-.02,0-.03,0-.54-.09-.93-.12-1.12-.14-.08,0-.12,0-.12,0-10.4,0-10.12,3.87-10.42,9.32l-.33,5.87-.49,8.75,19.74,1.11.47-8.36Z" fill="#359545"/><path d="m233.82,132.51c.19.02.58.05,1.12.14-.36-.07-.74-.11-1.12-.14Z" fill="#587cf8"/><path d="m227.86,155.1h1.86c.8,0,1.45-.65,1.45-1.45h0c0-.8-.65-1.45-1.45-1.45h-1.86c-.8,0-1.45.65-1.45,1.45h0c0,.8.65,1.45,1.45,1.45Z" fill="#fae0b2"/><path d="m228.09,152.82h0c-.09-.36-.46-.59-.82-.5l-2.19.54c-.36.09-.59.46-.5.82h0c.09.36.46.59.82.5l2.19-.54c.36-.09.59-.46.5-.82Z" fill="#fae0b2"/><path d="m227.46,153.68h0c-.09-.36-.46-.59-.82-.5l-2.41.59c-.36.09-.59.46-.5.82h0c.09.36.46.59.82.5l2.41-.59c.36-.09.59-.46.5-.82Z" fill="#fae0b2"/><path d="m205.17,181.52s.87.97.04,1.95l-2.39-.98c.23-.42.65-.72,1.14-.79.47-.07.86-.13,1.21-.18Z" fill="#f8a492"/><path d="m216.48,184.35l-.69,1.69c-2.18-.92-1.14-2.77-1.14-2.77.9.3,1.45.44,1.55.47.01,0,.02,0,.02,0h0c.24.1.35.37.26.61Z" fill="#f8a492"/><path d="m208.41,180.96c.22-.04.47-.08.73-.13,0,0,.2.11.55.3.59.31,1.63.83,2.92,1.36.11.04.22.09.32.13.66.27,1.25.48,1.73.64,0,0-1.04,1.85,1.14,2.77l-.62,1.52-9.96-4.08c.82-.98-.04-1.95-.04-1.95.73-.11,1.27-.21,2.01-.34.35-.06.75-.14,1.23-.22Z" fill="#f47458"/><path d="m215.18,187.55l-.02.05c-.12.3-.47.45-.77.32l-11.39-4.66c-.12-.05-.21-.14-.25-.25-.04-.11-.05-.24,0-.36.02-.06.05-.11.08-.17l2.39.98,9.96,4.08Z" fill="#b75742"/><path d="m216.73,182.5l-.51,1.24s0,0-.02,0c-.18-.05-1.72-.47-3.24-1.06-.1-.04-.26-.13-.37-.17-1.29-.53-2.32-1.05-2.92-1.36-.34-.18-.53-.3-.53-.3l.51-1.24,6.53,2.67.54.22Z" fill="#fae0b2"/><path d="m208.95,182.43s-.03-.02-.04-.04l-.57-1.4s0-.08.04-.09c.04-.01.08,0,.09.04l.57,1.4s0,.08-.04.09c-.02,0-.04,0-.05,0Z" fill="#f8a492"/><path d="m208.32,182.56s-.03-.02-.04-.04l-.57-1.4s0-.08.04-.09c.04-.01.08,0,.09.04l.57,1.4s0,.08-.04.09c-.02,0-.04,0-.05,0Z" fill="#f8a492"/><path d="m207.72,182.64s-.03-.02-.04-.04l-.57-1.4s0-.01,0-.01c-.01-.04.01-.08.05-.09.04-.01.08.01.09.05h0s.56,1.4.56,1.4c.01.04,0,.08-.04.09-.02,0-.04,0-.05,0Z" fill="#f8a492"/><path d="m226.13,186.03s1.3.1,1.38,1.38l-2.4.95c-.12-.47-.02-.97.28-1.36.29-.38.53-.69.74-.97Z" fill="#f8a492"/><path d="m236.24,180.23l.67,1.69c-2.21.84-2.74-1.21-2.74-1.21.86-.4,1.36-.69,1.44-.74,0,0,.01,0,.01,0h0c.24-.1.51.02.61.26Z" fill="#f8a492"/><path d="m228.08,183.38c.13-.18.28-.38.44-.6,0,0,.22-.05.61-.16.65-.18,1.75-.53,3.05-1.04.11-.04.22-.09.32-.13.66-.27,1.23-.52,1.69-.74,0,0,.53,2.05,2.74,1.21l.6,1.53-10.01,3.96c-.08-1.28-1.38-1.38-1.38-1.38.44-.59.77-1.03,1.21-1.64.21-.29.44-.61.73-1.01Z" fill="#f47458"/><path d="m237.52,183.44l.02.06c.12.3-.03.65-.33.77l-11.44,4.53c-.12.05-.25.04-.36,0-.11-.05-.2-.14-.25-.26-.02-.06-.04-.12-.06-.18l2.4-.95,10.01-3.96Z" fill="#b75742"/><path d="m235.14,178.72l.49,1.24s0,0-.01,0c-.16.09-1.56.86-3.07,1.48-.1.04-.27.09-.38.13-1.3.51-2.4.86-3.05,1.04-.37.1-.59.15-.59.15l-.49-1.24,6.56-2.59.54-.21Z" fill="#fae0b2"/><path d="m229.48,184.06s-.04,0-.06,0l-1.38-.62s-.05-.06-.04-.09c.02-.04.06-.05.09-.04l1.38.62s.05.06.04.09c0,.02-.02.03-.04.04Z" fill="#f8a492"/><path d="m229.13,184.59s-.04,0-.06,0l-1.38-.62s-.05-.06-.04-.09c.02-.04.06-.05.09-.04l1.38.62s.05.06.04.09c0,.02-.02.03-.04.04Z" fill="#f8a492"/><path d="m228.74,185.07s-.04,0-.06,0l-1.38-.62s-.01,0-.01,0c-.03-.02-.04-.06-.02-.1.02-.03.06-.04.1-.02h0s1.37.62,1.37.62c.04.02.05.06.04.09,0,.02-.02.03-.04.04Z" fill="#f8a492"/><path d="m234.5,155.5s-9.09-.47-16.18-.47-9.44,2.31-8.52,8.99c.93,6.78-.47,15.48-.47,15.48l8.09,3.27s3.47-14.1,2.72-17.36c0,0,15.62,1.69,14.35-9.9Z" fill="#4c144d"/><path d="m242.35,159.59c-1.21,7.96-11.44,6.1-11.44,6.1.75,3.26,4.66,12.9,4.66,12.9l-8.08,3.15s-5.42-10.86-6.92-17.43c-1.5-6.57,1.43-8.99,8.52-8.99,3.97,0,7.67.34,10.15.65,1.95.24,3.15.45,3.15.45.13,1.2.11,2.26-.03,3.18Z" fill="#92278f"/><path d="m234.36,179l-.16-.36.13-.06.15.34s.01.03.01.05h-.14.07l-.06.03Zm-.33-.75l-.17-.39.13-.06.17.39-.13.06Zm-.34-.78l-.17-.39.13-.06.17.39-.13.06Zm-.34-.78l-.17-.39.13-.06.17.39-.13.06Zm-.34-.78l-.17-.39.13-.06.17.39-.13.06Zm-.33-.78l-.17-.39.13-.06.17.39-.13.06Zm-.33-.78l-.16-.39.13-.05.16.39-.13.05Zm-.33-.78l-.16-.39.13-.05.16.39-.13.05Zm-.33-.78l-.16-.39.13-.05.16.39-.13.05Zm-.32-.78l-.16-.39.13-.05.16.39-.13.05Zm-.32-.79c-.05-.13-.11-.26-.16-.39l.13-.05c.05.13.11.26.16.39l-.13.05Zm-.32-.79c-.05-.13-.11-.26-.16-.39l.13-.05c.05.13.1.26.16.39l-.13.05Zm-.32-.79c-.05-.13-.1-.26-.16-.39l.13-.05c.05.13.1.26.16.39l-.13.05Zm-.31-.79c-.05-.13-.1-.26-.15-.4l.13-.05c.05.13.1.26.15.4l-.13.05Zm-.31-.79c-.05-.13-.1-.27-.15-.4l.13-.05c.05.13.1.26.15.4l-.13.05Zm-.3-.79c-.05-.13-.1-.27-.15-.4l.13-.05c.05.13.1.26.15.4l-.13.05Zm-.29-.8c-.05-.14-.1-.27-.14-.4l.13-.05c.05.13.09.26.14.4l-.13.05Zm-.28-.8c-.05-.14-.09-.27-.13-.4l.13-.04c.04.13.09.26.13.4l-.13.05Zm-.26-.81c-.04-.15-.08-.28-.12-.41l.14-.04c.03.13.07.26.12.41l-.14.04Zm2.06-.53c-.13,0-.26,0-.38,0v-.14c.12,0,.25,0,.38,0h.04s0,.14,0,.14h-.04Zm.47,0v-.14c.13,0,.27,0,.42-.01v.14c-.14,0-.28.01-.42.02Zm-1.28-.01c-.15,0-.29-.01-.42-.02v-.14c.14,0,.28.02.43.02v.14Zm2.13-.03v-.14c.13,0,.27-.02.41-.03v.14c-.13.01-.27.03-.41.03Zm-2.97-.03c-.19-.02-.34-.03-.42-.04l.02-.14c.09.01.23.03.42.04v.14Zm3.82-.06l-.02-.14c.14-.02.28-.04.42-.06l.02.14c-.14.02-.28.04-.42.06Zm.84-.12l-.02-.14c.14-.02.28-.05.41-.08l.03.14c-.14.03-.28.06-.42.08Zm.83-.17l-.03-.14c.14-.03.28-.07.41-.11l.04.14c-.13.04-.27.07-.41.11Zm.82-.23l-.04-.13c.14-.04.27-.09.4-.14l.05.13c-.13.05-.27.09-.4.14Zm.8-.29l-.05-.13c.13-.05.26-.11.38-.17l.06.13c-.13.06-.26.12-.39.17Zm.77-.36l-.07-.12c.12-.07.25-.14.37-.21l.07.12c-.12.07-.25.14-.37.21Zm.73-.44l-.08-.12c.12-.08.23-.16.34-.25l.09.11c-.11.09-.23.17-.35.25Zm.68-.52l-.09-.11c.11-.09.21-.19.31-.29l.1.1c-.1.1-.21.2-.31.29Zm.6-.6l-.11-.09c.09-.1.18-.21.26-.32l.11.09c-.09.11-.18.22-.27.33Zm.52-.68l-.12-.08c.08-.12.15-.24.22-.36l.12.07c-.07.12-.14.25-.22.37Zm.42-.75l-.13-.06c.06-.12.11-.25.17-.38l.13.05c-.05.13-.11.27-.17.39Zm.31-.79l-.13-.04c.04-.13.08-.27.12-.4l.14.04c-.04.14-.08.28-.12.41Z" fill="#1a1a1a"/><path d="m242.35,159.59c-1.74-.01-3.15-1.43-3.15-3.18,0-.15.01-.3.03-.45,1.95.24,3.15.45,3.15.45.13,1.2.11,2.26-.03,3.18Z" fill="#4c144d"/><path d="m242.35,159.66c-1.78-.01-3.22-1.47-3.22-3.25,0-.15.01-.31.03-.46l.14.02c-.02.15-.03.29-.03.44,0,1.7,1.38,3.09,3.08,3.11v.14Z" fill="#171c51"/><path d="m226.97,180.68l-.05-.13.27-.11.05.13-.27.11Zm.66-.27l-.05-.13.39-.16.05.13-.39.16Zm.79-.32l-.05-.13.39-.16.05.13-.39.16Zm.79-.32l-.05-.13.39-.16.05.13-.39.16Zm.79-.32l-.05-.13.39-.16.05.13-.39.16Zm.79-.32l-.05-.13.39-.16.05.13-.39.16Zm.79-.32l-.05-.13.39-.16.05.13-.39.16Zm.79-.32l-.05-.13.39-.16.05.13-.39.16Zm.79-.32l-.05-.13.39-.16.05.13-.39.16Zm.79-.32l-.05-.13.39-.16.05.13-.39.16Zm.79-.32l-.05-.13.39-.16.05.13-.39.16Z" fill="#1a1a1a"/><path d="m216.89,155.05h7.86c-.16,0-.31.06-.42.15-.11.09-.18.22-.18.36,0,.28.27.51.6.51h-16.15c-.33,0-.6-.23-.6-.51,0-.14.07-.26.18-.36.11-.09.26-.15.42-.15h8.3Z" fill="#d1d1d1"/><path d="m233.55,155.05c.28,0,.51.23.51.5,0,.14-.06.26-.15.36-.09.09-.22.15-.36.15h-8.91c-.28,0-.51-.23-.51-.51,0-.14.06-.26.15-.36.09-.09.22-.15.36-.15h8.91Z" fill="#9e9e9e"/><path d="m225.17,154.79c-.14.17-.34.26-.55.26h-.64c.22,0,.42-.1.55-.26.14-.17.19-.38.14-.6l-2.11-10.09c-.07-.33-.36-.57-.7-.57h.64c.34,0,.63.24.7.57l2.11,10.09c.04.21,0,.43-.14.6Z" fill="#d1d1d1"/><path d="m224.54,154.79c-.14.17-.34.26-.55.26h-15.33c-.34,0-.63-.24-.7-.57l-2.11-10.09c-.04-.21,0-.43.15-.6.13-.17.34-.26.55-.26h15.33c.34,0,.63.24.7.57l2.11,10.09c.04.21,0,.43-.14.6Z" fill="#f4f4f4"/><circle cx="215.26" cy="149.29" r=".83" fill="#fff"/><path d="m242.64,136.5c.36,1.35.69,2.65.75,3.17,1.36,5.58-.11,9.88-1.23,11.78-2.96,4.12-13.07,3.61-13.07,3.61l.28-3.33s3.93-.37,7.04-1.92c2.53-1.2.79-7.65-.54-11.1-.71-1.85.21-3.92,2.06-4.62h0c1.97-.75,4.16.38,4.7,2.41Z" fill="#48c902"/></svg>