<?xml version="1.0" encoding="UTF-8"?><svg id="a" xmlns="http://www.w3.org/2000/svg" viewBox="0 0 300.79 206"><path d="m37.33,202.84s34.62-10.55,30.12-45.46c-3.21-24.93-92.01-141.02,9.13-100.16,40.87,16.51,37.64-31.43,61.06-46.46,54.76-35.15,169.57,20.99,118.82,93.71-18.75,26.87-40.98,68.13-.61,98.37H37.33Z" fill="#4c144d"/><path d="m191.09,34.62c-2.09,0-3.8-1.7-3.8-3.8s1.7-3.8,3.8-3.8,3.8,1.7,3.8,3.8-1.7,3.8-3.8,3.8Zm0-6.32c-1.39,0-2.52,1.13-2.52,2.52s1.13,2.52,2.52,2.52,2.52-1.13,2.52-2.52-1.13-2.52-2.52-2.52Z" fill="#359545"/><path d="m37.82,65.13c-2.09,0-3.8-1.7-3.8-3.8s1.7-3.8,3.8-3.8,3.8,1.7,3.8,3.8-1.7,3.8-3.8,3.8Zm0-6.32c-1.39,0-2.52,1.13-2.52,2.52s1.13,2.52,2.52,2.52,2.52-1.13,2.52-2.52-1.13-2.52-2.52-2.52Z" fill="#359545"/><path d="m130.41,23.09c-1.66,0-3-1.35-3-3s1.35-3,3-3,3,1.35,3,3-1.35,3-3,3Zm0-4.73c-.95,0-1.73.77-1.73,1.73s.77,1.73,1.73,1.73,1.73-.77,1.73-1.73-.77-1.73-1.73-1.73Z" fill="#359545"/><path d="m263.51,99.06c-2.09,0-3.8-1.7-3.8-3.8s1.7-3.8,3.8-3.8,3.8,1.7,3.8,3.8-1.7,3.8-3.8,3.8Zm0-6.32c-1.39,0-2.52,1.13-2.52,2.52s1.13,2.52,2.52,2.52,2.52-1.13,2.52-2.52-1.13-2.52-2.52-2.52Z" fill="#359545"/><path d="m241.01,75.58l-9.78-35.14,27.93-12.89,1.04,37.5-19.18,10.53Zm-8.26-34.43l9.06,32.54,17.09-9.38-.96-34.79-25.18,11.62Z" fill="#359545"/><path d="m216.62,77l-18.22-32.8,30.6-3.14,9.49,35.22-21.87.72Zm-16.17-31.72l16.9,30.42,19.48-.64-8.79-32.61-27.59,2.84Z" fill="#359545"/><path d="m237.36,76.41l-9.62-35.11,4.7-1.29,9.62,35.11-4.7,1.29Zm-8.05-34.21l8.94,32.65,2.24-.61-8.94-32.65-2.24.61Z" fill="#359545"/><path d="m202.67,44.38l-1-.79,2.02-2.55.16-.06c8.04-3.1,14.66-3.64,18.8-3.54,4.51.11,7.09.95,7.2.99l.32.11.7,2.57-1.23.34-.52-1.89c-.81-.22-3.11-.76-6.57-.83-3.98-.09-10.33.43-18.08,3.39l-1.81,2.28Z" fill="#359545"/><path d="m229.64,41.44l-.7-2.57.22-.26c.07-.09,1.86-2.13,5.69-4.52,3.51-2.19,9.47-5.11,17.97-6.54l.17-.03,3.04,1.16-.46,1.19-2.72-1.04c-14.16,2.43-21.2,9.02-22.51,10.36l.52,1.89-1.23.34Z" fill="#359545"/><path d="m203.61,42l-5.24-5.84,2.19.67s3.65.99,14.5-1.15c11.54-2.28,14.99,2.8,15.13,3.01l-1.07.7s-.79-1.15-2.84-2.01c-1.93-.81-5.39-1.55-10.97-.45-7.11,1.41-11.21,1.5-13.3,1.37l2.56,2.85-.95.85Z" fill="#359545"/><rect x="229.47" y="44.3" width="3.65" height="1.28" transform="translate(-3.65 62.73) rotate(-15.33)" fill="#359545"/><rect x="230.25" y="47.18" width="3.65" height="1.28" transform="translate(-4.39 63.04) rotate(-15.33)" fill="#359545"/><rect x="236.63" y="70.28" width="3.65" height="1.28" transform="translate(-10.3 67.27) rotate(-15.72)" fill="#359545"/><rect x="235.82" y="67.41" width="3.65" height="1.28" transform="translate(-9.55 66.95) rotate(-15.72)" fill="#359545"/><path d="m228.59,40.35c-.93-.11-1.85-.17-2.78-.23-.93-.05-1.85-.08-2.78-.1-.46,0-.93-.02-1.39-.01-.23,0-.46,0-.7,0-.23,0-.46,0-.7,0-.23,0-.46,0-.7,0h-.7c-.47,0-.93.02-1.4.01.46-.09.92-.17,1.38-.24.46-.05.93-.12,1.4-.15.47-.04.93-.07,1.4-.08.23,0,.47-.02.7-.02h.7c.94.02,1.87.09,2.8.21.46.06.93.14,1.39.23.46.1.92.21,1.36.37Z" fill="#359545"/><path d="m220.62,41.1c-1.27.01-2.54.07-3.8.15-1.26.08-2.52.2-3.78.33-.31.03-.63.07-.94.11l-.47.05-.47.06-.94.12c-.31.05-.63.1-.94.14l-.47.07c-.16.02-.31.05-.47.08l-.94.15c-.63.1-1.25.21-1.88.3.3-.1.61-.19.91-.28l.46-.13c.15-.04.31-.09.46-.12.62-.15,1.24-.31,1.86-.43.31-.06.62-.13.94-.19l.94-.16.47-.08.47-.06c.32-.04.63-.08.95-.12,1.27-.14,2.54-.22,3.82-.23,1.27-.01,2.55.03,3.82.22Z" fill="#359545"/><path d="m230.22,39.59c.74-.67,1.53-1.29,2.33-1.89.8-.59,1.63-1.16,2.47-1.7.84-.54,1.71-1.04,2.59-1.52.89-.47,1.79-.9,2.73-1.25l-2.55,1.58-2.52,1.6-2.52,1.61c-.84.54-1.68,1.07-2.54,1.58Z" fill="#359545"/><path d="m235.17,37.89c1.15-.8,2.35-1.53,3.56-2.24.3-.18.6-.35.91-.53.3-.17.61-.35.92-.51.61-.34,1.23-.66,1.85-.99l.94-.47c.31-.16.63-.31.94-.46.63-.3,1.27-.6,1.91-.88,1.29-.56,2.59-1.08,3.93-1.5-1.27.6-2.52,1.21-3.77,1.83-.31.16-.62.32-.94.47-.31.15-.62.32-.93.48-.62.31-1.24.64-1.86.96l-.93.48-.93.49-1.86.97c-1.24.65-2.48,1.29-3.74,1.92Z" fill="#359545"/><path d="m86.54,71.68c-.14,0-.28,0-.41,0-7.95-.11-15.38-3.3-20.92-9-5.54-5.7-8.54-13.21-8.43-21.16.11-7.95,3.3-15.38,9-20.92,5.7-5.54,13.21-8.54,21.16-8.43,7.95.11,15.38,3.3,20.92,9,5.54,5.7,8.54,13.21,8.43,21.16-.11,7.95-3.3,15.38-9,20.92-5.6,5.45-12.95,8.43-20.74,8.43Zm-.01-58.22c-7.16,0-14.33,2.68-19.86,8.06-11.25,10.95-11.5,29.02-.55,40.27,5.57,5.73,12.99,8.6,20.41,8.6,7.16,0,14.33-2.68,19.86-8.06,5.45-5.31,8.51-12.42,8.61-20.02.1-7.61-2.76-14.8-8.07-20.25-5.57-5.73-12.99-8.6-20.41-8.6Z" fill="#359545"/><path d="m86.53,65.69c-.11,0-.22,0-.33,0-6.35-.09-12.28-2.64-16.71-7.19-4.43-4.55-6.82-10.55-6.73-16.9.09-6.35,2.64-12.28,7.19-16.71,4.55-4.43,10.55-6.82,16.9-6.73,6.35.09,12.28,2.64,16.71,7.19,4.43,4.55,6.82,10.55,6.73,16.9-.09,6.35-2.64,12.28-7.19,16.71-4.47,4.35-10.34,6.74-16.57,6.74Zm-.01-46.25c-5.66,0-11.32,2.11-15.68,6.36-4.31,4.19-6.72,9.81-6.8,15.81-.08,6.01,2.18,11.69,6.37,15.99,4.19,4.31,9.81,6.72,15.81,6.8.1,0,.21,0,.31,0,5.89,0,11.45-2.26,15.68-6.37,8.89-8.65,9.08-22.92.43-31.8-4.4-4.52-10.26-6.79-16.12-6.79Z" fill="#359545"/><path d="m100.45,56.27l-.87-.93c1.34-1.25,2.48-2.68,3.4-4.24l1.1.65c-.98,1.67-2.2,3.19-3.63,4.53Z" fill="#359545"/><path d="m105.87,47.26l-1.23-.34c1.76-6.41-.02-13.35-4.65-18.1l.92-.89c2.49,2.55,4.25,5.72,5.1,9.16.83,3.34.78,6.85-.13,10.17Z" fill="#359545"/><polygon points="62.97 71.45 55.78 64.06 62.07 57.94 62.96 58.86 57.58 64.08 62.99 69.64 68.27 64.51 69.16 65.42 62.97 71.45" fill="#359545"/><path d="m26.01,110.75l-10.52-10.81,39.54-38.48,10.52,10.81-39.54,38.48Zm-8.71-10.79l8.74,8.98,37.71-36.7-8.74-8.98-37.71,36.7Z" fill="#359545"/><rect x="42.1" y="143.33" width="1.28" height="59.52" fill="#48c902"/><path d="m47.08,202.87l-2.81-72.88c-.04-1.01-.79-1.47-1.53-1.47s-1.49.45-1.53,1.47l-2.81,72.88-1.28-.05,2.81-72.88c.07-1.77,1.46-2.7,2.8-2.7s2.73.93,2.8,2.7l2.81,72.88-1.28.05Z" fill="#48c902"/><rect x="55.89" y="138.47" width="1.28" height="64.37" fill="#48c902"/><path d="m61.28,202.87l-3.04-78.83c-.04-1.13-.89-1.64-1.7-1.64-.82,0-1.66.51-1.7,1.64l-.79,20.47-1.28-.05.79-20.47c.07-1.88,1.55-2.87,2.98-2.87,0,0,0,0,0,0,1.43,0,2.91.98,2.98,2.87l3.04,78.83-1.28.05Z" fill="#48c902"/><rect x="26.74" y="178.94" width="46.58" height="1.28" transform="translate(-131.75 220.9) rotate(-87.24)" fill="#48c902"/><path d="m53.6,202.85h-1.28s.55-57.69.55-57.69c0-.84-.6-1.17-1.13-1.19-.52-.03-1.16.24-1.24,1.08l-3.06,34.37-1.27-.11,3.06-34.37c.13-1.55,1.39-2.3,2.57-2.24,1.18.06,2.36.93,2.34,2.48l-.55,57.68Z" fill="#48c902"/><rect x="32.29" y="152.09" width="1.28" height="48.36" transform="translate(-33.97 9.9) rotate(-11.32)" fill="#48c902"/><path d="m32.9,202.94l-10.1-62.97c-.28-1.75.9-2.93,2.22-3.19,1.31-.26,2.86.37,3.28,2.09l10.81,44.92-1.24.3-10.81-44.92c-.24-.99-1.07-1.28-1.78-1.14-.72.14-1.37.74-1.21,1.74l10.1,62.97-1.26.2Z" fill="#48c902"/><rect x="42.61" y="175.63" width="48.36" height="1.28" transform="translate(-119.16 207.16) rotate(-78.68)" fill="#48c902"/><path d="m66.82,202.94l-1.26-.2,10.1-62.97c.16-1-.49-1.6-1.21-1.74-.72-.14-1.55.15-1.78,1.14l-10.81,44.92-1.24-.3,10.81-44.92c.41-1.72,1.96-2.36,3.28-2.09,1.31.26,2.5,1.44,2.22,3.19l-10.1,62.97Z" fill="#48c902"/><rect x="258.63" y="126.44" width="1.28" height="76.4" fill="#359545"/><path d="m265.02,202.87l-3.61-93.56c-.05-1.42-1.11-2.06-2.14-2.06s-2.08.64-2.14,2.06l-3.61,93.56-1.28-.05,3.61-93.56c.08-2.16,1.78-3.29,3.42-3.29s3.33,1.13,3.42,3.29l3.61,93.56-1.28.05Z" fill="#359545"/><rect x="240.92" y="120.21" width="1.28" height="82.63" fill="#359545"/><path d="m235.29,202.87l-1.28-.05,3.91-101.19c.09-2.3,1.9-3.5,3.64-3.5,1.74,0,3.55,1.2,3.64,3.5l1.01,26.27-1.28.05-1.01-26.27c-.06-1.57-1.23-2.28-2.37-2.28-1.13,0-2.3.7-2.37,2.28l-3.91,101.19Z" fill="#359545"/><rect x="249.27" y="143.09" width="1.28" height="59.79" transform="translate(-8.03 12.22) rotate(-2.76)" fill="#359545"/><path d="m245.51,202.85l-.71-74.04c-.02-1.88,1.41-2.94,2.84-3,1.42-.07,2.95.84,3.11,2.72l3.93,44.12-1.27.11-3.93-44.12c-.1-1.13-.96-1.59-1.78-1.55-.81.04-1.63.58-1.62,1.72l.71,74.04h-1.28Z" fill="#359545"/><rect x="240.83" y="168.09" width="62.07" height="1.28" transform="translate(53.05 402.18) rotate(-78.68)" fill="#359545"/><path d="m271.72,202.94l-1.26-.2,12.96-80.82c.23-1.4-.69-2.24-1.69-2.44-1.01-.2-2.17.21-2.5,1.6l-13.88,57.66-1.24-.3,13.88-57.66c.51-2.1,2.39-2.87,3.99-2.55,1.6.32,3.05,1.76,2.7,3.89l-12.96,80.82Z" fill="#359545"/><rect x="227.75" y="137.69" width="1.28" height="62.07" transform="translate(-28.68 48.13) rotate(-11.32)" fill="#9bd"/><path d="m228.54,202.94l-12.96-80.82c-.34-2.13,1.1-3.57,2.7-3.89,1.6-.32,3.49.45,3.99,2.55l13.88,57.66-1.24.3-13.88-57.66c-.33-1.38-1.5-1.8-2.5-1.6-1.01.2-1.92,1.03-1.69,2.44l12.96,80.82-1.26.2Z" fill="#359545"/><path d="m287.89,206H12.9c0-2.92,2.37-5.29,5.29-5.29h264.4c2.92,0,5.29,2.37,5.29,5.29h0Z" fill="#4c144d"/><path d="m176.23,60.44c.23.64-.47,1.47-1.55,1.86l-15.87,5.62c-1.09.38-2.15.18-2.38-.46h0c-.23-.64.47-1.47,1.55-1.86l15.87-5.62c1.09-.38,2.15-.18,2.37.46h0Z" fill="#e6e6e6"/><path d="m177.05,62.76c.23.64-.47,1.47-1.55,1.86l-15.87,5.62c-1.09.38-2.15.18-2.37-.46h0c-.23-.64.47-1.47,1.55-1.86l15.87-5.62c1.09-.38,2.15-.18,2.37.46h0Z" fill="#e6e6e6"/><path d="m177.87,65.08c.23.64-.47,1.47-1.55,1.86l-15.87,5.62c-1.09.38-2.15.18-2.38-.46h0c-.23-.64.47-1.47,1.55-1.86l15.87-5.62c1.09-.38,2.15-.18,2.37.46h0Z" fill="#e6e6e6"/><path d="m178.69,67.4c.23.64-.47,1.47-1.55,1.86l-15.87,5.62c-1.09.38-2.15.18-2.38-.46h0c-.23-.64.47-1.47,1.55-1.86l15.87-5.62c1.09-.38,2.15-.18,2.37.46h0Z" fill="#e6e6e6"/><polygon points="169.21 72.06 160.82 75.03 161.19 76.06 164.87 76.17 170.02 74.34 175.16 72.52 177.95 70.12 177.59 69.09 169.21 72.06" fill="#e6e6e6"/><path d="m173.33,60.16s-.78-2.06-.27-4.88c.51-2.83,5.4-10,2.22-21.48-3.12-11.25-12.52-14.73-23.56-10.94h0c-.11.04-.22.08-.34.12-.11.04-.22.08-.34.12h0c-10.97,4.01-16.08,12.64-11.42,23.34,4.75,10.92,13.07,13.42,15.24,15.29,2.17,1.87,2.86,3.96,2.86,3.96l15.6-5.53Z" fill="#359545"/><path d="m151.51,22.24c1.16-.35,2.31-.7,3.5-.93.59-.15,1.19-.21,1.79-.3l.9-.12.91-.05.91-.04c.3,0,.61.02.91.03.61.02,1.22.04,1.82.15.61.08,1.21.17,1.8.34l.89.23c.29.09.57.21.86.31l.86.33.82.42c.27.15.55.28.81.43l.76.52c.52.32.98.73,1.43,1.14.48.38.87.85,1.28,1.31.43.44.76.95,1.11,1.45.37.48.65,1.02.94,1.55.14.27.3.53.43.8l.36.84c.24.56.48,1.12.64,1.69.17.58.38,1.1.51,1.72l.4,1.75.28,1.77c.09.59.11,1.19.17,1.79.07,1.19.07,2.39-.01,3.59-.08,1.19-.26,2.38-.49,3.55-.26,1.16-.55,2.32-.95,3.44-.38,1.13-.81,2.23-1.26,3.33-.22.55-.43,1.09-.59,1.65-.09.29-.13.56-.17.86-.04.29-.09.58-.09.87-.07,1.16.02,2.35.37,3.47l-.15.05c-.39-1.14-.51-2.34-.47-3.53,0-.3.04-.6.07-.89.03-.29.07-.6.15-.89.14-.58.36-1.15.56-1.7.42-1.11.82-2.21,1.17-3.34.36-1.12.62-2.26.86-3.41.2-1.15.35-2.32.4-3.49.05-1.17.03-2.34-.07-3.5-.07-.58-.11-1.16-.2-1.74l-.31-1.72-.43-1.7c-.12-.53-.36-1.11-.53-1.67-.17-.57-.41-1.1-.65-1.62l-.35-.79c-.13-.26-.28-.5-.42-.75-.29-.5-.56-1.01-.92-1.46-.34-.46-.66-.94-1.07-1.34-.39-.42-.76-.86-1.22-1.21-.43-.37-.86-.75-1.35-1.04l-.71-.47c-.25-.14-.51-.26-.76-.39l-.76-.38-.8-.29c-.27-.09-.53-.2-.81-.28l-.83-.2c-.55-.16-1.12-.23-1.69-.29-.56-.09-1.14-.11-1.71-.12-.29,0-.57-.02-.86-.02l-.86.06-.86.06-.85.13c-.57.09-1.14.16-1.7.31-1.13.23-2.23.59-3.34.94l-.61.19-.22-.59h0s.83.4.83.4l-.66.24.4-.84h0s.22.59.22.59l-.61.25c-1.07.44-2.14.88-3.15,1.43-.52.24-1,.56-1.49.85l-.73.45-.69.51-.69.51c-.22.18-.43.37-.64.56-.43.37-.85.75-1.22,1.18-.39.41-.77.82-1.09,1.29l-.5.68c-.16.23-.28.48-.43.72l-.42.72-.33.77c-.11.26-.23.51-.33.77l-.24.8c-.19.53-.27,1.07-.36,1.62-.12.54-.13,1.1-.17,1.66-.06.56,0,1.12.02,1.68,0,.56.11,1.11.2,1.67.05.28.08.56.14.83l.22.82c.14.55.29,1.1.51,1.62.21.52.37,1.1.61,1.58l.74,1.61.82,1.5c.28.5.61.97.91,1.46.64.96,1.34,1.87,2.11,2.73.77.86,1.59,1.68,2.44,2.45.88.75,1.78,1.49,2.75,2.14.96.67,1.96,1.28,2.97,1.9.5.32,1.01.63,1.5,1.02.12.1.24.18.37.31l.31.32c.21.21.42.42.61.67.78.94,1.41,1.97,1.78,3.12l-.16.05c-.47-1.06-1.19-2.03-1.97-2.85-.19-.21-.41-.41-.63-.6l-.33-.29c-.09-.07-.22-.16-.33-.24-.46-.31-.99-.59-1.51-.86-1.04-.55-2.09-1.12-3.11-1.75-1.03-.61-2.01-1.32-2.97-2.05-.46-.38-.93-.77-1.38-1.17-.43-.42-.89-.83-1.29-1.28-.83-.88-1.6-1.82-2.31-2.81-.34-.5-.7-.99-1.01-1.51l-.93-1.59-.79-1.59c-.3-.57-.48-1.13-.72-1.7-.25-.56-.41-1.15-.57-1.75l-.25-.89c-.07-.3-.11-.61-.17-.91-.11-.61-.23-1.22-.24-1.84-.04-.62-.1-1.24-.04-1.87.03-.62.05-1.25.19-1.86.11-.62.22-1.23.43-1.83l.28-.9c.11-.29.25-.57.38-.86l.39-.85.48-.8c.16-.26.31-.54.5-.79l.57-.74c.36-.51.79-.95,1.22-1.39.41-.46.88-.86,1.35-1.25.24-.2.46-.41.71-.59l.75-.53.75-.53.79-.46c.53-.3,1.05-.62,1.6-.87,1.08-.56,2.21-.99,3.34-1.42l-.4.84h0s-.22-.63-.22-.63l.61-.21.68-.23.62-.21-.62.21Z" fill="#359545"/><path d="m160.05,64.86c-.07-.08-6.88-7.66-10.16-12.84-1.19-1.88-.7-3.03-.31-3.55.71-.94,2.2-1.26,3.72-.81.1.03.2.06.3.1.06-.52.2-.99.43-1.37.36-.6,1.12-1.23,2.66-.87.8.19,1.51.45,2.12.78.2-.85.53-1.56,1.04-2,.5-.43,1.39-.8,2.8-.1.38.19.72.38,1.03.58.53-.83,1.31-1.27,2.31-1.3.6-.02,1.15.22,1.63.7,3.14,3.11,3.05,16.35,3.04,16.92l-.94.33c0-.14.21-13.81-2.68-16.67-.32-.32-.66-.47-1.03-.46-.72.02-1.28.34-1.66.95,2.16,1.68,2.52,3.63,2.56,4.49.07,1.41-.46,2.69-1.36,3.26-.35.22-.74.19-1.1-.09-1.17-.91-2-4.79-1.21-7.2.02-.07.05-.13.07-.2-.31-.2-.65-.4-1.03-.59-.82-.41-1.43-.41-1.89-.02-.41.35-.68,1.01-.83,1.83,2.44,1.69,3.1,4.39,2.83,6.1-.18,1.19-.8,1.89-1.6,1.82-.62-.05-1.15-.73-1.57-2.02-.49-1.49-.77-3.67-.55-5.5-.61-.35-1.32-.64-2.16-.84-1.09-.25-1.72.07-1.98,1-.07.25-.11.52-.13.81,1.54.87,2.95,2.66,3.15,5.55.1,1.5-.06,2.23-.56,2.44-.35.14-.71-.01-1.09-.46-.92-1.08-2.29-4.44-2.33-7.03-.2-.09-.37-.15-.5-.18-1.19-.35-2.32-.14-2.83.52-.46.61-.33,1.53.35,2.61,3.24,5.12,10.3,12.88,10.37,12.96l-.9.32Zm-.6-17.17c-.11,1.52.1,3.32.55,4.71.38,1.16.76,1.45.86,1.45.32.02.62-.43.73-1.13.22-1.39-.29-3.55-2.14-5.03Zm4.56-1.65c-.67,2.16.12,5.59.95,6.24.1.08.13.06.15.04.54-.34,1.05-1.25.98-2.52-.04-.72-.33-2.31-2.09-3.76Zm-9.6,3.07c.21,2.51,1.61,5.69,2.26,6.18.05-.16.13-.58.06-1.56-.18-2.56-1.32-3.92-2.32-4.63Z" fill="#e6e6e6"/><path d="m145.55,30.93c-1.05-.52-2.76.78-3.82,2.91-1.06,2.13-1.07,4.28-.03,4.8,1.05.52,2.76-.78,3.82-2.91,1.06-2.13,1.07-4.28.03-4.8Z" fill="#e6e6e6"/><rect x="145.79" y="197.23" width="50.94" height="3.91" fill="#e6e6e6"/><polygon points="171.39 191.92 146.05 197.23 196.72 197.23 171.39 191.92" fill="#b3b3b3"/><rect x="166.24" y="188.27" width="10.3" height="4.45" fill="#fec65e"/><rect x="166.24" y="179.35" width="10.3" height="4.45" fill="#b3b3b3"/><rect x="168.36" y="183.82" width="6.05" height="4.45" fill="#fe875e"/><path d="m161.15,171.17h0c-.92-.4-1.98.01-2.39.93l-2.08,4.72c-.4.92.01,1.98.93,2.39h0c.92.4,1.98-.01,2.39-.93l2.08-4.72c.4-.92-.01-1.98-.93-2.39Z" fill="#e6e6e6"/><path d="m186.87,112.74h0c-.92-.4-1.33-1.47-.93-2.39l2.08-4.72c.4-.92,1.47-1.33,2.39-.93h0c.92.4,1.33,1.47.93,2.39l-2.08,4.72c-.4.92-1.47,1.33-2.39.93Z" fill="#e6e6e6"/><path d="m170.58,180.05c-5.42,0-10.82-1.13-15.93-3.37-.61-.27-.89-.98-.62-1.59s.98-.89,1.59-.62c9.08,4,19.18,4.22,28.44.62,9.25-3.6,16.55-10.58,20.55-19.67,8.26-18.76-.29-40.73-19.05-48.99-.61-.27-.89-.98-.62-1.59s.98-.89,1.59-.62c19.97,8.79,29.07,32.19,20.28,52.17-4.26,9.68-12.03,17.11-21.88,20.94-4.65,1.81-9.51,2.71-14.35,2.71Z" fill="#b3b3b3"/><path d="m144.76,159.29c.1,1.99,0,5.51,0,5.51h0c-6.59-6.34-10.68-15.23-10.68-25.09,0-.96.04-1.9.12-2.84h0c0,.2.05,1.61,1.33,2.84,1.39,1.32,1.98,1.82,2.98,2.37.99.55,3.97,2.33,3.97,2.33,0,0,.6.2,2.29,2.38,1.68,2.19,3.27,2.98,3.67,4.17.4,1.19,1.19,2.28,1.19,2.28,0,0-2.98,4.07-3.57,4.47-.6.39-1.39-.4-1.29,1.58Z" fill="#466eb6"/><path d="m181.39,169.82c.38,2.06,1.28,1.84,1.4,1.8h0c-4.26,1.86-8.97,2.9-13.91,2.9,0,0,1.19-1.72,2.15-3.7.96-1.99-.16-1.39-.56-5.37-.4-3.97,0,0,.25-.6.26-.6.54-2.38,0-3.97-.49-1.46-.09-1.25,0-1.2-.23-.2-3.85-3.43-5.01-5.33-.44-.73-.67-1.09-.77-1.24.05-.38.17-1.57.17-2.37s-2.18-.39-2.77-.39-2.98.6-4.59.79c-1.61.2-2.56,4.17-2.56,2.98s-.99-.79-1.39-.89c-.39-.09-.99-1.29-1.39-2.28-.4-.99-.99-.6-1.79-1.59-.8-.99-1.39-1.39-2.19-3.58-.8-2.18-1.39-1.39-2.98-4.57-1.59-3.17,0,0,.39-1.52.4-1.52.99-.86,2.4-2.05,1.4-1.19,1.97-.4,1.97-.4,0,0,1.39.99,2.19,2.45.79,1.46,3.38,1.13,3.38,1.13l-.6-1.79c-.14-.42-.21-.64-.25-.75l-.03-.1c-.02-.07-.06-.17-.12-.34-.4-1.19-2.78-4.17-.79-6.35,1.98-2.19,1.98-1.39,3.38-3.57,1.39-2.19,2.78-1.59,4.36-1.39,1.59.2,1.2.2,3.78,0,2.58-.2,2.98-.2,3.78-2.98.79-2.78,0,0-.4-2.58-.4-2.58,0-2.18,0-4.39s-.99-.18-2.38,0c-1.39.17-1.79.22-2.58.81-.79.6-1.98,2.19-3.57,2.58-1.59.39-.99,0-3.18-.81s0-1.97.4-3.76c.4-1.79,1.93,0,1.93,0,0,0,.66-.8,1.85-1.59,1.19-.8,1.98-.4,3.97-1.61,1.98-1.21.79.62,3.57,0,2.78-.62,1.59-1.3,1.59-1.3v-1.29s-1.99.23-3.78.03c-1.79-.2-4.97.4-7.74,1.7-2.78,1.3-1.79.89-2.58.31s-5.37-.22-8.12,0c5.77-4.26,12.91-6.77,20.63-6.77,9.49,0,18.1,3.79,24.37,9.95-.45-.38-4.71,1.17-5.11,2.36-.39,1.19.2,1.59-1.19,2.98q-1.39,1.39-4.57,2.58c-3.18,1.19-2.78-.6-4.57,2.19-1.79,2.77-2.19,3.37-1.79,4.76.4,1.39-.2,3.78,2.58,2.98,2.78-.79,1.79-3.38,4.77-2.38,2.98.99,5.71,1.19,5.71,1.19,0,0-1.03-2.98,0-3.57,1.04-.6,2.94.39,4.17,1.39,1.24.99,1.24.8,2.03,1.99.79,1.19,1.59,1.71,2.19,1.54.6-.16,2.78-3.33,2.78-3.33l1.28-1.9c1.12,3.03,1.83,6.27,2.07,9.63h0c-2.15-1.38-2.55-1.18-5.93-1.18s-3.78.78-6.75,0c-2.98-.78-2.78-1.38-6.35-1.18-3.57.2-2.98-.45-5.16,1.17-2.19,1.61-3.38-.04-3.97,3.67-.6,3.7-1.59,3.11,0,6.29,1.59,3.17,1.59,2.58,3.17,5.76,1.59,3.18,2.78.6,2.19,5.16-.6,4.57-.6,5.37-.6,6.16s-.4,3.18-.4,4.17,1.18.36,1.59,2.58Zm-.2-49.44v-3.17c-1.19,0,.6-1.39-1.19,0-1.79,1.39-2.38,2.98-2.78,3.57s-1.33.99-1.33.99l5.3-1.39Z" fill="#466eb6"/><path d="m170.73,164.85c-.25.6-.65-3.38-.25.6.4,3.97,1.52,3.38.56,5.37-.96,1.98-2.15,3.7-2.15,3.7-9.38,0-17.87-3.7-24.13-9.71h0s.1-3.52,0-5.51c-.09-1.98.7-1.19,1.29-1.58.6-.4,3.57-4.47,3.57-4.47,0,0-.79-1.09-1.19-2.28-.4-1.19-1.99-1.99-3.67-4.17-1.68-2.19-2.29-2.38-2.29-2.38,0,0-2.98-1.79-3.97-2.33-.99-.55-1.59-1.04-2.98-2.37-1.28-1.23-1.33-2.63-1.33-2.84h0c.83-10.34,6.18-19.4,14.07-25.2,2.76-.22,7.33-.57,8.12,0s-.2.99,2.58-.31c2.77-1.3,5.95-1.9,7.74-1.7,1.79.2,3.78-.03,3.78-.03v1.29s1.19.68-1.59,1.3c-2.78.62-1.59-1.21-3.57,0-1.99,1.21-2.78.81-3.97,1.61-1.19.79-1.85,1.59-1.85,1.59,0,0-1.53-1.79-1.93,0-.4,1.79-2.58,2.95-.4,3.76s1.59,1.2,3.18.81c1.59-.4,2.78-1.99,3.57-2.58.8-.6,1.19-.64,2.58-.81,1.39-.18,2.38-2.21,2.38,0s-.4,1.81,0,4.39c.4,2.58,1.19-.2.4,2.58-.8,2.78-1.19,2.78-3.78,2.98-2.58.2-2.19.2-3.78,0-1.58-.2-2.98-.79-4.36,1.39-1.39,2.19-1.39,1.39-3.38,3.57-1.99,2.19.39,5.16.79,6.35.05.17.09.27.12.34l.03.1c.04.11.11.34.25.75l.6,1.79s-2.58.33-3.38-1.13c-.8-1.46-2.19-2.45-2.19-2.45,0,0-.56-.79-1.97.4-1.41,1.19-2.01.53-2.4,2.05-.39,1.52-1.98-1.65-.39,1.52,1.58,3.18,2.18,2.39,2.98,4.57.79,2.19,1.39,2.58,2.19,3.58.79.99,1.39.6,1.79,1.59.4.99.99,2.19,1.39,2.28.4.1,1.39-.3,1.39.89s.95-2.78,2.56-2.98c1.61-.2,3.99-.79,4.59-.79s2.77-.4,2.77.39-.13,1.98-.17,2.37c-.05-.08-.08-.1-.09-.09,0,.03.06.17.06.21,0,0,.02-.05.02-.12.1.15.33.51.77,1.24,1.16,1.9,4.79,5.12,5.01,5.33-.08-.05-.49-.26,0,1.2.54,1.59.26,3.38,0,3.97Z" fill="#50bfa5"/><path d="m182.8,171.62c-.12.04-1.02.26-1.4-1.8-.41-2.22-1.59-1.59-1.59-2.58s.4-3.38.4-4.17,0-1.59.6-6.16c.6-4.57-.6-1.98-2.19-5.16-1.58-3.18-1.58-2.58-3.17-5.76-1.59-3.18-.6-2.58,0-6.29.6-3.7,1.79-2.05,3.97-3.67,2.19-1.61,1.59-.97,5.16-1.17,3.57-.2,3.38.4,6.35,1.18,2.98.78,3.38,0,6.75,0s3.78-.2,5.93,1.18h0c.05.81.09,1.63.09,2.46,0,14.29-8.6,26.56-20.9,31.92h0Z" fill="#50bfa5"/><path d="m180.01,117.2c1.79-1.39,0,0,1.19,0v3.17l-5.3,1.39s.93-.4,1.33-.99.99-2.19,2.78-3.57Z" fill="#50bfa5"/><path d="m201.55,127.61h0s-1.28,1.9-1.28,1.9c0,0-2.19,3.17-2.78,3.33-.6.16-1.39-.35-2.19-1.54-.79-1.19-.79-.99-2.03-1.99-1.24-.99-3.13-1.98-4.17-1.39-1.03.6,0,3.57,0,3.57,0,0-2.73-.2-5.71-1.19-2.98-.99-1.99,1.59-4.77,2.38-2.78.8-2.18-1.59-2.58-2.98-.4-1.39,0-1.99,1.79-4.76,1.79-2.78,1.39-.99,4.57-2.19s3.18-1.19,4.57-2.58c1.39-1.39.8-1.79,1.19-2.98.4-1.18,4.66-2.74,5.11-2.36,0,0,0,0,0,0,3.63,3.56,6.48,7.9,8.28,12.76Z" fill="#50bfa5"/><path d="m131,114.96c-18.08,2.48-33.14-3.45-33.14-3.45,0,0,9.61-1.18,16.79-.43,6.37.66,16.34,3.88,16.34,3.88Z" fill="#359545"/><path d="m132.07,104.62l-1.08,10.34s-9.98-3.22-16.34-3.88c-7.19-.75-16.79.43-16.79.43l1.08-10.34,1.08-10.34s8.58-3.95,17.07-3.07c7.87.82,16.07,6.52,16.07,6.52l-1.08,10.34Z" fill="#48c902"/><path d="m149.99,98.77l-17.64,5.88-.28-.03,1.08-10.34s-8.19-5.7-16.07-6.52c-8.49-.88-17.07,3.07-17.07,3.07l-1.08,10.34-.27-.03-16.05-9.39,35.2-11.08,32.17,18.09Z" fill="#359545"/><path d="m116.76,78.2l-33.86,10.85-.28,2.7,33.86-10.65c.86-.27,1.79-.17,2.57.27l30.94,17.4.28-2.7-30.91-17.59c-.79-.45-1.74-.55-2.6-.27Z" fill="#48c902"/><path d="m89.26,107.71s-1.28,2.36-1.07,4.32,1.01,3.77,1.01,3.77l.47.05-.24-2.17.65,2.91.77-.2-.46-4.17.81,3.51s.8-.33.82-.61-.69-3.46-.69-3.46l1.01,3.77s.51.33.9-3.44c.39-3.77-2.8-5-2.8-5l-1.18.71Z" fill="#e6e6e6"/><path d="m103.63,82.41l-2.43.78c-.41-.09-.92-.18-1.49-.24-2.57-.27-6.41.05-8.89,3.56-.17.25-.34.51-.5.79-.46.79-.8,1.58-1.06,2.36-1.29,3.86-.45,7.59.43,11.5.48,2.13.97,4.33,1.11,6.57.03.45-.32.84-.77.86-.05,0-.09,0-.13,0-.39-.04-.7-.36-.73-.76-.12-2.11-.6-4.24-1.07-6.31-.82-3.64-1.66-7.38-.71-11.28.24-.99.6-1.98,1.11-2.99.13-.26.26-.51.41-.76,4.42-7.73,13.89-4.57,13.99-4.53.25.09.5.26.73.45Z" fill="#e6e6e6"/><path d="m91.34,106.23c.62.7.55,1.78-.15,2.4-.7.62-1.78.55-2.4-.15-.62-.7-.55-1.78.15-2.4.7-.62,1.78-.55,2.4.15Z" fill="#b3b3b3"/><rect x="136.19" y="152.07" width="1.81" height="12.91" fill="#4c144d"/><polygon points="143.21 152.07 143.43 152.07 143.43 164.98 141.62 164.98 141.62 152.07 143.21 152.07" fill="#4c144d"/><rect x="138" y="152.07" width="3.62" height="12.91" fill="#b24b9c"/><path d="m143.22,150.6c.37,0,.66.29.66.66v.16c0,.37-.3.66-.66.66h-3.42s-3.43-.01-3.43-.01c-.36,0-.66-.3-.65-.66v-.16c0-.35.28-.65.64-.66.02,0,.03,0,.05,0h3.39s3.43.01,3.43.01Z" fill="#ddd"/><path d="m143.3,149.13c.34.01.62.31.62.65v.16c0,.36-.3.66-.66.65h-3.46s-3.42-.02-3.42-.02h-.02c-.34-.02-.61-.31-.61-.65v-.16c0-.35.26-.63.61-.66.02,0,.04,0,.05,0h6.85s.02.01.04.01Z" fill="#efefef"/><path d="m143.92,148.48c0,.35-.29.64-.62.65-.01,0-.02,0-.04,0l-6.85-.02s-.04,0-.05,0c-.34-.02-.61-.31-.61-.66v-.16c0-.36.3-.65.66-.65h6.85s.02.01.02.01c.35.02.63.31.64.66v.16Z" fill="#ddd"/><path d="m143.48,144.89v2.76h-.22s-6.85-.01-6.85-.01h-.22s0-2.77,0-2.77c0-.97.79-1.76,1.76-1.75h3.78c.97,0,1.76.79,1.75,1.77Z" fill="#4c144d"/><path d="m157.99,152.65l-1.56,8.61c-.04.26-.29.43-.55.38-.24-.04-.41-.26-.38-.51l.77-7.36c.08-.81-.29-1.62-.98-2.07l-.34-.22.44-2.42,1.82,1.49c.62.51.92,1.32.77,2.11Z" fill="#4c144d"/><polygon points="147.66 150.39 154.91 151.71 152.07 169.94 144.37 168.54 147.66 150.39" fill="#b24b9c"/><polygon points="154.96 151.48 154.91 151.71 147.66 150.39 148.19 147.51 155.44 148.83 155.4 149.06 154.96 151.48" fill="#4c144d"/><path d="m154.58,143.7c.95.4,1.54,1.43,1.34,2.49l-.48,2.64-7.25-1.32.48-2.64c.19-1.08,1.12-1.83,2.17-1.86l3.74.69Z" fill="#b24b9c"/><path d="m150.84,143.01l.53-2.9c.16-.85.96-1.41,1.82-1.26l.66.12c.85.16,1.41.96,1.26,1.82l-.53,2.91-3.74-.69Z" fill="#4c144d"/><rect x="124.92" y="133.95" width="7.4" height="33.76" transform="translate(-17.27 16.64) rotate(-6.94)" fill="#b24b9c"/><rect x="123.06" y="135.65" width="4.15" height=".45" transform="translate(-15.52 16.14) rotate(-6.95)" fill="#4c144d"/><rect x="123.26" y="137.35" width="2.3" height=".45" transform="translate(-15.73 16.07) rotate(-6.95)" fill="#4c144d"/><rect x="123.44" y="138.84" width="2.3" height=".45" transform="translate(-15.91 16.1) rotate(-6.95)" fill="#13375b"/><rect x="123.63" y="140.33" width="2.3" height=".45" transform="translate(-15.95 15.97) rotate(-6.88)" fill="#13375b"/><rect x="123.81" y="141.82" width="2.3" height=".45" transform="translate(-16.27 16.16) rotate(-6.95)" fill="#13375b"/><rect x="123.98" y="143.2" width="4.15" height=".45" transform="translate(-16.43 16.31) rotate(-6.95)" fill="#13375b"/><rect x="124.17" y="144.8" width="2.3" height=".45" transform="translate(-16.63 16.23) rotate(-6.95)" fill="#13375b"/><rect x="124.35" y="146.3" width="2.3" height=".45" transform="translate(-16.81 16.26) rotate(-6.95)" fill="#13375b"/><rect x="124.53" y="147.79" width="2.3" height=".45" transform="translate(-16.98 16.29) rotate(-6.95)" fill="#13375b"/><rect x="124.71" y="149.28" width="2.3" height=".45" transform="translate(-17.01 16.16) rotate(-6.88)" fill="#13375b"/><rect x="124.89" y="150.66" width="4.15" height=".45" transform="translate(-17.32 16.47) rotate(-6.95)" fill="#13375b"/><rect x="125.08" y="152.26" width="2.3" height=".45" transform="translate(-17.52 16.39) rotate(-6.95)" fill="#13375b"/><rect x="125.26" y="153.75" width="2.3" height=".45" transform="translate(-17.7 16.43) rotate(-6.95)" fill="#13375b"/><rect x="125.44" y="155.24" width="2.3" height=".45" transform="translate(-17.88 16.46) rotate(-6.95)" fill="#13375b"/><rect x="125.62" y="156.73" width="2.3" height=".45" transform="translate(-18.06 16.49) rotate(-6.95)" fill="#13375b"/><rect x="125.79" y="158.11" width="4.15" height=".45" transform="translate(-18.22 16.63) rotate(-6.95)" fill="#13375b"/><rect x="125.98" y="159.71" width="2.3" height=".45" transform="translate(-18.42 16.56) rotate(-6.95)" fill="#13375b"/><rect x="126.16" y="161.2" width="2.3" height=".45" transform="translate(-18.6 16.59) rotate(-6.95)" fill="#13375b"/><rect x="126.35" y="162.69" width="2.3" height=".45" transform="translate(-18.78 16.62) rotate(-6.95)" fill="#13375b"/><rect x="126.53" y="164.18" width="2.3" height=".45" transform="translate(-18.95 16.66) rotate(-6.95)" fill="#13375b"/><rect x="126.7" y="165.56" width="4.15" height=".45" transform="translate(-19.11 16.8) rotate(-6.95)" fill="#13375b"/><path d="m154.14,164.71v27.8c0,4.78-3.88,8.66-8.66,8.66h-12.06c-4.11,0-7.55-2.86-8.43-6.7h0c-.14-.63-.22-1.28-.22-1.95v-27.8h29.37Z" fill="#48c902"/><path d="m154.14,164.71v27.8c0,4.78-3.88,8.66-8.66,8.66h-12.06c-4.11,0-7.55-2.86-8.43-6.7,12.38,5.53,24.6,1.46,26.95-10.3,1.96-9.82,2.17-17.25,2.19-19.45Z" fill="#359545"/><path d="m171.94,181.65h56.4s-.98,4.08-.98,8.52.98,8.52.98,8.52h-56.4c-2,0-3.62-1.62-3.62-3.62v-9.79c0-2,1.62-3.63,3.62-3.63Z" fill="#e6e6e6"/><path d="m229.1,179.33c.64,0,1.16.52,1.16,1.16,0,.32-.13.61-.34.82-.21.21-.5.34-.82.34h-57.16c-2,0-3.62,1.62-3.62,3.63v9.79c0,2,1.62,3.62,3.62,3.62h57.16c.64,0,1.16.52,1.16,1.16,0,.32-.13.61-.34.82-.21.21-.5.34-.82.34h-57.16c-3.28,0-5.94-2.66-5.94-5.94v-9.79c0-3.28,2.66-5.94,5.94-5.94h57.16Z" fill="#359545"/><path d="m175.66,184.95c3.34-.15,6.68-.25,10.02-.3,3.34-.06,6.68-.08,10.02-.09,3.34,0,6.68.02,10.02.08,3.34.05,6.68.15,10.02.3-3.34.15-6.68.25-10.02.3-3.34.06-6.68.08-10.02.08-3.34,0-6.68-.02-10.02-.09-3.34-.05-6.68-.15-10.02-.3Z" fill="#b3b3b3"/><path d="m173.57,190.17c1.26-.16,2.52-.24,3.79-.3,1.26-.06,2.52-.08,3.79-.09,1.26,0,2.52.02,3.79.08,1.26.06,2.52.14,3.79.3-1.26.16-2.52.24-3.79.3-1.26.06-2.52.08-3.79.08-1.26,0-2.52-.02-3.79-.09-1.26-.06-2.52-.14-3.79-.3Z" fill="#b3b3b3"/><path d="m183.23,195.53c1.26-.16,2.52-.24,3.79-.3,1.26-.06,2.52-.08,3.79-.09,1.26,0,2.52.02,3.79.08,1.26.06,2.52.14,3.79.3-1.26.16-2.52.24-3.79.3-1.26.06-2.52.08-3.79.08-1.26,0-2.52-.02-3.79-.09-1.26-.06-2.52-.14-3.79-.3Z" fill="#b3b3b3"/><path d="m191.2,192.39c2.92-.15,5.83-.25,8.75-.3,2.92-.06,5.83-.08,8.75-.09,2.92,0,5.83.02,8.75.08,2.92.05,5.83.15,8.75.3-2.92.15-5.83.25-8.75.3-2.92.06-5.83.08-8.75.08-2.92,0-5.83-.02-8.75-.09-2.92-.05-5.83-.15-8.75-.3Z" fill="#b3b3b3"/><path d="m185.32,200.49c-1.71-3.23-1.71-7.09,0-10.31h-9.66c-1.71,3.23-1.71,7.09,0,10.31,1.15-.88,2.42-1.8,3.82-2.75,1.82.95,3.77,1.87,5.85,2.75Z" fill="#92278f"/><rect x="171.77" y="162.49" width="72.46" height="16.84" fill="#92278f"/><rect x="178.92" y="162.49" width="4.29" height="16.84" fill="#b24b9c"/><rect x="232.79" y="162.49" width="4.29" height="16.84" fill="#b24b9c"/><path d="m171.77,169.54s-5.48,2.64-6.36,9.79l2.35-1.96.83,1.96s.54-6.07,3.18-8.42v-1.37Z" fill="#48c902"/><path d="m109.67,132.76v-4.59c0-1.26-1.03-2.29-2.29-2.29h-1.11c-1.26,0-2.29,1.03-2.29,2.29v4.59h-1.64v-4.59c0-2.16,1.77-3.93,3.93-3.93h1.11c2.16,0,3.93,1.77,3.93,3.93v4.59h-1.64Z" fill="#359545"/><path d="m139.29,182.89v4.75c0,3.27-2.65,5.93-5.93,5.93v-16.6c1.64,0,3.12.67,4.19,1.74s1.74,2.55,1.74,4.19Z" fill="#4c144d"/><path d="m81.19,192.08v1.48c-3.27,0-5.93-2.65-5.93-5.93v-4.74c0-1.64.67-3.12,1.74-4.2,1.07-1.07,2.55-1.74,4.19-1.74v15.12Z" fill="#466eb6"/><path d="m133.36,188.23v3.85c0,4.91-3.98,8.89-8.89,8.89h-34.39c-4.91,0-8.89-3.98-8.89-8.89v-3.85c0-4.09,3.32-7.41,7.41-7.41h37.35c4.09,0,7.41,3.31,7.41,7.41Z" fill="#359545"/><path d="m133.36,176.96v11.27c0-4.09-3.31-7.41-7.41-7.41h-37.35c-4.09,0-7.41,3.31-7.41,7.41v-31.72c0-.22,0-.45,0-.67.19,5.48,4.69,9.86,10.23,9.86h31.72c5.52,0,10.03-4.38,10.22-9.86,0,.22,0,.45,0,.67v20.45Z" fill="#359545"/><path d="m133.35,155.81v.04c-.19,5.48-4.69,9.86-10.22,9.86h-31.72c-5.53,0-10.03-4.38-10.23-9.86v-.04c.38-14.08,11.91-25.38,26.08-25.38,7.2,0,13.73,2.92,18.45,7.64,4.56,4.56,7.45,10.82,7.64,17.74Z" fill="#48c902"/><rect x="101.64" y="160.59" width="10.38" height="8.67" rx="4.34" ry="4.34" fill="#359545"/><path d="m126.44,184.27h-37.94c-.48,0-.88-.39-.88-.88s.39-.88.88-.88h37.94c.48,0,.88.39.88.88s-.39.88-.88.88Z" fill="#48c902"/><path d="m187.58,153.6s1.66,3.87-.06,8.61l-6.55-.36-16.44-.9h0s.5-1.88.5-4.07c0-2.02-.5-4.07-.5-4.07h0s16.2.55,16.2.55l6.85.24Z" fill="#e6e6e6"/><path d="m164.19,160.94l.34.02,16.44.9,6.55.36c1.73-4.75.06-8.61.06-8.61l-6.85-.24-16.2-.55h-.39c-.52-.03-.93-.46-.93-.98s.43-.96.96-.96h.04l24.34.9s3.21,5.34,0,12.25l-24.45-1.15c-.53-.03-.93-.47-.92-1,.02-.52.45-.93.97-.93h.04Z" fill="#48c902"/><polygon points="164.21 150.88 230.9 150.03 230.53 150.05 188.55 151.78 164.21 150.88" fill="#3c8f7c"/><path d="m189.36,151.74l41.17-1.69c2.05-.08,3.76,1.56,3.77,3.61l.03,5.13c.01,1.96-1.53,3.58-3.49,3.65l-42.29,1.58c3.21-6.91,0-12.25,0-12.25l.81-.03Z" fill="#359545"/><path d="m187.46,156.92c-1.27.09-2.54.1-3.8.09-1.27,0-2.53-.06-3.79-.12-1.26-.08-2.52-.16-3.78-.29-1.26-.13-2.52-.28-3.77-.51,1.27-.09,2.54-.1,3.8-.09,1.27,0,2.53.06,3.79.13,1.26.08,2.52.16,3.78.3,1.26.13,2.52.28,3.77.51Z" fill="#b3b3b3"/><path d="m174.03,158.94c-1.41.09-2.8.04-4.2-.05-1.39-.1-2.79-.24-4.17-.52,1.41-.09,2.8-.04,4.2.05,1.39.1,2.79.24,4.17.52Z" fill="#b3b3b3"/><path d="m176.29,164.48c-1.28-1.89-1.15-6.38.24-8.19,2.52.07,4.95.38,7.47.46-1.39,1.81-1.43,6.06-.14,7.96-1.57-.56-3.09-1.29-4.51-2.1-1.1.74-2.11,1.39-3.06,1.88Z" fill="#4c144d"/><polygon points="85.8 198.67 88.3 201.18 62.33 200.99 64.65 198.67 85.8 198.67" fill="#b3b3b3"/><rect x="64.65" y="180.67" width="21.15" height="18" fill="#e6e6e6"/><polygon points="85.8 180.67 64.65 180.67 68.64 178.65 81.8 178.65 85.8 180.67" fill="#b3b3b3"/><rect x="68.64" y="177.19" width="13.17" height="1.47" fill="#e6e6e6"/><polygon points="80.5 175.17 81.8 177.13 68.64 177.19 70 175.17 80.5 175.17" fill="#b3b3b3"/><path d="m82.62,159.4c-.71.46-2.12,1.62-2.12,3.56v12.21h-10.5v-12.21c0-1.94-1.41-3.1-2.11-3.56,2.18,1.2,4.69,1.89,7.37,1.89s5.18-.68,7.37-1.89Z" fill="#e6e6e6"/><path d="m61.72,145.99v1.39h-1.56c-4.88,0-8.83-3.95-8.83-8.83v-5.44c0-1.09.44-2.08,1.16-2.8.71-.71,1.7-1.16,2.8-1.16,3.55,0,6.43,2.88,6.43,6.43v10.4Zm-1.78-.39v-10.02c0-2.57-2.09-4.66-4.66-4.66-1.2,0-2.18.98-2.18,2.18v5.44c0,3.82,3.05,6.94,6.84,7.05Z" fill="#e6e6e6"/><path d="m99.16,133.11v5.44c0,4.88-3.95,8.83-8.83,8.83h-1.56v-11.8c0-3.55,2.88-6.43,6.43-6.43,1.09,0,2.08.44,2.8,1.16.71.71,1.16,1.7,1.16,2.8Zm-1.78,5.44v-5.44c0-1.2-.98-2.18-2.18-2.18-2.57,0-4.66,2.09-4.66,4.66v10.02c3.79-.12,6.84-3.24,6.84-7.05Z" fill="#e6e6e6"/><path d="m90.55,126.42v19.57c0,5.62-3.03,10.53-7.54,13.19,0,0,0,0,0,0-.03.01-.16.08-.35.2-.01,0-.02.01-.04.02-2.18,1.2-4.69,1.89-7.37,1.89s-5.18-.68-7.37-1.89c-.01,0-.02-.01-.04-.02-.19-.12-.32-.19-.35-.2,0,0,0,0,0,0-4.52-2.66-7.54-7.57-7.54-13.19v-19.57h30.6Z" fill="#e6e6e6"/><path d="m90.55,144.71v1.27c0,5.62-3.03,10.53-7.54,13.19,0,0,0,0,0,0-.03.01-.16.08-.35.2-.01,0-.02.01-.04.02-2.18,1.2-4.69,1.89-7.37,1.89s-5.18-.68-7.37-1.89c-.01,0-.02-.01-.04-.02-.19-.12-.32-.19-.35-.2,0,0,0,0,0,0-4.52-2.66-7.54-7.57-7.54-13.19v-1.27c0,5.62,3.03,10.53,7.54,13.19,0,0,0,0,0,0,.03.01.16.08.35.2.01,0,.02.01.04.02,2.18,1.2,4.69,1.89,7.37,1.89s5.18-.68,7.37-1.89c.01,0,.02-.01.04-.02.19-.12.32-.19.35-.2,0,0,0,0,0,0,4.51-2.66,7.54-7.57,7.54-13.19Z" fill="#b3b3b3"/><path d="m192.1,139.56l1.19.11c-2.97.22-5.19,2.79-4.98,5.76l.12,1.64c.18,2.47,2.01,4.44,4.34,4.89l-19.16-1.51c-3.19-.3-5.52-3.15-5.2-6.34l.09-.88c.32-3.15,3.1-5.45,6.25-5.17h0s17.34,1.52,17.34,1.52Z" fill="#4c144d"/><polygon points="238.22 138.58 193.29 139.67 192.1 139.56 174.76 138.05 174.75 138.05 174.55 138.03 238.22 138.58" fill="#355389"/><path d="m236.94,140.39l-43.55,1.21c-.98.08-1.87.57-2.47,1.37-.52.7-.73,1.57-.67,2.44l.11,1.52c.13,1.77,1.62,3.18,3.38,3.2.1,0,.2,0,.31-.01h.05s42.91-1.04,42.91-1.04l1.07-.03c.5-.01.91.4.91.9v.16c0,.48-.39.86-.86.87l-43.92,1.06c-.49.04-.97,0-1.42-.09-2.33-.45-4.16-2.41-4.34-4.89l-.12-1.64c-.22-2.97,2.01-5.54,4.98-5.76l44.93-1.09c.5-.01.91.4.91.9,0,.48-.38.86-.86.87l-1.34.04Z" fill="#92278f"/><path d="m237.01,149.08l-42.91,1.04h-.05c-.1,0-.2.02-.31.01-1.77-.03-3.25-1.43-3.38-3.2l-.11-1.52c-.06-.87.15-1.75.67-2.44.6-.8,1.49-1.29,2.47-1.37l43.55-1.21c-.02.08-.56,2.67-.59,4.33-.02,1.66.66,4.35.66,4.35Z" fill="#e6e6e6"/><path d="m194.02,144.11c1.26-.21,2.52-.35,3.78-.46,1.26-.11,2.52-.18,3.79-.24,1.26-.05,2.53-.08,3.79-.07,1.27,0,2.53.04,3.8.15-1.26.21-2.52.35-3.78.46-1.26.11-2.52.18-3.79.24-1.26.04-2.53.08-3.79.07-1.27,0-2.53-.04-3.8-.14Z" fill="#b3b3b3"/><path d="m204.41,147.63c1.26-.21,2.52-.35,3.78-.46,1.26-.11,2.52-.18,3.79-.24,1.26-.05,2.53-.08,3.79-.07,1.27,0,2.53.04,3.8.15-1.26.21-2.52.35-3.78.46-1.26.11-2.52.18-3.79.24-1.26.04-2.53.08-3.79.07-1.27,0-2.53-.04-3.8-.14Z" fill="#b3b3b3"/><path d="m206.14,154.18c1.74-2.34,1.84-8.12.17-10.51-3.22-.05-6.08.3-9.3.25,1.67,2.39,1.21,7.78-.53,10.12,2.03-.63,4.01-1.47,5.87-2.43,1.37,1.01,2.61,1.9,3.79,2.57Z" fill="#48c902"/><path d="m215.54,145.35c1.73-.21,3.46-.35,5.19-.46,1.73-.11,3.47-.18,5.2-.24,1.73-.05,3.47-.08,5.21-.07,1.74,0,3.47.04,5.21.14-1.73.21-3.46.35-5.19.46-1.73.11-3.47.18-5.2.24-1.73.04-3.47.08-5.21.07-1.74,0-3.47-.04-5.21-.14Z" fill="#b3b3b3"/></svg>