<?xml version="1.0" encoding="UTF-8"?><svg id="a" xmlns="http://www.w3.org/2000/svg" viewBox="0 0 300 300"><path d="m150,0C67.16,0,0,67.16,0,150s67.16,150,150,150,150-67.16,150-150S232.84,0,150,0Zm.02,255.11c-58.06,0-105.13-47.04-105.13-105.09s47.07-105.13,105.13-105.13,105.1,47.04,105.1,105.13-47.07,105.09-105.1,105.09Z" fill="#4c144d"/><path d="m138.64,126c0,2.24.75,4.19,2.24,5.84,1.49,1.66,3.62,3.23,6.4,4.72l2.72-22.08c-3.63.54-6.43,1.82-8.4,3.84-1.97,2.03-2.96,4.59-2.96,7.68Z" fill="#4c144d"/><path d="m153.2,178.96c3.73-.53,6.61-1.68,8.64-3.44,2.03-1.76,3.04-4.02,3.04-6.8,0-2.13-.78-4-2.32-5.6-1.55-1.6-3.81-3.09-6.8-4.48l-2.56,20.32Z" fill="#4c144d"/><path d="m150,60c-49.71,0-90,40.29-90,90s40.29,90,90,90,90-40.29,90-90-40.29-90-90-90Zm21.04,86.96c3.46,1.92,6.4,4.54,8.8,7.84,2.4,3.31,3.6,7.36,3.6,12.16,0,7.47-2.91,13.6-8.72,18.4-5.81,4.8-13.58,7.58-23.28,8.32l-1.92,15.68c-.21,1.6-.99,2.85-2.32,3.76-1.33.9-2.86,1.36-4.56,1.36-1.6,0-2.91-.46-3.92-1.36-1.01-.91-1.42-2.16-1.2-3.76l2.08-16c-7.79-1.06-13.95-3.62-18.48-7.68-4.54-4.05-6.8-8.85-6.8-14.4,0-3.73.96-6.61,2.88-8.64,1.92-2.02,4.21-3.04,6.88-3.04s4.64.75,5.92,2.24c1.28,1.5,2.18,3.84,2.72,7.04.32,2.46,1.25,4.51,2.8,6.16,1.54,1.65,3.6,2.8,6.16,3.44l3.2-24c-4.91-1.92-9.09-3.92-12.56-6-3.47-2.08-6.35-4.85-8.64-8.32-2.29-3.47-3.44-7.76-3.44-12.88,0-7.89,2.98-14.29,8.96-19.2,5.97-4.91,13.54-7.68,22.72-8.32l1.92-16c.11-1.6.8-2.83,2.08-3.68,1.28-.85,2.72-1.28,4.32-1.28s2.96.46,4.08,1.36c1.12.91,1.57,2.11,1.36,3.6l-2.24,16.48c6.83,1.07,12.21,3.42,16.16,7.04,3.95,3.63,5.92,8.16,5.92,13.6,0,3.63-.93,6.32-2.8,8.08-1.87,1.76-4.19,2.64-6.96,2.64-2.24,0-4.08-.69-5.52-2.08-1.44-1.38-2.22-3.25-2.32-5.6-.32-4.48-2.46-7.41-6.4-8.8l-3.52,25.92c5.22,2.03,9.57,4,13.04,5.92Z" fill="#4c144d"/></svg>