<?xml version="1.0" encoding="UTF-8"?><svg id="a" xmlns="http://www.w3.org/2000/svg" viewBox="0 0 266.19 221.75"><ellipse cx="100.9" cy="215.73" rx="100.9" ry="6.02" fill="#4c144d"/><path d="m2.48,159.97v20.65c0,1.98,1.62,3.59,3.59,3.59h189.67c1.98,0,3.59-1.61,3.59-3.59v-20.65H2.48Z" fill="#f0f0f0"/><path d="m199.32,45.94c0-1.97-1.61-3.59-3.59-3.59H6.07c-1.97,0-3.59,1.61-3.59,3.59v114.03h196.85V45.94Z" fill="#414042"/><rect x="67.46" y="184.21" width="67.71" height="20.79" fill="#d6d6d6"/><rect x="51.19" y="204.99" width="99.32" height="9.73" fill="#f0f0f0"/><rect x="67.46" y="184.21" width="67.71" height="7.51" fill="#bdbdbd"/><rect x="12.65" y="52.59" width="176.53" height="96.86" fill="#bdbdbd"/><polygon points="82.19 71.59 69.91 83.87 57.62 71.59 52.71 76.5 64.99 88.79 52.71 101.07 57.62 105.99 69.91 93.7 82.19 105.99 87.1 101.07 74.82 88.79 87.1 76.5 82.19 71.59" fill="#414042"/><polygon points="149.09 76.5 144.18 71.59 131.89 83.87 119.61 71.59 114.7 76.5 126.98 88.79 114.7 101.07 119.61 105.99 131.89 93.7 144.18 105.99 149.09 101.07 136.81 88.79 149.09 76.5" fill="#414042"/><path d="m127.22,136c-26-17.95-52.33-.18-52.59,0l-3.41-4.94c.3-.21,30.05-20.28,59.41,0l-3.41,4.94Z" fill="#414042"/><path d="m262.19,0h-89c-2.21,0-4,1.79-4,4v57.48c0,2.21,1.79,4,4,4h10.3l-10.14,19.22,34.22-19.22h54.62c2.21,0,4-1.79,4-4V4c0-2.21-1.79-4-4-4Z" fill="#92278f"/><path d="m188.07,36.91c.17,0,.31.06.43.18.12.12.18.26.18.43v.81c0,.17-.06.31-.18.43-.12.12-.26.18-.43.18h-9.12c-.17,0-.31-.06-.43-.18-.12-.12-.18-.26-.18-.43v-14.58c0-.17.06-.31.18-.43.12-.12.27-.18.43-.18h8.94c.17,0,.31.06.43.18.12.12.18.27.18.43v.81c0,.17-.06.31-.18.43-.12.12-.26.18-.43.18h-7.4v4.76h6.91c.17,0,.31.06.43.18.12.12.18.26.18.43v.81c0,.17-.06.31-.18.43-.12.12-.26.18-.43.18h-6.91v4.94h7.59Z" fill="#fff"/><path d="m200.03,23.14c.74,0,1.44.09,2.09.27.66.18,1.23.46,1.73.84.5.37.89.86,1.19,1.44s.44,1.29.44,2.12c0,1.22-.31,2.19-.91,2.91-.61.72-1.39,1.23-2.34,1.53l3.41,5.94c.05.09.07.17.07.25,0,.14-.05.25-.15.35-.1.1-.22.15-.35.15h-.97c-.3,0-.52-.07-.66-.23-.14-.15-.24-.28-.31-.38l-3.27-5.76h-3.88v5.76c0,.17-.06.31-.18.43-.12.12-.27.18-.43.18h-.92c-.17,0-.31-.06-.43-.18-.12-.12-.18-.26-.18-.43v-14.58c0-.17.06-.31.18-.43.12-.12.27-.18.43-.18h5.46Zm-3.93,7.4h3.81c1.08,0,1.92-.22,2.52-.64.6-.43.89-1.13.89-2.09s-.3-1.64-.89-2.04c-.59-.4-1.43-.6-2.52-.6h-3.81v5.37Z" fill="#fff"/><path d="m216.98,23.14c.74,0,1.44.09,2.09.27.66.18,1.23.46,1.73.84.5.37.89.86,1.19,1.44s.44,1.29.44,2.12c0,1.22-.31,2.19-.91,2.91-.61.72-1.39,1.23-2.34,1.53l3.41,5.94c.05.09.07.17.07.25,0,.14-.05.25-.15.35-.1.1-.22.15-.35.15h-.97c-.3,0-.52-.07-.67-.23-.14-.15-.24-.28-.31-.38l-3.27-5.76h-3.88v5.76c0,.17-.06.31-.18.43-.12.12-.27.18-.43.18h-.92c-.17,0-.31-.06-.43-.18-.12-.12-.18-.26-.18-.43v-14.58c0-.17.06-.31.18-.43.12-.12.27-.18.43-.18h5.46Zm-3.93,7.4h3.81c1.08,0,1.92-.22,2.52-.64.6-.43.89-1.13.89-2.09s-.3-1.64-.89-2.04c-.59-.4-1.43-.6-2.52-.6h-3.81v5.37Z" fill="#fff"/><path d="m227.28,29.03c.02-.84.16-1.64.44-2.38.28-.75.68-1.39,1.21-1.94.53-.55,1.17-.99,1.94-1.31.76-.32,1.65-.49,2.64-.49s1.87.16,2.64.49c.77.32,1.41.76,1.94,1.31.53.55.93,1.2,1.21,1.94.28.74.42,1.54.44,2.38.05,1.34.05,2.68,0,4.02-.03.84-.18,1.64-.46,2.38-.28.75-.68,1.4-1.21,1.95-.53.56-1.17.99-1.93,1.31-.76.32-1.64.47-2.63.47s-1.87-.16-2.63-.47c-.76-.32-1.4-.75-1.93-1.31-.53-.56-.93-1.21-1.21-1.95-.28-.74-.43-1.54-.46-2.38-.04-1.34-.04-2.68,0-4.02Zm10.31.11c-.03-.71-.15-1.33-.35-1.85-.2-.53-.48-.96-.85-1.31-.36-.35-.79-.61-1.27-.78-.49-.17-1.03-.26-1.61-.26s-1.13.09-1.61.26c-.49.17-.91.43-1.28.78s-.65.78-.86,1.31c-.21.53-.32,1.14-.34,1.85-.03.68-.05,1.31-.05,1.9s.02,1.22.05,1.89c.02.71.13,1.33.34,1.85.21.53.5.96.86,1.31.36.35.79.61,1.28.78.49.17,1.03.26,1.61.26s1.12-.09,1.61-.26c.49-.17.91-.43,1.27-.78.36-.35.64-.78.85-1.31.2-.53.32-1.14.35-1.85.03-.68.05-1.31.05-1.89s-.02-1.22-.05-1.9Z" fill="#fff"/><path d="m251.36,23.14c.74,0,1.44.09,2.09.27.66.18,1.23.46,1.73.84.5.37.89.86,1.19,1.44.29.59.44,1.29.44,2.12,0,1.22-.31,2.19-.91,2.91-.61.72-1.39,1.23-2.34,1.53l3.41,5.94c.05.09.07.17.07.25,0,.14-.05.25-.15.35-.1.1-.22.15-.35.15h-.97c-.3,0-.52-.07-.66-.23-.14-.15-.24-.28-.31-.38l-3.27-5.76h-3.88v5.76c0,.17-.06.31-.18.43-.12.12-.27.18-.43.18h-.92c-.17,0-.31-.06-.43-.18-.12-.12-.18-.26-.18-.43v-14.58c0-.17.06-.31.18-.43.12-.12.27-.18.43-.18h5.46Zm-3.93,7.4h3.81c1.08,0,1.92-.22,2.52-.64.6-.43.89-1.13.89-2.09s-.3-1.64-.89-2.04c-.59-.4-1.43-.6-2.52-.6h-3.81v5.37Z" fill="#fff"/></svg>