<?xml version="1.0" encoding="UTF-8"?><svg id="a" xmlns="http://www.w3.org/2000/svg" viewBox="0 0 300 300"><path d="m150,0C67.16,0,0,67.16,0,150s67.16,150,150,150,150-67.16,150-150S232.84,0,150,0Zm108.09,166.05l-17.51,16.79,1.96,24.17c.27,3.31-1.82,6.34-5,7.25l-23.31,6.72-9.5,22.34c-1.28,3.05-4.56,4.78-7.78,4.09l-23.77-4.87-18.77,15.37c-1.29,1.04-2.85,1.57-4.41,1.57s-3.13-.54-4.41-1.57l-18.78-15.37-23.77,4.87c-3.23.7-6.5-1.06-7.78-4.09l-9.49-22.34-23.31-6.72c-3.18-.92-5.27-3.94-5-7.25l1.97-24.17-17.51-16.79c-2.39-2.28-2.83-5.94-1.06-8.73l12.98-20.5-7.7-23c-1.05-3.14.26-6.58,3.12-8.24l21.03-12.11,3.87-23.96c.51-3.26,3.28-5.7,6.58-5.83l24.24-.95,14.57-19.41c1.98-2.64,5.56-3.52,8.54-2.1l21.91,10.42,21.91-10.42c2.98-1.44,6.56-.56,8.54,2.1l14.56,19.41,24.24.95c3.31.14,6.07,2.57,6.59,5.83l3.87,23.96,21.03,12.11c2.86,1.65,4.16,5.1,3.11,8.24l-7.69,23,12.99,20.5c1.77,2.79,1.33,6.45-1.06,8.73Z" fill="#4c144d"/><path d="m104.33,154.93c.18.3.27.68.27,1.13,0,.55-.08.98-.25,1.3-.17.31-.43.59-.79.83-1.42.94-3.67,2.47-6.77,4.61-.94,4.97-2.15,8.88-3.64,11.74-1.49,2.86-3.37,4.28-5.65,4.28-1.22,0-2.22-.38-2.99-1.13-.77-.76-1.15-1.75-1.15-2.97,0-1.13.25-2.27.76-3.42.5-1.15,1.45-2.48,2.83-4,1.38-1.51,3.33-3.24,5.85-5.18l.11-.68c-1.9.79-3.76,1.19-5.58,1.19-2.69,0-5.05-.52-7.09-1.57-2.04-1.04-3.62-2.53-4.75-4.45-1.13-1.92-1.69-4.15-1.69-6.7,0-3.55.67-6.69,2.02-9.41,1.34-2.72,3.2-4.84,5.56-6.34,2.36-1.5,5.01-2.25,7.94-2.25s4.91.65,6.32,1.96c1.4,1.31,2.11,3.04,2.11,5.2,0,1.42-.26,2.55-.77,3.4-.52.85-1.25,1.28-2.21,1.28-.65,0-1.17-.16-1.57-.47-.4-.31-.59-.74-.59-1.3,0-.24.05-.65.14-1.22.14-.67.22-1.2.22-1.58,0-1.01-.31-1.79-.92-2.34-.61-.55-1.64-.83-3.08-.83-1.75,0-3.38.5-4.88,1.51-1.5,1.01-2.71,2.51-3.62,4.52s-1.37,4.41-1.37,7.22.79,5.11,2.36,6.68c1.57,1.57,3.85,2.36,6.82,2.36,1.66,0,3.38-.37,5.18-1.12l.5-4.39h-3.67c-.67,0-1.19-.16-1.55-.49-.36-.32-.54-.86-.54-1.6,0-.67.18-1.2.54-1.58.36-.38.84-.58,1.44-.58h6.73c.53,0,.97.17,1.31.52.35.35.49.85.41,1.49-.07.77-.31,2.51-.72,5.22l-.4,2.74c1.92-1.44,3.67-2.69,5.26-3.74.31-.19.59-.29.83-.29.31,0,.56.15.74.45Zm-14.38,18.27c.74-1.42,1.44-3.7,2.09-6.84-1.82,1.56-3.14,2.97-3.94,4.23s-1.21,2.37-1.21,3.33.34,1.4,1.01,1.4c.62,0,1.31-.71,2.05-2.12Z" fill="#4c144d"/><path d="m136.73,154.84c.18.29.27.68.27,1.19,0,.94-.23,1.68-.68,2.23-1.15,1.39-2.32,2.47-3.49,3.22-1.18.76-2.57,1.13-4.18,1.13s-2.89-.42-3.98-1.26c-1.09-.84-2.13-2.28-3.11-4.32-.79-1.63-1.42-2.84-1.87-3.62s-.91-1.34-1.35-1.67c-.44-.34-.99-.54-1.64-.61-.1.5-.37,2.09-.83,4.75-.19,1.2-.31,1.93-.36,2.2-.24,1.46-.72,2.59-1.44,3.37-.72.78-1.81,1.17-3.28,1.17-1.61,0-3.03-.47-4.27-1.42-1.24-.95-2.19-2.27-2.86-3.96-.67-1.69-1.01-3.62-1.01-5.78,0-4.03.7-7.51,2.11-10.44,1.4-2.93,3.37-5.17,5.9-6.71,2.53-1.55,5.45-2.32,8.77-2.32,2.3,0,4.24.35,5.8,1.04,1.56.7,2.72,1.66,3.47,2.88.76,1.22,1.13,2.6,1.13,4.14,0,1.34-.32,2.66-.95,3.94-.64,1.28-1.59,2.42-2.86,3.4-1.27.98-2.82,1.72-4.64,2.2,1.15.31,2.04.82,2.66,1.51.62.7,1.25,1.72,1.87,3.06.67,1.44,1.34,2.5,2,3.17s1.42,1.01,2.29,1.01c.77,0,1.5-.26,2.2-.77.7-.52,1.57-1.4,2.63-2.65.29-.34.61-.5.97-.5.31,0,.56.14.74.43Zm-25-3.74c-.82,0-1.37-.19-1.67-.58-.3-.38-.45-.82-.45-1.3,0-.58.19-1.03.56-1.37.37-.34.8-.5,1.28-.5h.9c.38-2.35.74-4.38,1.08-6.08.31-1.56,1.32-2.34,3.02-2.34,1.37,0,2.05.61,2.05,1.84,0,.26-.01.47-.04.61l-1.08,5.98c1.3-.07,2.48-.38,3.55-.94,1.07-.55,1.92-1.32,2.56-2.3.64-.98.95-2.1.95-3.35,0-1.51-.52-2.7-1.55-3.56-1.03-.86-2.54-1.3-4.54-1.3-2.35,0-4.41.58-6.17,1.75-1.76,1.17-3.14,2.89-4.12,5.18-.98,2.29-1.48,5.08-1.48,8.37,0,1.54.16,2.86.47,3.96.31,1.1.7,1.93,1.15,2.48.46.55.89.83,1.3.83.31,0,.57-.16.77-.47.2-.31.37-.82.49-1.51l.97-5.4Z" fill="#4c144d"/><path d="m138.68,161.39c-1.33-.82-2.38-2-3.15-3.55-.77-1.55-1.15-3.38-1.15-5.49,0-3.65.78-7.03,2.34-10.13,1.56-3.11,3.86-5.6,6.91-7.49,3.05-1.88,6.71-2.83,10.98-2.83,1.1,0,2.29.08,3.55.25s2.41.42,3.44.76c.67.19,1.01.67,1.01,1.44,0,.62-.23,1.21-.7,1.76-.47.55-1.01.83-1.64.83-.19,0-.34-.01-.43-.04-1.25-.29-2.32-.5-3.2-.63-.89-.13-1.82-.2-2.81-.2-3.05,0-5.64.74-7.78,2.21-2.14,1.48-3.73,3.43-4.79,5.85-1.06,2.42-1.58,5.04-1.58,7.85,0,2.04.4,3.62,1.21,4.73.8,1.12,1.85,1.67,3.15,1.67,1.46,0,2.75-.6,3.85-1.8,1.1-1.2,2.11-3.14,3.02-5.83.91-2.69,1.81-6.34,2.7-10.94.14-.67.43-1.13.86-1.37.43-.24,1.01-.36,1.73-.36,1.7,0,2.56.55,2.56,1.66,0,.19-.04.43-.11.72-.62,2.33-1.19,4.9-1.71,7.72-.52,2.82-.77,4.96-.77,6.43,0,1.3.19,2.24.58,2.83.38.59.97.88,1.76.88s1.5-.26,2.2-.77c.7-.52,1.57-1.4,2.63-2.65.29-.34.61-.5.97-.5.31,0,.56.14.74.43.18.29.27.68.27,1.19,0,.94-.23,1.68-.68,2.23-1.18,1.42-2.33,2.5-3.46,3.24-1.13.74-2.51,1.12-4.14,1.12s-3.04-.49-4.07-1.46c-1.03-.97-1.68-2.35-1.94-4.12-1.78,3.72-4.39,5.58-7.85,5.58-1.66,0-3.15-.41-4.48-1.22Zm14.31-32.17c-.26-.25-.4-.56-.4-.92,0-.48.23-.91.68-1.3l6.19-5.29c.48-.41,1.01-.61,1.58-.61.62,0,1.16.22,1.62.67.46.44.68.98.68,1.6,0,1.03-.64,1.88-1.91,2.56l-6.73,3.49c-.22.12-.47.18-.76.18-.38,0-.71-.13-.97-.38Z" fill="#4c144d"/><path d="m192.61,133.31c.37.36.56.78.56,1.26,0,.79-.22,1.37-.67,1.73-.45.36-1.15.5-2.11.43-2.16-.17-3.85-.28-5.06-.34-1.21-.06-2.8-.1-4.77-.13-.89,4.42-1.71,8.86-2.45,13.32-.26,1.63-.54,3.52-.83,5.67-.29,2.15-.48,3.88-.58,5.2-.05.7-.34,1.23-.86,1.6-.53.37-1.16.56-1.91.56-.79,0-1.4-.19-1.84-.58s-.65-.89-.65-1.51c0-.58.09-1.53.27-2.86.18-1.33.39-2.73.63-4.19.26-1.46.47-2.74.61-3.82.26-1.82.56-3.64.9-5.44s.67-3.5,1.01-5.11c.07-.36.16-.77.25-1.24.09-.47.2-.99.32-1.57-2.35.07-4.2.26-5.54.58-1.34.31-2.3.75-2.86,1.31s-.85,1.29-.85,2.18c0,.82.24,1.6.72,2.34.1.17.14.35.14.54,0,.46-.27.88-.81,1.28-.54.4-1.1.59-1.67.59-.41,0-.74-.12-1.01-.36-.48-.41-.88-.99-1.19-1.75s-.47-1.61-.47-2.57c0-2.04.67-3.68,2-4.91,1.33-1.24,3.36-2.14,6.08-2.72,2.72-.58,6.22-.86,10.49-.86,2.64,0,4.75.05,6.32.14s2.95.25,4.12.47c.74.14,1.3.4,1.67.76Z" fill="#4c144d"/><path d="m205.12,132.58c.43.3.65.67.65,1.1,0,.77-.24,1.39-.72,1.85-.48.47-1.16.7-2.05.7-1.39,0-2.45.01-3.17.04-.05.29-.27,1.58-.65,3.89-.43,2.57-.7,4.14-.79,4.72l-.76,4.72c-.53,3.53-.95,6.48-1.26,8.86.5-.02,1.19-.04,2.05-.04,1.27,0,2.13.17,2.59.5.46.34.68.84.68,1.51,0,.62-.25,1.15-.74,1.58s-1.18.65-2.07.65c-.6,0-1.55-.02-2.84-.07-1.2-.05-1.99-.07-2.38-.07-1.51,0-3.17.13-4.97.4-.79.12-1.36.18-1.69.18-.53,0-.97-.14-1.33-.43-.36-.29-.54-.71-.54-1.26,0-.86.38-1.54,1.15-2.02s1.85-.73,3.24-.76l1.69-.04.11-.79c.58-3.84,1-6.55,1.26-8.14l.79-4.72c.48-2.78.91-5.65,1.3-8.6l-3.02.04c-.86,0-1.46-.14-1.78-.41-.32-.28-.49-.67-.49-1.17,0-1.63,1.17-2.51,3.53-2.63,1.1-.05,2.45-.07,4.03-.07l6.59.04c.62,0,1.15.15,1.58.45Z" fill="#4c144d"/><path d="m207.67,160.91c-1.92-1.21-2.88-3.07-2.88-5.56,0-1.32.23-2.33.68-3.02.46-.7,1.13-1.04,2.02-1.04.65,0,1.18.17,1.58.5s.61.77.61,1.3c0,.48-.04.9-.11,1.26,0,.1-.02.26-.05.5-.04.24-.05.49-.05.76,0,1.08.55,1.88,1.64,2.41,1.09.53,2.62.79,4.59.79s3.64-.37,4.79-1.1,1.73-1.76,1.73-3.08c0-.82-.26-1.52-.79-2.11-.53-.59-1.19-1.08-1.98-1.48-.79-.4-1.91-.88-3.35-1.46-1.85-.72-3.35-1.4-4.52-2.05-1.16-.65-2.16-1.53-2.99-2.65s-1.24-2.5-1.24-4.16.46-3.26,1.39-4.61c.92-1.34,2.25-2.39,4-3.13,1.74-.74,3.79-1.12,6.14-1.12,1.75,0,3.36.26,4.82.77,1.46.52,2.63,1.3,3.51,2.36.88,1.06,1.31,2.35,1.31,3.89s-.23,2.65-.68,3.42c-.46.77-1.13,1.15-2.02,1.15-.62,0-1.15-.19-1.57-.58-.42-.38-.63-.84-.63-1.37,0-.46.04-.88.11-1.26.07-.72.11-1.18.11-1.37,0-1.01-.49-1.78-1.48-2.3-.98-.53-2.21-.79-3.67-.79-2.06,0-3.64.38-4.73,1.13s-1.64,1.82-1.64,3.19c0,.91.28,1.69.85,2.34.56.65,1.27,1.19,2.11,1.62.84.43,2.02.95,3.53,1.55,1.82.74,3.29,1.42,4.39,2.02,1.1.6,2.05,1.42,2.83,2.45.78,1.03,1.17,2.3,1.17,3.82,0,2.83-1.07,5.01-3.22,6.53-2.15,1.52-5.02,2.29-8.62,2.29-3.19,0-5.75-.61-7.67-1.82Z" fill="#4c144d"/></svg>