<?xml version="1.0" encoding="UTF-8"?><svg xmlns="http://www.w3.org/2000/svg" xmlns:xlink="http://www.w3.org/1999/xlink" viewBox="0 0 300.79 203.65"><defs><linearGradient id="b" x1="496.52" y1="1188.45" x2="496.52" y2="1164.04" gradientTransform="translate(-399.13 -1094.64) rotate(-.75)" gradientUnits="userSpaceOnUse"><stop offset="0" stop-color="#000"/><stop offset="1" stop-color="#fff"/></linearGradient></defs><g fill="none" isolation="isolate"><g id="a"><path d="m88.7,200.84s-48.38-62.11-47.35-92.85C42.38,77.24,154.99-4.22,184.14.17c29.15,4.39,37.54,73.47,13.98,123.79-23.56,50.31,33.94,13.98,39.13-16.37,5.19-30.35,59.1,37.16-11.98,93.25H88.7Z" fill="#4c144d"/><path d="m192.86,34.2c-2.07,0-3.75-1.68-3.75-3.75s1.68-3.75,3.75-3.75,3.75,1.68,3.75,3.75-1.68,3.75-3.75,3.75Zm0-6.24c-1.37,0-2.49,1.12-2.49,2.49s1.12,2.49,2.49,2.49,2.49-1.12,2.49-2.49-1.12-2.49-2.49-2.49Z" fill="#4c144d"/><path d="m41.45,64.34c-2.07,0-3.75-1.68-3.75-3.75s1.68-3.75,3.75-3.75,3.75,1.68,3.75,3.75-1.68,3.75-3.75,3.75Zm0-6.24c-1.37,0-2.49,1.12-2.49,2.49s1.12,2.49,2.49,2.49,2.49-1.12,2.49-2.49-1.12-2.49-2.49-2.49Z" fill="#48c902"/><path d="m132.92,22.82c-1.64,0-2.97-1.33-2.97-2.97s1.33-2.97,2.97-2.97,2.97,1.33,2.97,2.97-1.33,2.97-2.97,2.97Zm0-4.67c-.94,0-1.71.76-1.71,1.71s.76,1.71,1.71,1.71,1.71-.76,1.71-1.71-.76-1.71-1.71-1.71Z" fill="#48c902"/><path d="m264.41,97.87c-2.07,0-3.75-1.68-3.75-3.75s1.68-3.75,3.75-3.75,3.75,1.68,3.75,3.75-1.68,3.75-3.75,3.75Zm0-6.24c-1.37,0-2.49,1.12-2.49,2.49s1.12,2.49,2.49,2.49,2.49-1.12,2.49-2.49-1.12-2.49-2.49-2.49Z" fill="#4c144d"/><path d="m242.19,74.67l-9.66-34.72,27.59-12.74,1.03,37.05-18.95,10.4Zm-8.16-34.02l8.95,32.15,16.88-9.26-.95-34.37-24.88,11.48Z" fill="#48c902"/><path d="m218.09,76.07l-18-32.4,30.23-3.11,9.38,34.79-21.61.71Zm-15.97-31.34l16.7,30.05,19.24-.64-8.69-32.22-27.26,2.8Z" fill="#48c902"/><path d="m238.58,75.49l-9.5-34.69,4.64-1.27,9.5,34.69-4.64,1.27Zm-7.95-33.8l8.84,32.25,2.21-.61-8.84-32.25-2.21.61Z" fill="#48c902"/><path d="m204.3,43.85l-.99-.78,2-2.52.16-.06c7.95-3.06,14.48-3.59,18.57-3.49,4.46.11,7.01.94,7.11.98l.32.11.69,2.54-1.22.33-.51-1.87c-.8-.22-3.08-.75-6.49-.82-3.93-.09-10.21.42-17.86,3.35l-1.79,2.25Z" fill="#48c902"/><path d="m230.95,40.94l-.69-2.54.22-.25c.07-.08,1.84-2.1,5.62-4.47,3.46-2.17,9.36-5.05,17.76-6.46l.17-.03,3,1.15-.45,1.18-2.68-1.03c-13.99,2.4-20.94,8.91-22.24,10.24l.51,1.87-1.22.33Z" fill="#48c902"/><path d="m205.23,41.49l-5.18-5.77,2.16.66s3.6.98,14.32-1.14c11.4-2.25,14.8,2.76,14.94,2.98l-1.06.69s-.78-1.13-2.81-1.99c-1.9-.8-5.33-1.53-10.83-.44-7.03,1.39-11.07,1.48-13.14,1.35l2.53,2.82-.94.84Z" fill="#48c902"/><rect x="230.78" y="43.77" width="3.6" height="1.26" transform="translate(-3.46 63.05) rotate(-15.33)" fill="#48c902"/><rect x="231.56" y="46.61" width="3.6" height="1.26" transform="translate(-4.19 63.36) rotate(-15.33)" fill="#48c902"/><rect x="237.85" y="69.43" width="3.6" height="1.26" transform="translate(-10.02 67.57) rotate(-15.72)" fill="#48c902"/><rect x="237.05" y="66.59" width="3.6" height="1.26" transform="translate(-9.28 67.25) rotate(-15.72)" fill="#48c902"/><path d="m229.91,39.86c-.92-.11-1.83-.17-2.75-.23-.91-.05-1.83-.08-2.74-.1-.46,0-.92-.02-1.37-.01-.23,0-.46,0-.69,0-.23,0-.46,0-.69,0-.23,0-.46,0-.69,0h-.69c-.46,0-.92.02-1.38.01.45-.09.91-.17,1.37-.24.46-.05.92-.12,1.38-.15.46-.04.92-.06,1.39-.08.23,0,.46-.02.69-.02h.69c.93.02,1.85.09,2.77.21.46.06.92.14,1.37.23.45.1.9.21,1.34.36Z" fill="#48c902"/><path d="m222.04,40.61c-1.26.01-2.51.07-3.76.15-1.25.08-2.49.2-3.74.33-.31.03-.62.07-.93.11l-.47.05-.46.06-.93.12c-.31.05-.62.09-.93.14l-.46.07c-.16.02-.31.05-.46.07l-.93.15c-.62.09-1.24.21-1.86.3.3-.1.6-.18.9-.27l.45-.13c.15-.04.3-.08.46-.12.61-.15,1.22-.31,1.84-.42.31-.06.62-.13.93-.18l.93-.15.47-.07.47-.06c.31-.04.62-.08.94-.12,1.25-.14,2.51-.21,3.77-.23,1.26-.01,2.52.03,3.77.22Z" fill="#48c902"/><path d="m231.52,39.11c.73-.67,1.51-1.28,2.31-1.87.79-.59,1.61-1.15,2.44-1.68.83-.53,1.69-1.03,2.56-1.5.87-.46,1.77-.89,2.7-1.24l-2.51,1.56-2.49,1.58-2.49,1.59c-.83.53-1.66,1.05-2.51,1.56Z" fill="#48c902"/><path d="m236.41,37.43c1.14-.79,2.32-1.51,3.51-2.22.3-.18.6-.35.9-.52.3-.17.6-.34.91-.51.61-.34,1.22-.66,1.83-.98l.93-.47c.31-.16.62-.31.93-.46.62-.3,1.25-.59,1.89-.87,1.27-.55,2.56-1.07,3.88-1.48-1.25.59-2.49,1.2-3.73,1.81-.31.16-.61.31-.92.47-.31.15-.61.31-.92.47-.62.31-1.23.63-1.84.95l-.92.47-.92.48-1.84.96c-1.22.64-2.45,1.28-3.69,1.89Z" fill="#48c902"/><path d="m37.98,199.47l-.98-.09c.03-.31,2.89-30.95,18.55-54.11l.81.55c-15.52,22.95-18.36,53.34-18.39,53.65Z" fill="#48c902"/><path d="m33.26,199.46l-.98-.07c.04-.52,3.48-52.49-1.75-68.45l.94-.31c5.28,16.14,1.94,66.68,1.79,68.82Z" fill="#48c902"/><path d="m26.97,199.45c-.01-.26-1.67-26.59-18.95-37.25l.52-.84c17.72,10.93,19.4,37.77,19.42,38.04l-.98.05Z" fill="#48c902"/><path d="m42.53,199.54l-.96-.22c.02-.08,1.8-7.63,3.74-15.03,1.02-3.88,3.11-4.99,4.78-5.87,1.66-.88,2.86-1.51,2.68-4.6-.11-1.87-.33-3.25-.51-4.36-.47-2.92-.68-4.25,1.98-7.95,1.56-2.17,2.94-2.86,3.94-3.37,1.31-.66,1.96-.99,2.07-4.24.03-.94.04-1.72.06-2.4.07-3.77.07-4.25,2.49-7.71.64-.92.33-1.89-.04-2.54-.92-1.62-3.43-3.24-5.85-3.06-1.75.13-3.05,1.21-3.77,3.1-2.36,6.2-3.81,7.25-6.44,9.15-.58.42-1.24.9-1.98,1.49-3.76,3.01-4.92,4.44-4.15,9.79.47,3.3-1.31,7.04-2.88,10.34-1.09,2.29-2.12,4.44-2.04,5.83.2,3.54-1.18,20.85-1.23,21.58l-.98-.08c.01-.18,1.43-17.98,1.23-21.45-.09-1.64.94-3.8,2.13-6.31,1.51-3.17,3.22-6.77,2.79-9.78-.83-5.81.58-7.55,4.51-10.7.76-.6,1.43-1.09,2.02-1.52,2.47-1.79,3.83-2.78,6.09-8.7.86-2.24,2.5-3.57,4.62-3.73,2.56-.2,5.53,1.36,6.78,3.55.73,1.27.72,2.55,0,3.59-2.25,3.21-2.25,3.51-2.32,7.16-.01.68-.03,1.47-.06,2.41-.12,3.65-1.02,4.29-2.61,5.09-.97.49-2.17,1.1-3.59,3.07-2.42,3.37-2.25,4.42-1.81,7.22.18,1.13.41,2.54.52,4.46.22,3.72-1.44,4.6-3.2,5.53-1.58.84-3.38,1.79-4.29,5.25-1.94,7.39-3.72,14.93-3.74,15.01Z" fill="#48c902"/><path d="m24.05,199.51c-.02-.1-1.78-9.93-5.5-12.54-4.09-2.86-5.32-5.01-5.72-10.01-.05-.68-.09-1.29-.13-1.83-.22-3.37-.26-3.98-2.54-5.05-.79-.37-1.54-.56-2.25-.75-1.86-.48-3.46-.89-3.93-4.17-.23-1.62-.96-2.29-1.8-3.08-1.11-1.04-2.38-2.21-2.14-5.68.12-1.78,1.11-2.44,1.92-2.67,3.27-.95,9.98,3.33,11.76,5.76,1.33,1.81,2.38,2.18,3.59,2.62.68.24,1.38.49,2.18,1,.19.12.38.24.57.36,2.04,1.27,4.58,2.85,4.96,6.5l.05.5c.35,3.41.57,5.47,2.68,7.03,2.44,1.81,2.24,5.42,2.04,8.9l-.04.77c-.19,3.67.15,12.13.15,12.22l-.98.04c0-.09-.35-8.59-.15-12.31l.04-.77c.19-3.38.37-6.57-1.64-8.06-2.46-1.82-2.7-4.17-3.07-7.72l-.05-.5c-.33-3.17-2.45-4.49-4.51-5.77-.2-.12-.39-.24-.58-.37-.7-.45-1.35-.68-1.98-.9-1.25-.45-2.55-.91-4.06-2.96-1.62-2.2-7.93-6.2-10.69-5.4-.48.14-1.12.47-1.21,1.79-.21,3,.74,3.87,1.83,4.89.86.8,1.82,1.7,2.11,3.66.38,2.63,1.44,2.9,3.2,3.35.73.19,1.55.4,2.43.81,2.81,1.31,2.88,2.46,3.11,5.87.04.54.07,1.14.13,1.81.38,4.74,1.42,6.56,5.3,9.28,4.06,2.84,5.84,12.75,5.91,13.17l-.97.17Z" fill="#48c902"/><path d="m28.92,180.61c0-.06-.03-6.01-1.92-10.98-2.01-5.31-2.36-7.52-1.18-14.04.61-3.34-.41-5.75-1.49-8.31-.96-2.28-1.96-4.63-1.86-7.75.09-3.09.94-4.36,1.68-5.48.83-1.26,1.49-2.25.8-5.84-.47-2.45,1.92-4.6,4.41-5.18,2.56-.6,6,.28,7.26,4.77,1.54,5.5,1.7,8.9,1.81,11.14.11,2.29.16,3.44,1.43,4.8,1.73,1.85,1.4,4.01,1.02,6.51-.27,1.79-.58,3.81-.15,6.06l-.97.18c-.46-2.41-.14-4.53.15-6.39.36-2.34.64-4.18-.77-5.69-1.51-1.62-1.58-3.05-1.69-5.42-.11-2.33-.26-5.53-1.77-10.92-1.07-3.81-3.84-4.6-6.09-4.08-2.04.48-4.03,2.16-3.67,4.04.76,3.98-.07,5.24-.95,6.57-.7,1.06-1.43,2.16-1.52,4.97-.09,2.91.86,5.16,1.78,7.34,1.09,2.58,2.21,5.24,1.55,8.87-1.14,6.28-.81,8.41,1.13,13.51,1.95,5.14,1.98,11.08,1.98,11.33h-.98Z" fill="#48c902"/><path d="m266.95,199.44l-.93-.32c.44-1.28,10.97-31.28,26.77-34.64l.2.96c-15.26,3.24-25.94,33.69-26.05,34Z" fill="#48c902"/><path d="m262.23,199.42l-.94-.28c.11-.38,10.92-37.87,5.32-66.55l.97-.19c5.65,28.92-5.23,66.64-5.34,67.02Z" fill="#48c902"/><path d="m256.95,199.42c-.06-.2-5.92-20.4-14.67-23.52-2.19-.78-4.41-.4-6.62,1.13l-.56-.81c2.48-1.72,5-2.14,7.51-1.25,9.22,3.29,15.04,23.32,15.29,24.18l-.95.27Z" fill="#48c902"/><path d="m253.27,199.54s-2.57-4.21-4.7-7.11c-.8-1.1-1.97-1.32-3.1-1.54-1.6-.31-3.42-.66-3.29-3.76l.02-.39c.12-2.69.2-4.64-.56-5.37-.36-.35-.96-.48-1.88-.41-1.4.11-2.69-.12-3.82-.32-1.64-.29-3.06-.55-4.44.24-.63.36-1.02.23-1.24.05-.39-.31-.46-.9-.2-1.77.6-2.07,3.62-6.79,8.63-7.29,6.69-.68,7.93-.39,10.26,2.35,1,1.17,1.51,1.88,1.88,2.39.73,1.01.81,1.11,3.12,2.52,3.21,1.96,4.43,3.76,3.96,5.82-.45,1.97,1.27,10.95,1.97,14.24l-.96.2c-.1-.49-2.56-12.07-1.97-14.66.24-1.07.06-2.58-3.52-4.77-2.39-1.46-2.58-1.66-3.4-2.79-.36-.5-.86-1.19-1.84-2.33-2-2.35-2.81-2.68-9.42-2.01-3.27.33-5.8,2.81-7.08,5.01-.67,1.16-.83,1.93-.82,2.23.03-.01.07-.03.12-.06,1.69-.96,3.35-.67,5.1-.35,1.13.2,2.29.41,3.57.31,1.22-.1,2.06.12,2.64.68,1.08,1.04.99,3.06.86,6.12l-.02.39c-.1,2.26.88,2.45,2.49,2.76,1.19.23,2.68.52,3.71,1.92,2.15,2.94,4.72,7.14,4.75,7.18l-.84.51Z" fill="#48c902"/><path d="m258.55,192.48l-.93-.32s1.45-4.32,2.03-10.09c.26-2.63-.48-4.15-1.21-5.62-.85-1.73-1.73-3.53-.83-6.84.87-3.2,2.03-3.75,2.96-4.19.79-.37,1.31-.62,1.5-2.9.19-2.16-.47-2.95-1.17-3.79-.88-1.05-1.79-2.14-.7-5.52.78-2.43,1.63-3.44,2.3-4.26.88-1.06,1.41-1.69.99-5.43-.34-3.05-1.32-4.26-2.11-5.23-.91-1.11-1.69-2.08-.84-4.86,1.27-4.15,2.81-7.75,7.62-6.32,3.91,1.16,5.49,5.38,4.12,11.01-.48,2,.43,4.54,1.39,7.23,1.26,3.51,2.69,7.49,1.22,11.13-.79,1.96-1.4,3.07-1.79,3.8q-.83,1.52-.24,5.53c.22,1.54.42,2.64.57,3.45.45,2.52.47,2.84-.3,5.86l-.95-.25c.74-2.89.72-3.04.28-5.44-.15-.81-.35-1.93-.57-3.48-.62-4.21-.6-4.38.35-6.14.41-.75.97-1.79,1.75-3.7,1.33-3.3.03-6.92-1.23-10.43-1.02-2.83-1.98-5.51-1.42-7.8,1.25-5.15-.04-8.83-3.45-9.84-3.27-.97-4.77.35-6.4,5.67-.7,2.28-.19,2.91.66,3.95.83,1.02,1.96,2.41,2.33,5.74.44,3.97-.11,4.84-1.22,6.17-.62.75-1.4,1.68-2.12,3.93-.92,2.86-.29,3.63.52,4.59.76.91,1.61,1.93,1.39,4.5-.23,2.64-.96,3.18-2.06,3.7-.79.38-1.69.8-2.43,3.56-.8,2.96-.08,4.44.76,6.15.75,1.52,1.59,3.24,1.3,6.15-.59,5.89-2.06,10.27-2.07,10.31Z" fill="#48c902"/><path d="m269.91,199.39l-.96-.21c1.53-7.06,3.77-9.16,5.75-11.02,1.09-1.02,2.03-1.91,2.69-3.54.32-.8.6-1.49.84-2.09,1.19-3,1.59-4.01,3.3-6.15,1.07-1.34,1.94-1.43,2.96-1.53,1.04-.1,2.34-.23,4.58-1.95,2.28-1.75,2.22-2.96,2.17-3.84-.04-.78-.08-1.66,1.56-2.01.86-.18,1.95-.2,3.01-.23,1.63-.03,3.47-.07,3.91-.72.14-.21.13-.53-.03-.96-.32-.85-.98-1.45-1.97-1.79-1.89-.65-4.73-.2-6.75,1.05-1.6.99-2.81.58-3.87.22-1.24-.42-2.31-.78-4.2.72-1.56,1.24-2.13,2.69-2.64,3.97-.68,1.72-1.34,3.35-4.19,3.21-2.07-.11-2.54,1.23-3.26,3.8-.49,1.77-1.05,3.77-2.56,5.41-3.27,3.55-6.2,17.5-6.23,17.64l-.96-.2c.12-.58,3.02-14.36,6.47-18.11,1.35-1.47,1.87-3.35,2.33-5.01.67-2.4,1.3-4.66,4.25-4.52,2.17.11,2.56-.91,3.22-2.59.52-1.33,1.18-2.97,2.94-4.38,2.31-1.83,3.81-1.33,5.13-.88,1.02.34,1.83.62,3.04-.13,2.29-1.42,5.41-1.89,7.59-1.15,1.27.43,2.16,1.25,2.58,2.37.28.75.25,1.37-.08,1.86-.73,1.07-2.66,1.11-4.7,1.15-1.01.02-2.06.04-2.82.21-.82.17-.81.28-.78.99.05,1.04.13,2.61-2.56,4.67-2.46,1.89-3.97,2.04-5.08,2.15-.92.09-1.48.15-2.29,1.16-1.62,2.03-1.97,2.92-3.15,5.9-.24.61-.52,1.3-.84,2.1-.74,1.83-1.81,2.83-2.93,3.89-1.87,1.76-4,3.76-5.46,10.51Z" fill="#48c902"/><path d="m286.9,203.65H12.18c0-3.03,2.46-5.49,5.49-5.49h263.75c3.03,0,5.49,2.46,5.49,5.49h0Z" fill="#359545"/><path d="m92.16,78.49c-.14,0-.27,0-.41,0-7.85-.11-15.19-3.26-20.67-8.89-5.48-5.63-8.43-13.05-8.33-20.9.11-7.85,3.26-15.19,8.89-20.67,5.63-5.48,13.05-8.43,20.9-8.33,7.85.11,15.19,3.26,20.67,8.89,5.48,5.63,8.43,13.05,8.33,20.9-.11,7.85-3.26,15.19-8.89,20.67-5.53,5.38-12.79,8.33-20.49,8.33Zm-.01-57.52c-7.08,0-14.16,2.65-19.62,7.96-11.12,10.82-11.36,28.67-.54,39.78,5.24,5.39,12.27,8.41,19.78,8.51,7.51.1,14.62-2.73,20-7.97,5.39-5.24,8.41-12.27,8.51-19.78.1-7.51-2.73-14.62-7.97-20-5.51-5.66-12.83-8.5-20.17-8.5Z" fill="#48c902"/><path d="m92.16,72.57c-.11,0-.22,0-.33,0-6.27-.09-12.13-2.61-16.51-7.1-4.37-4.49-6.74-10.42-6.65-16.7.09-6.27,2.61-12.13,7.1-16.51,4.49-4.37,10.42-6.74,16.7-6.65,6.27.09,12.13,2.61,16.51,7.1,4.37,4.49,6.74,10.42,6.65,16.7-.09,6.27-2.61,12.13-7.1,16.51-4.42,4.3-10.22,6.65-16.37,6.65Zm-.01-45.69c-5.59,0-11.18,2.09-15.49,6.29-8.78,8.55-8.97,22.64-.43,31.42,4.35,4.47,10.14,6.71,15.93,6.71,5.59,0,11.18-2.09,15.49-6.29,4.25-4.14,6.64-9.69,6.72-15.62.08-5.93-2.15-11.55-6.29-15.8-4.35-4.47-10.14-6.71-15.93-6.71Z" fill="#48c902"/><path d="m105.91,63.26l-.86-.92c1.32-1.23,2.45-2.64,3.36-4.19l1.09.64c-.97,1.65-2.18,3.16-3.59,4.47Z" fill="#48c902"/><path d="m111.27,54.36l-1.22-.33c1.74-6.33-.02-13.18-4.6-17.88l.9-.88c2.46,2.52,4.2,5.65,5.04,9.05.82,3.3.77,6.77-.13,10.05Z" fill="#48c902"/><polygon points="68.88 78.26 61.77 70.96 67.99 64.91 68.87 65.82 63.56 70.98 68.9 76.47 74.12 71.4 75 72.3 68.88 78.26" fill="#48c902"/><path d="m32.36,117.08l-10.39-10.68,39.06-38.02,10.39,10.68-39.06,38.02Zm-8.61-10.65l8.63,8.87,37.25-36.26-8.63-8.87-37.25,36.26Z" fill="#48c902"/><path d="m132.58,70.03c2.78-.04,5.11,2.21,5.14,4.99.02,1.39-.54,2.66-1.44,3.61-.9.93-2.17,1.52-3.57,1.54l-6.78.09-27.21.36-5.81.08c-2.78.04-5.11-2.23-5.14-5.01-.02-1.39.54-2.66,1.44-3.59.92-.93,2.17-1.52,3.57-1.54l8.91-.12,22.84-.3,8.06-.11Z" fill="#c4e1ea"/><path d="m160.64,176.94h0c-.02-.14-.03-.27-.06-.41-.02-.11-.03-.22-.05-.33-.02-.14-.05-.29-.08-.43-.02-.08-.03-.16-.05-.24-.01-.07-.03-.15-.05-.22-.03-.11-.05-.23-.08-.34,0-.03-.01-.06-.02-.09-.02-.09-.05-.18-.07-.27-.01-.05-.03-.11-.04-.16-.02-.09-.05-.17-.08-.26-.03-.09-.05-.17-.08-.25-.06-.18-.12-.36-.18-.53-.03-.08-.06-.16-.09-.24-.33-.87-.73-1.73-1.23-2.57-3.58-6.14-7.81-12.18-11.82-18.28-.43-.65-.86-1.31-1.28-1.96-.14-.22-.28-.44-.42-.66h0c-4.49-7-8.52-14.11-10.8-21.57l-.81-3.12c-2.69-10.28-9.06-34.27-7.4-44.75l-27.21.36c.5,2.68.55,6.26.32,10.27-.15,2.62-.43,5.42-.78,8.28-.14,1.12-.29,2.26-.45,3.39-.77,5.4-1.76,10.82-2.7,15.42-.59,2.92-1.16,5.51-1.64,7.56l-.73,3.14c-4.17,15.05-15.39,28.84-23.21,43.09-5.55,10.09.62,22.66,12,24.49,10.88,1.76,21.86,2.56,32.83,2.42,10.99-.15,21.94-1.24,32.77-3.28,6.85-1.29,11.69-6.45,13.16-12.52.47-1.92.6-3.92.35-5.93Z" fill="#a3c1c9"/><path d="m157.42,180.28c-.15,1.44-.53,2.88-1.16,4.25-.02.04-.03.07-.05.11-1.85,3.98-5.38,6.72-9.69,7.53-.83.16-1.67.31-2.51.45-1.6.28-3.2.54-4.8.77-1.02.15-2.04.29-3.06.43-1.14.15-2.29.29-3.43.42-.52.06-1.04.12-1.56.17-1.17.12-2.34.23-3.51.33-3.97.34-7.94.55-11.91.63-.48.01-.95.02-1.43.03-1.37.02-2.74.02-4.12,0-9.41-.09-18.86-.89-28.15-2.39-4.37-.7-7.99-3.39-9.94-7.38-1.93-3.96-1.83-8.45.29-12.3,1.8-3.28,3.82-6.59,5.87-9.87.72-1.15,1.44-2.29,2.16-3.42.03-.04.05-.09.08-.13,1.59-2.51,3.18-5.04,4.73-7.6.49-.8.97-1.6,1.44-2.41.21-.37.43-.73.64-1.1.47-.82.94-1.63,1.39-2.46.42-.75.82-1.5,1.22-2.26.65-1.23,1.27-2.47,1.86-3.72,1.68-3.54,3.1-7.15,4.12-10.84l.76-3.27c.05-.21.12-.53.21-.96.22-1.01.56-2.6.97-4.61.57-2.84,1.28-6.51,1.97-10.57.18-1.07.37-2.17.55-3.29.08-.49.16-.99.24-1.5.17-1.1.34-2.22.51-3.34.15-1.02.29-2.04.42-3.06.22-1.67.42-3.34.59-4.98.54-5.05.82-9.82.61-13.58l20.03-.26c-.16,10.36,3.47,29.3,6.14,40.62.39,1.66.76,3.16,1.1,4.44l.78,3.02.2.75c.46,1.52,1,3.02,1.58,4.51.95,2.4,2.04,4.76,3.24,7.09.66,1.28,1.35,2.54,2.06,3.8,1.96,3.45,4.11,6.82,6.3,10.14,1.01,1.53,2.03,3.06,3.04,4.57,2.89,4.33,5.88,8.8,8.45,13.2,1.46,2.49,2.05,5.28,1.77,8.04Z" fill="#c4e1ea"/><path d="m152.82,173.9c1.68,2.88,1.83,6.26.45,9.3-1.38,3.05-4.08,5.15-7.36,5.76-10.41,1.97-21.04,3.03-31.63,3.16h-.02c-10.59.14-21.25-.64-31.7-2.34-3.3-.53-6.04-2.56-7.51-5.57-1.46-2.99-1.39-6.38.21-9.3,2.4-4.37,5.13-8.68,8-13.22,4.46-7.07,9.02-14.28,12.39-21.91,0,0,5.09-4.18,13-3.95,7.93.24,12.71,7.42,22.01,1.63,3.64,8.22,8.81,15.93,13.82,23.43,2.99,4.46,5.83,8.7,8.34,13.01Z" fill="#4c144d"/><path d="m132.58,70.03c2.78-.04,5.11,2.21,5.14,4.99.02,1.39-.54,2.66-1.44,3.61-.9.93-2.17,1.52-3.57,1.54l-6.78.09-27.21.36-5.81.08c-2.78.04-5.11-2.23-5.14-5.01-.02-1.39.54-2.66,1.44-3.59.92-.93,2.17-1.52,3.57-1.54l8.91-.12,22.84-.3,8.06-.11Z" fill="url(#b)" mix-blend-mode="soft-light"/><circle cx="98.09" cy="174.31" r="3.68" fill="#b24b9c"/><circle cx="110.2" cy="160.29" r="1.87" fill="#b24b9c"/><circle cx="123.91" cy="173.04" r="2.75" transform="translate(-87.8 194.84) rotate(-60.27)" fill="#b24b9c"/><circle cx="128.1" cy="158.58" r="1.63" transform="translate(-13.63 12.05) rotate(-5.11)" fill="#b24b9c"/><path d="m101.47,151.66c.01,1.02-.8,1.85-1.82,1.87s-1.85-.8-1.87-1.82c-.01-1.02.8-1.85,1.82-1.87,1.02-.01,1.85.8,1.87,1.82Z" fill="#b24b9c"/><path d="m84.06,177.24c0,.52-.41.94-.92.95s-.94-.41-.95-.92c0-.52.41-.94.92-.95.52,0,.94.41.95.92Z" fill="#b24b9c"/><circle cx="139.42" cy="174.68" r="1.84" fill="#b24b9c"/><circle cx="123.37" cy="143.62" r="2.59" fill="#b24b9c"/><g fill="none" mix-blend-mode="soft-light"><path d="m156.26,184.54s-.03.07-.05.11l-59.34-59.34c.54-2.44,1.75-8.26,2.94-15.18l44.35,44.35c1.01,1.53,2.03,3.06,3.04,4.57,2.89,4.33,5.88,8.8,8.45,13.2,2.22,3.8,2.44,8.28.61,12.29Z" fill="#fff"/><path d="m137.86,144.34l-37.5-37.5c.42-2.57.82-5.24,1.17-7.89l29.25,29.25.2.75c1.63,5.33,4.07,10.44,6.89,15.39Z" fill="#fff"/><path d="m127.65,194.74c-4.44.38-8.89.6-13.34.65-1.37.02-2.74.02-4.12,0l-31.93-31.93c.75-1.19,1.49-2.38,2.24-3.55,1.59-2.51,3.18-5.04,4.73-7.6l42.42,42.42Z" fill="#fff"/><path d="m139.21,193.4c-2.67.4-5.36.73-8.05,1.01l-44.49-44.49c1.13-1.92,2.22-3.86,3.25-5.81l49.3,49.3Z" fill="#fff"/><path d="m160.29,182.87c-.37-.27-.92-.67-.93-.65l-1.94-1.94c.28-2.75-.32-5.54-1.77-8.04-2.57-4.4-5.56-8.87-8.45-13.2-1.01-1.51-2.03-3.04-3.04-4.57-2.19-3.32-4.33-6.69-6.3-10.14-.71-1.25-1.4-2.52-2.06-3.8l9.15,9.15h0c.14.23.28.45.42.66.42.66.85,1.31,1.28,1.96,4.01,6.1,8.24,12.14,11.82,18.28.49.84.9,1.7,1.23,2.57.03.08.06.16.09.24.06.18.12.36.18.53.03.08.05.17.08.25.03.09.05.18.08.26.02.05.03.11.04.16.03.09.05.18.07.27,0,.03.02.06.02.09.03.11.06.22.08.34.02.07.03.14.05.22.02.08.03.16.05.24.03.14.05.28.08.43.02.11.04.22.05.33.02.13.04.27.06.4h0s0,0,0,0c.25,2.01.12,4.02-.35,5.93Z" fill="#fff"/><path d="m84.91,146.42l2.4,2.4c-.21.37-.42.73-.64,1.1-.47.8-.95,1.61-1.44,2.41-1.55,2.56-3.15,5.09-4.73,7.6-.03.04-.06.09-.08.13l-2.38-2.38c2.36-3.73,4.71-7.47,6.86-11.25Z" fill="#fff"/><path d="m91.77,140.38c-.59,1.25-1.21,2.49-1.86,3.72-.4.76-.8,1.51-1.22,2.26l-2.41-2.41c1.09-2,2.1-4.01,3.03-6.03l2.46,2.46Z" fill="#fff"/><path d="m100.59,105.34c-.08.5-.16,1-.24,1.5-.18,1.12-.37,2.22-.55,3.29-.7,4.05-1.4,7.73-1.97,10.57l-2.73-2.73c.94-4.6,1.93-10.02,2.7-15.42l2.79,2.79Z" fill="#fff"/><path d="m102.12,93.96c-.17,1.64-.37,3.31-.59,4.98-.13,1.02-.28,2.04-.42,3.06l-2.84-2.84c.36-2.86.63-5.66.78-8.28l3.08,3.08Z" fill="#fff"/><path d="m139.32,140.22l-6.76-6.76c-.58-1.48-1.12-2.99-1.58-4.51l-.2-.75-.78-3.02c-.33-1.28-.71-2.78-1.1-4.44l4.49,4.49.75,2.89c1.26,4.13,3.06,8.14,5.17,12.09Z" fill="#fff"/><path d="m146.84,195.45c-2.59.48-5.18.91-7.77,1.28l-2.91-2.91c1.02-.13,2.04-.27,3.06-.43,1.61-.24,3.21-.49,4.8-.77l2.82,2.82Z" fill="#fff"/><path d="m132.73,194.24l2.95,2.95c-5.57.7-11.15,1.16-16.75,1.37l-3.19-3.19c3.97-.08,7.95-.29,11.91-.63,1.17-.1,2.35-.21,3.51-.33.52-.05,1.04-.11,1.56-.17Z" fill="#fff"/></g><rect x="162.46" y="177.19" width="10.17" height="4.4" fill="#4c144d"/><path d="m157.43,169.11h0c-.9-.4-1.96.01-2.36.92l-2.05,4.66c-.4.9.01,1.96.92,2.36h0c.9.4,1.96-.01,2.36-.92l2.05-4.66c.4-.9-.01-1.96-.92-2.36Z" fill="#fae0b2"/><path d="m182.84,111.38h0c-.9-.4-1.31-1.45-.92-2.36l2.05-4.66c.4-.9,1.45-1.31,2.36-.92h0c.9.4,1.31,1.45.92,2.36l-2.05,4.66c-.4.9-1.45,1.31-2.36.92Z" fill="#fae0b2"/><path d="m176.06,115.79c1.76-1.38,0,0,1.18,0v3.13l-5.24,1.38s.92-.39,1.32-.98.98-2.16,2.75-3.53Z" fill="#50bfa5"/><path d="m231.78,137.24c-17.86,2.45-32.74-3.41-32.74-3.41,0,0,9.49-1.16,16.59-.42,6.29.66,16.15,3.83,16.15,3.83Z" fill="#359545"/><path d="m232.85,127.02l-1.06,10.21s-9.86-3.18-16.15-3.83c-7.1-.74-16.59.42-16.59.42l1.06-10.21,1.06-10.21s8.47-3.9,16.86-3.03c7.78.81,15.88,6.44,15.88,6.44l-1.06,10.21Z" fill="#48c902"/><path d="m250.55,121.24l-17.43,5.81-.27-.03,1.06-10.21s-8.1-5.63-15.88-6.44c-8.39-.87-16.86,3.03-16.86,3.03l-1.06,10.21-.27-.03-15.85-9.28,34.78-10.94,31.78,17.87Z" fill="#359545"/><path d="m217.72,100.93l-33.45,10.72-.28,2.67,33.45-10.52c.85-.27,1.77-.17,2.54.26l30.57,17.19.28-2.67-30.53-17.38c-.78-.45-1.71-.54-2.57-.27Z" fill="#48c902"/><path d="m190.55,130.07s-1.27,2.33-1.06,4.27c.21,1.94.99,3.73.99,3.73l.46.05-.24-2.14.64,2.87.76-.19-.45-4.12.8,3.47s.79-.33.81-.6c.03-.27-.68-3.42-.68-3.42l1,3.73s.5.33.89-3.39c.39-3.72-2.77-4.94-2.77-4.94l-1.17.7Z" fill="#fec65e"/><path d="m204.75,105.08l-2.41.77c-.41-.09-.91-.18-1.47-.23-2.54-.26-6.34.05-8.78,3.52-.17.25-.34.5-.49.78-.45.78-.79,1.56-1.05,2.33-1.27,3.81-.45,7.5.43,11.36.47,2.1.96,4.28,1.09,6.49.03.44-.31.83-.76.85-.04,0-.09,0-.13,0-.38-.04-.7-.35-.72-.75-.12-2.08-.6-4.19-1.05-6.23-.81-3.6-1.64-7.3-.7-11.14.24-.97.59-1.96,1.09-2.95.12-.25.26-.5.4-.76,4.36-7.63,13.73-4.51,13.82-4.48.25.09.49.26.72.44Z" fill="#fec65e"/><circle cx="191.35" cy="129.72" r="1.68" fill="#f7f07f"/><path d="m180.62,179.46h55.72s-.97,4.03-.97,8.42.97,8.42.97,8.42h-55.72c-1.98,0-3.58-1.6-3.58-3.58v-9.67c0-1.98,1.6-3.58,3.58-3.58Z" fill="#ccc"/><path d="m237.09,177.17c.63,0,1.14.52,1.14,1.14,0,.32-.13.6-.34.81-.21.21-.49.34-.81.34h-56.47c-1.98,0-3.58,1.6-3.58,3.58v9.67c0,1.98,1.6,3.58,3.58,3.58h56.47c.63,0,1.14.51,1.14,1.14,0,.32-.13.6-.34.81-.21.21-.49.34-.81.34h-56.47c-3.24,0-5.87-2.63-5.87-5.87v-9.68c0-3.24,2.63-5.87,5.87-5.87h56.47Z" fill="#359545"/><path d="m184.29,182.72c3.3-.15,6.6-.25,9.9-.3,3.3-.06,6.6-.08,9.9-.08,3.3,0,6.6.02,9.9.08,3.3.05,6.6.15,9.9.3-3.3.15-6.6.25-9.9.3-3.3.06-6.6.08-9.9.08-3.3,0-6.6-.02-9.9-.08-3.3-.05-6.6-.15-9.9-.3Z" fill="gray"/><path d="m182.23,187.88c1.25-.16,2.49-.24,3.74-.3,1.25-.06,2.49-.08,3.74-.08,1.25,0,2.49.02,3.74.08,1.25.06,2.49.14,3.74.3-1.25.16-2.49.24-3.74.3-1.25.06-2.49.08-3.74.08-1.25,0-2.49-.02-3.74-.08-1.25-.06-2.49-.14-3.74-.3Z" fill="gray"/><path d="m191.77,193.17c1.25-.16,2.49-.24,3.74-.3,1.25-.06,2.49-.08,3.74-.08,1.25,0,2.49.02,3.74.08,1.25.06,2.49.14,3.74.3-1.25.16-2.49.24-3.74.3-1.25.06-2.49.08-3.74.08-1.25,0-2.49-.02-3.74-.08-1.25-.06-2.49-.14-3.74-.3Z" fill="gray"/><path d="m199.65,190.07c2.88-.15,5.76-.25,8.64-.3,2.88-.06,5.76-.08,8.64-.08,2.88,0,5.76.02,8.64.08,2.88.05,5.76.15,8.64.3-2.88.15-5.76.25-8.64.3-2.88.06-5.76.08-8.64.08-2.88,0-5.76-.02-8.64-.08-2.88-.05-5.76-.15-8.64-.3Z" fill="gray"/><path d="m193.84,198.07c-1.69-3.19-1.69-7,0-10.19h-9.54c-1.69,3.19-1.69,7,0,10.19,1.13-.87,2.39-1.78,3.77-2.72,1.8.94,3.73,1.85,5.77,2.72Z" fill="#92278f"/><path d="m196.08,156.57s1.64,3.82-.06,8.51l-6.48-.35-16.24-.89h0s.49-1.85.49-4.02c0-1.99-.49-4.02-.49-4.02h0s16.01.54,16.01.54l6.77.23Z" fill="#ccc"/><path d="m172.96,163.82l.34.02,16.24.89,6.48.35c1.71-4.69.06-8.51.06-8.51l-6.77-.23-16.01-.55h-.39c-.52-.03-.92-.45-.92-.97s.43-.95.95-.95h.04l24.04.89s3.17,5.27,0,12.1l-24.16-1.14c-.52-.03-.92-.47-.91-.99.02-.52.45-.92.96-.92h.04Z" fill="#48c902"/><polygon points="172.98 153.87 238.87 153.04 238.51 153.06 197.03 154.76 172.98 153.87" fill="#3c8f7c"/><path d="m197.83,154.73l40.68-1.67c2.03-.08,3.72,1.54,3.73,3.57l.03,5.07c.01,1.94-1.51,3.53-3.45,3.61l-41.78,1.56c3.17-6.83,0-12.1,0-12.1l.8-.03Z" fill="#359545"/><path d="m195.95,159.84c-1.26.09-2.51.1-3.76.09-1.25,0-2.5-.06-3.75-.12-1.25-.08-2.49-.16-3.74-.29-1.24-.13-2.49-.28-3.72-.5,1.26-.09,2.51-.1,3.76-.09,1.25,0,2.5.06,3.74.12,1.25.08,2.49.16,3.74.29,1.24.13,2.49.28,3.72.5Z" fill="gray"/><path d="m182.69,161.84c-1.39.09-2.77.04-4.15-.05-1.38-.1-2.75-.23-4.12-.51,1.39-.09,2.77-.04,4.15.05,1.38.1,2.75.24,4.12.51Z" fill="gray"/><path d="m184.91,167.31c-1.27-1.87-1.14-6.3.24-8.09,2.49.07,4.89.38,7.38.45-1.37,1.79-1.41,5.99-.14,7.86-1.55-.55-3.05-1.27-4.46-2.08-1.09.73-2.08,1.38-3.02,1.86Z" fill="#92278f"/><path d="m200.54,166.37l1.18.1c-2.93.21-5.13,2.76-4.92,5.69l.12,1.62c.18,2.44,1.99,4.38,4.28,4.83l-18.93-1.49c-3.16-.3-5.46-3.12-5.14-6.27l.09-.87c.32-3.11,3.07-5.39,6.18-5.11h0s17.13,1.5,17.13,1.5Z" fill="#4c144d"/><polygon points="246.11 165.4 201.71 166.48 200.54 166.37 183.4 164.87 183.4 164.87 183.19 164.86 246.11 165.4" fill="#4c144d"/><path d="m244.83,167.19l-43.02,1.19c-.97.08-1.85.56-2.44,1.35-.51.69-.72,1.55-.66,2.41l.11,1.5c.13,1.75,1.6,3.14,3.34,3.16.1,0,.2,0,.3-.01h.05s42.39-1.03,42.39-1.03l1.05-.03c.5-.01.9.39.9.89v.16c0,.47-.38.85-.85.86l-43.39,1.05c-.48.04-.95,0-1.41-.09-2.3-.45-4.11-2.38-4.28-4.83l-.12-1.62c-.21-2.93,1.99-5.47,4.92-5.69l44.39-1.08c.5-.01.9.39.9.89,0,.47-.38.85-.85.86l-1.32.04Z" fill="#b24b9c"/><path d="m244.9,175.77l-42.39,1.02h-.05c-.1,0-.2.02-.3.01-1.75-.03-3.22-1.42-3.34-3.16l-.11-1.5c-.06-.86.15-1.73.66-2.41.6-.79,1.47-1.27,2.44-1.35l43.02-1.19c-.02.08-.56,2.64-.58,4.28-.02,1.64.65,4.3.65,4.3Z" fill="#ccc"/><path d="m202.43,170.87c1.24-.21,2.49-.34,3.73-.45,1.25-.11,2.49-.18,3.74-.24,1.25-.04,2.5-.08,3.75-.07,1.25,0,2.5.04,3.76.14-1.24.21-2.49.34-3.73.45-1.25.11-2.49.18-3.74.24-1.25.04-2.5.08-3.75.07-1.25,0-2.5-.04-3.76-.14Z" fill="gray"/><path d="m212.7,174.34c1.24-.21,2.49-.34,3.73-.45,1.25-.11,2.49-.18,3.74-.24,1.25-.04,2.5-.08,3.75-.07,1.25,0,2.5.04,3.76.14-1.24.21-2.49.34-3.73.45-1.25.11-2.49.18-3.74.24-1.25.04-2.5.08-3.75.07-1.25,0-2.5-.04-3.76-.14Z" fill="gray"/><path d="m214.4,180.82c1.72-2.31,1.82-8.02.17-10.38-3.18-.05-6.01.29-9.19.25,1.65,2.36,1.2,7.68-.53,10,2.01-.62,3.96-1.45,5.8-2.4,1.35,1,2.57,1.87,3.75,2.54Z" fill="#48c902"/><path d="m223.69,172.09c1.71-.21,3.42-.34,5.13-.45,1.71-.11,3.42-.18,5.14-.24,1.71-.05,3.43-.08,5.14-.07,1.71,0,3.43.04,5.15.14-1.71.21-3.42.35-5.13.45-1.71.11-3.42.18-5.14.24-1.71.04-3.43.08-5.14.07-1.71,0-3.43-.04-5.15-.14Z" fill="gray"/><path d="m184.01,86.82c-2.24.9-3.44,4.64-3.6,9.44-.16,4.8-2.89,11.1.1,12.73,2.99,1.63,8.02-2.26,11.9,1.15,3.88,3.41,9.53,3.73,9.53,3.73,0,0,3.52-2.79,2.14-10.78-1.39-7.99-6.66-5.2-9.02-8.51-2.36-3.31-3.47-10.78-11.04-7.76Z"/><path d="m185.28,102.2s7.83-1.64,7.58.92c-.11,1.09-3.49,5.99-3.57,6.39-.05.3-.12.6-.18.9-.06.3-.13.6-.21.9-.08.3-.15.6-.23.91l-.27.92c-.04.15-.09.31-.15.46l-.16.47-.16.46-.19.48-.19.47c-.03.08-.06.16-.1.24l-.12.25-.23.49-.12.24-.06.12-.1.18c-.14.25-.28.51-.45.74-.17.23-.34.46-.52.68-.19.2-.38.4-.58.59-.2.18-.4.34-.61.5-.83.61-1.67,1-2.46,1.27-.2.06-.4.14-.59.18l-.57.14c-.37.08-.75.14-1.1.18-.72.09-1.41.12-2.07.11-1.33-.02-1.5-6.23-.61-6.45.45-.11.86-.25,1.23-.39.09-.04.19-.07.27-.11.08-.04.17-.08.25-.12l.22-.12c.08-.04.13-.08.19-.12.23-.16.36-.72.36-.72l.08-.29.04-.14s.02-.11.04-.16l.07-.32.08-.32.06-.34c.04-.23.09-.45.12-.69.08-.47.24-2.1.45-4.26.22-2.31,1.9-4.09,4.57-4.68h0Z" fill="#b24b9c"/><path d="m200.1,120.8c.13-1.75,1.21-5.14,1.3-7.84.19-5.62.05-11.03-8.97-11.08-.01,0-.02,0-.03,0-.6-.1-1.04-.15-1.25-.16-.09,0-.13-.01-.13-.01-4.21-.12-7.23.32-7.6,3.38-.22,1.87-1.76,2.68-2.04,4.69-.37,2.61.37,3.05,1.04,5.23.53,1.72-4.13,13.37-4.13,13.37l22.39.43s-.91-3.84-.59-8Z" fill="#92278f"/><path d="m191.16,101.71c.21.02.65.06,1.25.16-.41-.08-.82-.13-1.25-.16Z" fill="#587cf8"/><path d="m192.21,96.82l-5.81,1,.77,2.2h0s.21.61.21.61l.2.58.04.12.7.08-.46.45s.23.91,2.06.91,2.48-.89,2.48-.89l-.19-5.06Z" fill="#fae0b2"/><path d="m192.4,95.04c.13,2.73-1.37,4.98-3.99,5.76-2,.6-3.55-.24-5.89-5.3-1.15-2.48,1.98-5.05,4.71-5.17s5.05,1.98,5.17,4.71Z" fill="#fae0b2"/><path d="m188.07,102.18s-.13-.11-.2-.32c-.08-.24-.41-.9-.41-.9,0,0,3.14-.37,3.87-2.47,0,0,.56,2.58-3.26,3.69Z" fill="#fe875e"/><path d="m196.68,102.85c6.61-.08,4.54,15.71-.33,17.8-6,2.58-9.62,1.71-9.62,1.71l-.05-3.61s7.11-1.13,7.28-3.37c.37-4.9-3.26-12.1,2.71-12.52h0Z" fill="#b24b9c"/><path d="m179.46,123.84h8.78c-.18,0-.35.06-.47.16-.12.1-.2.24-.2.4,0,.31.3.56.67.56h-18.05c-.37.01-.67-.24-.67-.55,0-.16.08-.3.2-.4.12-.1.29-.17.47-.17h9.27Z" fill="#d1d1d1"/><path d="m198.08,123.83c.31,0,.56.25.57.56,0,.16-.06.3-.17.4-.1.1-.24.17-.4.17h-9.95c-.31,0-.57-.25-.57-.56,0-.16.06-.3.17-.4.1-.1.24-.17.4-.17h9.75s.21,0,.21,0Z" fill="#9e9e9e"/><path d="m188.72,123.54c-.15.19-.38.29-.62.3h-.71c.24,0,.47-.11.62-.29.15-.19.21-.43.16-.67l-2.37-11.27c-.08-.37-.41-.63-.78-.63h.71c.37,0,.7.27.78.63l2.37,11.27c.05.24,0,.48-.16.67Z" fill="#d1d1d1"/><path d="m188.01,123.54c-.15.19-.38.29-.62.3h-17.13c-.37.01-.7-.25-.78-.62l-2.37-11.27c-.05-.24,0-.48.16-.67.15-.19.38-.29.62-.3h17.13c.37-.01.7.25.78.62l2.37,11.27c.05.24,0,.48-.16.67Z" fill="#f4f4f4"/><path d="m178.57,117.41c0,.51-.42.93-.93.93-.51,0-.93-.42-.93-.93,0-.51.42-.93.93-.93.51,0,.93.42.93.93Z" fill="#fff"/><path d="m192.48,93.88s-6.16,2.05-9.47-1.26c0,0,2.1,2.39,3.56,2.13,0,0-2.06.64-3.56-1.71,0,0-.41,2.16-1.49,2.6,0,0-.98-6.01,4.2-6.76,5.18-.75,6.51,2.62,6.76,4.99Z"/><path d="m156.49,144.2s-1.52,1.64-2.12,1.31l6.22,4.09,1.33-1.83-5.43-3.57Z" fill="#fae0b2"/><path d="m152.17,144.74l1.75.61c.37.13.77.11,1.12-.05l.83-.5,1.73,2.8,3.74.97-.37.51-1.97-.55,1.62,1.07c.27.18.35.54.17.81l-.49.75c-.19.29-.58.37-.87.18l-1.86-1.22v-.99s-1.34.11-1.34.11l-5.85-3.85c-.12-.08-.12-.24-.02-.33h0c.5-.41,1.18-.52,1.79-.31Z"/><path d="m168.92,154.37s-.37,2.21-1.05,2.26h7.45l.1-2.26h-6.5Z" fill="#fae0b2"/><path d="m165.61,157.2l1.79-.45c.38-.1.7-.33.91-.66l.42-.88,2.99,1.39,3.66-1.25-.03.63-1.95.62h1.94c.32,0,.59.26.59.59v.89c0,.35-.28.63-.63.63h-2.23l-.55-.83-1.05.83h-7c-.14,0-.24-.13-.19-.27h0c.2-.61.7-1.08,1.32-1.24Z"/><path d="m172.04,137.29l-3.63,17.08h7.36l5.96-18.05s-2.14-.97-5.15-2.25c-3.02-1.28-3.78,1.33-4.54,3.22Z" fill="#92278f"/><path d="m200.54,132.72h0c-.88,5.08-3.41,6.32-10.12,5.55-8.4-.97-13.07-3.89-13.07-3.89l-14.59,13.47-6.24-4.42s3.77-4.8,8.7-10.72c5.22-6.27,6.33-9.77,16.17-7.41,6.07,1.45,10.74,1.54,15.14,2.54h0c2.54.58,4.16.98,4.16.98.12,1.3.07,2.63-.15,3.92Z" fill="#92278f"/><path d="m200.54,132.72h0c-5.2.33-4.01-4.9-4.01-4.9h0c2.54.58,4.16.98,4.16.98.12,1.3.07,2.63-.15,3.92Z" fill="#b24b9c"/><path d="m157.01,142.73l6.46,4.65c.3.22.37.65.16.95h0c-.22.3-.65.37-.95.16l-6.46-4.65c-.3-.22-.37-.65-.16-.95h0c.22-.3.65-.37.95-.16Z" fill="#4c144d"/><rect x="167.55" y="153" width="9.33" height="1.37" rx=".68" ry=".68" fill="#4c144d"/><rect x="173.85" y="138" width="71.58" height="16.64" fill="#4c144d"/><rect x="180.91" y="138" width="4.24" height="16.64" fill="#b24b9c"/><rect x="234.13" y="138" width="4.24" height="16.64" fill="#b24b9c"/><path d="m173.85,144.97s-5.42,2.61-6.29,9.67l2.32-1.93.82,1.93s.53-6,3.14-8.32v-1.35Z" fill="#48c902"/><path d="m60.01,145.89h-3.6c0,2.42-1.72,4.43-4.01,4.89-.31.06-.64.1-.97.1h-.15s-1.23,40.48-1.23,40.48l-.03.83h9.83l.1-.83,3.51-29.52,1.9-15.94h-5.35Z" fill="#48c902"/><path d="m65.36,145.89h3.6c0,2.31,1.46,4.25,4.04,4.82.49.11,1.03.16,1.6.16l5.34,40.48.11.83h-10.02l-.18-.83-6.39-29.51,1.9-15.94Z" fill="#48c902"/><path d="m63.09,196.12s-1.33.65-.88,2.02h2.92c-.06-.54-.38-1.03-.85-1.31-.47-.27-.85-.5-1.19-.71Z" fill="#b24b9c"/><path d="m50.02,194.23v2.06c2.68-.03,2.39-2.41,2.39-2.41-1.07-.07-1.71-.16-1.83-.18-.01,0-.02,0-.02,0h-.01c-.29,0-.53.24-.53.53Z" fill="#b24b9c"/><path d="m59.94,194.14c-.22-.14-.45-.29-.71-.45,0,0-.26.04-.71.08-.76.08-2.06.17-3.64.17-.13,0-.26,0-.39,0-.81,0-1.51-.04-2.09-.07,0,0,.29,2.38-2.39,2.41v1.86h12.19c-.44-1.38.88-2.02.88-2.02-.71-.43-1.24-.77-1.96-1.22-.34-.22-.72-.46-1.19-.76Z" fill="#92278f"/><path d="m50.02,198.15v.07c0,.37.3.67.67.67h13.93c.15,0,.28-.06.37-.15.09-.1.15-.23.15-.37,0-.07,0-.14-.01-.21h-15.11Z" fill="#4c144d"/><path d="m50.56,192.18v1.51s0,0,.02,0c.21.02,2.07.22,3.91.25.13,0,.26,0,.39,0,1.58,0,2.88-.1,3.64-.17.44-.05.68-.08.68-.08v-1.51h-8.64Z" fill="#fae0b2"/><path d="m58.74,195.45s-.04,0-.06-.02c-.03-.03-.03-.08,0-.11l1.2-1.23s.08-.03.11,0c.03.03.03.08,0,.11l-1.2,1.23s-.04.02-.06.02Z" fill="#f8a492"/><path d="m59.34,195.86s-.04,0-.06-.02c-.03-.03-.03-.08,0-.11l1.2-1.23s.08-.03.11,0c.03.03.03.08,0,.11l-1.2,1.23s-.04.02-.06.02Z" fill="#f8a492"/><path d="m59.94,196.2s-.04,0-.06-.02c-.03-.03-.03-.08,0-.11l1.19-1.22s.08-.04.11-.01c.04.03.04.08.01.11h0s-1.2,1.23-1.2,1.23c-.02.02-.04.02-.06.02Z" fill="#f8a492"/><path d="m83.31,196.12s-1.33.65-.88,2.02h2.92c-.06-.54-.38-1.03-.85-1.31-.46-.27-.85-.5-1.19-.71Z" fill="#b24b9c"/><path d="m70.24,194.23v2.06c2.68-.03,2.39-2.41,2.39-2.41-1.07-.07-1.71-.16-1.83-.18-.01,0-.02,0-.02,0h-.01c-.29,0-.53.24-.53.53Z" fill="#b24b9c"/><path d="m80.16,194.14c-.22-.14-.45-.29-.71-.45,0,0-.26.04-.71.08-.76.08-2.06.17-3.64.17-.13,0-.26,0-.39,0-.81,0-1.51-.04-2.09-.07,0,0,.29,2.38-2.39,2.41v1.86h12.19c-.44-1.38.88-2.02.88-2.02-.71-.43-1.24-.77-1.96-1.22-.34-.22-.72-.46-1.19-.76Z" fill="#92278f"/><path d="m70.24,198.15v.07c0,.37.3.67.67.67h13.93c.15,0,.28-.06.37-.15.09-.1.15-.23.15-.37,0-.07,0-.14-.01-.21h-15.11Z" fill="#4c144d"/><path d="m70.78,192.18v1.51s0,0,.02,0c.21.02,2.07.22,3.91.25.13,0,.26,0,.39,0,1.58,0,2.88-.1,3.64-.17.44-.05.68-.08.68-.08v-1.51h-8.64Z" fill="#fae0b2"/><path d="m78.96,195.45s-.04,0-.06-.02c-.03-.03-.03-.08,0-.11l1.2-1.23s.08-.03.11,0c.03.03.03.08,0,.11l-1.2,1.23s-.04.02-.06.02Z" fill="#f8a492"/><path d="m79.56,195.86s-.04,0-.06-.02c-.03-.03-.03-.08,0-.11l1.2-1.23s.08-.03.11,0c.03.03.03.08,0,.11l-1.2,1.23s-.04.02-.06.02Z" fill="#f8a492"/><path d="m80.16,196.2s-.04,0-.06-.02c-.03-.03-.03-.08,0-.11l1.19-1.22s.08-.04.11-.01c.04.03.04.08.01.11h0s-1.2,1.23-1.2,1.23c-.02.02-.04.02-.06.02Z" fill="#f8a492"/><polygon points="65.36 145.89 64.75 167.78 63.46 161.84 65.36 145.89" fill="#359545"/><path d="m51.42,145.89l-.15,4.98h.15c.33,0,.66-.03.97-.09,2.29-.45,4.01-2.47,4.01-4.89h-4.98Z" fill="#359545"/><path d="m73.95,145.89h-4.98c0,2.31,1.46,4.25,4.04,4.82.49.11,1.03.16,1.6.16l-.66-4.98Z" fill="#359545"/><path d="m51.27,150.95c.32,0,.8-.02,1.14-.09,2.36-.47,4.07-2.55,4.07-4.96,0-.04-.04-.08-.08-.08s-.08.04-.08.08c0,2.33-1.66,4.36-3.94,4.81-.31.06-.78.09-1.11.09-.04,0-.08.04-.08.08s.04.08.08.08Z" fill="#48c902"/><path d="m73.04,151.03s0,0,.01,0c.04,0,.07-.05.07-.09l-.03-.24s-.05-.07-.09-.07c-.04,0-.07.05-.07.09l.03.24s.04.07.08.07Z" fill="#171c51"/><path d="m78.83,191.49l-.07-.47s.02-.08.07-.09c.04,0,.08.02.09.07l.07.47s-.02.08-.07.09c0,0,0,0-.01,0-.04,0-.07-.03-.08-.07Zm-.14-.94l-.07-.47s.02-.08.07-.09c.04,0,.08.02.09.07l.07.47s-.02.08-.07.09c0,0,0,0-.01,0-.04,0-.07-.03-.08-.07Zm-.14-.94l-.07-.47s.02-.08.07-.09c.04,0,.08.02.09.07l.07.47s-.02.08-.07.09c0,0,0,0-.01,0-.04,0-.07-.03-.08-.07Zm-.14-.94l-.07-.47s.02-.08.07-.09c.04,0,.08.02.09.07l.07.47s-.02.08-.07.09c0,0,0,0-.01,0-.04,0-.07-.03-.08-.07Zm-.14-.94l-.07-.47s.02-.08.07-.09c.04,0,.08.02.09.07l.07.47s-.02.08-.07.09c0,0,0,0-.01,0-.04,0-.07-.03-.08-.07Zm-.14-.94l-.07-.47s.02-.08.07-.09c.04,0,.08.02.09.07l.07.47s-.02.08-.07.09c0,0,0,0-.01,0-.04,0-.07-.03-.08-.07Zm-.14-.94l-.07-.47s.02-.08.07-.09c.04,0,.08.02.09.07l.07.47s-.02.08-.07.09c0,0,0,0-.01,0-.04,0-.07-.03-.08-.07Zm-.14-.94l-.07-.47s.02-.08.07-.09c.04,0,.08.02.09.07l.07.47s-.02.08-.07.09c0,0,0,0-.01,0-.04,0-.07-.03-.08-.07Zm-.14-.94l-.07-.47s.02-.08.07-.09c.04,0,.08.02.09.07l.07.47s-.02.08-.07.09c0,0,0,0-.01,0-.04,0-.07-.03-.08-.07Zm-.14-.94l-.07-.47s.02-.08.07-.09c.04,0,.08.02.09.07l.07.47s-.02.08-.07.09c0,0,0,0-.01,0-.04,0-.07-.03-.08-.07Zm-.14-.94l-.07-.47s.02-.08.07-.09c.04,0,.08.02.09.07l.07.47s-.02.08-.07.09c0,0,0,0-.01,0-.04,0-.07-.03-.08-.07Zm-.14-.94l-.07-.47s.02-.08.07-.09c.04,0,.08.02.09.07l.07.47s-.02.08-.07.09c0,0,0,0-.01,0-.04,0-.07-.03-.08-.07Zm-.14-.94l-.07-.47s.02-.08.07-.09c.04,0,.08.02.09.07l.07.47s-.02.08-.07.09c0,0,0,0-.01,0-.04,0-.07-.03-.08-.07Zm-.14-.94l-.07-.47s.02-.08.07-.09c.04,0,.08.02.09.07l.07.47s-.02.08-.07.09c0,0,0,0-.01,0-.04,0-.07-.03-.08-.07Zm-.14-.94l-.07-.47s.02-.08.07-.09c.04,0,.08.02.09.07l.07.47s-.02.08-.07.09c0,0,0,0-.01,0-.04,0-.07-.03-.08-.07Zm-.14-.94l-.07-.47s.02-.08.07-.09c.04,0,.08.02.09.07l.07.47s-.02.08-.07.09c0,0,0,0-.01,0-.04,0-.07-.03-.08-.07Zm-.14-.94l-.07-.47s.02-.08.07-.09c.04,0,.08.02.09.07l.07.47s-.02.08-.07.09c0,0,0,0-.01,0-.04,0-.07-.03-.08-.07Zm-.14-.94l-.07-.47s.02-.08.07-.09c.04,0,.08.02.09.07l.07.47s-.02.08-.07.09c0,0,0,0-.01,0-.04,0-.07-.03-.08-.07Zm-.14-.94l-.07-.47s.02-.08.07-.09c.04,0,.08.02.09.07l.07.47s-.02.08-.07.09c0,0,0,0-.01,0-.04,0-.07-.03-.08-.07Zm-.14-.94l-.07-.47s.02-.08.07-.09c.04,0,.08.02.09.07l.07.47s-.02.08-.07.09c0,0,0,0-.01,0-.04,0-.07-.03-.08-.07Zm-.14-.94l-.07-.47s.02-.08.07-.09c.04,0,.08.02.09.07l.07.47s-.02.08-.07.09c0,0,0,0-.01,0-.04,0-.07-.03-.08-.07Zm-.14-.94l-.07-.47s.02-.08.07-.09c.04,0,.08.02.09.07l.07.47s-.02.08-.07.09c0,0,0,0-.01,0-.04,0-.07-.03-.08-.07Zm-.14-.94l-.07-.47s.02-.08.07-.09c.04,0,.08.02.09.07l.07.47s-.02.08-.07.09c0,0,0,0-.01,0-.04,0-.07-.03-.08-.07Zm-.14-.94l-.07-.47s.02-.08.07-.09c.04,0,.08.02.09.07l.07.47s-.02.08-.07.09c0,0,0,0-.01,0-.04,0-.07-.03-.08-.07Zm-.14-.94l-.07-.47s.02-.08.07-.09c.04,0,.08.02.09.07l.07.47s-.02.08-.07.09c0,0,0,0-.01,0-.04,0-.07-.03-.08-.07Zm-.14-.94l-.07-.47s.02-.08.07-.09c.04,0,.08.02.09.07l.07.47s-.02.08-.07.09c0,0,0,0-.01,0-.04,0-.07-.03-.08-.07Zm-.14-.94l-.07-.47s.02-.08.07-.09c.04,0,.08.02.09.07l.07.47s-.02.08-.07.09c0,0,0,0-.01,0-.04,0-.07-.03-.08-.07Zm-.14-.94l-.07-.47s.02-.08.07-.09c.04,0,.08.02.09.07l.07.47s-.02.08-.07.09c0,0,0,0-.01,0-.04,0-.07-.03-.08-.07Zm-.14-.94l-.07-.47s.02-.08.07-.09c.04,0,.08.02.09.07l.07.47s-.02.08-.07.09c0,0,0,0-.01,0-.04,0-.07-.03-.08-.07Zm-.14-.94l-.07-.47s.02-.08.07-.09c.04,0,.08.02.09.07l.07.47s-.02.08-.07.09c0,0,0,0-.01,0-.04,0-.07-.03-.08-.07Zm-.14-.94l-.07-.47s.02-.08.07-.09c.04,0,.08.02.09.07l.07.47s-.02.08-.07.09c0,0,0,0-.01,0-.04,0-.07-.03-.08-.07Zm-.14-.94l-.07-.47s.02-.08.07-.09c.04,0,.08.02.09.07l.07.47s-.02.08-.07.09c0,0,0,0-.01,0-.04,0-.07-.03-.08-.07Zm-.14-.94l-.07-.47s.02-.08.07-.09c.04,0,.08.02.09.07l.07.47s-.02.08-.07.09c0,0,0,0-.01,0-.04,0-.07-.03-.08-.07Zm-.14-.94l-.07-.47s.02-.08.07-.09c.04,0,.08.02.09.07l.07.47s-.02.08-.07.09c0,0,0,0-.01,0-.04,0-.07-.03-.08-.07Zm-.14-.94l-.07-.47s.02-.08.07-.09c.04,0,.08.02.09.07l.07.47s-.02.08-.07.09c0,0,0,0-.01,0-.04,0-.07-.03-.08-.07Zm-.14-.94l-.07-.47s.02-.08.07-.09c.04,0,.08.02.09.07l.07.47s-.02.08-.07.09c0,0,0,0-.01,0-.04,0-.07-.03-.08-.07Zm-.14-.94l-.07-.47s.02-.08.07-.09c.04,0,.08.02.09.07l.07.47s-.02.08-.07.09c0,0,0,0-.01,0-.04,0-.07-.03-.08-.07Zm-.14-.94l-.07-.47s.02-.08.07-.09c.04,0,.08.02.09.07l.07.47s-.02.08-.07.09c0,0,0,0-.01,0-.04,0-.07-.03-.08-.07Zm-.14-.94l-.07-.47s.02-.08.07-.09c.04,0,.08.02.09.07l.07.47s-.02.08-.07.09c0,0,0,0-.01,0-.04,0-.07-.03-.08-.07Zm-.14-.94l-.07-.47s.02-.08.07-.09c.04,0,.08.02.09.07l.07.47s-.02.08-.07.09c0,0,0,0-.01,0-.04,0-.07-.03-.08-.07Zm-.14-.94l-.07-.47s.02-.08.07-.09c.04,0,.08.02.09.07l.07.47s-.02.08-.07.09c0,0,0,0-.01,0-.04,0-.07-.03-.08-.07Zm-.14-.94l-.07-.47s.02-.08.07-.09c.04,0,.08.02.09.07l.07.47s-.02.08-.07.09c0,0,0,0-.01,0-.04,0-.07-.03-.08-.07Zm-.14-.94l-.07-.47s.02-.08.07-.09c.04,0,.08.02.09.07l.07.47s-.02.08-.07.09c0,0,0,0-.01,0-.04,0-.07-.03-.08-.07Z" fill="#171c51"/><path d="m79.01,192.26s0,0,.01,0c.04,0,.07-.05.07-.09l-.03-.24s-.05-.07-.09-.07c-.04,0-.07.05-.07.09l.03.24s.04.07.08.07Z" fill="#171c51"/><path d="m69.77,191.35s.04-.08.08-.08h.48s.08.04.08.08-.04.08-.08.08h-.48s-.08-.04-.08-.08Zm.96,0s.04-.08.08-.08h.48s.08.04.08.08-.04.08-.08.08h-.48s-.08-.04-.08-.08Zm.96,0s.04-.08.08-.08h.48s.08.04.08.08-.04.08-.08.08h-.48s-.08-.04-.08-.08Zm.96,0s.04-.08.08-.08h.48s.08.04.08.08-.04.08-.08.08h-.48s-.08-.04-.08-.08Zm.96,0s.04-.08.08-.08h.48s.08.04.08.08-.04.08-.08.08h-.48s-.08-.04-.08-.08Zm.96,0s.04-.08.08-.08h.48s.08.04.08.08-.04.08-.08.08h-.48s-.08-.04-.08-.08Zm.96,0s.04-.08.08-.08h.48s.08.04.08.08-.04.08-.08.08h-.48s-.08-.04-.08-.08Zm.96,0s.04-.08.08-.08h.48s.08.04.08.08-.04.08-.08.08h-.48s-.08-.04-.08-.08Zm.96,0s.04-.08.08-.08h.48s.08.04.08.08-.04.08-.08.08h-.48s-.08-.04-.08-.08Zm.96,0s.04-.08.08-.08h.48s.08.04.08.08-.04.08-.08.08h-.48s-.08-.04-.08-.08Zm.96,0s.04-.08.08-.08h.48s.08.04.08.08-.04.08-.08.08h-.48s-.08-.04-.08-.08Z" fill="#171c51"/><path d="m51.21,192.26s-.08-.04-.08-.08v-.19s.05-.08.09-.08c.04,0,.08.04.08.08v.19s-.04.08-.09.08h0Zm.02-.67s-.08-.04-.08-.08v-.48s.05-.08.1-.08c.04,0,.08.04.08.08v.48s-.05.08-.09.08h0Zm.03-.96s-.08-.04-.08-.08v-.48s.05-.08.1-.08c.04,0,.08.04.08.08v.48s-.05.08-.09.08h0Zm.03-.96s-.08-.04-.08-.08v-.48s.05-.08.1-.08c.04,0,.08.04.08.08v.48s-.05.08-.09.08h0Zm.03-.96s-.08-.04-.08-.08v-.48s.05-.08.1-.08c.04,0,.08.04.08.08v.48s-.05.08-.09.08h0Zm.03-.96s-.08-.04-.08-.08v-.48s.05-.08.1-.08c.04,0,.08.04.08.08v.48s-.05.08-.09.08h0Zm.03-.96s-.08-.04-.08-.08v-.48s.05-.08.1-.08c.04,0,.08.04.08.08v.48s-.05.08-.09.08h0Zm.03-.96s-.08-.04-.08-.08v-.48s.05-.08.1-.08c.04,0,.08.04.08.08v.48s-.05.08-.09.08h0Zm.03-.96s-.08-.04-.08-.08v-.48s.05-.08.1-.08c.04,0,.08.04.08.08v.48s-.05.08-.09.08h0Zm.03-.96s-.08-.04-.08-.08v-.48s.05-.08.1-.08c.04,0,.08.04.08.08v.48s-.05.08-.09.08h0Zm.03-.96s-.08-.04-.08-.08v-.48s.05-.08.1-.08c.04,0,.08.04.08.08v.48s-.05.08-.09.08h0Zm.03-.96s-.08-.04-.08-.08v-.48s.05-.08.1-.08c.04,0,.08.04.08.08v.48s-.05.08-.09.08h0Zm.03-.96s-.08-.04-.08-.08v-.48s.05-.08.1-.08c.04,0,.08.04.08.08v.48s-.05.08-.09.08h0Zm.03-.96s-.08-.04-.08-.08v-.48s.05-.08.1-.08c.04,0,.08.04.08.08v.48s-.05.08-.09.08h0Zm.03-.96s-.08-.04-.08-.08v-.48s.05-.08.1-.08c.04,0,.08.04.08.08v.48s-.05.08-.09.08h0Zm.03-.96s-.08-.04-.08-.08v-.48s.05-.08.1-.08c.04,0,.08.04.08.08v.48s-.05.08-.09.08h0Zm.03-.96s-.08-.04-.08-.08v-.48s.05-.08.1-.08c.04,0,.08.04.08.08v.48s-.05.08-.09.08h0Zm.03-.96s-.08-.04-.08-.08v-.48s.05-.08.1-.08c.04,0,.08.04.08.08v.48s-.05.08-.09.08h0Zm.03-.96s-.08-.04-.08-.08v-.48s.05-.08.1-.08c.04,0,.08.04.08.08v.48s-.05.08-.09.08h0Zm.03-.96s-.08-.04-.08-.08v-.48s.05-.08.1-.08c.04,0,.08.04.08.08v.48s-.05.08-.09.08h0Zm.03-.96s-.08-.04-.08-.08v-.48s.05-.08.1-.08c.04,0,.08.04.08.08v.48s-.05.08-.09.08h0Zm.03-.96s-.08-.04-.08-.08v-.48s.05-.08.1-.08c.04,0,.08.04.08.08v.48s-.05.08-.09.08h0Zm.03-.96s-.08-.04-.08-.08v-.48s.05-.08.1-.08c.04,0,.08.04.08.08v.48s-.05.08-.09.08h0Zm.03-.96s-.08-.04-.08-.08v-.48s.05-.08.1-.08c.04,0,.08.04.08.08v.48s-.05.08-.09.08h0Zm.03-.96s-.08-.04-.08-.08v-.48s.05-.08.1-.08c.04,0,.08.04.08.08v.48s-.05.08-.09.08h0Zm.03-.96s-.08-.04-.08-.08v-.48s.05-.08.1-.08c.04,0,.08.04.08.08v.48s-.05.08-.09.08h0Zm.03-.96s-.08-.04-.08-.08v-.48s.05-.08.1-.08c.04,0,.08.04.08.08v.48s-.05.08-.09.08h0Zm.03-.96s-.08-.04-.08-.08v-.48s.05-.08.1-.08c.04,0,.08.04.08.08v.48s-.05.08-.09.08h0Zm.03-.96s-.08-.04-.08-.08v-.48s.05-.08.1-.08c.04,0,.08.04.08.08v.48s-.05.08-.09.08h0Zm.03-.96s-.08-.04-.08-.08v-.48s.05-.08.1-.08c.04,0,.08.04.08.08v.48s-.05.08-.09.08h0Zm.03-.96s-.08-.04-.08-.08v-.48s.05-.08.1-.08c.04,0,.08.04.08.08v.48s-.05.08-.09.08h0Zm.03-.96s-.08-.04-.08-.08v-.48s.05-.08.1-.08c.04,0,.08.04.08.08v.48s-.05.08-.09.08h0Zm.03-.96s-.08-.04-.08-.08v-.48s.05-.08.1-.08c.04,0,.08.04.08.08v.48s-.05.08-.09.08h0Zm.03-.96s-.08-.04-.08-.08v-.48s.05-.08.1-.08c.04,0,.08.04.08.08v.48s-.05.08-.09.08h0Zm.03-.96s-.08-.04-.08-.08v-.48s.05-.08.1-.08c.04,0,.08.04.08.08v.48s-.05.08-.09.08h0Zm.03-.96s-.08-.04-.08-.08v-.48s.05-.08.1-.08c.04,0,.08.04.08.08v.48s-.05.08-.09.08h0Zm.03-.96s-.08-.04-.08-.08v-.48s.05-.08.1-.08c.04,0,.08.04.08.08v.48s-.05.08-.09.08h0Zm.03-.96s-.08-.04-.08-.08v-.48s.05-.08.1-.08c.04,0,.08.04.08.08v.48s-.05.08-.09.08h0Zm.03-.96s-.08-.04-.08-.08v-.48s.05-.08.1-.08c.04,0,.08.04.08.08v.48s-.05.08-.09.08h0Zm.03-.96s-.08-.04-.08-.08v-.48s.05-.08.1-.08c.04,0,.08.04.08.08v.48s-.05.08-.09.08h0Zm.03-.96s-.08-.04-.08-.08v-.48s.05-.08.1-.08c.04,0,.08.04.08.08v.48s-.05.08-.09.08h0Zm.03-.96s-.08-.04-.08-.08v-.48s.05-.08.1-.08c.04,0,.08.04.08.08v.48s-.05.08-.09.08h0Zm.03-.96s-.08-.04-.08-.08v-.48s.05-.08.1-.08c.04,0,.08.04.08.08v.48s-.05.08-.09.08h0Zm.03-.96s-.08-.04-.08-.08v-.48s.05-.08.1-.08c.04,0,.08.04.08.08v.48s-.05.08-.09.08h0Z" fill="#171c51"/><path d="m49.97,191.35s.04-.08.08-.08h.31s.08.04.08.08-.04.08-.08.08h-.31s-.08-.04-.08-.08Zm.79,0s.04-.08.08-.08h.48s.08.04.08.08-.04.08-.08.08h-.48s-.08-.04-.08-.08Zm.96,0s.04-.08.08-.08h.48s.08.04.08.08-.04.08-.08.08h-.48s-.08-.04-.08-.08Zm.96,0s.04-.08.08-.08h.48s.08.04.08.08-.04.08-.08.08h-.48s-.08-.04-.08-.08Zm.96,0s.04-.08.08-.08h.48s.08.04.08.08-.04.08-.08.08h-.48s-.08-.04-.08-.08Zm.96,0s.04-.08.08-.08h.48s.08.04.08.08-.04.08-.08.08h-.48s-.08-.04-.08-.08Zm.96,0s.04-.08.08-.08h.48s.08.04.08.08-.04.08-.08.08h-.48s-.08-.04-.08-.08Zm.96,0s.04-.08.08-.08h.48s.08.04.08.08-.04.08-.08.08h-.48s-.08-.04-.08-.08Zm.96,0s.04-.08.08-.08h.48s.08.04.08.08-.04.08-.08.08h-.48s-.08-.04-.08-.08Zm.96,0s.04-.08.08-.08h.48s.08.04.08.08-.04.08-.08.08h-.48s-.08-.04-.08-.08Zm.96,0s.04-.08.08-.08h.48s.08.04.08.08-.04.08-.08.08h-.48s-.08-.04-.08-.08Z" fill="#171c51"/><polygon points="51.42 145.89 74.26 148.25 73.95 145.89 51.42 145.89" fill="#359545"/><path d="m65.36,118.36s7.79,1.12,11.58,5.52c3.79,4.4-1.31,4.32-2.72,4.16-1.41-.16-8.87-9.67-8.87-9.67Z" fill="#50bfa5"/><polygon points="58.09 113.53 58.78 119.05 63.77 118.28 63.81 118.14 63.99 117.45 64.17 116.73 64.18 116.73 64.85 114.13 58.09 113.53" fill="#fae0b2"/><path d="m57.7,111.51c.11,3.14,2.09,6.05,5.23,5.94,3.14-.11,5.58-.1,6.16-6.35.29-3.13-2.75-5.6-5.9-5.49-3.14.11-5.6,2.75-5.49,5.9Z" fill="#fae0b2"/><path d="m63.61,108.48c-.97-.46-2.08-.54-3.1-.2-.16.05-.3.11-.41.16-.6.29-.51,1.97-.51,1.97,0,0-.8-.63-1.03.46-.23,1.09.79,1.26.79,1.26l-.67,2.85s-1.07-1.74-1.8-4.76c-.71-2.94,1.7-7.57,4.57-6.68,0,0,2.39-2.03,5.27-1.15,3.15.96,5.32,2.96,6.64,1.44,0,0-.89,7.48-6.95,5.64l-2.8-.99Z"/><path d="m63.64,118.92l.35-1.47s-3.63.3-4.93-1.91c0,0,.02,2.99,4.58,3.38Z" fill="#fe875e"/><path d="m50.95,137.08l-.4-7.09c-.32-5.68-.02-11.63,9.11-11.62.01,0,.02,0,.04,0,.61-.1,1.05-.14,1.26-.16.09,0,.14,0,.14,0,11.77,0,11.45,4.38,11.8,10.55l.37,6.64,1.19,9.77c.08.69-.46,1.31-1.15,1.31l-21.59.1c-.67,0-1.21-.56-1.17-1.23l.41-8.26Z" fill="#48c902"/><path d="m60.97,118.2c-.21.02-.66.06-1.26.16.41-.08.83-.13,1.26-.16Z" fill="#587cf8"/><path d="m70.33,133.88h0c-.3-.3-1.07.15-.77-.15l1.91-2.12c.3-.3.79-.31,1.09-.01h0c.3.3.31.79.01,1.09l-1.15,1.19c-.3.3-.79.31-1.09.01Z" fill="#fe875e"/><path d="m73.09,137.43h-.46c-.57-.03-1.01-.51-1-1.08l.46-13.97c.02-.57.49-1.01,1.07-1l.45.02c-.56-.01-1.03.43-1.05.99l-.46,13.97c-.02.57.43,1.04,1,1.07Z" fill="#7181aa"/><path d="m82.25,137.73l-.45-.02-8.72-.29c-.57-.02-1.01-.5-1-1.07l.46-13.97c.02-.56.49-1.01,1.05-.99,0,0,.01,0,.02,0l8.7.29h.46c.57.03,1.01.51,1,1.08l-.46,13.97c-.02.57-.5,1.01-1.07,1Z" fill="#96a4cd"/><path d="m76.96,129.39c-.1.54.26,1.06.79,1.16.54.1,1.06-.26,1.16-.79s-.26-1.06-.79-1.16c-.54-.1-1.06.26-1.16.79Z" fill="#fff"/><path d="m82.04,122.97c-.04.2.1.4.3.44.2.04.4-.1.44-.3.04-.2-.1-.4-.3-.44-.2-.04-.4.1-.44.3Z" fill="#fff"/><rect x="69.01" y="133.07" width="5.39" height="4.46" rx="2.23" ry="2.23" transform="translate(-16.54 10.16) rotate(-7.27)" fill="#fae0b2"/><rect x="72.39" y="132.05" width="1.54" height="3.2" rx=".77" ry=".77" transform="translate(196.49 44.17) rotate(82.73)" fill="#fae0b2"/><rect x="73.55" y="132.87" width="1.54" height="3.2" rx=".77" ry=".77" transform="translate(198.31 43.73) rotate(82.73)" fill="#fae0b2"/><rect x="73.28" y="133.87" width="1.54" height="3.2" rx=".77" ry=".77" transform="translate(199.07 44.88) rotate(82.73)" fill="#fae0b2"/><rect x="72.47" y="134.95" width="1.54" height="3.2" rx=".77" ry=".77" transform="translate(199.42 46.62) rotate(82.73)" fill="#fae0b2"/><rect x="72.26" y="133.78" width="2.51" height=".16" transform="translate(-22.58 15.16) rotate(-10.22)" fill="#fe875e"/><rect x="73.12" y="135.15" width="2.45" height=".16" transform="translate(-22.81 15.33) rotate(-10.22)" fill="#fe875e"/><rect x="72.63" y="136.27" width="2.11" height=".16" transform="translate(-23.02 15.23) rotate(-10.22)" fill="#fe875e"/><path d="m55.11,119.81c-2.6.05-4.62,2.3-4.38,4.89.1,1.11.2,2.08.28,2.49.05.3.12.61.18.91.06.3.13.61.2.92.07.31.14.61.23.92l.26.93c.04.15.09.31.15.47l.16.47.16.47.19.48.19.48c.03.08.06.16.1.24l.12.25.23.5.12.25.06.12.1.19c.14.26.28.51.45.75.17.24.34.47.53.69.19.21.38.41.58.61.2.18.41.35.62.52.84.63,1.69,1.03,2.49,1.3.2.06.4.14.6.19l.58.15c.38.08.75.15,1.12.19.73.09,1.43.13,2.1.13,1.35,0,2.62-.17,3.85-.4.61-.12,1.22-.26,1.81-.42.3-.08.59-.17.89-.26l.45-.15.47-.16-.79-4.33s-.11-.01-.17-.02h-.19s-.39-.04-.39-.04c-.26-.02-.53-.04-.79-.06-.53-.05-1.05-.09-1.56-.16-1.02-.12-2.02-.3-2.92-.53-.45-.11-.87-.25-1.24-.4-.09-.04-.19-.07-.27-.11-.08-.04-.17-.08-.25-.12l-.22-.12c-.08-.04-.13-.09-.19-.12-.24-.17-.36-.73-.36-.73l-.08-.29-.04-.14c-.01-.05-.02-.11-.03-.16l-.07-.32-.07-.32-.06-.35c-.04-.23-.09-.45-.12-.7-.08-.48-.29-2.81-.49-5-.21-2.34-2.19-4.13-4.54-4.09h0Z" fill="#359545"/><rect x="82.83" y="130.77" width="1.54" height="3.2" rx=".77" ry=".77" transform="translate(-57.13 200.98) rotate(-83.72)" fill="#fae0b2"/><rect x="82.66" y="129.18" width="1.54" height="3.67" rx=".77" ry=".77" transform="translate(-55.93 199.61) rotate(-83.72)" fill="#fae0b2"/><rect x="82.97" y="128.26" width="1.54" height="3.2" rx=".77" ry=".77" transform="translate(-54.51 198.88) rotate(-83.72)" fill="#fae0b2"/><rect x="82.98" y="127.56" width="1.54" height="2.27" rx=".77" ry=".77" transform="translate(-53.34 197.86) rotate(-83.72)" fill="#fae0b2"/><rect x="83.49" y="130.46" width=".16" height="2.56" transform="translate(-52.92 207.31) rotate(-86.58)" fill="#fe875e"/><rect x="83.53" y="128.9" width=".16" height="2.76" transform="translate(-54.42 200.36) rotate(-84.23)" fill="#fe875e"/><rect x="83.6" y="128.13" width=".16" height="1.94" transform="translate(-51.79 202.04) rotate(-85.35)" fill="#fe875e"/></g></g></svg>