<?xml version="1.0" encoding="UTF-8"?><svg id="a" xmlns="http://www.w3.org/2000/svg" xmlns:xlink="http://www.w3.org/1999/xlink" viewBox="0 0 300.79 206"><defs><filter id="c" x="59.28" y="51.81" width="199.19" height="130.28" color-interpolation-filters="sRGB" filterUnits="userSpaceOnUse"><feFlood flood-color="#fff" result="bg"/><feBlend in="SourceGraphic" in2="bg"/></filter><filter id="e" x="59.28" y="-8248" width="199.19" height="32766" color-interpolation-filters="sRGB" filterUnits="userSpaceOnUse"><feFlood flood-color="#fff" result="bg"/><feBlend in="SourceGraphic" in2="bg"/></filter><mask id="d" x="59.28" y="-8248" width="199.19" height="32766" maskUnits="userSpaceOnUse"/><linearGradient id="f" x1="158.87" y1="182.08" x2="158.87" y2="51.81" gradientUnits="userSpaceOnUse"><stop offset="0" stop-color="#fff"/><stop offset="1" stop-color="#000"/></linearGradient><mask id="b" x="59.28" y="51.81" width="199.19" height="130.28" maskUnits="userSpaceOnUse"><g filter="url(#c)"><g fill="none" mask="url(#d)"><path d="m258.46,51.81l-35.32,130.28h-1.5c-2.18-.28-7.42-1.52-19.92-6.09-19.95-7.31-32.31-6.18-44.53,0-12.23-6.18-24.59-7.31-44.53,0-12.49,4.58-17.74,5.81-19.91,6.09h-1.5L59.28,51.81h199.19Z" fill="url(#f)" mix-blend-mode="multiply"/></g></g></mask><linearGradient id="g" x1="158.87" y1="182.08" x2="158.87" y2="51.81" gradientUnits="userSpaceOnUse"><stop offset="0" stop-color="#fff"/><stop offset="1" stop-color="#fff"/></linearGradient></defs><path d="m75.83,201.1s-27.26-93.55-14.78-143.64C70.94,17.72,208.95-20.84,241.2,12.94c41.74,43.72-.99,171.1-2.53,188.16H75.83Z" fill="#4c144d"/><path d="m79.36,104.34c-1.74,0-3.16-1.42-3.16-3.16s1.42-3.16,3.16-3.16,3.16,1.42,3.16,3.16-1.42,3.16-3.16,3.16Zm0-4.98c-1,0-1.82.82-1.82,1.82s.82,1.82,1.82,1.82,1.82-.82,1.82-1.82-.82-1.82-1.82-1.82Z" fill="#48c902"/><path d="m156.83,27.31c-1.74,0-3.16-1.42-3.16-3.16s1.42-3.16,3.16-3.16,3.16,1.42,3.16,3.16-1.42,3.16-3.16,3.16Zm0-4.98c-1,0-1.82.82-1.82,1.82s.82,1.82,1.82,1.82,1.82-.82,1.82-1.82-.82-1.82-1.82-1.82Z" fill="#48c902"/><path d="m179.41,82.37c-2.2,0-4-1.79-4-4s1.79-4,4-4,4,1.79,4,4-1.79,4-4,4Zm0-6.65c-1.46,0-2.66,1.19-2.66,2.66s1.19,2.66,2.66,2.66,2.66-1.19,2.66-2.66-1.19-2.66-2.66-2.66Z" fill="#48c902"/><path d="m258.99,90.6c-2.2,0-4-1.79-4-4s1.79-4,4-4,4,1.79,4,4-1.79,4-4,4Zm0-6.65c-1.46,0-2.66,1.19-2.66,2.66s1.19,2.66,2.66,2.66,2.66-1.19,2.66-2.66-1.19-2.66-2.66-2.66Z" fill="#48c902"/><path d="m258.24,202l-.89-1c.26-.23.41-.7.39-1.23-.02-.53-.22-1.02-.5-1.24-2.1-1.6-6.96-.26-10.51.71-3.11.86-4.99,1.37-5.73.43-.55-.71,0-1.68.17-2,1.21-2.16,5.38-3.27,10.2-4.55,6.43-1.71,13.72-3.65,13.54-8.24-.04-1.03-.36-1.79-.99-2.32-1.73-1.48-5.54-1.02-8.32-.69-2.49.3-4,.48-4.47-.48-.4-.81.35-1.74,1.21-2.64,2.01-2.07,4.08-6.15,5.27-10.39,1.3-4.62,1.37-8.54.19-10.75-.9-1.7-2.49-2.32-4.86-1.89-5.6,1-6.6,7.45-7.49,13.14-.38,2.43-.74,4.72-1.43,6.37-.85,2.02-2.2,2.91-4.01,2.67-4-.55-4.81-4.31-5.47-7.34-.4-1.84-.77-3.57-1.72-4.06-.53-.27-1.33-.18-2.38.27-3.21,1.39-2.35,7.05-1.51,12.52.42,2.78.86,5.64.75,7.95-.14,2.8-1.09,4.49-2.9,5.18-3.86,1.47-5.39-1.59-6.51-3.83-.66-1.31-1.28-2.55-2.12-2.7-.68-.12-1.64.41-2.86,1.56-3.26,3.08-1.85,9.32.36,13.74l-1.2.6c-.57-1.14-1.94-4.17-2.33-7.49-.39-3.41.36-6.04,2.24-7.82,1.59-1.5,2.87-2.11,4.02-1.91,1.51.27,2.31,1.87,3.09,3.42,1.31,2.62,2.29,4.14,4.84,3.17,2.92-1.11,2.1-6.48,1.31-11.68-.91-5.98-1.86-12.16,2.31-13.96,1.46-.63,2.61-.71,3.53-.23,1.51.78,1.95,2.81,2.42,4.97.63,2.89,1.27,5.88,4.34,6.3,2.52.34,3.14-2.78,3.94-7.91.91-5.83,2.04-13.09,8.58-14.26,3.7-.66,5.46,1.04,6.28,2.58,1.34,2.51,1.31,6.8-.08,11.75-1.27,4.5-3.41,8.7-5.6,10.96-.54.55-.77.88-.87,1.06.56.08,1.95-.08,3.01-.21,3.19-.38,7.17-.86,9.35,1,.91.78,1.4,1.88,1.45,3.29.22,5.66-7.62,7.75-14.54,9.59-4.15,1.11-8.44,2.25-9.37,3.91-.14.25-.2.41-.23.51.64.11,2.71-.46,4.25-.88,4.03-1.11,9.05-2.49,11.68-.49.61.46.99,1.3,1.03,2.25.04.93-.28,1.78-.83,2.28Z" fill="#48c902"/><path d="m235.74,201.89l-1.1-.76c5.62-8.11,13.14-21.19,17.05-37.4l1.3.31c-3.97,16.41-11.57,29.64-17.25,37.84Z" fill="#48c902"/><rect x="242.19" y="187.28" width="15.64" height="1.34" transform="translate(-35.57 60.38) rotate(-12.86)" fill="#48c902"/><rect x="235.81" y="180.37" width="1.34" height="16.77" transform="translate(-33.18 51.51) rotate(-11.62)" fill="#48c902"/><rect x="221.58" y="196.51" width="1.34" height="5.46" transform="translate(-73.37 158.04) rotate(-33.94)" fill="#48c902"/><path d="m71.07,201.77c-6.57,0-12.14-2.47-14.9-6.6-1.63-2.43-2.01-5.17-1.04-7.5.77-1.86,4.64-1.11,10.88.28,2.22.49,4.51,1,6.29,1.23,2.55.33,2.94-.09,2.97-.13.03-.04.05-.27-.24-.79-1.2-2.14-6.36-3.52-11.83-4.97-8.59-2.29-18.33-4.88-18.06-11.82.07-1.71.66-3.05,1.76-3.99,2.67-2.28,7.81-1.66,11.57-1.21,1.48.18,3.47.42,4.02.22-.06-.17-.29-.62-1.21-1.56-2.72-2.8-5.38-8.03-6.96-13.63-1.73-6.15-1.77-11.46-.12-14.57,1-1.88,3.15-3.95,7.68-3.14,3.62.65,6.22,2.85,7.94,6.75,1.46,3.29,2.09,7.36,2.65,10.95,1.02,6.52,1.81,10.49,5.12,10.04,3.95-.54,4.77-4.34,5.57-8.01.58-2.66,1.12-5.17,2.94-6.1,1.1-.57,2.5-.47,4.27.3,5.09,2.2,3.92,9.87,2.78,17.28-.52,3.4-1.06,6.91-.92,9.64.14,2.87.99,4.51,2.66,5.15,3.62,1.38,5.41-.99,7.14-3.29,1.15-1.53,2.23-2.98,3.8-2.93,1.34.04,2.66,1.14,4.28,3.57,1.6,2.4,2.23,5.21,1.87,8.36-.28,2.47-1.18,5.15-2.66,7.96-2.5,4.74-5.77,8.19-5.9,8.33l-.97-.93s3.29-3.48,5.7-8.06c3.16-6.01,3.45-11.03.85-14.92-1.3-1.95-2.38-2.95-3.2-2.98-.88-.02-1.72,1.1-2.69,2.39-1.74,2.31-4.12,5.48-8.68,3.74-2.2-.84-3.35-2.91-3.52-6.33-.14-2.87.4-6.45.93-9.91,1.06-6.91,2.15-14.05-1.99-15.84-1.38-.6-2.4-.71-3.12-.34-1.25.64-1.73,2.85-2.24,5.19-.81,3.74-1.82,8.39-6.7,9.05-2.21.3-3.79-.76-4.84-3.23-.87-2.04-1.31-4.9-1.78-7.93-1.12-7.17-2.39-15.31-9.5-16.58-3-.54-5.11.29-6.26,2.45-3.18,5.98,1.37,20.98,6.86,26.64,1.04,1.07,1.94,2.19,1.48,3.11-.54,1.09-2.38.87-5.42.5-3.51-.42-8.31-1-10.54.9-.82.7-1.24,1.69-1.29,3.02-.23,5.87,8.96,8.32,17.07,10.48,6,1.6,11.17,2.98,12.65,5.61.52.92.57,1.68.14,2.24-1.08,1.45-4.74.72-10.63-.59-2.32-.52-4.72-1.05-6.55-1.26-2.57-.3-2.8.18-2.8.19-.79,1.91-.46,4.18.92,6.24,2.51,3.76,7.66,6,13.78,6v1.34Z" fill="#48c902"/><path d="m90.02,201.54c-.05-.06-5.14-5.84-11.14-15.59-3.52-5.73-6.66-11.69-9.34-17.72-3.35-7.54-5.98-15.22-7.81-22.81l1.3-.31c4.11,17.01,11.5,31.21,16.98,40.12,5.94,9.67,10.97,15.38,11.02,15.44l-1,.89Z" fill="#48c902"/><rect x="64.62" y="165.57" width="1.34" height="19.57" transform="translate(-120.2 199.96) rotate(-77.13)" fill="#48c902"/><rect x="71.72" y="175.69" width="20.98" height="1.34" transform="translate(-107.1 221.35) rotate(-78.38)" fill="#48c902"/><rect x="88.34" y="193.2" width="17.43" height="1.34" transform="translate(-117.97 166.15) rotate(-56.06)" fill="#48c902"/><rect x="75.37" y="189.82" width="1.34" height="17.36" transform="translate(-136.11 211.65) rotate(-72.59)" fill="#48c902"/><path d="m74.47,82.26c-.47,0-.92-.2-1.23-.57l-1.34-1.58,9.8-2.8-.31,2.05c-.09.63-.55,1.14-1.15,1.32l-5.32,1.52c-.15.04-.3.06-.44.06Zm-.21-1.43c.07.08.18.11.28.08h0l5.32-1.52c.1-.03.18-.11.2-.21l-5.8,1.66Z" fill="#48c902"/><path d="m72.43,81.21c-.72,0-1.43-.21-2.04-.61l-2.97-1.95c-.74-.49-1.29-1.23-1.53-2.09l-2.32-8.12,19.03-5.44,2.32,8.12c.24.86.17,1.77-.2,2.58l-1.49,3.23c-.45.99-1.31,1.72-2.36,2.02l-7.42,2.12c-.34.1-.68.14-1.02.14Zm-7.21-11.85l1.95,6.83c.16.55.5,1.02.98,1.33l2.97,1.95c.58.38,1.3.49,1.96.3l7.42-2.12c.67-.19,1.22-.66,1.51-1.29l1.49-3.23c.24-.52.28-1.1.13-1.65l-1.95-6.83-16.45,4.71Z" fill="#48c902"/><path d="m64.26,69.54c-.96,0-1.86-.59-2.22-1.53h0c-1.85-4.94-3.76-6.23-6.65-8.19-1.42-.96-3.03-2.05-4.97-3.77l-.11-.09s0,0,0,0h0c-.1-.09-.2-.18-.3-.28l-.09-.08c-.09-.08-.18-.17-.27-.26-.04-.04-.08-.07-.12-.11-.1-.09-.19-.19-.28-.28l-.06-.06c-.11-.11-.22-.23-.33-.34l-.1-.11c-.08-.09-.16-.18-.25-.27l-.09-.1c-.11-.12-.21-.24-.31-.36l-.07-.09c-.08-.1-.17-.2-.25-.3l-.1-.12c-.09-.11-.18-.22-.27-.34l-.04-.05c-.1-.13-.2-.26-.29-.39l-.08-.12c-.07-.1-.15-.21-.22-.31l-.07-.11c-.09-.13-.18-.27-.27-.41l-.06-.09c-.07-.11-.15-.23-.22-.34l-.08-.12c-.08-.13-.16-.26-.24-.4l-.02-.03c-.08-.14-.17-.29-.25-.43l-.07-.12c-.06-.12-.13-.23-.19-.35l-.06-.11c-.08-.15-.15-.3-.23-.45l-.05-.1c-.06-.12-.12-.25-.18-.37l-.06-.13c-.07-.15-.14-.3-.2-.45h0c-.07-.17-.13-.33-.2-.49l-.05-.13c-.05-.13-.1-.26-.15-.39l-.04-.11c-.06-.16-.12-.32-.17-.49l-.04-.11c-.04-.13-.09-.27-.13-.4l-.04-.14c-.05-.17-.1-.33-.15-.5-.05-.19-.1-.37-.15-.56,0-.04-.02-.07-.03-.11l-.02-.09c-.03-.12-.06-.24-.09-.36-.01-.05-.02-.09-.03-.14l-.03-.13c-.02-.1-.04-.19-.06-.29-.01-.05-.02-.11-.03-.16l-.03-.13c-.02-.09-.03-.18-.05-.26-.01-.06-.02-.11-.03-.17l-.02-.11c-.02-.09-.03-.18-.05-.27,0-.06-.02-.12-.03-.19v-.1c-.03-.09-.04-.18-.05-.27,0-.07-.02-.14-.02-.2v-.05c-.02-.11-.03-.2-.04-.3,0-.07-.01-.15-.02-.22v-.04c-.01-.1-.02-.2-.03-.3,0-.08-.01-.16-.02-.24h0c0-.11-.01-.21-.02-.31,0-.09,0-.17-.01-.26,0-.1,0-.2-.01-.3,0-.09,0-.17,0-.26,0-.1,0-.2,0-.29,0-.09,0-.17,0-.26,0-.1,0-.19,0-.29,0-.09,0-.17,0-.26,0-.1,0-.19.01-.29,0-.09,0-.17.01-.26,0-.1.01-.19.02-.29,0-.09.01-.17.02-.26,0-.1.02-.19.02-.29,0-.08.02-.17.02-.25,0-.1.02-.19.03-.29,0-.08.02-.17.03-.25.01-.1.03-.19.04-.29v-.03c.01-.07.02-.15.04-.22.01-.09.03-.18.04-.27v-.05c.02-.07.03-.14.04-.21.02-.09.03-.18.05-.28v-.07c.02-.06.04-.13.05-.19.02-.08.03-.17.05-.25l.02-.09c.01-.06.03-.12.04-.19.02-.08.04-.16.06-.24l.03-.12c.01-.05.03-.11.04-.16.02-.08.04-.16.06-.24l.03-.12c.01-.05.03-.1.04-.16.02-.09.05-.17.07-.25l.04-.12s.03-.09.04-.14c.03-.1.06-.21.1-.31l.03-.1s.02-.07.03-.1c.06-.17.11-.34.17-.51,0-.03.02-.05.03-.08l.02-.04c.05-.13.09-.25.14-.38.02-.04.03-.08.05-.12l.05-.12c.03-.08.07-.17.1-.25.02-.05.04-.1.06-.15l.05-.11c.03-.08.07-.16.1-.23.02-.05.05-.1.07-.16l.05-.11c.03-.07.07-.15.1-.22.03-.06.05-.11.08-.17l.05-.1c.03-.07.07-.15.1-.22.03-.06.06-.11.09-.17l.04-.08c.04-.08.08-.15.12-.23.03-.06.06-.12.09-.18l.04-.07c.04-.08.08-.15.12-.23.04-.06.07-.13.11-.19l.02-.03c.05-.08.09-.16.14-.24.04-.07.08-.14.13-.22.05-.09.1-.17.15-.24.04-.07.09-.15.14-.22.05-.08.1-.16.15-.23.05-.07.09-.14.14-.22.05-.08.1-.15.15-.23.05-.07.1-.14.15-.21.05-.08.11-.15.16-.23.05-.07.1-.14.15-.21.05-.07.11-.15.16-.22.05-.07.1-.14.16-.21.06-.07.11-.15.17-.22.05-.07.11-.14.16-.2.06-.07.12-.14.18-.21.06-.07.11-.13.17-.2.06-.07.12-.14.18-.21h0c.05-.07.11-.13.16-.2.06-.07.12-.14.19-.21.06-.07.12-.13.18-.19.06-.07.12-.13.19-.2l.03-.04c.05-.05.1-.11.15-.16.06-.06.11-.11.17-.17l.07-.07s.1-.1.14-.14c.05-.05.11-.11.16-.16l.09-.09s.09-.09.13-.13c.05-.05.11-.1.16-.15l.1-.09s.09-.08.14-.12c.06-.05.11-.1.17-.15l.11-.1s.09-.08.13-.11c.06-.05.12-.1.18-.15l.11-.09s.09-.07.13-.11c.07-.06.14-.11.21-.17l.11-.09s.07-.06.1-.08c.14-.11.29-.22.43-.32.04-.03.08-.05.11-.08l.12-.09c.07-.05.14-.1.21-.15.05-.03.09-.06.14-.09l.13-.09c.06-.04.12-.08.19-.13.05-.03.1-.07.15-.1l.12-.08c.06-.04.13-.08.19-.12.05-.03.11-.07.16-.1l.12-.07c.06-.04.13-.08.19-.12.06-.03.12-.07.17-.1l.11-.06c.07-.04.13-.08.2-.11.06-.03.12-.07.18-.1l.09-.05c.07-.04.14-.08.21-.11.07-.04.14-.07.21-.11l.07-.03c.07-.04.15-.08.22-.11.08-.04.16-.08.24-.12h.01c.08-.05.17-.09.25-.13.08-.04.17-.08.25-.12.09-.04.17-.08.26-.11.09-.04.17-.07.26-.11.09-.04.17-.07.26-.11.09-.04.17-.07.26-.1.09-.03.18-.07.27-.1.09-.03.18-.07.27-.1l.05-.02s.06-.02.08-.03c.03,0,.05-.02.07-.03h.04c.11-.05.23-.09.35-.13.08-.03.16-.05.24-.08.11-.04.23-.07.34-.1h.04c.07-.03.14-.05.21-.08l.09-.03c.06-.02.12-.03.18-.05l.16-.04c.05-.01.1-.03.15-.04.16-.04.31-.08.47-.12l.1-.03c11.23-2.64,22.64,3.55,26.56,14.39l.04.1c.05.15.1.29.15.44.02.07.04.13.07.2.04.12.08.24.11.36.03.08.05.17.07.25l.02.06s.02.06.03.09c.01.04.02.08.03.12l.02.07c.02.09.05.17.07.26.03.12.06.23.09.35v.05c.03.07.04.13.06.2.03.13.06.26.09.39v.06s.03.07.04.1l.04.19c.03.15.06.29.08.44v.07c.04.16.07.32.09.48l.02.13c.02.16.05.32.07.48v.1c.03.14.05.28.06.42v.11c.03.16.04.32.05.47v.13c.02.16.03.32.04.48v.06c.01.15.02.29.02.44v.13c0,.16,0,.31.01.47v.12c0,.14,0,.28,0,.41v.09c0,.16-.01.31-.02.47v.14c-.01.15-.02.31-.03.46v.1c-.02.13-.03.27-.04.4v.13c-.03.15-.04.3-.06.45l-.02.14c-.02.14-.04.27-.06.41v.09c-.04.14-.06.29-.08.43l-.02.14c-.03.15-.05.29-.08.44l-.03.12c-.02.12-.05.25-.08.37l-.03.12c-.03.14-.07.29-.1.43l-.04.14c-.04.14-.07.28-.11.42l-.04.13c-.02.07-.04.14-.06.21l-.07.23c-.74,2.5-1.55,4.3-2.26,5.88-1.44,3.2-2.39,5.31-1.36,10.45.24,1.18-.47,2.36-1.62,2.71-5.43,2.4-11.2,4.05-17.13,4.9-.2.05-.4.08-.59.08Zm-.96-1.99c.19.49.73.76,1.23.61h.04s.05-.02.05-.02c5.84-.83,11.52-2.46,16.86-4.82l.04-.02h.04c.51-.16.82-.67.72-1.19-1.11-5.56-.04-7.95,1.45-11.26.7-1.55,1.48-3.3,2.2-5.71l.07-.22c.02-.06.04-.13.05-.19l.03-.12c.04-.13.07-.27.1-.4l.03-.14c.03-.14.07-.27.1-.41l.02-.11c.03-.12.05-.23.07-.35l.02-.12c.03-.14.05-.28.08-.41l.02-.13c.02-.14.04-.27.06-.41v-.09c.03-.13.05-.26.06-.38l.02-.13c.02-.14.03-.28.05-.42v-.12c.02-.13.03-.25.04-.38v-.09c.02-.14.03-.29.03-.44v-.13c.01-.15.02-.29.02-.44v-.09c0-.13,0-.26,0-.39v-.11c0-.15,0-.29,0-.44v-.12c0-.14-.01-.28-.02-.42v-.06c-.01-.15-.02-.3-.03-.45v-.12c-.02-.15-.03-.3-.05-.45v-.1c-.02-.13-.04-.26-.06-.39v-.1c-.03-.15-.05-.3-.07-.45l-.02-.12c-.02-.15-.05-.3-.08-.45v-.06c-.04-.14-.06-.28-.09-.42l-.04-.18s-.01-.05-.02-.07l-.02-.08c-.03-.12-.05-.24-.08-.37-.01-.06-.03-.12-.04-.18v-.05c-.04-.11-.07-.22-.09-.33-.02-.08-.04-.16-.07-.25l-.02-.08s-.02-.06-.03-.1c0-.02-.01-.04-.02-.07l-.02-.07c-.02-.08-.05-.16-.07-.23-.03-.11-.07-.23-.11-.34-.02-.06-.04-.12-.06-.19-.05-.14-.09-.28-.14-.41l-.03-.1c-3.69-10.2-14.43-16.03-24.99-13.54l-.1.02c-.15.04-.29.07-.44.11-.05.01-.09.02-.14.04l-.17.05c-.05.01-.1.03-.16.04l-.08.03c-.07.02-.13.04-.2.06h-.04c-.11.04-.21.08-.32.11-.08.02-.15.05-.23.08-.11.04-.22.07-.33.11l-.24.08c-.08.03-.17.06-.25.09-.08.03-.17.06-.25.1-.08.03-.16.06-.25.1-.08.03-.16.07-.25.1-.08.03-.16.07-.24.1-.08.04-.16.07-.24.11-.08.04-.16.07-.24.11-.08.04-.16.08-.24.11h-.01c-.07.04-.15.08-.22.11-.07.03-.14.07-.21.11l-.07.03c-.06.03-.13.07-.19.1-.07.03-.13.07-.19.1l-.1.05c-.06.03-.11.06-.17.09-.06.03-.12.07-.18.1l-.11.06c-.05.03-.11.06-.16.09-.06.04-.12.07-.18.11l-.12.07s-.1.06-.15.09c-.06.04-.12.07-.18.11l-.12.08s-.09.06-.14.09c-.06.04-.11.08-.17.11l-.13.09s-.08.06-.12.08c-.06.04-.13.09-.19.13l-.13.09s-.07.05-.1.07c-.14.1-.27.2-.41.3-.03.02-.06.05-.09.07l-.12.09c-.07.05-.13.1-.2.15-.04.03-.08.06-.11.09l-.12.1c-.05.04-.11.09-.16.13-.04.03-.08.07-.12.1l-.11.1c-.05.04-.1.09-.15.13-.04.04-.08.07-.12.11l-.1.09c-.05.05-.1.09-.15.14-.04.04-.08.08-.12.12l-.09.09c-.05.05-.1.1-.15.15-.04.04-.09.09-.13.13l-.07.07c-.05.05-.11.11-.16.16-.05.05-.09.1-.14.15l-.03.03c-.06.07-.12.13-.18.19-.05.06-.11.12-.16.17-.07.07-.12.14-.18.2-.05.06-.1.12-.15.18h0c-.06.07-.11.14-.17.21-.05.06-.1.13-.16.19-.06.07-.11.13-.17.2-.05.06-.1.13-.15.19-.05.07-.11.14-.16.21-.05.06-.1.13-.15.19-.05.07-.1.14-.16.21-.05.07-.1.13-.14.2-.05.07-.1.14-.15.21-.05.07-.09.13-.14.2-.05.07-.1.14-.15.22-.04.07-.09.14-.13.2-.05.07-.09.15-.14.22-.04.07-.09.14-.13.21-.05.07-.09.15-.14.22-.04.07-.08.14-.12.21-.04.08-.09.15-.13.23l-.02.03c-.03.06-.07.12-.1.18-.04.07-.08.14-.11.21l-.04.07c-.03.05-.06.11-.09.16-.04.07-.07.14-.11.21l-.04.08c-.03.05-.05.1-.08.16-.03.07-.07.13-.1.2l-.05.1s-.05.1-.07.15c-.03.07-.06.14-.09.2l-.05.12s-.04.09-.06.14c-.03.07-.06.14-.09.22l-.05.12s-.04.09-.05.13c-.03.08-.06.16-.09.23l-.05.13s-.03.07-.04.11c-.05.12-.09.24-.13.36l-.04.11c-.06.16-.11.32-.16.48,0,.03-.02.06-.03.08l-.03.11c-.03.1-.06.19-.09.29-.01.04-.02.08-.04.12l-.04.13c-.02.08-.05.16-.07.23-.01.05-.02.09-.04.14l-.03.13c-.02.08-.04.15-.06.23-.01.05-.02.1-.04.15l-.03.12c-.02.08-.04.15-.05.23-.01.06-.02.11-.04.17l-.02.09c-.02.08-.03.16-.05.24-.01.06-.02.12-.03.17v.07c-.03.09-.05.17-.06.26-.01.06-.02.13-.03.19v.05c-.02.09-.04.17-.05.26-.01.07-.02.14-.03.2v.03c-.02.09-.03.18-.04.27-.01.08-.02.16-.03.24-.01.09-.02.18-.03.27,0,.08-.02.16-.02.24,0,.09-.02.18-.02.27,0,.08-.01.16-.02.24,0,.09-.01.18-.02.27,0,.08,0,.16-.01.24,0,.09,0,.18,0,.27,0,.08,0,.16,0,.24,0,.09,0,.18,0,.27,0,.08,0,.16,0,.24,0,.09,0,.18,0,.28,0,.08,0,.16,0,.24,0,.09,0,.18.01.28,0,.08,0,.16.01.24,0,.09.01.19.02.28h0c0,.09.01.17.02.24,0,.09.02.19.02.28v.04c.01.07.02.14.02.2,0,.09.02.18.03.27v.06c.01.06.02.13.03.19.01.08.02.17.04.25v.1c.02.06.03.11.04.17.01.08.03.17.04.25l.02.12c0,.05.02.1.03.15.01.08.03.16.05.25l.03.14s.02.09.03.14c.02.09.04.18.06.27l.03.13s.02.08.03.12c.03.11.05.22.08.33l.03.1s.01.06.02.09c.05.17.09.35.14.52.05.16.09.32.14.47l.04.13c.04.13.08.25.12.38l.03.1c.05.15.11.31.16.46l.04.1c.05.12.09.24.14.36l.05.12c.06.15.12.3.19.45v.02c.07.14.13.28.2.42l.06.12c.05.12.11.23.17.35l.04.09c.07.14.14.28.21.42l.05.1c.06.11.12.22.18.33l.06.11c.08.14.15.27.23.41l.02.03c.07.13.15.25.23.37l.07.12c.07.11.13.21.2.32l.05.08c.09.13.17.26.26.38l.07.1c.07.1.14.2.21.29l.08.11c.09.12.18.25.27.37l.04.05c.08.11.17.21.25.32l.09.11c.08.09.15.19.23.28l.07.08c.1.11.2.23.3.34l.09.1c.08.09.15.17.23.25l.1.1c.1.11.21.22.31.32l.06.06c.09.09.18.18.27.27.04.04.07.07.11.1.09.08.17.16.26.24l.08.08c.09.09.19.17.29.26l.05.05.05.04c1.88,1.66,3.45,2.72,4.84,3.66,2.99,2.03,5.15,3.49,7.16,8.83h0Z" fill="#48c902"/><path d="m70.24,67.85s-.78-2.89-5.75-16.21c-.47-1.26-.97-2.28-1.48-3.12-3.78.15-5.48-.95-5.77-2.21-.21-.89.34-1.74,1.31-2.03,1.06-.32,2.34.06,3.53,1.04.58.48,1.12,1.09,1.64,1.82.68-.05,1.43-.14,2.27-.29,2.41-.41,4.26-.97,5.65-1.59-.06-1.98.15-3.36.63-4.18.81-1.39,1.94-1.63,2.73-1.39.94.29,1.52,1.22,1.45,2.32-.04.7-.47,2.48-3.43,4.07.13,2.02.52,4.91,1.38,9.04,1.16,5.58,2.63,10.74,2.64,10.79l-1.29.37c-.01-.05-1.49-5.26-2.66-10.88-.69-3.32-1.14-6.13-1.34-8.37-.01-.11-.02-.22-.03-.33-1.39.57-3.18,1.09-5.5,1.49-.6.1-1.17.18-1.7.24.45.81.86,1.73,1.25,2.76,5.02,13.45,5.76,16.23,5.79,16.34l-1.3.34Zm-10.91-22.34c-.14,0-.28.02-.4.06-.21.06-.45.22-.39.44.11.46,1.13,1.13,3.51,1.18-1.03-1.21-2.01-1.68-2.72-1.68Zm15.09-4.56c-.34,0-.71.29-1.01.81-.22.38-.45,1.18-.46,2.81,1.45-.9,2.09-1.85,2.14-2.64.03-.54-.23-.87-.51-.95-.05-.02-.11-.02-.16-.02Z" fill="#48c902"/><rect x="64.83" y="68.74" width="18.6" height="1.34" transform="translate(-9.78 12.21) rotate(-8.83)" fill="#48c902"/><rect x="65.36" y="70.57" width="18.6" height="1.34" transform="translate(-10.05 12.31) rotate(-8.83)" fill="#48c902"/><rect x="65.88" y="72.39" width="18.6" height="1.34" transform="translate(-10.33 12.41) rotate(-8.83)" fill="#48c902"/><rect x="66.41" y="74.29" width="17.72" height="1.34" transform="translate(-10.62 12.45) rotate(-8.83)" fill="#48c902"/><rect x="90.2" y="30.22" width="7.11" height="1.34" transform="translate(-4.88 26.97) rotate(-15.96)" fill="#48c902"/><rect x="82.36" y="17.14" width="7.11" height="1.34" transform="translate(13.38 67.19) rotate(-45.96)" fill="#48c902"/><rect x="69.03" y="9.74" width="7.11" height="1.34" transform="translate(44.87 78.3) rotate(-75.96)" fill="#48c902"/><rect x="56.67" y="7.11" width="1.34" height="7.11" transform="translate(-.72 16.17) rotate(-15.96)" fill="#48c902"/><rect x="43.59" y="14.95" width="1.34" height="7.11" transform="translate(.18 37.46) rotate(-45.96)" fill="#48c902"/><rect x="36.19" y="28.28" width="1.34" height="7.11" transform="translate(-2.98 59.87) rotate(-75.96)" fill="#48c902"/><rect x="33.55" y="46.42" width="7.11" height="1.34" transform="translate(-11.51 12.02) rotate(-15.96)" fill="#48c902"/><path d="m225.27,70.63l-25.66-29.87,30.79-9.7,17.2,34.2-22.33,5.36Zm-23.32-29.2l23.81,27.71,19.89-4.78-15.93-31.67-27.77,8.74Z" fill="#48c902"/><path d="m250.05,64.02l-17.48-34.06,25.99-19.15,8.99,38.34-17.5,14.88Zm-15.77-33.66l16.19,31.54,15.59-13.25-8.34-35.56-23.43,17.27Z" fill="#48c902"/><path d="m246.46,65.64l-17.31-34.07,4.56-2.32,17.31,34.07-4.56,2.32Zm-15.51-33.48l16.09,31.67,2.17-1.1-16.09-31.67-2.17,1.1Z" fill="#48c902"/><path d="m231.14,31.32l-1.27-2.49.18-.31c.06-.1,1.47-2.58,4.9-5.85,3.14-3,8.66-7.25,17.1-10.52l.17-.07,3.37.55-.22,1.32-3.01-.49c-8.11,3.17-13.41,7.25-16.44,10.13-2.63,2.5-4.04,4.54-4.52,5.28l.93,1.84-1.2.61Z" fill="#48c902"/><path d="m204.03,40.04l-1.2-.6,1.54-3.05.15-.1c7.61-4.89,14.31-6.83,18.58-7.61,4.66-.84,7.49-.52,7.61-.5l.36.04,1.27,2.49-1.2.61-.93-1.84c-.88-.05-3.36-.12-6.93.53-4.11.75-10.53,2.63-17.87,7.3l-1.38,2.72Z" fill="#48c902"/><path d="m229.97,28.95c-.04-.27-.95-6.65,9.62-13.02,9.94-5.99,12.06-9.31,12.08-9.34l1.23-1.99.02,2.33.04,5.83h-1.34s-.03-4.01-.03-4.01c-1.53,1.58-4.78,4.39-11.3,8.32-5.11,3.08-7.28,6.1-8.2,8.09-.99,2.13-.79,3.56-.79,3.57l-1.32.21Z" fill="#48c902"/><rect x="231.61" y="33.92" width="3.83" height="1.34" transform="translate(9.66 109.53) rotate(-26.93)" fill="#48c902"/><rect x="233.03" y="36.71" width="3.83" height="1.34" transform="translate(8.55 110.48) rotate(-26.93)" fill="#48c902"/><rect x="244.39" y="59.16" width="3.83" height="1.34" transform="translate(-.79 116.3) rotate(-26.53)" fill="#48c902"/><rect x="242.99" y="56.36" width="3.83" height="1.34" transform="translate(.31 115.38) rotate(-26.53)" fill="#48c902"/><path d="m232.38,29.12c.23-.43.51-.84.8-1.24.29-.4.59-.79.91-1.16.64-.75,1.32-1.46,2.03-2.14l.54-.5c.18-.17.37-.32.56-.48.37-.32.76-.63,1.15-.93.38-.31.79-.58,1.19-.87.41-.27.82-.54,1.24-.79-.36.34-.73.66-1.09.99l-.55.49c-.18.16-.37.32-.55.49-.18.16-.36.33-.54.49-.18.16-.36.33-.54.49-.36.33-.71.66-1.07.99-.7.67-1.4,1.34-2.09,2.04-.68.7-1.35,1.4-2,2.14Z" fill="#48c902"/><path d="m239.11,24.08c.85-1.04,1.81-1.97,2.81-2.86,1-.89,2.05-1.73,3.13-2.52.27-.2.55-.39.82-.58l.41-.29.42-.28.84-.54c.28-.18.57-.35.86-.52.57-.35,1.16-.66,1.75-.98.15-.08.3-.16.45-.23l.45-.22c.3-.15.6-.29.91-.43-.55.38-1.12.73-1.68,1.1l-.83.55c-.14.09-.28.18-.42.27l-.41.28c-.27.19-.55.37-.83.56l-.82.57-.41.28-.4.29c-.27.19-.54.38-.81.58-1.07.78-2.13,1.58-3.17,2.41-1.04.83-2.07,1.67-3.06,2.56Z" fill="#48c902"/><path d="m230.58,29.68c-1.03.21-2.06.39-3.09.57l-3.09.53-3.09.54-3.09.57c.98-.39,1.99-.69,3.01-.96,1.02-.26,2.05-.48,3.08-.65,1.04-.18,2.08-.32,3.12-.42,1.04-.1,2.09-.18,3.15-.18Z" fill="#48c902"/><path d="m225.54,31.86c-1.42.4-2.84.77-4.26,1.15l-2.13.56-1.06.28-1.06.28c-.71.19-1.42.37-2.12.57-.35.1-.71.19-1.06.29-.35.1-.71.2-1.06.29-1.41.4-2.82.81-4.23,1.24,1.33-.62,2.72-1.14,4.11-1.61.7-.24,1.4-.45,2.11-.67.35-.11.71-.21,1.06-.3l1.06-.29c.71-.18,1.42-.37,2.14-.54.36-.09.72-.17,1.08-.25.36-.08.72-.16,1.08-.23,1.44-.3,2.89-.57,4.35-.77Z" fill="#48c902"/><path d="m213.91,172.85l9.23,9.23s-1.47,1.21-21.42-6.09c-19.95-7.31-32.31-6.18-44.53,0,0,0,12.25-13.02,34.3-7.59,9.23,2.29,16.77,3.63,22.41,4.45Z" fill="#e6e6e6"/><path d="m191.5,168.4c-22.05-5.44-34.3,7.59-34.3,7.59v-3.18c.48-4.75,3.4-13.48,17.84-16.49,20.23-4.21,32.59,7.17,40.74,4.85l10.12,12.84s-4.16-.06-11.99-1.17c-5.64-.81-13.17-2.16-22.41-4.45Z" fill="#e6e6e6"/><path d="m231.75,195.98l-55.86-6.87-3.95-.48s-2.81,7.87-14.6,7.87-14.89-7.87-14.89-7.87l-59.8,7.35,8.61-13.9s.2.17,1.5,0c2.18-.28,7.42-1.52,19.91-6.09,19.95-7.31,32.31-6.18,44.53,0,12.22-6.18,24.58-7.31,44.53,0,12.49,4.58,17.74,5.81,19.92,6.09,1.3.17,1.5,0,1.5,0l8.61,13.9Z" fill="#e6e6e6"/><path d="m157.2,172.81v3.18c-12.23-6.18-24.59-7.31-44.53,0-19.95,7.31-21.41,6.09-21.41,6.09l11.79-11.79s5.21-1.16,21.19-7.23c16.25-6.18,32.97,9.75,32.97,9.75Z" fill="#e6e6e6"/><path d="m142.44,188.63s5.62-5.18,14.75-5.18,14.75,5.18,14.75,5.18c0,0-2.39,7.99-15.06,7.99-7.8,0-12.78-3.96-14.44-7.99Z" fill="#359545"/><path d="m233.94,196.24c1.14.14,1.95,1.18,1.81,2.32-.14,1.14-1.18,1.94-2.32,1.8l-58.05-7.12-1.24-.16c-2.29,3.15-7.21,7.57-16.81,7.57s-14.68-4.46-17.02-7.58l-59.36,7.29c-1.14.14-2.18-.66-2.32-1.8,0-.08-.02-.17-.02-.25,0-1.04.77-1.94,1.83-2.07l2.19-.27,59.8-7.35s3.09,7.87,14.89,7.87,14.6-7.87,14.6-7.87l3.95.48,55.86,6.87,2.19.27Z" fill="#359545"/><path d="m98.33,184.98c3.86-1.55,7.77-2.95,11.69-4.3,1.96-.69,3.94-1.32,5.91-1.96,1.98-.64,3.94-1.29,5.98-1.83,1.02-.25,2.05-.43,3.08-.63,1.04-.13,2.07-.32,3.12-.38l1.56-.13,1.57-.05c1.04-.05,2.09,0,3.13.03,4.17.22,8.32.85,12.28,2.12-2.02-.47-4.07-.82-6.12-1.05-2.05-.25-4.12-.4-6.18-.43-4.12-.03-8.26.28-12.24,1.31-1.98.5-3.97,1.13-5.95,1.74l-5.94,1.85-11.89,3.69Z" fill="#b3b3b3"/><path d="m112.66,184.98c2.05-1.02,4.21-1.77,6.4-2.4,2.19-.63,4.43-1.08,6.7-1.41,2.27-.28,4.56-.44,6.86-.33,2.29.12,4.59.47,6.74,1.24-2.29-.09-4.51-.06-6.73.06-2.22.16-4.44.38-6.65.68-2.21.29-4.42.66-6.63,1.02l-6.68,1.14Z" fill="#b3b3b3"/><path d="m161.27,180.51c3.71-2.02,7.9-3.05,12.1-3.52,2.11-.24,4.23-.23,6.35-.14,2.11.15,4.23.41,6.3.83,4.13.84,8.24,1.91,12.2,3.37,3.96,1.44,7.79,3.19,11.94,3.95-2.1-.21-4.16-.72-6.17-1.33-2.01-.63-3.98-1.37-5.98-2.01-3.98-1.32-8.03-2.39-12.15-3.16-2.05-.43-4.11-.72-6.19-.89-2.08-.13-4.17-.12-6.25.02-2.08.16-4.15.46-6.19.94-2.04.46-4.05,1.08-5.97,1.95Z" fill="#b3b3b3"/><path d="m185.71,182.08c3.18.42,6.31,1.15,9.4,2.01,1.55.42,3.07.94,4.59,1.46,1.52.55,2.99,1.08,4.53,1.5,3.04.88,6.19,1.4,9.36,1.65,1.58.13,3.18.2,4.77.17,1.59,0,3.19-.09,4.78-.24-3.14.64-6.38.84-9.59.7-3.22-.12-6.42-.65-9.54-1.49-1.55-.45-3.08-1.03-4.56-1.59-1.49-.56-3.01-1.05-4.52-1.56-1.51-.5-3.04-.96-4.58-1.39-1.53-.45-3.08-.85-4.64-1.23Z" fill="#b3b3b3"/><path d="m167.6,183.32c.84-.6,1.82-.94,2.79-1.25.97-.3,1.97-.52,2.97-.7,2-.33,4.02-.5,6.06-.38-.98.28-1.97.47-2.96.66-.99.19-1.97.36-2.96.53l-2.95.51c-.98.19-1.97.35-2.94.63Z" fill="#b3b3b3"/><path d="m84.7,192.65c2.65-1.11,5.42-1.87,8.21-2.49,2.8-.59,5.64-1.02,8.51-1.05-2.79.69-5.56,1.25-8.34,1.86-2.78.58-5.56,1.19-8.38,1.68Z" fill="#b3b3b3"/><path d="m132.44,194.8c-2.33-4.01-2.88-9.06-1.45-13.47-3.54.38-7.08.76-10.63,1.14-1.42,4.42-.88,9.46,1.45,13.47,1.14-1.28,2.41-2.64,3.81-4.04,2.14,1.02,4.41,2,6.82,2.9Z" fill="#48c902"/><path d="m170,145.01c-19.12-2.99-32.61-13.6-32.61-13.6,0,0,10.12,1.73,17.19,4.68,6.27,2.61,15.42,8.92,15.42,8.92Z" fill="#359545"/><path d="m174.25,134.83l-4.24,10.17s-9.15-6.31-15.42-8.92c-7.07-2.95-17.19-4.68-17.19-4.68l4.24-10.17,4.24-10.17s9.92-1.4,18.27,2.08c7.75,3.23,14.34,11.52,14.34,11.52l-4.24,10.17Z" fill="#48c902"/><path d="m194.23,134.35l-19.71.6-.27-.11,4.24-10.17s-6.59-8.29-14.34-11.52c-8.36-3.49-18.27-2.08-18.27-2.08l-4.24,10.17-.27-.11-13.44-14.43,39.14-.53,27.17,28.18Z" fill="#359545"/><path d="m166.74,103.33l-37.71.7-1.11,2.66,37.64-.51c.95-.01,1.87.37,2.53,1.06l26.13,27.11,1.11-2.66-26.04-27.29c-.67-.7-1.6-1.09-2.56-1.07Z" fill="#48c902"/><path d="m129.81,124.92s-2.02,2-2.41,4.06c-.38,2.06-.13,4.14-.13,4.14l.46.19.41-2.28-.22,3.15.84.04.81-4.37-.25,3.81s.91-.1,1.02-.36.36-3.73.36-3.73l-.12,4.14s.42.49,1.96-3.22-1.32-5.93-1.32-5.93l-1.42.36Z" fill="#b3b3b3"/><path d="m152.12,103.6l-2.71.05c-.39-.22-.88-.46-1.44-.69-2.53-1.05-6.53-1.9-10.11.91-.25.2-.5.41-.75.65-.7.67-1.3,1.36-1.8,2.08-2.49,3.53-2.77,7.57-3.07,11.82-.16,2.31-.33,4.7-.88,7.01-.11.46-.58.75-1.04.64-.05-.01-.09-.02-.14-.04-.38-.16-.61-.58-.51-.99.51-2.18.68-4.49.84-6.73.28-3.95.56-8.01,2.72-11.67.55-.93,1.21-1.83,2.03-2.7.21-.22.42-.44.65-.65,6.84-6.5,15.51-.41,15.6-.34.23.17.42.42.6.68Z" fill="#b3b3b3"/><circle cx="130.74" cy="124.81" r="1.8" transform="translate(-10.29 237.87) rotate(-82.39)" fill="#e6e6e6"/><path d="m117.3,88.89c5.41-2.68,12.7,1.38,12.7,1.38-.38-1.25-3.81-3.95-3.81-3.95.81-.7,3.43-1.04,3.43-1.04-4.9-1.92-11.36,1.14-11.36,1.14l-.96,2.47Z" fill="#92278f"/><path d="m116.91,89.43s.76,6.93,5.08,9.93c0,0-1.17-2.37-1.04-3.43,0,0,4.16,1.35,5.4.97,0,0-7.44-3.8-8.21-9.79l-1.22,2.31Z" fill="#b24b9c"/><path d="m99,105.8l-3.11-2.46c5.94-5.95,10.18-12.26,13.19-18.11l.53.28-10.61,20.29Z" fill="#b3b3b3"/><path d="m110.33,112.22s-8.61,3.3-12.2-4.76l.87-1.66,10.61-20.29,11.5-22c-1.02,1.91-.3,4.29,1.61,5.32,2.11,1.13,4.67.56,6.13-1.23-2.66,4.08-14.75,23.56-18.52,44.63Z" fill="#e6e6e6"/><path d="m125.37,62.21l-2.64,6.61c-1.91-1.02-2.64-3.4-1.61-5.32.82-1.53,2.72-2.11,4.25-1.29Z" fill="#e6e6e6"/><path d="m121.11,63.51l-11.5,22-.53-.28c6.64-12.88,7.39-23.58,7.39-23.58,1.99-3.73,6.64-5.15,10.38-3.15,2.99,1.6,4.12,5.32,2.52,8.31,0,0,0,0-.01.02-.05.07-.21.32-.49.73,0,.01-.01.02-.02.03-1.45,1.79-4.01,2.36-6.13,1.23l2.64-6.61c-1.53-.82-3.44-.24-4.25,1.29Z" fill="#b3b3b3"/><path d="m109.43,84.54s1.64,4.38,7.54,5.81l2-4.58c-5.9-1.43-7.45-5.75-7.45-5.75l-2.08,4.51Z" fill="#b24b9c"/><polygon points="221.36 94.58 224.72 95.34 203.24 108.66 203.94 105.55 221.36 94.58" fill="#b3b3b3"/><rect x="197.69" y="83.89" width="20.59" height="17.52" transform="translate(-17.38 125.12) rotate(-32.21)" fill="#e6e6e6"/><polygon points="212.02 79.75 194.61 90.73 196.84 87 207.69 80.16 212.02 79.75" fill="#b3b3b3"/><rect x="195.48" y="82.26" width="12.82" height="1.43" transform="translate(-13.16 120.38) rotate(-32.21)" fill="#e6e6e6"/><polygon points="204.8 77.97 206.9 78.91 196.08 85.79 196.15 83.42 204.8 77.97" fill="#b3b3b3"/><path d="m198.37,63.88c-.34.75-.9,2.43.1,4.03l6.33,10.05-8.65,5.45-6.33-10.05c-1.01-1.6-2.77-1.82-3.59-1.84,2.42-.14,4.85-.88,7.05-2.27,2.2-1.39,3.91-3.25,5.09-5.38Z" fill="#e6e6e6"/><path d="m174.2,63.68l.72,1.15-1.28.81c-4.02,2.53-9.32,1.33-11.86-2.69l-2.82-4.48c-.57-.9-.71-1.94-.5-2.9.22-.96.8-1.84,1.7-2.4,2.93-1.84,6.79-.97,8.64,1.96l5.4,8.57Zm-1.66.6l-5.2-8.25c-1.33-2.12-4.14-2.75-6.25-1.42-.99.62-1.29,1.93-.66,2.93l2.82,4.48c1.98,3.14,6.11,4.13,9.29,2.26Z" fill="#e6e6e6"/><path d="m198.35,33.64l2.82,4.48c2.53,4.02,1.33,9.32-2.69,11.86l-1.28.81-.72-1.15-5.4-8.57c-1.84-2.92-.96-6.79,1.96-8.63.9-.57,1.94-.71,2.9-.5.96.22,1.84.8,2.4,1.7Zm1.36,5.4l-2.82-4.48c-.62-.99-1.93-1.29-2.93-.66-2.12,1.33-2.76,4.14-1.42,6.25l5.2,8.25c3.07-2.06,3.95-6.21,1.97-9.36Z" fill="#e6e6e6"/><path d="m187.78,32.6l10.15,16.12c2.91,4.63,2.97,10.24.63,14.77,0,0,0,0,0,0-.02.03-.09.15-.18.34,0,.01-.01.02-.02.04-1.17,2.12-2.89,3.99-5.09,5.38-2.2,1.39-4.62,2.13-7.05,2.27-.02,0-.03,0-.04,0-.22,0-.36,0-.39.02,0,0,0,0,0,0-5.1.15-10.14-2.32-13.06-6.95l-10.15-16.12,25.2-15.88Z" fill="#e6e6e6"/><path d="m197.28,47.67l.66,1.05c2.91,4.63,2.97,10.24.63,14.77,0,0,0,0,0,0-.02.03-.09.15-.18.34,0,.01-.01.02-.02.04-1.17,2.12-2.89,3.99-5.09,5.38-2.2,1.39-4.62,2.13-7.05,2.27-.02,0-.03,0-.04,0-.22,0-.36,0-.39.02,0,0,0,0,0,0-5.1.15-10.14-2.32-13.06-6.95l-.66-1.05c2.91,4.63,7.96,7.1,13.06,6.95,0,0,0,0,0,0,.03,0,.17-.02.39-.02.02,0,.03,0,.04,0,2.42-.14,4.85-.88,7.05-2.27,2.2-1.39,3.91-3.25,5.09-5.38,0-.01.01-.02.02-.04.09-.2.16-.32.18-.34,0,0,0,0,0,0,2.34-4.53,2.28-10.15-.63-14.77Z" fill="#b3b3b3"/><g fill="none" mask="url(#b)"><path d="m258.46,51.81l-35.32,130.28h-1.5c-2.18-.28-7.42-1.52-19.92-6.09-19.95-7.31-32.31-6.18-44.53,0-12.23-6.18-24.59-7.31-44.53,0-12.49,4.58-17.74,5.81-19.91,6.09h-1.5L59.28,51.81h199.19Z" fill="url(#g)" opacity=".15"/></g><path d="m264.32,206H51.87c0-3.37,2.73-6.11,6.11-6.11h200.23c3.37,0,6.11,2.73,6.11,6.11h0Z" fill="#4c144d"/></svg>