<?xml version="1.0" encoding="UTF-8"?><svg xmlns="http://www.w3.org/2000/svg" xmlns:xlink="http://www.w3.org/1999/xlink" viewBox="0 0 300.79 206"><defs><clipPath id="b"><path d="m247.27,56.4v81.81c0,3.86-2.27,7.2-5.55,8.74-1.25.59-2.64.92-4.1.92H87.62c-5.33,0-9.66-4.34-9.66-9.66V56.4c0-5.33,4.34-9.66,9.66-9.66h150c5.33,0,9.66,4.34,9.66,9.66Z" fill="none"/></clipPath></defs><g fill="none" isolation="isolate"><g id="a"><path d="m83.5,203.98s-44.38-56.98-43.44-85.19c.94-28.21,104.26-102.95,131-98.92,26.74,4.03,34.44,67.41,12.82,113.57-21.62,46.16,31.14,12.82,35.9-15.02,4.76-27.84,73.03,34.09,7.82,85.56H83.5Z" fill="#48c902"/><path d="m255.64,98.27s-.07,0-.1,0l-5.29-.36c-.6-.04-1.13-.43-1.34-1l-.7-1.86,9.74.66-.94,1.75c-.27.5-.8.81-1.36.81Zm-5.3-1.64l5.29.36c.1,0,.2-.04.25-.13l-5.76-.39c.04.09.13.15.23.16h0Z" fill="#359545"/><path d="m256.91,96.92c-.08,0-.16,0-.24,0l-7.37-.5c-1.04-.07-1.99-.59-2.61-1.42l-2.04-2.72c-.51-.68-.76-1.53-.7-2.38l.55-8.06,18.91,1.28-.55,8.06c-.06.85-.42,1.65-1.02,2.26l-2.39,2.42c-.67.68-1.59,1.06-2.54,1.06Zm-11.23-13.72l-.46,6.78c-.04.54.12,1.08.45,1.52l2.04,2.72c.4.53,1.01.86,1.67.91l7.37.5c.66.05,1.31-.2,1.78-.67l2.39-2.42c.38-.39.61-.9.65-1.45l.46-6.78-16.35-1.11Z" fill="#359545"/><path d="m258.02,84.48c-4.25,0-8.5-.44-12.7-1.3-1.14-.1-2.04-1.07-2.06-2.22-.07-5.05-1.37-6.83-3.34-9.54-.97-1.33-2.06-2.83-3.25-5.01l-.07-.12c-.06-.12-.12-.23-.18-.35l-.05-.1c-.05-.11-.11-.21-.16-.32-.02-.05-.04-.09-.07-.14-.06-.12-.11-.23-.16-.35l-.04-.08c-.06-.14-.12-.28-.19-.42l-.06-.13c-.05-.11-.09-.21-.13-.32l-.05-.12c-.06-.14-.11-.29-.17-.43l-.04-.1c-.04-.12-.08-.23-.13-.35l-.05-.14c-.04-.13-.09-.26-.13-.39l-.02-.06c-.05-.15-.09-.3-.14-.45l-.04-.13c-.04-.12-.07-.24-.1-.36l-.03-.12c-.04-.15-.08-.3-.11-.45l-.02-.1c-.03-.13-.06-.25-.08-.38l-.03-.14c-.03-.15-.06-.29-.09-.44v-.04c-.04-.15-.06-.31-.09-.47l-.02-.13c-.02-.13-.04-.25-.06-.38l-.02-.11c-.02-.16-.04-.32-.06-.48v-.1c-.02-.13-.04-.26-.05-.4v-.14c-.02-.16-.04-.31-.05-.47h0c0-.18-.02-.34-.02-.51v-.13c0-.13-.01-.27-.01-.4v-.11c0-.17,0-.33,0-.49v-.11c0-.13,0-.27.01-.4v-.14c.01-.17.02-.33.03-.5.01-.18.03-.37.04-.55,0-.04,0-.07.01-.1v-.1c.02-.11.03-.23.05-.34,0-.05.01-.09.02-.14v-.1c.03-.1.04-.2.05-.3,0-.05.02-.1.02-.15l.02-.12c.01-.09.03-.18.04-.26,0-.05.02-.11.03-.16l.02-.11c.02-.09.03-.18.05-.26.01-.06.02-.12.04-.17l.02-.08c.02-.09.04-.18.06-.27.01-.06.03-.13.04-.19v-.05c.03-.09.05-.19.08-.28.02-.07.03-.13.05-.2v-.04c.03-.09.06-.19.08-.28.02-.07.04-.14.06-.21v-.02c.03-.09.06-.18.09-.27.02-.08.05-.16.07-.24.03-.09.06-.18.09-.27.03-.08.05-.16.08-.23.03-.09.06-.18.09-.27.03-.08.06-.15.08-.23.03-.09.06-.18.1-.26.03-.08.06-.15.09-.23.03-.09.07-.17.1-.26.03-.08.06-.15.09-.23.04-.09.07-.17.11-.25.03-.08.07-.15.1-.23.04-.08.08-.17.12-.25.03-.07.07-.15.1-.22.04-.08.08-.17.12-.25v-.02c.04-.07.08-.13.11-.2.04-.08.09-.16.13-.25.04-.07.08-.14.11-.21.04-.08.09-.16.13-.24l.02-.04c.03-.06.06-.12.1-.17.04-.08.09-.15.14-.23l.04-.06c.03-.05.06-.1.09-.15.04-.07.09-.15.14-.22l.04-.07c.03-.05.06-.1.09-.15.04-.07.09-.13.13-.2l.06-.1s.06-.09.09-.14c.05-.07.09-.14.14-.2l.07-.1s.06-.08.09-.12c.05-.07.1-.14.15-.21l.07-.09s.05-.07.08-.11c.06-.08.12-.16.18-.24l.07-.09s.04-.05.06-.08c.11-.14.21-.27.32-.4.02-.02.03-.04.05-.06l.03-.04c.08-.1.17-.2.25-.3.03-.03.06-.06.08-.1l.08-.09c.06-.07.11-.13.17-.2.03-.04.07-.07.1-.11l.08-.09c.05-.06.11-.12.16-.18.04-.04.07-.08.11-.11l.09-.1c.05-.05.1-.11.15-.16.04-.04.08-.08.12-.12l.07-.07c.06-.05.11-.11.17-.16.05-.04.09-.09.14-.13l.07-.06c.06-.05.11-.11.17-.16.05-.05.1-.09.15-.13l.05-.04c.06-.06.12-.11.18-.17.06-.05.11-.1.17-.14l.02-.02c.07-.06.13-.12.2-.17.06-.05.13-.1.19-.16.07-.06.14-.11.21-.17.06-.05.13-.1.19-.15.07-.05.14-.11.21-.16.07-.05.13-.1.2-.15.07-.05.14-.11.21-.16.07-.05.13-.1.2-.14.07-.05.14-.1.22-.15.07-.05.14-.09.21-.14.07-.05.15-.1.22-.15.07-.05.14-.09.21-.14.07-.05.15-.09.22-.14.07-.04.14-.09.21-.13.08-.05.15-.09.23-.14.07-.04.14-.08.22-.13.08-.04.15-.09.23-.13.07-.04.14-.08.22-.12.08-.04.16-.08.23-.12h.02c.07-.04.14-.08.2-.12.07-.04.14-.07.21-.11l.07-.03c.06-.03.12-.06.18-.09.07-.03.13-.06.2-.1l.09-.04c.06-.03.11-.05.17-.08.07-.03.14-.06.21-.09l.09-.04c.06-.02.11-.05.17-.07.07-.03.13-.06.2-.08l.11-.05c.06-.02.11-.05.17-.07.06-.03.13-.05.2-.08l.13-.05c.05-.02.1-.04.15-.06.07-.03.14-.05.21-.07l.14-.05s.1-.04.15-.05c.08-.03.16-.05.24-.08l.13-.04s.08-.03.12-.04c.16-.05.33-.1.49-.15.04-.01.09-.03.13-.04l.13-.04c.08-.02.16-.04.24-.07.05-.01.11-.03.16-.04l.14-.04c.07-.02.14-.04.21-.05.06-.01.11-.03.17-.04l.14-.03c.07-.02.14-.03.21-.05.06-.01.12-.02.18-.04l.13-.03c.07-.01.14-.03.21-.04.07-.01.13-.02.2-.04l.1-.02c.07-.01.15-.03.22-.04.07-.01.13-.02.2-.03h.09c.08-.03.15-.04.23-.05.07,0,.14-.02.22-.03h.07c.08-.02.16-.03.24-.04.08,0,.17-.02.25-.03h.01c.09-.01.18-.02.27-.03.09,0,.18-.01.27-.02.09,0,.18-.01.27-.02.09,0,.18-.01.27-.02.09,0,.18,0,.27-.01.09,0,.18,0,.27,0,.09,0,.18,0,.27,0,.09,0,.18,0,.27,0h.05s.06,0,.09,0c.02,0,.05,0,.07,0h.04c.12,0,.23,0,.35,0,.08,0,.16,0,.25,0,.11,0,.23,0,.34.02h.04c.07,0,.14,0,.21.01h.09c.06,0,.12.01.18.02h.15c.05.02.1.02.16.03.15.01.31.03.46.05h.1c10.96,1.28,19.24,10.56,19.24,21.6v.11c0,.15,0,.3,0,.44,0,.07,0,.13,0,.2,0,.12,0,.24-.01.36,0,.08,0,.17-.01.25v.05s0,.06,0,.09c0,.04,0,.08,0,.12v.07c-.01.09-.02.17-.03.26-.01.11-.02.23-.03.34v.06c-.01.06-.02.12-.03.18-.01.13-.03.25-.05.38v.06s-.02.06-.02.09l-.03.18c-.02.14-.04.28-.07.43v.06c-.04.15-.07.31-.09.46l-.02.12c-.03.15-.06.3-.09.45l-.02.1c-.03.13-.06.26-.09.39l-.02.1c-.04.15-.08.29-.12.44l-.03.12c-.04.15-.08.29-.13.44l-.02.06c-.04.13-.08.27-.13.4l-.04.12c-.05.14-.1.28-.15.42l-.04.11c-.05.12-.09.25-.14.37l-.03.09c-.05.14-.11.28-.17.41l-.05.12c-.06.14-.11.27-.17.41l-.04.09c-.05.12-.11.23-.16.35l-.05.11c-.06.13-.13.26-.19.39l-.06.12c-.06.12-.12.23-.18.35l-.04.08c-.07.12-.13.24-.2.37l-.07.12c-.07.12-.14.25-.22.37l-.06.1c-.06.1-.13.21-.19.31l-.06.1c-.08.12-.15.24-.23.36-.03.04-.05.08-.08.12-.08.12-.16.23-.24.35l-.07.1c-.04.06-.08.12-.12.17l-.14.19c-1.48,2.01-2.79,3.37-3.94,4.56-2.33,2.41-3.87,4.01-4.62,8.97-.17,1.14-1.19,1.97-2.34,1.92-1.44.1-2.88.15-4.32.15Zm-20.28-18.8l.06.11c1.15,2.1,2.22,3.57,3.17,4.87,2.04,2.8,3.51,4.82,3.58,10.27,0,.5.41.92.91.96h.04s.04.01.04.01c5.53,1.15,11.17,1.53,16.75,1.13h.04s.04,0,.04,0c.5.03.95-.33,1.03-.83.8-5.37,2.55-7.18,4.96-9.67,1.13-1.17,2.41-2.49,3.84-4.43l.13-.18c.04-.05.08-.11.12-.16l.07-.09c.08-.11.15-.22.22-.33.02-.04.05-.07.07-.11.07-.11.15-.22.22-.34l.06-.09c.06-.1.12-.19.18-.29l.06-.1c.07-.12.14-.23.2-.35l.06-.11c.06-.11.13-.23.19-.34l.04-.08c.06-.11.12-.22.17-.33l.06-.11c.06-.12.12-.24.18-.37l.05-.1c.05-.11.1-.22.15-.33l.04-.08c.06-.13.11-.25.16-.38l.05-.11c.05-.13.11-.26.16-.39l.03-.08c.04-.11.09-.23.13-.35l.04-.1c.05-.13.09-.26.14-.4l.04-.11c.04-.13.08-.25.12-.38l.02-.05c.04-.14.08-.27.12-.41l.03-.11c.04-.14.07-.28.11-.41l.02-.09c.03-.12.06-.25.09-.37l.02-.09c.03-.14.06-.28.09-.42l.02-.12c.03-.14.05-.29.08-.43v-.06c.03-.13.05-.27.07-.4l.03-.17s0-.04,0-.07c0-.03,0-.05.01-.08.02-.12.03-.24.04-.36,0-.06.01-.11.02-.17v-.06c.02-.11.03-.21.04-.32,0-.08.01-.16.02-.24v-.08s.01-.06.01-.09c0-.02,0-.04,0-.07v-.07c0-.08.01-.16.02-.23,0-.11.01-.23.01-.34,0-.06,0-.13,0-.19,0-.14,0-.28,0-.42v-.1c0-10.39-7.79-19.12-18.11-20.31h-.1c-.14-.03-.29-.04-.43-.05-.05,0-.09,0-.14-.01h-.16c-.05-.02-.1-.02-.16-.03h-.08c-.06,0-.13-.01-.19-.02h-.04c-.11,0-.21-.01-.32-.02-.08,0-.15,0-.23,0-.11,0-.22,0-.33,0h-.11s-.04,0-.07,0h-.07c-.09,0-.17,0-.25,0-.09,0-.17,0-.26,0-.08,0-.17,0-.25,0-.09,0-.17,0-.26.01-.08,0-.17,0-.25.01-.08,0-.17.01-.25.02-.08,0-.17.01-.25.02-.08,0-.17.02-.25.02h-.01c-.08,0-.16.02-.24.03-.07,0-.15.02-.22.03h-.07c-.07.02-.13.03-.2.04-.07,0-.14.02-.21.03h-.1c-.06.02-.12.03-.19.04-.07.01-.14.02-.2.04l-.11.02c-.06.01-.12.02-.18.03-.06.01-.13.03-.19.04l-.13.03c-.05.01-.11.02-.16.03-.06.01-.13.03-.19.04l-.15.03s-.1.02-.15.03c-.06.02-.13.03-.19.05l-.15.04s-.09.02-.14.04c-.07.02-.15.04-.22.06l-.14.04s-.08.02-.11.03c-.16.05-.31.09-.47.14-.03.01-.07.02-.1.03l-.14.05c-.07.02-.15.05-.22.07-.04.01-.09.03-.13.05l-.14.05c-.06.02-.13.04-.19.07-.05.02-.09.03-.14.05l-.14.05c-.06.02-.12.05-.18.07-.05.02-.1.04-.15.06l-.12.05c-.06.02-.12.05-.18.08-.05.02-.1.04-.15.07l-.1.04c-.07.03-.13.06-.2.09-.05.02-.11.05-.16.07l-.09.04c-.06.03-.13.06-.19.09-.06.03-.11.06-.17.08l-.07.03c-.07.03-.13.07-.2.1-.06.03-.13.07-.19.1h-.02c-.07.05-.15.09-.22.13-.07.04-.14.08-.21.11-.07.04-.15.08-.22.12-.07.04-.13.08-.2.12-.07.04-.14.08-.21.13-.07.04-.13.08-.2.12-.07.04-.14.09-.21.13-.07.04-.13.08-.2.13-.07.05-.14.09-.21.14-.07.04-.13.09-.19.13-.07.05-.14.09-.2.14-.06.05-.13.09-.19.14-.07.05-.13.1-.2.15-.06.05-.12.09-.19.14-.07.05-.13.1-.2.15-.06.05-.12.1-.18.14-.07.05-.13.1-.19.16-.06.05-.12.1-.18.15-.06.05-.13.11-.19.16l-.02.02c-.05.04-.1.09-.16.13-.06.05-.12.1-.17.15l-.05.04s-.09.08-.14.12c-.05.05-.11.1-.16.15l-.07.06s-.08.08-.12.12c-.05.05-.1.1-.15.15l-.07.07s-.08.08-.11.11c-.05.05-.09.1-.14.15l-.1.1s-.06.07-.1.1c-.05.05-.1.11-.15.16l-.09.09s-.06.06-.09.1c-.05.06-.11.12-.16.18l-.09.1s-.05.05-.07.08c-.08.09-.16.19-.24.28l-.07.09c-.1.12-.2.25-.3.38-.02.02-.03.04-.05.07l-.07.09c-.06.07-.11.15-.17.23-.02.03-.05.06-.07.1l-.07.1c-.05.07-.09.13-.14.2-.03.04-.05.07-.08.11l-.07.1c-.04.06-.09.13-.13.19-.03.04-.05.08-.08.12l-.07.1c-.04.06-.08.12-.12.18-.03.05-.06.09-.09.14l-.04.07c-.04.07-.08.14-.13.2-.03.05-.06.09-.08.14l-.04.06c-.04.07-.09.14-.13.22-.03.05-.06.11-.09.16l-.02.04c-.04.08-.09.15-.13.23-.03.06-.07.13-.1.2-.04.08-.08.16-.12.24-.03.06-.06.13-.09.19v.02c-.05.08-.08.16-.12.23-.03.07-.07.14-.1.21-.04.08-.07.16-.11.24-.03.07-.06.14-.09.21-.03.08-.07.16-.1.24-.03.07-.06.14-.09.21-.03.08-.07.16-.1.24-.03.07-.06.14-.08.22-.03.08-.06.16-.09.25-.03.07-.05.14-.08.22-.03.08-.06.17-.09.25-.02.07-.05.15-.07.22-.03.08-.05.17-.08.25-.02.07-.05.15-.07.22-.03.09-.05.17-.07.26v.02c-.03.07-.04.13-.06.2-.02.09-.05.17-.07.26v.04c-.03.06-.04.12-.06.19-.02.09-.04.18-.06.27v.05c-.03.06-.04.12-.05.17-.02.08-.04.17-.05.25l-.02.08c-.01.05-.02.11-.03.16-.02.08-.03.16-.05.25l-.02.11s-.02.09-.03.14c-.01.08-.03.16-.04.24l-.02.13s-.01.09-.02.13c-.01.09-.02.19-.04.28v.11s-.03.08-.03.12c-.01.11-.02.21-.03.32v.11s-.02.06-.02.08c-.02.17-.03.34-.04.52-.01.16-.02.32-.03.47v.13c-.01.13-.01.25-.02.38v.1c0,.16,0,.31,0,.46v.1c0,.12,0,.25,0,.37v.12c0,.16.02.31.03.46h0c0,.16.02.31.03.46v.13c.02.12.03.25.05.37v.09c.03.15.04.3.06.45l.02.11c.02.12.03.24.05.36l.02.12c.02.15.05.3.08.44v.03c.03.14.06.27.09.41l.03.13c.03.12.05.24.08.35l.02.09c.03.14.07.29.11.43l.03.11c.03.11.06.22.09.33l.04.13c.04.14.08.28.13.42l.02.05c.04.12.08.25.12.37l.04.13c.04.11.08.22.12.33l.03.09c.05.14.1.27.16.4l.05.12c.04.1.08.2.13.3l.05.13c.06.13.11.26.17.39l.03.07c.05.11.1.22.15.33.02.04.04.09.06.13.05.1.1.2.15.3l.05.09c.06.11.11.22.17.33Z" fill="#359545"/><path d="m257.44,83.92l-1.28-.09c0-.05.36-5.22,1.13-10.66.45-3.21.96-5.89,1.51-7.97.03-.1.06-.21.08-.31-1.44.07-3.22-.05-5.44-.45-.58-.1-1.11-.22-1.61-.34.14.88.21,1.84.23,2.89.15,13.74-.08,16.48-.09,16.59l-1.28-.12s.24-2.86.09-16.46c-.01-1.28-.13-2.37-.32-3.29-3.45-1.09-4.62-2.63-4.48-3.87.1-.87.87-1.46,1.84-1.41,1.06.05,2.09.81,2.84,2.08.37.62.66,1.34.88,2.17.63.17,1.34.33,2.13.48,2.3.41,4.15.51,5.6.4.59-1.8,1.22-2.98,1.92-3.56,1.18-.99,2.27-.84,2.91-.37.75.56.98,1.59.56,2.56-.27.61-1.23,2.09-4.41,2.55-.54,1.86-1.12,4.59-1.69,8.59-.77,5.4-1.12,10.53-1.13,10.58Zm5.54-23.36c-.28,0-.61.15-.95.43-.33.27-.79.91-1.32,2.38,1.6-.34,2.48-.99,2.79-1.69.21-.47.07-.85-.15-1.02-.1-.07-.22-.11-.36-.11Zm-15.27-.83c-.2,0-.43.07-.45.27-.05.45.65,1.38,2.78,2.21-.64-1.71-1.57-2.44-2.28-2.48-.02,0-.03,0-.05,0Z" fill="#359545"/><rect x="253.06" y="77.24" width="1.28" height="17.8" transform="translate(120.76 318.76) rotate(-79.01)" fill="#359545"/><rect x="252.93" y="79.05" width="1.28" height="17.8" transform="translate(118.88 320.1) rotate(-79.01)" fill="#359545"/><rect x="252.81" y="80.87" width="1.28" height="17.8" transform="translate(117 321.45) rotate(-79.01)" fill="#359545"/><rect x="252.28" y="83.02" width="1.28" height="16.97" transform="translate(114.87 322.33) rotate(-79.01)" fill="#359545"/><rect x="283.23" y="54.42" width="1.28" height="6.81" transform="translate(207.03 337.15) rotate(-86.13)" fill="#359545"/><rect x="277.65" y="42.86" width="6.81" height="1.28" transform="translate(9.57 128.23) rotate(-26.13)" fill="#359545"/><rect x="268.05" y="31.86" width="6.81" height="1.28" transform="translate(93.18 239.78) rotate(-56.13)" fill="#359545"/><rect x="254.24" y="27.14" width="6.81" height="1.28" transform="translate(212.54 282.97) rotate(-86.13)" fill="#359545"/><rect x="242.68" y="27.2" width="1.28" height="6.81" transform="translate(11.39 110.29) rotate(-26.13)" fill="#359545"/><rect x="231.68" y="36.8" width="1.28" height="6.81" transform="translate(69.47 210.7) rotate(-56.13)" fill="#359545"/><rect x="226.96" y="50.61" width="1.28" height="6.81" transform="translate(158.35 277.46) rotate(-86.13)" fill="#9bd"/><path d="m214.79,37.56c-2.1,0-3.82-1.71-3.82-3.82s1.71-3.82,3.82-3.82,3.82,1.71,3.82,3.82-1.71,3.82-3.82,3.82Zm0-6.35c-1.4,0-2.53,1.14-2.53,2.53s1.14,2.53,2.53,2.53,2.53-1.14,2.53-2.53-1.14-2.53-2.53-2.53Z" fill="#359545"/><path d="m58.81,91.89c-2.1,0-3.82-1.71-3.82-3.82s1.71-3.82,3.82-3.82,3.82,1.71,3.82,3.82-1.71,3.82-3.82,3.82Zm0-6.35c-1.4,0-2.53,1.14-2.53,2.53s1.14,2.53,2.53,2.53,2.53-1.14,2.53-2.53-1.14-2.53-2.53-2.53Z" fill="#359545"/><path d="m140.2,32.7c-1.66,0-3.02-1.35-3.02-3.02s1.35-3.02,3.02-3.02,3.02,1.35,3.02,3.02-1.35,3.02-3.02,3.02Zm0-4.75c-.96,0-1.73.78-1.73,1.73s.78,1.73,1.73,1.73,1.73-.78,1.73-1.73-.78-1.73-1.73-1.73Z" fill="#359545"/><path d="m253.57,120.86c-2.1,0-3.82-1.71-3.82-3.82s1.71-3.82,3.82-3.82,3.82,1.71,3.82,3.82-1.71,3.82-3.82,3.82Zm0-6.35c-1.4,0-2.53,1.14-2.53,2.53s1.14,2.53,2.53,2.53,2.53-1.14,2.53-2.53-1.14-2.53-2.53-2.53Z" fill="#359545"/><path d="m78.39,75.92l-21.57-4.26-10.39-36.24,30.66,3.87,1.3,36.63Zm-20.55-5.36l19.21,3.79-1.2-33.92-27.65-3.49,9.64,33.61Z" fill="#359545"/><path d="m81.01,75.81l-1.6-36.61,30.26-6.28-7.49,36.95-21.17,5.95Zm-.27-35.58l1.48,33.91,18.85-5.3,6.95-34.27-27.29,5.66Z" fill="#359545"/><path d="m77.25,75.79l-1.45-36.55,4.89-.19,1.45,36.55-4.89.19Zm-.11-35.32l1.35,33.98,2.33-.09-1.35-33.98-2.33.09Z" fill="#359545"/><path d="m77.63,39.81l-.11-2.67.28-.2c.09-.07,2.31-1.66,6.6-3.13,3.93-1.35,10.43-2.85,19.08-2.32h.17s2.71,1.84,2.71,1.84l-.72,1.06-2.42-1.63c-8.32-.48-14.56.95-18.34,2.24-3.29,1.12-5.33,2.34-6.04,2.79l.08,1.97-1.28.05Z" fill="#359545"/><path d="m77.63,39.81l-.08-1.97c-.74-.4-2.88-1.45-6.24-2.31-3.87-.99-10.21-1.92-18.46-.78l-2.29,1.82-.8-1,2.56-2.04.17-.02c8.58-1.21,15.18-.23,19.2.8,4.39,1.13,6.73,2.54,6.82,2.6l.29.18.11,2.67-1.28.05Z" fill="#359545"/><path d="m78.8,37.64l-1.24-.35c.07-.25,1.83-6.16,13.57-7.48,11.04-1.24,14.21-3.28,14.24-3.3l1.86-1.24-.92,2.04-2.3,5.09-1.17-.53,1.58-3.51c-1.96.76-5.91,1.91-13.16,2.73-5.67.64-8.77,2.4-10.37,3.76-1.71,1.46-2.11,2.78-2.11,2.79Z" fill="#359545"/><rect x="76.57" y="42.97" width="3.66" height="1.28" transform="translate(-1.66 3.13) rotate(-2.27)" fill="#359545"/><rect x="76.68" y="45.97" width="3.66" height="1.28" transform="translate(-1.78 3.14) rotate(-2.27)" fill="#359545"/><rect x="77.6" y="70.03" width="3.66" height="1.28" transform="translate(-2.26 2.62) rotate(-1.87)" fill="#9bd"/><rect x="77.5" y="67.03" width="3.66" height="1.28" transform="translate(-2.16 2.62) rotate(-1.87)" fill="#9bd"/><path d="m79.58,38.4c.38-.29.78-.53,1.19-.76.41-.23.83-.45,1.26-.65.85-.4,1.73-.75,2.62-1.05l.67-.22c.22-.07.45-.13.68-.2.45-.13.91-.25,1.37-.35.46-.11.92-.19,1.38-.28.46-.07.93-.14,1.4-.19-.45.15-.9.28-1.34.42l-.67.21c-.22.07-.45.13-.67.2-.22.07-.44.14-.67.21-.22.07-.44.14-.67.21-.44.14-.89.29-1.33.43-.88.3-1.76.61-2.63.94-.87.34-1.74.68-2.59,1.06Z" fill="#359545"/><path d="m87.45,36.7c1.15-.56,2.36-.99,3.59-1.37,1.23-.37,2.47-.69,3.73-.94.31-.06.63-.12.95-.18l.47-.08.48-.07.95-.14c.32-.04.64-.07.95-.11.64-.08,1.28-.11,1.91-.16.16-.01.32-.02.48-.02h.48c.32-.02.64-.03.96-.03-.63.11-1.27.18-1.9.28l-.95.14c-.16.03-.32.04-.47.07l-.47.08c-.31.05-.63.1-.94.15l-.94.17-.47.08-.47.09c-.31.06-.62.12-.94.18-1.25.25-2.49.53-3.72.83-1.23.31-2.47.63-3.69,1.01Z" fill="#359545"/><path d="m77.79,38.16c-.98-.23-1.95-.49-2.92-.74l-2.9-.77-2.9-.76-2.92-.74c1.01.05,2.01.19,3,.37.99.19,1.97.4,2.94.67.97.26,1.93.55,2.88.88.95.33,1.89.68,2.81,1.1Z" fill="#359545"/><path d="m72.54,38.04c-1.39-.22-2.78-.46-4.16-.7l-2.08-.36-1.04-.18-1.04-.18c-.69-.12-1.38-.24-2.08-.35-.35-.06-.69-.12-1.04-.17-.35-.05-.69-.11-1.04-.17-1.39-.21-2.77-.42-4.17-.61,1.41,0,2.82.09,4.22.24.7.07,1.4.17,2.1.26.35.05.7.1,1.04.16l1.04.17c.69.13,1.39.25,2.08.39.35.07.69.14,1.03.21.34.07.69.15,1.03.23,1.37.31,2.74.66,4.09,1.07Z" fill="#359545"/><path d="m52.79,108.78c-.54-3.01-2.22-5.64-4.73-7.39-2.51-1.75-5.56-2.42-8.57-1.88l-.23-1.26c3.35-.6,6.74.14,9.53,2.09,2.79,1.95,4.66,4.86,5.26,8.22l-1.26.23Z" fill="#359545"/><path d="m48.93,109.82c-.37-2.06-1.52-3.85-3.23-5.05-1.72-1.2-3.8-1.65-5.85-1.28l-.23-1.26c4.95-.88,9.69,2.42,10.57,7.37l-1.26.23Z" fill="#359545"/><path d="m45.08,110.87c-.41-2.28-2.59-3.8-4.87-3.4l-.23-1.26c2.98-.53,5.83,1.46,6.36,4.43l-1.26.23Z" fill="#359545"/><path d="m42.73,111.82c-.5.72-1.5.9-2.22.4-.72-.5-.9-1.5-.4-2.22.5-.72,1.5-.9,2.22-.4.72.5.9,1.5.4,2.22Z" fill="#359545"/><path d="m54.63,201.96l-.86-.96c.06-.05,5.57-5.03,10.17-13.22,4.16-7.41,8.39-19.03,5.18-32.57-1.96.67-8.15,3.09-14.01,8.72-6.49,6.23-13.88,17.79-12.29,37.5l-1.28.1c-.72-8.93.29-16.99,3.01-23.97,2.18-5.6,5.45-10.51,9.72-14.6,7.28-6.97,14.83-9.1,15.15-9.18l.63-.17.16.63c1.6,6.29,1.77,12.72.52,19.11-1,5.1-2.91,10.18-5.68,15.1-4.71,8.37-10.18,13.31-10.41,13.51Z" fill="#359545"/><path d="m49.26,201.65l-1.24-.32c.02-.06,1.66-6.38,4.59-14.49,2.71-7.5,7.1-18.12,12.67-26.11l1.05.73c-5.48,7.88-9.83,18.38-12.51,25.8-2.91,8.06-4.54,14.33-4.55,14.39Z" fill="#359545"/><rect x="47.72" y="188.05" width="1.28" height="8.62" transform="translate(-74.73 36.83) rotate(-24.25)" fill="#359545"/><rect x="51.83" y="186.85" width="9.28" height="1.28" transform="translate(-77.61 44.79) rotate(-26.45)" fill="#359545"/><rect x="53.04" y="173.84" width="1.28" height="8.55" transform="translate(-54.13 26.52) rotate(-18.65)" fill="#9bd"/><rect x="57.96" y="171.33" width="8.39" height="1.28" transform="translate(-77.39 53.8) rotate(-29.87)" fill="#9bd"/><rect x="58.93" y="163.36" width="1.28" height="6.58" transform="translate(-50.36 27.96) rotate(-18.73)" fill="#9bd"/><rect x="19.35" y="182" width="1.28" height="24.97" transform="translate(-152.29 102.06) rotate(-55.92)" fill="#359545"/><path d="m29.77,201.79c-.04-.07-4-7.52-6.78-18.87-1.64-6.67-2.56-13.37-2.74-19.91-.23-8.19.71-16.16,2.78-23.69l.22-.78.71.39c.19.1,4.72,2.61,10,8.02,3.1,3.17,5.8,6.69,8.04,10.46,2.8,4.71,4.87,9.81,6.15,15.17l-1.25.3c-2.84-11.83-9.09-20.12-13.83-24.99-3.95-4.06-7.55-6.49-9.02-7.41-4.33,16.46-2.31,31.95.17,42.1,2.74,11.21,6.64,18.53,6.68,18.61l-1.13.61Z" fill="#359545"/><path d="m40.43,201.52c0-.07-.43-7.01-2.33-17.15-1.76-9.35-5.17-23.41-11.45-37.31l1.17-.53c6.34,14.02,9.78,28.2,11.54,37.63,1.92,10.21,2.34,17.22,2.34,17.29l-1.28.07Z" fill="#359545"/><rect x="27.99" y="150.97" width="1.28" height="6.85" transform="translate(-107.26 75.72) rotate(-49.42)" fill="#359545"/><rect x="29.55" y="156.57" width="7.86" height="1.28" transform="translate(-127.16 162.85) rotate(-79.99)" fill="#9bd"/><rect x="30.46" y="161.6" width="1.28" height="8.85" transform="translate(-129.02 112.26) rotate(-60.83)" fill="#359545"/><rect x="32.43" y="167.09" width="10.63" height="1.28" transform="translate(-133.75 155.59) rotate(-73.27)" fill="#9bd"/><rect x="32.64" y="172.61" width="1.28" height="10.41" transform="translate(-140.36 127.08) rotate(-63.11)" fill="#359545"/><rect x="35.4" y="178.66" width="11.27" height="1.28" transform="translate(-139.7 145.11) rotate(-66.4)" fill="#359545"/><rect x="35" y="185.68" width="1.28" height="10.23" transform="translate(-150.07 134.37) rotate(-62.52)" fill="#359545"/><rect x="39.57" y="194.08" width="3.45" height="1.28" transform="translate(-152.9 151.02) rotate(-65.34)" fill="#359545"/><path d="m18.93,202.08c-3.99-1.7-7.44-3.84-10.23-6.37-2.25-2.03-4.09-4.3-5.47-6.76-2.37-4.22-2.56-7.49-2.57-7.63l-.03-.66h.66c8.78-.17,15.14,2.48,18.93,4.72,4.12,2.44,6.14,4.91,6.22,5.01l-1,.81s-1.99-2.42-5.94-4.75c-3.53-2.08-9.4-4.53-17.48-4.53h0c.18,1.13.73,3.58,2.36,6.47,2.07,3.66,6.36,8.81,15.05,12.51l-.5,1.18Z" fill="#359545"/><rect x="13.22" y="185.05" width="1.28" height="6.7" transform="translate(-84.85 27.34) rotate(-27.3)" fill="#359545"/><rect x="15.18" y="190.32" width="1.28" height="7" transform="translate(-178.6 198.17) rotate(-86.61)" fill="#359545"/><rect x="21.5" y="190.58" width="1.28" height="6.35" transform="translate(-68.16 20.91) rotate(-21.06)" fill="#359545"/><rect x="20.92" y="198.57" width="5.19" height="1.28" transform="translate(-48.47 11.98) rotate(-14.3)" fill="#359545"/><rect x="268.05" y="185.53" width="9.31" height="1.28" transform="translate(-49.67 257.6) rotate(-46.81)" fill="#359545"/><rect x="265.22" y="188.76" width="1.28" height="9.67" transform="translate(-60.46 234.56) rotate(-43.22)" fill="#359545"/><rect x="269.7" y="198.41" width="5.9" height="1.28" transform="translate(-63.85 226.04) rotate(-40.72)" fill="#359545"/><rect x="247.04" y="181.37" width="1.28" height="7.72" transform="translate(8.18 380.94) rotate(-76.05)" fill="#359545"/><rect x="250.24" y="186.19" width="8.19" height="1.28" transform="translate(35.41 414.14) rotate(-82.38)" fill="#359545"/><rect x="252.01" y="191.25" width="1.28" height="6.67" transform="translate(-7.67 378.78) rotate(-72.88)" fill="#359545"/><rect x="255.66" y="196.31" width="4.39" height="1.28" transform="translate(-5.71 386.19) rotate(-73.05)" fill="#9bd"/><rect x="284.06" y="182.51" width="8.51" height="1.28" transform="translate(-38.95 85.32) rotate(-15.78)" fill="#359545"/><path d="m259.05,201.15c-.09-.32-2.23-7.92-1.83-19.08.24-6.55,1.31-12.96,3.2-19.04,2.36-7.6,6-14.72,10.81-21.15l.51-.69.51.69c.15.2,3.79,5.13,6.29,14.93,1.46,5.74,2.23,11.96,2.28,18.5.06,8.16-1.01,16.84-3.17,25.8l-1.25-.3c4.83-20,3.17-34.75.92-43.61-1.9-7.49-4.53-12.13-5.6-13.83-10.24,14.06-12.85,28.76-13.21,38.68-.4,10.97,1.76,18.65,1.78,18.73l-1.23.35Z" fill="#359545"/><rect x="248.04" y="178.4" width="43.91" height="1.28" transform="translate(78.93 440.66) rotate(-87.41)" fill="#359545"/><rect x="267.6" y="163.32" width="1.28" height="7.33" transform="translate(-46.82 190.96) rotate(-36.26)" fill="#359545"/><rect x="268.88" y="171.56" width="8.54" height="1.28" transform="translate(-34.25 271.04) rotate(-50.05)" fill="#359545"/><rect x="266.08" y="176.94" width="1.28" height="8.81" transform="translate(-51.57 233.47) rotate(-43.51)" fill="#359545"/><path d="m252.59,201.48c-.17-.13-4.25-3.36-8.13-9.16-2.28-3.41-4.01-7-5.14-10.67-1.42-4.6-1.9-9.33-1.43-14.08l.07-.69.68.12c.13.02,3.16.58,7.12,2.59,3.66,1.85,8.82,5.33,12.67,11.41l-1.09.69c-3.68-5.82-8.62-9.15-12.12-10.93-2.73-1.38-5.03-2.06-6.13-2.34-.78,10.01,3.02,18.09,6.4,23.14,3.77,5.64,7.83,8.87,7.88,8.9l-.79,1.01Z" fill="#359545"/><path d="m257.29,201.18c-.06-.17-5.85-17.42-14.7-26.67l.93-.89c4.74,4.95,8.56,12.08,10.94,17.18,2.57,5.51,4.04,9.93,4.05,9.97l-1.22.4Z" fill="#359545"/><rect x="243.29" y="174.66" width="1.28" height="5.3" transform="translate(-1.09 353.12) rotate(-71.67)" fill="#359545"/><rect x="247.73" y="174.96" width="1.28" height="6.39" transform="translate(-12.95 19.6) rotate(-4.4)" fill="#359545"/><path d="m285.65,201.53l-.64-1.11s3.85-2.26,7.43-8.5c3.27-5.69,6.99-15.94,6.37-32.62-1.21.33-3.79,1.17-6.68,2.98-3.66,2.29-8.61,6.65-11.34,14.41l-1.21-.43c2.87-8.14,8.07-12.71,11.92-15.11,4.18-2.61,7.66-3.27,7.8-3.3l.73-.14.03.74c.35,7.72-.18,14.78-1.58,20.98-1.12,4.98-2.8,9.42-4.99,13.21-3.76,6.5-7.69,8.78-7.85,8.88Z" fill="#359545"/><path d="m280.83,201.05l-1.27-.15c0-.06.69-5.77,2.84-13.03,2-6.72,5.7-16.19,12.02-23.16l.95.86c-6.15,6.79-9.78,16.06-11.74,22.64-2.13,7.16-2.8,12.78-2.81,12.84Z" fill="#359545"/><rect x="286.9" y="168.67" width="5.79" height="1.28" transform="translate(114.44 455.49) rotate(-88.8)" fill="#359545"/><rect x="287.76" y="173.7" width="7.31" height="1.28" transform="translate(-39.64 98.71) rotate(-18.02)" fill="#359545"/><rect x="284.61" y="173.19" width="1.28" height="7.36" transform="translate(-17.14 31.23) rotate(-6.08)" fill="#359545"/><rect x="281.22" y="181.15" width="1.28" height="7.08" transform="translate(-44.84 102.09) rotate(-19.05)" fill="#359545"/><rect x="281.63" y="190.37" width="9.4" height="1.28" transform="translate(-44.99 97.74) rotate(-17.98)" fill="#359545"/><rect x="279.1" y="192.91" width="1.28" height="4.34" transform="translate(-60.27 168.53) rotate(-30.42)" fill="#359545"/><path d="m295.06,206H2.78c0-3.44,2.79-6.23,6.23-6.23h279.81c3.44,0,6.23,2.79,6.23,6.23h0Z" fill="#359545"/><path d="m87.61,42.55h150.01c7.64,0,13.84,6.2,13.84,13.85v93.45c0,7.64-6.2,13.85-13.84,13.85H87.61c-7.64,0-13.84-6.21-13.84-13.85V56.4c0-7.65,6.2-13.85,13.84-13.85Zm0,105.33h150c5.33,0,9.66-4.34,9.66-9.66V56.4c0-5.33-4.33-9.66-9.66-9.66H87.62c-5.33,0-9.66,4.34-9.66,9.66v81.81c0,5.33,4.34,9.66,9.66,9.66Z" fill="#4c144d"/><path d="m247.27,56.4v81.81c0,3.86-2.27,7.2-5.55,8.74-1.25.59-2.64.92-4.11.92H87.62c-5.33,0-9.66-4.34-9.66-9.66V56.4c0-4.8,3.52-8.79,8.1-9.54.51-.08,1.03-.13,1.56-.13h150c.53,0,1.05.04,1.56.13,4.59.75,8.1,4.74,8.1,9.54Z" fill="#e6e6e6"/><g clip-path="url(#b)" fill="none"><path d="m162,77.08v40.73c0,.63-.51,1.14-1.14,1.14h-73.6c-.63,0-1.14-.51-1.14-1.14v-40.73h75.87Z" fill="#92278f"/><path d="m162,71.94v5.14h-75.87v-5.14c0-1.92,1.57-3.49,3.49-3.49h68.9c1.92,0,3.49,1.57,3.49,3.49Z" fill="#4c144d"/><circle cx="92.68" cy="72.58" r="1.01" fill="#48c902"/><path d="m128.12,109.5h-32.46c-.16,0-.28-.13-.28-.28s.13-.28.28-.28h32.46c.16,0,.28.13.28.28s-.13.28-.28.28Z" fill="#4c144d"/><path d="m128.12,112.22h-36.44c-.16,0-.28-.13-.28-.28s.13-.28.28-.28h36.44c.16,0,.28.13.28.28s-.13.28-.28.28Z" fill="#4c144d"/><path d="m128.12,114.77h-36.44c-.16,0-.28-.13-.28-.28s.13-.28.28-.28h36.44c.16,0,.28.13.28.28s-.13.28-.28.28Z" fill="#4c144d"/><path d="m156.19,84.37h-12.33c-.16,0-.28-.13-.28-.28s.13-.28.28-.28h12.33c.16,0,.28.13.28.28s-.13.28-.28.28Z" fill="#4c144d"/><path d="m156.19,87.09h-13.84c-.16,0-.28-.13-.28-.28s.13-.28.28-.28h13.84c.16,0,.28.13.28.28s-.13.28-.28.28Z" fill="#4c144d"/><path d="m156.19,89.64h-13.84c-.16,0-.28-.13-.28-.28s.13-.28.28-.28h13.84c.16,0,.28.13.28.28s-.13.28-.28.28Z" fill="#4c144d"/><path d="m156.19,96.97h-12.33c-.16,0-.28-.13-.28-.28s.13-.28.28-.28h12.33c.16,0,.28.13.28.28s-.13.28-.28.28Z" fill="#4c144d"/><path d="m156.19,99.69h-13.84c-.16,0-.28-.13-.28-.28s.13-.28.28-.28h13.84c.16,0,.28.13.28.28s-.13.28-.28.28Z" fill="#4c144d"/><path d="m156.19,102.25h-13.84c-.16,0-.28-.13-.28-.28s.13-.28.28-.28h13.84c.16,0,.28.13.28.28s-.13.28-.28.28Z" fill="#4c144d"/><path d="m156.19,109.58h-12.33c-.16,0-.28-.13-.28-.28s.13-.28.28-.28h12.33c.16,0,.28.13.28.28s-.13.28-.28.28Z" fill="#4c144d"/><path d="m156.19,112.3h-13.84c-.16,0-.28-.13-.28-.28s.13-.28.28-.28h13.84c.16,0,.28.13.28.28s-.13.28-.28.28Z" fill="#4c144d"/><path d="m156.19,114.85h-13.84c-.16,0-.28-.13-.28-.28s.13-.28.28-.28h13.84c.16,0,.28.13.28.28s-.13.28-.28.28Z" fill="#13375b"/><circle cx="97.9" cy="72.58" r="1.01" fill="#359545"/><circle cx="102.85" cy="72.58" r="1.01" fill="#efefef"/><rect x="91.67" y="82.95" width="36.44" height="23.7" rx="11.85" ry="11.85" fill="#b24b9c"/><rect x="132.62" y="82.95" width="7.54" height="7.54" fill="#fff"/><rect x="132.62" y="95.56" width="7.54" height="7.54" fill="#efefef"/><rect x="132.62" y="108.16" width="7.54" height="7.54" fill="#fff"/><circle cx="119.97" cy="91.59" r="1.53" transform="translate(11.44 196.48) rotate(-81.39)" fill="#efefef"/><path d="m95.68,101.06l8.67-8.67c.57-.57,1.5-.57,2.08,0l4.27,4.27c.57.57,1.5.57,2.08,0l1.99-1.99c.57-.57,1.5-.57,2.08,0l6.37,6.37-27.54.02Z" fill="#efefef"/><rect x="139.35" y="106.47" width="12.44" height="10.27" rx="5.14" ry="5.14" transform="translate(178.91 291.97) rotate(-137.95)" fill="#fae0b2"/><path d="m150.06,110.73h0c.96-.16,1.82,1.69,1.66.72l-.82-6.53c-.16-.96-1.08-1.62-2.04-1.46h0c-.96.16-1.62,1.08-1.46,2.04l.63,3.76c.16.96,1.08,1.62,2.04,1.46Z" fill="#fae0b2"/><path d="m147.72,109.02h0c.65-.73.6-1.85-.13-2.51l-2.83-2.56c-.73-.65-1.85-.6-2.51.13h0c-.65.73-.6,1.85.13,2.51l2.83,2.56c.73.65,1.85.6,2.51-.13Z" fill="#fae0b2"/><path d="m144.45,109.05h0c.65-.73.6-1.85-.13-2.51l-2.83-2.56c-.73-.65-1.85-.6-2.51.13h0c-.65.73-.6,1.85.13,2.51l2.83,2.56c.73.65,1.85.6,2.51-.13Z" fill="#fae0b2"/><path d="m143.65,111.31h0c.65-.73.6-1.85-.13-2.51l-2.83-2.56c-.73-.65-1.85-.6-2.51.13h0c-.65.73-.6,1.85.13,2.51l2.83,2.56c.73.65,1.85.6,2.51-.13Z" fill="#fae0b2"/><path d="m143.78,114.41h0c.65-.73.6-1.85-.13-2.51l-2.83-2.56c-.73-.65-1.85-.6-2.51.13h0c-.65.73-.6,1.85.13,2.51l2.83,2.56c.73.65,1.85.6,2.51-.13Z" fill="#fae0b2"/><path d="m175.58,110.26c7.71-10.68,19.32-12.72,20.74-12.94-10.1,1.76-17.85,10.37-18.27,20.87-.01.3-.02.6-.02.9v13.21c-16.98,9.53-32.71-13.45-32.71-13.45l7.85-7.28c6.35,6.91,14.19,10.09,22.41-1.31Z" fill="#4c144d"/><path d="m239.89,136.71c0,13.75-3.43,24.95-14.14,35.26-.37-.11-1.46-.35-4.22-3.01-1.74-1.67-2.93-5.46-2.93-5.46,0,0,.56-.92,1.36-2.49h-3.88s-24.04.03-24.04.03h-13.69c-1.15.02-2.06-.95-1.99-2.1l1.66-26.63v-13.21c0-.3,0-.6.02-.9.42-10.5,8.16-19.11,18.27-20.87.05,0,.1-.01.14-.02,1.19-.2,2.41-.3,3.66-.3h7.83c1.24,0,2.46.1,3.65.3,1.63.27,3.19.72,4.68,1.33,12.77,4.53,23.6,20.43,23.61,38.08Z" fill="#b24b9c"/><path d="m212.72,161.05h-24.04v-.02l3.99-59.51s2.84-4.53,4.09-4.53h7.83c1.24,0,2.46.1,3.65.3l.31,4.35,4.18,59.36v.04Z" fill="#4c144d"/><path d="m192.89,98.06l-4.21,70.37-13.21-2.82,4.93-34.77s1.82-11.12,3.48-17.28c1.66-6.17,9.01-15.49,9.01-15.49Z" fill="#b24b9c"/><path d="m208.23,97.3l4.49,71.1,15.78-1.78s2.34-11.5,4.54-22.29c2.19-10.79.2-29.64-5.28-34.91-5.48-5.27-19.52-12.12-19.52-12.12Z" fill="#b24b9c"/><path d="m215.07,118.73s2.5,5.53,4.37,14.13c1.87,8.59-.83,30.65-.83,30.65l1.36-2.63s6.14-12.6,5.23-20.36c-.91-7.75-3.94-14.62-10.13-21.79Z" fill="#92278f"/><rect x="143.86" y="103.6" width=".37" height="5.78" transform="translate(-33.11 133.05) rotate(-45)" fill="#fe875e"/><rect x="140.49" y="105.17" width=".37" height="5.66" transform="translate(-35.16 131.1) rotate(-45)" fill="#fe875e"/><rect x="140.27" y="108.56" width=".37" height="4.86" transform="translate(-37.35 131.83) rotate(-45)" fill="#fe875e"/><path d="m208.56,102.52c-1.92.92-4.81,1.38-7.92,1.38s-6.14-.63-8.06-1.63l.26-3.88.02-.32s.01,0,.01,0h-.01s.19-.07.43-.23c.39-.27.89-.78.84-1.63-.02-.41-.41-1.59-.41-1.59l-.43-1.65v-.02s-1.56-5.99-1.56-5.99l15.59-1.37s-1.33,7.17-1.12,9.83c.14,1.76,2.07,1.59,2.07,1.59l.27,5.52Z" fill="#fae0b2"/><path d="m205.1,90.22s-1.18,6.29-9.9,7.84c-.55.1-1.63.25-2.34.33l.02-.32s.01,0,.01,0h-.01s.19-.07.43-.23c.39-.27.89-.78.84-1.63-.02-.41-.44-1.71-.44-1.71,0,0,8.39.81,11.39-4.27Z" fill="#fae0b2"/><path d="m210.33,80.71c-.26,7.25-4.81,13.95-12.07,13.69s-13.63,0-14.19-14.64c-.39-10.16,6.35-12.92,13.6-12.66,7.25.26,12.92,6.35,12.66,13.6Z" fill="#fae0b2"/><path d="m201.53,75.6s-.19,4.55.04,7.42c.24,2.87.43,5.8-1.42,7.21,0,0,3.53-1.04,2.57-6.14-.96-5.1-.68-5.45-.07-7.08.6-1.64-1.12-1.41-1.12-1.41Z" fill="#1a1a1a"/><path d="m185.94,75.08c.57.42,1.46.77,2.81.91,4.72.5,13.29-3.36,13.29-3.36,0,0-.84,2.55-.56,7.16,0,0,1.52-2.93,3.68-.12,1.94,2.52-.82,5.49-2.48,4.84,0,0-.77,5.7-3.62,6.22-2.85.52-3.4-2.15-7.67-3.23-4.26-1.08-5.71,1.13-5.71,1.13,3.69,8.71,16.04,5.52,16.04,5.52,0,0,1.54,1.54,4.83,1.21s3.95-7.44,3.95-7.44c2.23.79,4.75-3.58,5.13-10.26.39-6.67-5.8-6.88-5.8-6.88,0,0,.74-4.67-6.5-7.29-7.05-2.54-9.56.2-9.69.34.06-.21,1.43-4.78-2.27-4.85-3.79-.07-3.31,3.81-3.31,3.81-4.23-3.83-10.26,1.39-9.18,5.77,1.08,4.38,6.11,3.92,6.11,3.92,0,0-.5,1.52.92,2.57h0Z" fill="#1a1a1a"/><path d="m155.38,113.6s0-.02,0-.03c0-.01,0-.02,0-.03,0-.01,0-.02,0-.03,0-.01-.01-.02-.02-.03,0,0,0-.02-.02-.03,0,0,0,0,0,0,0,0,0,0,0,0l-1.94-1.92s-.02-.01-.03-.02c-.01,0-.02-.02-.03-.02-.01,0-.02,0-.03,0-.01,0-.02,0-.04,0-.01,0-.02,0-.04,0-.01,0-.02,0-.03,0-.01,0-.02.01-.03.02,0,0-.02,0-.03.02l-1.45,1.31s0,0,0,0c0,0,0,0,0,0l-.72.65s0,0,0,0c0,0,0,0,0,0l-1.44,1.31s0,0,0,0c0,0,0,0,0,0l-.72.65h0s0,0,0,0l-3.61,3.28s-.01.02-.02.02c0,0-.02.02-.02.03,0,.01,0,.02-.01.03,0,.01,0,.02,0,.03,0,.01,0,.02,0,.04,0,.01,0,.02,0,.03,0,.01.01.02.02.03,0,0,0,.02.01.02l1.64,2.2s0,0,0,0c0,0,0,0,0,0,.01.01.02.02.04.03,0,0,.01.01.02.02.02.01.05.02.08.02.04,0,.07-.01.1-.03,0,0,0,0,0,0,0,0,0,0,0,0,0,0,0,0,0,0l3.74-3.4h0l.75-.68s0,0,0,0c0,0,0,0,0,0l1.5-1.36s0,0,0,0c0,0,0,0,0,0l.75-.68s0,0,0,0h0s1.49-1.36,1.49-1.36c0,0,0,0,0,0,0,0,0,0,0,0,0,0,.01-.02.02-.03,0-.01.02-.02.02-.03,0-.01,0-.02,0-.03Zm-.92.39l-1.65-1.68.45-.41,1.68,1.66-.47.43Zm-.75.68l-1.63-1.7.45-.41,1.65,1.68-.47.43Zm-.75.68l-1.61-1.73.45-.41,1.63,1.7-.47.43Zm-.75.68l-1.58-1.75.45-.41,1.61,1.73-.47.43Zm-.75.68l-1.56-1.77.45-.41,1.58,1.75-.47.43Zm-.75.68l-1.54-1.79.45-.41,1.56,1.77-.47.43Zm-.75.68l-1.51-1.81.45-.41,1.54,1.79-.47.43Zm-.75.68l-1.49-1.84.45-.41,1.51,1.81-.47.43Zm-.75.68l-1.47-1.86.45-.41,1.49,1.84-.47.43Zm-.75.68l-1.44-1.88.45-.41,1.47,1.86-.47.43Zm-.75.68l-1.42-1.9.45-.41,1.44,1.88-.47.43Z" fill="#1a1a1a"/></g><path d="m247.27,56.4v1.94H77.96v-1.94c0-4.8,3.52-8.79,8.1-9.54h153.12c4.59.75,8.1,4.74,8.1,9.54Z" fill="#92278f"/><circle cx="87.79" cy="52.6" r="2.2" fill="#171c51"/><circle cx="99.16" cy="52.6" r="2.2" fill="#171c51"/><circle cx="109.95" cy="52.6" r="2.2" fill="#171c51"/><g fill="none" opacity=".4"><polygon points="149.58 147.87 120.7 147.87 88.13 46.73 117.01 46.73 149.58 147.87" fill="#fff"/><polygon points="166.02 147.87 157.4 147.87 124.82 46.73 133.44 46.73 166.02 147.87" fill="#fff"/><polygon points="234.21 147.87 205.33 147.87 172.76 46.73 201.64 46.73 234.21 147.87" fill="#fff"/><path d="m247.27,137.42v.79c0,3.86-2.27,7.2-5.55,8.74l-32.27-100.22h8.62l29.21,90.69Z" fill="#fff"/></g><path d="m100.34,159.93c.45,0,.81.36.81.81,0,.22-.09.43-.24.57s-.35.24-.57.24h-47.63c-.45,0-.81-.36-.81-.81,0-.22.09-.42.24-.57s.35-.24.57-.24h47.63Z" fill="#92278f"/><path d="m60.47,158.79h7.36c-.15,0-.3.06-.4.17-.1.1-.17.24-.17.4,0,.31.25.56.56.56h-15.14c-.31,0-.56-.25-.56-.56,0-.16.06-.3.17-.4s.24-.17.4-.17h7.78Z" fill="#d1d1d1"/><path d="m77.76,158.79c.31,0,.56.25.56.56,0,.16-.06.3-.17.4-.1.1-.24.17-.4.17h-9.92c-.31,0-.56-.25-.56-.56,0-.16.06-.3.17-.4.1-.1.24-.17.4-.17h9.92Z" fill="#9e9e9e"/><path d="m67.83,158.79h-7.36c-.81,0-1.41-.74-1.25-1.54l2.35-11.24c.12-.59.64-1.01,1.25-1.01h17.08c.81,0,1.42.74,1.25,1.54l-2.35,11.24c-.12.59-.64,1.02-1.25,1.02h-9.72Zm-7.36-.48h17.08c.37,0,.7-.27.78-.63l2.35-11.24c.05-.24,0-.48-.16-.66-.15-.19-.38-.29-.62-.29h-17.08c-.37,0-.7.27-.78.63l-2.35,11.24c-.05.24,0,.48.16.66.15.19.38.29.62.29Z" fill="#d1d1d1"/><path d="m80.52,145.77c.15.19.21.43.16.66l-2.35,11.24c-.08.37-.4.63-.78.63h-17.08c-.24,0-.46-.11-.62-.29-.15-.19-.21-.43-.16-.66l2.35-11.24c.08-.37.4-.63.78-.63h17.08c.24,0,.47.11.62.29Z" fill="#f4f4f4"/><polygon points="58.63 193.08 48.5 193.08 45.32 177.7 54.89 176.99 58.63 193.08" fill="#92278f"/><path d="m81.59,194.93h-10.13l-7.19-20.76s-3.08,1.78-9.49,2.84l-9.37.53c-13.99.54-12.65-13.94-12.65-13.94h24.14l9.73,2.79c2.23.64,4.04,2.26,4.93,4.4l10.03,24.15Z" fill="#92278f"/><path d="m80.33,194.96l-.19-.44.15-.06.19.44-.15.06Zm-.37-.89l-.19-.44.15-.06.19.44-.15.06Zm-.37-.89l-.19-.44.15-.06.19.44-.15.06Zm-.37-.89l-.19-.44.15-.06.19.44-.15.06Zm-.37-.89l-.19-.44.15-.06.19.44-.15.06Zm-.37-.89l-.19-.44.15-.06.19.44-.15.06Zm-.37-.89l-.19-.44.15-.06.19.44-.15.06Zm-.37-.89l-.19-.44.15-.06.19.44-.15.06Zm-.37-.89l-.19-.44.15-.06.19.44-.15.06Zm-.37-.89l-.19-.44.15-.06.19.44-.15.06Zm-.37-.89l-.19-.44.15-.06.19.44-.15.06Zm-.37-.89l-.19-.44.15-.06.19.44-.15.06Zm-.37-.89l-.19-.44.15-.06.19.44-.15.06Zm-.37-.89l-.19-.44.15-.06.19.44-.15.06Zm-.37-.89l-.19-.44.15-.06.19.44-.15.06Zm-.37-.89l-.19-.44.15-.06.19.44-.15.06Zm-.37-.89l-.19-.44.15-.06.19.44-.15.06Zm-.37-.89l-.19-.44.15-.06.19.44-.15.06Zm-.37-.89l-.19-.44.15-.06.19.44-.15.06Zm-.37-.89l-.19-.44.15-.06.19.44-.15.06Zm-.37-.89l-.19-.44.15-.06.19.44-.15.06Zm-.37-.89l-.19-.44.15-.06.19.44-.15.06Zm-.37-.89l-.19-.44.15-.06.19.44-.15.06Zm-.37-.89l-.19-.44.15-.06.19.44-.15.06Zm-.37-.89l-.19-.44.15-.06.19.44-.15.06Zm-.37-.89l-.19-.44.15-.06.19.44-.15.06Zm-.37-.89l-.19-.44.15-.06.19.44-.15.06Zm-.37-.89c-.06-.15-.13-.29-.21-.43l.14-.07c.07.14.15.29.21.44l-.15.06Zm-.44-.84c-.08-.13-.17-.27-.26-.4l.13-.09c.09.13.19.27.27.4l-.14.08Zm-.56-.77c-.1-.12-.21-.24-.32-.35l.12-.11c.11.12.22.24.33.36l-.12.1Zm-.66-.68c-.12-.11-.24-.21-.36-.31l.1-.13c.13.1.25.2.37.31l-.11.12Zm-.75-.58c-.13-.09-.27-.17-.4-.25l.08-.14c.14.08.28.17.41.26l-.09.13Zm-.83-.47c-.14-.07-.29-.13-.44-.19l.06-.15c.15.06.3.13.45.2l-.07.14Zm-.88-.35c-.06-.02-.13-.04-.19-.06l-.27-.08.04-.15.27.08c.07.02.13.04.19.06l-.05.15Zm-.92-.27l-.46-.13.04-.15.46.13-.04.15Zm-.93-.27l-.46-.13.04-.15.46.13-.04.15Zm-.93-.27l-.46-.13.04-.15.46.13-.04.15Zm-.93-.27l-.46-.13.04-.15.46.13-.04.15Zm-.93-.27l-.46-.13.04-.15.46.13-.04.15Zm-.93-.27l-.46-.13.04-.15.46.13-.04.15Zm-.93-.27l-.46-.13.04-.15.46.13-.04.15Zm-.93-.27l-.46-.13.04-.15.46.13-.04.15Zm-.93-.27l-.46-.13.04-.15.46.13-.04.15Zm-.93-.27l-.46-.13.04-.15.46.13-.04.15Zm-.91-.19h-.48v-.16h.48v.16Zm-.96,0h-.48v-.16h.48v.16Zm-.96,0h-.48v-.16h.48v.16Zm-.96,0h-.48v-.16h.48v.16Z" fill="#333"/><path d="m56.9,149.65l1.18,12.78c.06.62-.43,1.16-1.06,1.16h-24.3c-.62,0-1.11-.53-1.06-1.15l1.1-12.79v-3.4c0-4.78,3.37-8.83,7.88-9.73.01,0,.02,0,.04,0,1.11-.18,1.86-.18,1.86-.18h2.56s2.38,0,4.9.43c4.02,1.24,6.92,5.06,6.92,9.49v3.4Z" fill="#48c902"/><path d="m32.76,146.25v3.4c-1.56-3.04-1.93-6.95,1.01-9.87,2.15-2.14,5.01-2.96,6.87-3.26-4.51.9-7.88,4.95-7.88,9.73Z" fill="#359545"/><path d="m81.01,193.69h-.38v-.16h.38v.16Zm-.86,0h-.48v-.16h.48v.16Zm-.96,0h-.48v-.16h.48v.16Zm-.96,0h-.48v-.16h.48v.16Zm-.96,0h-.48v-.16h.48v.16Zm-.96,0h-.48v-.16h.48v.16Zm-.96,0h-.48v-.16h.48v.16Zm-.96,0h-.48v-.16h.48v.16Zm-.96,0h-.48v-.16h.48v.16Zm-.96,0h-.48v-.16h.48v.16Zm-.96,0h-.48v-.16h.48v.16Z" fill="#333"/><path d="m58.31,192.09h-.38v-.16h.38v.16Zm-.86,0h-.48v-.16h.48v.16Zm-.96,0h-.48v-.16h.48v.16Zm-.96,0h-.48v-.16h.48v.16Zm-.96,0h-.48v-.16h.48v.16Zm-.96,0h-.48v-.16h.48v.16Zm-.96,0h-.48v-.16h.48v.16Zm-.96,0h-.48v-.16h.48v.16Zm-.96,0h-.48v-.16h.48v.16Zm-.96,0h-.48v-.16h.48v.16Zm-.96,0h-.48v-.16h.48v.16Z" fill="#333"/><path d="m49.49,193.1l-.05-.23.16-.03.05.23-.16.03Zm-.14-.71l-.1-.47.16-.03.1.47-.16.03Zm-.19-.94l-.1-.47.16-.03.1.47-.16.03Zm-.19-.94l-.1-.47.16-.03.1.47-.16.03Zm-.19-.94l-.1-.47.16-.03.1.47-.16.03Zm-.19-.94l-.1-.47.16-.03.1.47-.16.03Zm-.19-.94l-.1-.47.16-.03.1.47-.16.03Zm-.19-.94l-.1-.47.16-.03.1.47-.16.03Zm-.19-.94l-.1-.47.16-.03.1.47-.16.03Zm-.19-.94l-.1-.47.16-.03.1.47-.16.03Zm-.19-.94l-.1-.47.16-.03.1.47-.16.03Zm-.19-.94l-.1-.47.16-.03.1.47-.16.03Zm-.19-.94l-.1-.47.16-.03.1.47-.16.03Zm-.19-.94l-.1-.47.16-.03.1.47-.16.03Zm-.19-.94l-.1-.47.16-.03.1.47-.16.03Zm-.19-.94l-.1-.47.16-.03.1.47-.16.03Zm-.19-.94l-.1-.47.16-.03.1.47-.16.03Z" fill="#333"/><path d="m49.1,136.63s4.32.16,8.99,6.83c4.67,6.67,10.53,13.49,10.53,13.49l-3.14,1.04s-10.81-4.42-14.94-9.08c-4.14-4.66-1.43-12.28-1.43-12.28Z" fill="#359545"/><path d="m61.8,197.01s-1.33.65-.89,2.03h2.94c-.06-.55-.38-1.03-.86-1.32-.47-.28-.85-.51-1.19-.71Z" fill="#92278f"/><path d="m48.68,195.11v2.07c2.69-.03,2.4-2.42,2.4-2.42-1.08-.07-1.72-.16-1.83-.18-.01,0-.02,0-.02,0h-.01c-.29,0-.53.24-.53.53Z" fill="#92278f"/><path d="m58.64,195.03c-.22-.14-.45-.29-.71-.45,0,0-.26.04-.71.08-.76.08-2.07.17-3.65.17-.13,0-.26,0-.39,0-.81,0-1.52-.04-2.09-.07,0,0,.3,2.39-2.4,2.42v1.86h12.23c-.45-1.38.89-2.03.89-2.03-.71-.43-1.24-.77-1.96-1.23-.34-.22-.73-.46-1.2-.76Z" fill="#4c144d"/><path d="m63.85,199.13h-15.17s-.08-.04-.08-.08.04-.08.08-.08h15.17s.08.04.08.08-.04.08-.08.08Z" fill="#fff"/><path d="m60.92,199.13s-.07-.02-.08-.06c-.46-1.43.91-2.12.93-2.13.04-.02.09,0,.11.04.02.04,0,.09-.04.11-.05.03-1.26.64-.84,1.93.01.04,0,.09-.05.1,0,0-.02,0-.02,0Z" fill="#fff"/><path d="m57.44,196.34s-.04,0-.06-.02c-.03-.03-.03-.08,0-.11l1.2-1.23s.08-.03.11,0c.03.03.03.08,0,.11l-1.2,1.23s-.04.02-.06.02Z" fill="#fff"/><path d="m58.04,196.75s-.04,0-.06-.02c-.03-.03-.03-.08,0-.11l1.2-1.23s.08-.03.11,0c.03.03.03.08,0,.11l-1.2,1.23s-.04.02-.06.02Z" fill="#fff"/><path d="m58.64,197.09s-.04,0-.06-.02c-.03-.03-.03-.08,0-.11l1.2-1.23s.08-.04.11-.02c.04.03.04.08.01.11h0s-1.2,1.24-1.2,1.24c-.02.02-.04.02-.06.02Z" fill="#fff"/><path d="m48.68,197.26s-.08-.04-.08-.08c0-.04.03-.08.08-.08.82-.01,1.44-.24,1.83-.7.59-.68.48-1.62.48-1.63,0-.04.03-.08.07-.09.04,0,.08.03.09.07,0,.04.12,1.03-.52,1.76-.43.49-1.08.74-1.95.75h0Z" fill="#fff"/><path d="m49.23,193.06v1.52s0,0,.02,0c.21.02,2.08.22,3.93.25.13,0,.26,0,.39,0,1.58,0,2.89-.1,3.65-.17.44-.05.69-.08.69-.08v-1.52h-8.68Z" fill="#fecad0"/><path d="m48.68,199.04v.07c0,.37.3.67.67.67h13.99c.15,0,.28-.06.37-.16.09-.1.15-.23.15-.37,0-.07,0-.14-.01-.21h-15.17Z" fill="#4c144d"/><path d="m62.82,174.96s0,0-.01,0c-.1.05-.22.1-.33.15-.82.37-1.94.79-3.36,1.2-.65.18-1.36.36-2.13.52-.04,0-.08.02-.12.02-.71.14-1.48.27-2.32.39-1.03.14-2.18.26-3.43.35-.78.05-1.59.09-2.46.12-.6.02-1.22.03-1.87.03-.51,0-1-.02-1.48-.04-1.62-.07-3.09-.23-4.41-.47-1.27-.23-2.4-.53-3.41-.9-3.17-1.18-5.06-3.08-5.86-5.65-.05-.17-.1-.35-.14-.53-.02-.09-.04-.19-.06-.28-.04-.2-.08-.4-.11-.61-.08-.56-.12-1.15-.12-1.76,0-6.48,2.5-11.73,10.24-12.03,4.02.12,11.14,1.22,11.14,9.67,0,9.19,4.31,10.03,4.31,10.03l5.92-.21Z" fill="#b24b9c"/><path d="m40.91,177.23v.06s-5.94,26.49-5.94,26.49h-.51l3.04-27.39v-.07c1.01.38,2.15.68,3.42.9Z" fill="#b24b9c"/><path d="m57.49,203.79h-.51l-5.85-26.15v-.04c1.24-.09,2.38-.21,3.42-.35v.02s2.95,26.51,2.95,26.51Z" fill="#b24b9c"/><path d="m48.66,177.72v.02s-5.62,25.08-5.62,25.08h-.51l2.79-25.1v-.02c.48.02.97.04,1.48.04.64,0,1.27,0,1.87-.03Z" fill="#4c144d"/><path d="m65.56,202.82h-.51l-5.93-26.48v-.02c1.42-.4,2.53-.83,3.35-1.2h.01s0,.02,0,.02l3.07,27.69Z" fill="#4c144d"/><path d="m64.27,174.17s-.47.33-1.45.79l-5.92.21s-.38-.08-.92-.43c-1.27-.82-3.39-3.16-3.39-9.61,0-7.97-6.33-9.4-10.42-9.63-.25-.01-.49-.03-.72-.03.23,0,.46-.01.7-.01,3.69,0,12.12.49,12.12,9.68s4.02,9.03,4.3,9.03h5.71Z" fill="#4c144d"/><path d="m84.77,198.86s-1.33.65-.89,2.03h2.94c-.06-.55-.38-1.03-.86-1.32-.47-.28-.85-.51-1.19-.71Z" fill="#92278f"/><path d="m71.65,196.95v2.07c2.69-.03,2.4-2.42,2.4-2.42-1.08-.07-1.72-.16-1.83-.18-.01,0-.02,0-.02,0h-.01c-.29,0-.53.24-.53.53Z" fill="#92278f"/><path d="m81.61,196.87c-.22-.14-.45-.29-.71-.45,0,0-.26.04-.71.08-.76.08-2.07.17-3.65.17-.13,0-.26,0-.39,0-.81,0-1.52-.04-2.09-.07,0,0,.3,2.39-2.4,2.42v1.86h12.23c-.45-1.38.89-2.03.89-2.03-.71-.43-1.24-.77-1.96-1.23-.34-.22-.73-.46-1.2-.76Z" fill="#4c144d"/><path d="m86.82,200.97h-15.17s-.08-.04-.08-.08.04-.08.08-.08h15.17s.08.04.08.08-.04.08-.08.08Z" fill="#fff"/><path d="m83.88,200.97s-.07-.02-.08-.06c-.46-1.43.91-2.12.93-2.13.04-.02.09,0,.11.04.02.04,0,.09-.04.11-.05.03-1.26.64-.84,1.93.01.04,0,.09-.05.1,0,0-.02,0-.02,0Z" fill="#fff"/><path d="m80.41,198.18s-.04,0-.06-.02c-.03-.03-.03-.08,0-.11l1.2-1.23s.08-.03.11,0c.03.03.03.08,0,.11l-1.2,1.23s-.04.02-.06.02Z" fill="#fff"/><path d="m81.01,198.59s-.04,0-.06-.02c-.03-.03-.03-.08,0-.11l1.2-1.23s.08-.03.11,0c.03.03.03.08,0,.11l-1.2,1.23s-.04.02-.06.02Z" fill="#fff"/><path d="m81.61,198.94s-.04,0-.06-.02c-.03-.03-.03-.08,0-.11l1.2-1.22s.08-.04.11-.01c.04.03.05.07.02.11h0s0,.01,0,.01l-1.2,1.23s-.04.02-.06.02Z" fill="#fff"/><path d="m71.65,199.1s-.08-.04-.08-.08c0-.04.03-.08.08-.08.82-.01,1.44-.24,1.83-.7.59-.68.48-1.62.48-1.63,0-.04.03-.08.07-.09.04,0,.08.03.09.07,0,.04.12,1.03-.52,1.76-.43.49-1.08.74-1.95.75h0Z" fill="#fff"/><path d="m72.19,194.9v1.52s0,0,.02,0c.21.02,2.08.22,3.93.25.13,0,.26,0,.39,0,1.58,0,2.89-.1,3.65-.17.44-.05.69-.08.69-.08v-1.52h-8.68Z" fill="#fecad0"/><path d="m71.65,200.89v.07c0,.37.3.67.67.67h13.99c.15,0,.28-.06.37-.16.09-.1.15-.23.15-.37,0-.07,0-.14-.01-.21h-15.17Z" fill="#4c144d"/><path d="m68.61,156.95s1.41-.26,2.47-.07c1.06.19.88,1.42.88,1.42h-5.61l-.45-.45,2.72-.9Z" fill="#fae0b2"/><polygon points="42.9 133.56 42.38 136.43 48.32 136.65 48.19 134.78 47.95 131.6 42.9 133.56" fill="#fae0b2"/><path d="m40.83,128.82c.05,3.16,1.97,6.12,5.13,6.07,3.16-.05,5.6.02,6.31-6.24.36-3.14-2.65-5.68-5.81-5.64-3.16.05-5.68,2.65-5.64,5.81Z" fill="#fae0b2"/><path d="m54.47,122.28c-.19-1.31-2.02-1.62-2.02-1.62.3-.75-.85-1.93-3.99-1.68-2.74.21-3.71,1.92-3.71,1.92-2.93-1.14-5.2,1.42-4.73,6.61.29,3.11,1.26,4.52,2.27,5.65.75.84,1.51,1.48,4.12,1.76,4.22.45,5.07-2.83,5.07-2.83,0,0-.35-.43-1-.21-1.74.59-1.3-1.51-1.03-2.3.33-.97.57-2.34.72-3.14.85.34,2.02.77,2.48.76,1.17-.03,2-3.61,1.81-4.92Z" fill="#1a1a1a"/><path d="m63.65,174.17h-5.08c-.28,0-4.3-.15-4.3-9.03s-8.43-9.68-12.12-9.68c0,0,11.49-.6,12.65,6.13,1.45,8.42-.11,12.41,8.85,12.58Z" mix-blend-mode="multiply" opacity=".4"/><polygon points="101.59 133.77 100.82 136.52 106.54 136.52 106.19 133.77 101.59 133.77" fill="#8c6239"/><path d="m159.37,159.93c.45,0,.81.36.81.81,0,.22-.09.43-.24.57s-.35.24-.57.24h-47.63c-.45,0-.81-.36-.81-.81,0-.22.09-.42.24-.57s.35-.24.57-.24h47.63Z" fill="#92278f"/><path d="m119.5,158.79h7.36c-.15,0-.3.06-.4.17-.1.1-.17.24-.17.4,0,.31.25.56.56.56h-15.14c-.31,0-.56-.25-.56-.56,0-.16.06-.3.17-.4s.24-.17.4-.17h7.78Z" fill="#d1d1d1"/><path d="m136.78,158.79c.31,0,.56.25.56.56,0,.16-.06.3-.17.4-.1.1-.24.17-.4.17h-9.92c-.31,0-.56-.25-.56-.56,0-.16.06-.3.17-.4.1-.1.24-.17.4-.17h9.92Z" fill="#9e9e9e"/><path d="m126.86,158.79h-7.36c-.81,0-1.41-.74-1.25-1.54l2.35-11.24c.12-.59.64-1.01,1.25-1.01h17.08c.81,0,1.42.74,1.25,1.54l-2.35,11.24c-.12.59-.64,1.02-1.25,1.02h-9.72Zm-7.36-.48h17.08c.37,0,.7-.27.78-.63l2.35-11.24c.05-.24,0-.48-.16-.66-.15-.19-.38-.29-.62-.29h-17.08c-.37,0-.7.27-.78.63l-2.35,11.24c-.05.24,0,.48.16.66.15.19.38.29.62.29Z" fill="#d1d1d1"/><path d="m139.54,145.77c.15.19.21.43.16.66l-2.35,11.24c-.08.37-.4.63-.78.63h-17.08c-.24,0-.46-.11-.62-.29-.15-.19-.21-.43-.16-.66l2.35-11.24c.08-.37.4-.63.78-.63h17.08c.24,0,.47.11.62.29Z" fill="#f4f4f4"/><polygon points="117.66 193.08 107.53 193.08 104.34 177.7 113.92 176.99 117.66 193.08" fill="#92278f"/><path d="m140.62,194.93h-10.13l-7.19-20.76s-3.08,1.78-9.49,2.84l-9.37.53c-13.99.54-12.65-13.94-12.65-13.94h24.14l9.73,2.79c2.23.64,4.04,2.26,4.93,4.4l10.03,24.15Z" fill="#92278f"/><path d="m139.36,194.96l-.19-.44.15-.06.19.44-.15.06Zm-.37-.89l-.19-.44.15-.06.19.44-.15.06Zm-.37-.89l-.19-.44.15-.06.19.44-.15.06Zm-.37-.89l-.19-.44.15-.06.19.44-.15.06Zm-.37-.89l-.19-.44.15-.06.19.44-.15.06Zm-.37-.89l-.19-.44.15-.06.19.44-.15.06Zm-.37-.89l-.19-.44.15-.06.19.44-.15.06Zm-.37-.89l-.19-.44.15-.06.19.44-.15.06Zm-.37-.89l-.19-.44.15-.06.19.44-.15.06Zm-.37-.89l-.19-.44.15-.06.19.44-.15.06Zm-.37-.89l-.19-.44.15-.06.19.44-.15.06Zm-.37-.89l-.19-.44.15-.06.19.44-.15.06Zm-.37-.89l-.19-.44.15-.06.19.44-.15.06Zm-.37-.89l-.19-.44.15-.06.19.44-.15.06Zm-.37-.89l-.19-.44.15-.06.19.44-.15.06Zm-.37-.89l-.19-.44.15-.06.19.44-.15.06Zm-.37-.89l-.19-.44.15-.06.19.44-.15.06Zm-.37-.89l-.19-.44.15-.06.19.44-.15.06Zm-.37-.89l-.19-.44.15-.06.19.44-.15.06Zm-.37-.89l-.19-.44.15-.06.19.44-.15.06Zm-.37-.89l-.19-.44.15-.06.19.44-.15.06Zm-.37-.89l-.19-.44.15-.06.19.44-.15.06Zm-.37-.89l-.19-.44.15-.06.19.44-.15.06Zm-.37-.89l-.19-.44.15-.06.19.44-.15.06Zm-.37-.89l-.19-.44.15-.06.19.44-.15.06Zm-.37-.89l-.19-.44.15-.06.19.44-.15.06Zm-.37-.89l-.19-.44.15-.06.19.44-.15.06Zm-.37-.89c-.06-.15-.13-.29-.21-.43l.14-.07c.07.14.15.29.21.44l-.15.06Zm-.44-.84c-.08-.13-.17-.27-.26-.4l.13-.09c.09.13.19.27.27.4l-.14.08Zm-.56-.77c-.1-.12-.21-.24-.32-.35l.12-.11c.11.12.22.24.33.36l-.12.1Zm-.66-.68c-.12-.11-.24-.21-.36-.31l.1-.13c.13.1.25.2.37.31l-.11.12Zm-.75-.58c-.13-.09-.27-.17-.4-.25l.08-.14c.14.08.28.17.41.26l-.09.13Zm-.83-.47c-.14-.07-.29-.13-.44-.19l.06-.15c.15.06.3.13.45.2l-.07.14Zm-.88-.35c-.06-.02-.13-.04-.19-.06l-.27-.08.04-.15.27.08c.07.02.13.04.19.06l-.05.15Zm-.92-.27l-.46-.13.04-.15.46.13-.04.15Zm-.93-.27l-.46-.13.04-.15.46.13-.04.15Zm-.93-.27l-.46-.13.04-.15.46.13-.04.15Zm-.93-.27l-.46-.13.04-.15.46.13-.04.15Zm-.93-.27l-.46-.13.04-.15.46.13-.04.15Zm-.93-.27l-.46-.13.04-.15.46.13-.04.15Zm-.93-.27l-.46-.13.04-.15.46.13-.04.15Zm-.93-.27l-.46-.13.04-.15.46.13-.04.15Zm-.93-.27l-.46-.13.04-.15.46.13-.04.15Zm-.93-.27l-.46-.13.04-.15.46.13-.04.15Zm-.91-.19h-.48v-.16h.48v.16Zm-.96,0h-.48v-.16h.48v.16Zm-.96,0h-.48v-.16h.48v.16Zm-.96,0h-.48v-.16h.48v.16Z" fill="#333"/><path d="m115.93,149.65l1.18,12.78c.06.62-.43,1.16-1.06,1.16h-24.3c-.62,0-1.11-.53-1.06-1.15l1.1-12.79v-3.4c0-4.78,3.37-8.83,7.88-9.73.01,0,.02,0,.04,0,1.11-.18,1.86-.18,1.86-.18h2.56s2.38,0,4.9.43c4.02,1.24,6.92,5.06,6.92,9.49v3.4Z" fill="#48c902"/><path d="m91.79,146.25v3.4c-1.56-3.04-1.93-6.95,1.01-9.87,2.15-2.14,5.01-2.96,6.87-3.26-4.51.9-7.88,4.95-7.88,9.73Z" fill="#359545"/><path d="m140.03,193.69h-.38v-.16h.38v.16Zm-.86,0h-.48v-.16h.48v.16Zm-.96,0h-.48v-.16h.48v.16Zm-.96,0h-.48v-.16h.48v.16Zm-.96,0h-.48v-.16h.48v.16Zm-.96,0h-.48v-.16h.48v.16Zm-.96,0h-.48v-.16h.48v.16Zm-.96,0h-.48v-.16h.48v.16Zm-.96,0h-.48v-.16h.48v.16Zm-.96,0h-.48v-.16h.48v.16Zm-.96,0h-.48v-.16h.48v.16Z" fill="#333"/><path d="m117.34,192.09h-.38v-.16h.38v.16Zm-.86,0h-.48v-.16h.48v.16Zm-.96,0h-.48v-.16h.48v.16Zm-.96,0h-.48v-.16h.48v.16Zm-.96,0h-.48v-.16h.48v.16Zm-.96,0h-.48v-.16h.48v.16Zm-.96,0h-.48v-.16h.48v.16Zm-.96,0h-.48v-.16h.48v.16Zm-.96,0h-.48v-.16h.48v.16Zm-.96,0h-.48v-.16h.48v.16Zm-.96,0h-.48v-.16h.48v.16Z" fill="#333"/><path d="m108.52,193.1l-.05-.23.16-.03.05.23-.16.03Zm-.14-.71l-.1-.47.16-.03.1.47-.16.03Zm-.19-.94l-.1-.47.16-.03.1.47-.16.03Zm-.19-.94l-.1-.47.16-.03.1.47-.16.03Zm-.19-.94l-.1-.47.16-.03.1.47-.16.03Zm-.19-.94l-.1-.47.16-.03.1.47-.16.03Zm-.19-.94l-.1-.47.16-.03.1.47-.16.03Zm-.19-.94l-.1-.47.16-.03.1.47-.16.03Zm-.19-.94l-.1-.47.16-.03.1.47-.16.03Zm-.19-.94l-.1-.47.16-.03.1.47-.16.03Zm-.19-.94l-.1-.47.16-.03.1.47-.16.03Zm-.19-.94l-.1-.47.16-.03.1.47-.16.03Zm-.19-.94l-.1-.47.16-.03.1.47-.16.03Zm-.19-.94l-.1-.47.16-.03.1.47-.16.03Zm-.19-.94l-.1-.47.16-.03.1.47-.16.03Zm-.19-.94l-.1-.47.16-.03.1.47-.16.03Zm-.19-.94l-.1-.47.16-.03.1.47-.16.03Z" fill="#333"/><path d="m120.83,197.01s-1.33.65-.89,2.03h2.94c-.06-.55-.38-1.03-.86-1.32-.47-.28-.85-.51-1.19-.71Z" fill="#e8fde6"/><path d="m107.71,195.11v2.07c2.69-.03,2.4-2.42,2.4-2.42-1.08-.07-1.72-.16-1.83-.18-.01,0-.02,0-.02,0h-.01c-.29,0-.53.24-.53.53Z" fill="#e8fde6"/><path d="m117.67,195.03c-.22-.14-.45-.29-.71-.45,0,0-.26.04-.71.08-.76.08-2.07.17-3.65.17-.13,0-.26,0-.39,0-.81,0-1.52-.04-2.09-.07,0,0,.3,2.39-2.4,2.42v1.86h12.23c-.45-1.38.89-2.03.89-2.03-.71-.43-1.24-.77-1.96-1.23-.34-.22-.73-.46-1.2-.76Z" fill="#17511a"/><path d="m122.88,199.13h-15.17s-.08-.04-.08-.08.04-.08.08-.08h15.17s.08.04.08.08-.04.08-.08.08Z" fill="#fff"/><path d="m119.95,199.13s-.07-.02-.08-.06c-.46-1.43.91-2.12.93-2.13.04-.02.09,0,.11.04.02.04,0,.09-.04.11-.05.03-1.26.64-.84,1.93.01.04,0,.09-.05.1,0,0-.02,0-.02,0Z" fill="#fff"/><path d="m116.47,196.34s-.04,0-.06-.02c-.03-.03-.03-.08,0-.11l1.2-1.23s.08-.03.11,0c.03.03.03.08,0,.11l-1.2,1.23s-.04.02-.06.02Z" fill="#fff"/><path d="m117.07,196.75s-.04,0-.06-.02c-.03-.03-.03-.08,0-.11l1.2-1.23s.08-.03.11,0c.03.03.03.08,0,.11l-1.2,1.23s-.04.02-.06.02Z" fill="#fff"/><path d="m117.67,197.09s-.04,0-.06-.02c-.03-.03-.03-.08,0-.11l1.2-1.23s.08-.04.11-.02c.04.03.04.08.01.11h0s-1.2,1.24-1.2,1.24c-.02.02-.04.02-.06.02Z" fill="#fff"/><path d="m107.71,197.26s-.08-.04-.08-.08c0-.04.03-.08.08-.08.82-.01,1.44-.24,1.83-.7.59-.68.48-1.62.48-1.63,0-.04.03-.08.07-.09.04,0,.08.03.09.07,0,.04.12,1.03-.52,1.76-.43.49-1.08.74-1.95.75h0Z" fill="#fff"/><path d="m108.25,193.06v1.52s0,0,.02,0c.21.02,2.08.22,3.93.25.13,0,.26,0,.39,0,1.58,0,2.89-.1,3.65-.17.44-.05.69-.08.69-.08v-1.52h-8.68Z" fill="#8c6239"/><path d="m107.71,199.04v.07c0,.37.3.67.67.67h13.99c.15,0,.28-.06.37-.16.09-.1.15-.23.15-.37,0-.07,0-.14-.01-.21h-15.17Z" fill="#17511a"/><path d="m121.85,174.96s0,0-.01,0c-.1.05-.21.1-.33.15-.82.37-1.94.79-3.36,1.2-.65.18-1.36.36-2.13.52-.04,0-.08.02-.12.02-.71.14-1.48.27-2.32.39-1.03.14-2.18.26-3.43.35-.78.05-1.59.09-2.46.12-.6.02-1.22.03-1.87.03-.51,0-1-.02-1.48-.04-1.62-.07-3.09-.23-4.41-.47-1.27-.23-2.4-.53-3.41-.9-3.17-1.18-5.06-3.08-5.86-5.65-.05-.17-.1-.35-.14-.53-.02-.09-.04-.19-.06-.28-.04-.2-.08-.4-.11-.61-.08-.56-.12-1.15-.12-1.76,0-6.48,2.5-11.73,10.24-12.03,4.02.12,11.14,1.22,11.14,9.67,0,9.19,4.31,10.03,4.31,10.03l5.92-.21Z" fill="#b24b9c"/><path d="m99.94,177.23v.06s-5.94,26.49-5.94,26.49h-.51l3.04-27.39v-.07c1.01.38,2.15.68,3.42.9Z" fill="#b24b9c"/><path d="m116.51,203.79h-.51l-5.85-26.15v-.04c1.24-.09,2.38-.21,3.42-.35v.02s2.95,26.51,2.95,26.51Z" fill="#b24b9c"/><path d="m107.69,177.72v.02s-5.62,25.08-5.62,25.08h-.51l2.79-25.1v-.02c.48.02.97.04,1.48.04.64,0,1.27,0,1.87-.03Z" fill="#92278f"/><path d="m124.59,202.82h-.51l-5.93-26.48v-.02c1.42-.4,2.53-.83,3.35-1.2h.01s0,.02,0,.02l3.07,27.69Z" fill="#92278f"/><path d="m123.3,174.17s-.47.33-1.45.79l-5.92.21s-.38-.08-.92-.43c-1.27-.82-3.39-3.16-3.39-9.61,0-7.97-6.33-9.4-10.42-9.63-.25-.01-.49-.03-.72-.03.23,0,.46-.01.7-.01,3.69,0,12.12.49,12.12,9.68s4.02,9.03,4.3,9.03h5.71Z" fill="#4c144d"/><path d="m143.8,198.86s-1.33.65-.89,2.03h2.94c-.06-.55-.38-1.03-.86-1.32-.47-.28-.85-.51-1.19-.71Z" fill="#e8fde6"/><path d="m130.68,196.95v2.07c2.69-.03,2.4-2.42,2.4-2.42-1.08-.07-1.72-.16-1.83-.18-.01,0-.02,0-.02,0h-.01c-.29,0-.53.24-.53.53Z" fill="#e8fde6"/><path d="m140.64,196.87c-.22-.14-.45-.29-.71-.45,0,0-.26.04-.71.08-.76.08-2.07.17-3.65.17-.13,0-.26,0-.39,0-.81,0-1.52-.04-2.09-.07,0,0,.3,2.39-2.4,2.42v1.86h12.23c-.45-1.38.89-2.03.89-2.03-.71-.43-1.24-.77-1.96-1.23-.34-.22-.73-.46-1.2-.76Z" fill="#17511a"/><path d="m145.85,200.97h-15.17s-.08-.04-.08-.08.04-.08.08-.08h15.17s.08.04.08.08-.04.08-.08.08Z" fill="#fff"/><path d="m142.91,200.97s-.07-.02-.08-.06c-.46-1.43.91-2.12.93-2.13.04-.02.09,0,.11.04.02.04,0,.09-.04.11-.05.03-1.26.64-.84,1.93.01.04,0,.09-.05.1,0,0-.02,0-.02,0Z" fill="#fff"/><path d="m139.43,198.18s-.04,0-.06-.02c-.03-.03-.03-.08,0-.11l1.2-1.23s.08-.03.11,0c.03.03.03.08,0,.11l-1.2,1.23s-.04.02-.06.02Z" fill="#fff"/><path d="m140.03,198.59s-.04,0-.06-.02c-.03-.03-.03-.08,0-.11l1.2-1.23s.08-.03.11,0c.03.03.03.08,0,.11l-1.2,1.23s-.04.02-.06.02Z" fill="#fff"/><path d="m140.64,198.94s-.04,0-.06-.02c-.03-.03-.03-.08,0-.11l1.2-1.23s.08-.04.11-.02c.04.03.04.08.02.11h0s-1.2,1.24-1.2,1.24c-.02.02-.04.02-.06.02Z" fill="#fff"/><path d="m130.68,199.1s-.08-.04-.08-.08c0-.04.03-.08.08-.08.82-.01,1.44-.25,1.83-.7.59-.68.48-1.62.48-1.63,0-.04.03-.08.07-.09.04,0,.08.03.09.07,0,.04.12,1.03-.52,1.76-.43.49-1.08.74-1.95.75h0Z" fill="#fff"/><path d="m131.22,194.9v1.52s0,0,.02,0c.21.02,2.08.22,3.93.25.13,0,.26,0,.39,0,1.58,0,2.89-.1,3.65-.17.44-.05.69-.08.69-.08v-1.52h-8.68Z" fill="#8c6239"/><path d="m130.68,200.89v.07c0,.37.3.67.67.67h13.99c.15,0,.28-.06.37-.16.09-.1.15-.23.15-.37,0-.07,0-.14-.01-.21h-15.17Z" fill="#17511a"/><path d="m109.47,131.9c-.16.37-.36.72-.59,1.04-.54.75-1.25,1.34-2.05,1.73h0c-1.44.71-3.16.81-4.75.12,0,0,0,0,0,0-.04-.02-.09-.04-.13-.06,0,0,0,0,0,0-.56-.26-1.05-.6-1.47-1-1.67-1.58-2.25-4.1-1.28-6.32.05-.11.1-.22.16-.32.02-.05.05-.09.07-.13.05-.1.11-.2.17-.29.03-.05.06-.09.09-.14.09-.14.19-.27.29-.39.03-.04.07-.08.1-.13.04-.04.07-.08.11-.12.08-.09.15-.17.23-.25.04-.03.07-.07.1-.1.04-.03.08-.07.12-.11.04-.03.08-.07.12-.1.14-.11.28-.22.42-.32t0,0c.07-.05.15-.1.22-.14.14-.09.28-.16.42-.23.03-.02.06-.03.09-.04.06-.03.13-.06.2-.09.07-.03.15-.06.22-.09.01,0,.02-.01.03-.01.11-.04.22-.08.33-.11.04-.01.08-.02.11-.03.06-.02.12-.04.18-.05.01,0,.02,0,.03,0,.05-.01.11-.03.16-.04.07-.02.14-.03.21-.04.04,0,.08-.01.11-.02.04,0,.09-.01.14-.02.06,0,.13-.02.19-.02.09,0,.17-.01.26-.02.05,0,.1,0,.15,0,.02,0,.04,0,.07,0,.06,0,.13,0,.19,0,.07,0,.14,0,.22,0,.63.04,1.27.19,1.88.46,0,0,0,0,0,0,.59.26,1.11.61,1.56,1.02.11.1.21.2.31.31.5.55.89,1.19,1.14,1.88.48,1.31.47,2.8-.13,4.18Z" fill="#8c6239"/><path d="m110.01,122.32s.62-1.59-.99-1.97c-1.57-.37-1.48,1.7-1.48,1.8-.04-.07-.8-1.5-4.05-1.19-3.34.32-3.53,2.38-3.53,2.38,0,0-2.63-.58-3.19,2.28-.56,2.86.04,4.98,1.06,4.88,0,0-.49,3.07.87,3.56,1.35.5,2.17.01,2.17.01,0,0,.76.63,1.94.98,1.37.4,3.56.33,5.15-1.05,0,0,0,0,0,0,.01-.01.03-.02.04-.04.37-.33.71-.74,1-1.22.03-.05.06-.09.09-.14,0,0-.01.02-.02.03.02-.03.03-.05.03-.05-.01.02-.02.04-.04.06-.03.04-.06.08-.1.12-.17.17-.54.4-1.27.31-.98-.3-.91-.59-.97-1.36-.06-.76.08-4.25.08-4.25.08-.65.15-1.05.15-1.05,0,0,1.24,1.75,2.63,1.31.71-.29.67-.99.67-.99,0,0,2.07.74,3-1,.93-1.73-1.06-4.58-3.25-3.42Zm-3.57,7.23c.25.87-.06,1.62-.2,1.9-.71.03-1.46-.23-.96-1.35.38-.85.88-1.01,1.16-.55Z" fill="#1a1a1a"/><path d="m108.12,136.63s4.32.16,8.99,6.83c4.67,6.67,10.53,13.49,10.53,13.49l-3.14,1.04s-6.53-1.95-10.67-6.62c-4.14-4.66-5.7-14.75-5.7-14.75Z" fill="#359545"/><path d="m127.64,156.95s1.41-.26,2.47-.07c1.06.19.88,1.42.88,1.42h-5.61l-.45-.45,2.72-.9Z" fill="#8c6239"/><path d="m122.68,174.17h-5.08c-.28,0-4.3-.15-4.3-9.03s-8.43-9.68-12.12-9.68c0,0,11.49-.6,12.65,6.13,1.45,8.42-.11,12.41,8.85,12.58Z" mix-blend-mode="multiply" opacity=".4"/></g></g></svg>