<?xml version="1.0" encoding="UTF-8"?>
<svg id="Layer_8" data-name="Layer 8" xmlns="http://www.w3.org/2000/svg" viewBox="0 0 128 128.5">
  <defs>
    <style>
      .cls-1 {
        fill: #fff;
        fill-rule: evenodd;
      }
    </style>
  </defs>
  <path class="cls-1" d="m78.26.25c8.35,0,16.24,3.33,21.44,9.03l22.31,24.47c3.88,4.25,5.99,9.53,5.99,14.97v55.53c0,13.25-12.28,24-27.43,24H27.43c-15.15,0-27.43-10.75-27.43-24V24.25C0,11,12.28.25,27.43.25h50.83Zm-14.26,44c-2.52,0-4.57,1.79-4.57,4v16h-18.29c-2.52,0-4.57,1.79-4.57,4s2.05,4,4.57,4h18.29v16c0,2.21,2.05,4,4.57,4s4.57-1.79,4.57-4v-16h18.29c2.52,0,4.57-1.79,4.57-4s-2.05-4-4.57-4h-18.29v-16c0-2.21-2.05-4-4.57-4Z"/>
</svg>