<?xml version="1.0" encoding="UTF-8"?>
<svg id="Layer_4" data-name="Layer 4" xmlns="http://www.w3.org/2000/svg" viewBox="0 0 32 32">
  <defs>
    <style>
      .cls-1 {
        fill: #fff;
      }
    </style>
  </defs>
  <g id="g7606">
    <path id="path545412" class="cls-1" d="m13.99,0c-1.43,0-2.6,1.02-2.6,2.27v1.62c0,.28.26.51.59.51h8.04c.33,0,.59-.23.59-.51v-1.62c0-1.25-1.17-2.27-2.6-2.27h-4.02Z"/>
    <path id="path116537" class="cls-1" d="m13.92,0c-.99.02-1.85.53-2.26,1.27.35-.15.73-.23,1.14-.23h4.02c1.43,0,2.6,1.02,2.6,2.27v1.1h.59c.32,0,.59-.23.59-.51v-1.62C20.61,1.02,19.44,0,18.01,0h-4.02s-.04,0-.07,0h0Z"/>
    <path id="path545604" class="cls-1" d="m1.26,2.34c-.69,0-1.26.5-1.26,1.1v.59c0,.92.87,1.68,1.93,1.68h28.14c1.06,0,1.93-.76,1.93-1.68v-.59c0-.6-.57-1.1-1.26-1.1H1.26Z"/>
    <path class="cls-1" d="m28.19,7.01s-.04,0-.06,0h0s-24.26,0-24.26,0c-.33,0-.59.23-.59.52,0,.02,0,.03,0,.05l2.25,22.5s0,0,0,0c.12,1.09,1.17,1.92,2.42,1.92h16.08c1.25,0,2.32-.83,2.43-1.92l2.26-22.51c.03-.28-.21-.54-.53-.56ZM11.87,28.56c0,.6-.57,1.1-1.26,1.1h-.67c-1.06,0-1.95-.72-2.04-1.64l-1.18-15.2c-.05-.61.51-1.14,1.2-1.14h2.68c.69,0,1.26.5,1.26,1.1v15.77Zm6.77-.59c0,.92-.87,1.69-1.93,1.69h-1.38c-1.06,0-1.93-.76-1.93-1.69v-14.61c0-.92.87-1.68,1.93-1.68h1.38c1.06,0,1.93.76,1.93,1.68v14.61Zm5.45.04h0c-.08.93-.97,1.65-2.03,1.65h-.67c-.69,0-1.26-.5-1.26-1.1v-15.77c0-.6.57-1.1,1.26-1.1h2.68c.7,0,1.26.53,1.21,1.14l-1.18,15.19Zm1.21-18.15c0,.29-.26.52-.59.52H7.29c-.33,0-.59-.23-.59-.52h0c0-.29.27-.52.59-.51h17.42c.33,0,.59.23.59.51h0Z"/>
    <path id="path134484" class="cls-1" d="m1.26,2.34C.6,2.34.05,2.8,0,3.37c.02,0,.05,0,.07,0h29.48c.69,0,1.26.5,1.26,1.1v.59c0,.19-.04.38-.11.56.75-.23,1.29-.86,1.29-1.59v-.59c0-.6-.57-1.1-1.26-1.1H1.26Z"/>
  </g>
</svg>