<?xml version="1.0" encoding="UTF-8"?>
<svg id="Layer_7" data-name="Layer 7" xmlns="http://www.w3.org/2000/svg" viewBox="0 0 128 128.5">
  <defs>
    <style>
      .cls-1 {
        fill: #fff;
      }
    </style>
  </defs>
  <path class="cls-1" d="m126.2,14l-11.52-12.08c-1.31-1.37-2.62-1.92-4.19-1.92s-3.14.55-4.19,1.92l-9.16,9.61,19.89,20.87,9.16-9.61c2.36-2.2,2.36-6.32,0-8.79Z"/>
  <polygon class="cls-1" points="37.46 73.86 57.62 94.73 112.59 37.07 92.69 16.2 37.46 73.86"/>
  <polygon class="cls-1" points="33.28 78.25 29.09 103.79 53.17 99.4 33.28 78.25"/>
  <path class="cls-1" d="m88.51,115.05H13.12V35.97h53.14l13.09-13.73H8.41C3.7,22.24.03,26.36.03,31.03v88.69c0,4.94,3.93,8.79,8.38,8.79h84.55c4.71,0,8.38-4.12,8.38-8.79v-63.43l-13.09,13.73v45.03h.26Z"/>
</svg>