<?xml version="1.0" encoding="UTF-8"?>
<svg id="Layer_10" data-name="Layer 10" xmlns="http://www.w3.org/2000/svg" viewBox="0 0 128 128.5">
  <defs>
    <style>
      .cls-1, .cls-2 {
        fill: #fff;
      }

      .cls-2 {
        isolation: isolate;
        opacity: .6;
      }
    </style>
  </defs>
  <path class="cls-1" d="m98.52.25H29.48C13.2.25,0,13.71,0,30.31v67.87c0,16.6,13.2,30.06,29.48,30.06h69.05c16.28,0,29.48-13.46,29.48-30.06V30.31C128,13.71,114.8.25,98.52.25Zm6.27,86.81v.02c0,2.29-1.82,4.15-4.06,4.15h-26.86l-6.95,7.07s-.01.01-.02.02c-1.59,1.61-4.17,1.61-5.75-.02l-6.95-7.07h-26.86c-2.25-.01-4.06-1.87-4.06-4.16v-53.94s0-.01,0-.02c0-2.3,1.85-4.16,4.1-4.15h28.49c1.08,0,2.11.44,2.87,1.22l5.26,5.37,5.26-5.37c.76-.78,1.79-1.22,2.87-1.22h28.49s.08,0,.13,0c2.24.01,4.06,1.88,4.05,4.17v53.94Z"/>
  <path class="cls-1" d="m31.44,37.25v45.66h24.43c1.08,0,2.11.44,2.87,1.22l1.2,1.21v-42.23l-5.77-5.86h-22.72Z"/>
  <path class="cls-2" d="m31.44,37.25v45.66h24.43c1.08,0,2.11.44,2.87,1.22l1.2,1.21v-42.23l-5.77-5.86h-22.72Z"/>
  <path class="cls-1" d="m68.06,43.14v42.21l1.2-1.21c.76-.78,1.79-1.22,2.87-1.22h24.41l.02-45.64h-22.72l-5.77,5.86Z"/>
  <polygon class="cls-1" points="96.56 82.92 96.56 37.27 96.54 82.92 96.56 82.92"/>
  <polygon class="cls-2" points="96.56 82.92 96.56 37.27 96.54 82.92 96.56 82.92"/>
</svg>